<svg width="868" height="611" viewBox="0 0 868 611" fill="none" xmlns="http://www.w3.org/2000/svg">
<g clip-path="url(#clip0_28_2)">
<path d="M868 -0.000732422H0.00219727V610.999H868V-0.000732422Z" fill="#49B4E5"/>
<path opacity="0.5" d="M761.157 132.742C732.21 132.891 703.189 132.778 674.338 130.711C660.002 129.684 645.595 128.457 631.579 125.795C606.75 121.083 582.23 115.123 558.084 108.614C530.033 101.057 501.53 92.8554 475.787 81.1344C465.29 76.3541 439.746 65.0798 447.002 52.5018C451.369 44.9334 463.435 41.4847 473.039 40.4278C492.703 38.2654 513.417 41.5264 532.754 44.1894C555.858 47.3704 579.098 49.9743 602.281 52.8129C618.197 54.7615 634.148 56.6232 650.172 57.9495C665.648 59.2288 681.183 59.8198 696.664 61.1009C753.531 65.8064 810.752 73.8024 868 70.6492V52.2271C825.36 54.1966 782.924 55.064 740.2 53.3726C673.207 50.7183 608.261 36.8626 542.253 28.6615C508.484 24.4671 474.292 21.7137 440.075 22.8419C406.198 23.9648 372.675 28.1435 339.527 33.6208C274.647 44.3441 210.428 59.6756 143.969 63.1434C95.8404 65.6604 47.8727 62.8913 0 59.1471V75.9231C20.899 82.8222 44.5063 83.7661 66.8985 83.0308C92.9003 82.1791 118.637 79.0554 144.389 76.3229C171.319 73.4669 198.297 71.2854 225.189 68.1339C255.1 64.6279 285.332 61.16 315.657 61.7076C374.906 62.7783 429.799 83.521 482.361 103.226C535.354 123.098 589.301 143.772 648.245 149.589C715.071 156.182 782.414 152.759 849.524 152.314C855.707 152.274 861.859 152.293 867.998 152.417V133.206C832.449 131.784 796.677 132.554 761.157 132.742Z" fill="#ACEBFF"/>
<path opacity="0.5" d="M145.69 202.275C159.626 198.321 176.534 193.65 186.492 185.327C190.103 182.308 192.617 178.3 189.71 174.506C186.258 170.006 179.368 166.812 172.641 165.184C154.409 160.774 133.631 161.985 114.764 163.133C96.5625 164.242 78.1397 166.599 59.834 166.412C40.183 166.215 19.9776 164.965 0.611616 162.651C0.412809 162.626 0.209584 162.601 0.00415039 162.576V223.965C9.60874 223.623 19.1868 223.065 28.703 222.309C68.5064 219.145 108.44 212.844 145.69 202.275Z" fill="#ACEBFF"/>
<path opacity="0.5" d="M610.333 222.245C621.645 215.702 637.143 214.262 650.715 213.307C668.904 212.03 687.194 212.19 705.418 211.366C760.604 208.867 814.349 198.311 868.881 191.975V178.444C839.842 180.278 810.905 183.072 782.124 186.617C754.19 190.059 726.469 194.872 698.334 197.234C626.162 203.289 553.94 196.804 481.809 193.842C446.03 192.372 409.637 191.198 373.949 194.264C340.936 197.098 308.634 203.38 277.126 211.553C246.684 219.449 216.923 228.837 186.938 237.717C157.439 246.451 127.698 255.191 96.651 259.805C65.2129 264.48 33.0614 266.517 0.883435 266.484V289.625C1.94816 289.676 3.01509 289.723 4.07539 289.775C20.9607 290.596 37.8129 291.862 54.7182 292.494C66.0833 292.918 77.1612 293.064 88.2458 290.887C102.427 288.099 116.392 284.649 130.501 281.642C146.567 278.217 163.048 274.641 179.706 273.608C188.08 273.086 198.849 272.598 202.706 279.712C208.979 291.266 194.49 303.291 184.74 310.377C164.928 324.785 141.062 335.819 117.535 345.979C88.5595 358.497 58.6214 369.625 28.3078 379.97C19.209 383.074 10.0573 386.09 0.881226 389.056V419.004C45.3963 415.342 86.2379 397.358 121.65 376.61C161.705 353.137 197.108 325.175 231.754 296.971C246.836 284.689 261.765 272.272 277.241 260.287C295.944 245.794 316.925 233.853 341.142 225.701C365.164 217.61 390.797 212.847 416.781 210.917C442.46 209.008 470.304 208.16 495.471 213.392C541.634 222.994 574.998 251.045 607.265 277.047C623.582 290.195 640.028 303.477 659.288 313.981C677.662 324.006 697.569 332.237 718.141 339.09C764.013 354.372 813.357 363.854 862.888 367.698C864.881 367.851 866.88 367.991 868.881 368.128V342.152C862.643 341.779 856.392 341.443 850.127 341.22C828.254 340.44 806.288 339.86 784.596 337.364C734.216 331.566 684.114 314.194 645.082 288.302C628.55 277.334 611.663 263.756 603.918 247.489C599.608 238.426 599.644 228.427 610.333 222.245Z" fill="#ACEBFF"/>
<path opacity="0.5" d="M665.892 472.323C640.721 464.655 618.059 453.783 595.283 441.601C571.532 428.903 547.083 417.11 521.512 407.678C471.565 389.255 417.306 379.985 363.312 383.655C276.941 389.527 205.772 437.989 136.318 480.07C102.119 500.795 67.0114 521.093 28.5753 534.833C19.1871 538.19 9.64879 541.08 0 543.482V577.118C12.6707 572.595 25.2 567.701 37.8419 563.386C65.5888 553.914 92.5405 542.331 117.383 527.617C164.354 499.8 202.631 456.846 258.028 441.837C286.183 434.209 315.598 435.811 344.052 441.393C374.675 447.402 404.282 457.297 432.981 468.555C461.37 479.686 486.513 495.968 512.671 510.664C540.003 526.023 568.574 538.875 600.31 544.722C667.001 557.011 736.261 548.454 802.586 538.531C824.408 535.265 846.182 531.681 868 528.378V478.128C801.996 493.623 730.242 491.919 665.892 472.323ZM660.151 518.17C657.657 521.556 653.175 523.176 648.93 524.013C640.266 525.721 631.086 525.578 622.292 524.976C597.505 523.278 573.712 515.509 551.446 505.861C527.107 495.319 504.103 482.527 481.247 469.606C471.428 464.052 461.702 457.739 451.3 453.11C443.184 449.5 435.022 445.94 427.25 441.747C416.736 436.069 397.058 425.289 402.753 411.654C408.874 397 431.995 398.433 445.53 400.566C448.821 401.086 452.097 401.729 455.362 402.428C461.216 402.672 467.05 403.565 472.735 404.822C494.191 409.566 514.481 418.271 534.07 427.325C551.216 435.246 568.269 443.369 585.316 451.446C596.957 456.962 608.008 463.652 618.623 470.635C630.527 478.462 642.559 486.855 652.141 497.033C656.776 501.956 665.216 511.293 660.151 518.17Z" fill="#ACEBFF"/>
<path d="M242.781 32.8589C237.656 33.8152 237.751 36.0854 239.803 37.7476C240.02 37.9762 240.252 38.1814 240.481 38.3462C241.482 39.0771 244.356 40.1935 247.289 39.8514C250.598 39.4642 252.324 38.5173 253.092 37.4972C254.382 35.7946 251.018 31.3195 242.781 32.8589Z" fill="white"/>
<path d="M59.5184 330.497C51.1619 332.059 51.3165 335.761 54.6653 338.468C55.0143 338.843 55.3987 339.179 55.7698 339.446C57.4 340.636 62.0852 342.458 66.8743 341.9C72.2663 341.268 75.085 339.724 76.3397 338.062C78.4426 335.285 72.9533 327.988 59.5184 330.497Z" fill="white"/>
<path d="M96.3242 306.749C88.447 308.22 88.5884 311.709 91.7516 314.262C92.0808 314.618 92.443 314.934 92.792 315.186C94.3273 316.307 98.7452 318.025 103.258 317.499C108.35 316.902 111.003 315.448 112.185 313.881C114.17 311.264 108.993 304.384 96.3242 306.749Z" fill="white"/>
<path d="M498.815 312.417C490.934 313.889 491.079 317.378 494.238 319.932C494.57 320.286 494.93 320.602 495.283 320.855C496.818 321.976 501.236 323.693 505.749 323.167C510.836 322.572 513.489 321.117 514.676 319.551C516.655 316.931 511.477 310.052 498.815 312.417Z" fill="white"/>
<path d="M542.131 293.333C536.514 294.384 536.617 296.87 538.868 298.69C539.1 298.943 539.357 299.17 539.611 299.349C540.706 300.148 543.856 301.373 547.075 300.999C550.704 300.574 552.593 299.535 553.434 298.419C554.855 296.553 551.161 291.649 542.131 293.333Z" fill="white"/>
<path d="M795.773 291.579C786.036 293.399 786.213 297.71 790.116 300.865C790.523 301.305 790.967 301.693 791.406 302.006C793.299 303.39 798.762 305.512 804.335 304.864C810.626 304.127 813.905 302.328 815.367 300.394C817.821 297.156 811.422 288.657 795.773 291.579Z" fill="white"/>
<path d="M743.943 94.2747C735.289 95.8887 735.457 99.7201 738.918 102.522C739.28 102.911 739.678 103.258 740.067 103.534C741.75 104.764 746.603 106.65 751.551 106.072C757.138 105.42 760.047 103.82 761.346 102.101C763.521 99.2271 757.844 91.6764 743.943 94.2747Z" fill="white"/>
<path d="M88.4051 124.983C81.8864 126.199 82.0101 129.087 84.6167 131.197C84.8928 131.489 85.1866 131.749 85.4848 131.958C86.7483 132.887 90.4042 134.306 94.1395 133.87C98.341 133.38 100.537 132.173 101.513 130.878C103.154 128.713 98.8756 123.025 88.4051 124.983Z" fill="white"/>
<path d="M293.658 102.091C287.139 103.307 287.263 106.195 289.869 108.305C290.146 108.597 290.439 108.857 290.738 109.066C292.006 109.995 295.657 111.414 299.392 110.978C303.594 110.488 305.789 109.281 306.766 107.986C308.407 105.824 304.128 100.133 293.658 102.091Z" fill="white"/>
</g>
<defs>
<clipPath id="clip0_28_2">
<rect width="868" height="611" fill="white"/>
</clipPath>
</defs>
</svg>
