<svg id="Слой_1" data-name="Слой 1" xmlns="http://www.w3.org/2000/svg" viewBox="0 0 512 512">
  <defs>
    <style>
      .cls-1 {
        fill: #3a7b0f;
      }

      .cls-1, .cls-2, .cls-3 {
        fill-rule: evenodd;
      }

      .cls-2, .cls-3 {
        fill: #ffc107;
      }

      .cls-3 {
        opacity: 0.5;
      }

      .cls-4 {
        fill: #fff;
      }
    </style>
  </defs>
  <g>
    <path class="cls-1" d="M384,512H128A128,128,0,0,1,0,384V128A128,128,0,0,1,128,0H384A128,128,0,0,1,512,128V384A128,128,0,0,1,384,512h0" transform="translate(0 0)"/>
    <path class="cls-2" d="M240,144H384A72,72,0,0,0,391.36.37C388.88.23,386.48,0,384,0H128A128,128,0,0,0,0,128V384C0,251.45,107.45,144,240,144" transform="translate(0 0)"/>
    <path class="cls-3" d="M384,256A128,128,0,1,0,512,384V128A128,128,0,0,1,384,256h0" transform="translate(0 0)"/>
    <path class="cls-4" d="M319.52,73.17a62.31,62.31,0,0,1-16,40.88,57,57,0,0,1-39.72,22.41,5.62,5.62,0,0,1-5.75-5.51v-.12H258A64,64,0,0,1,275,89.52,65.21,65.21,0,0,1,295.6,74a67.53,67.53,0,0,1,17.85-6,5.27,5.27,0,0,1,6,4.41,5.12,5.12,0,0,1,.06.78ZM375.9,295a159.13,159.13,0,0,1-15.71,28.24A143.71,143.71,0,0,1,340,347.69a39.3,39.3,0,0,1-26,11.46,65,65,0,0,1-24-5.74,69,69,0,0,0-25.86-5.72,71.61,71.61,0,0,0-26.6,5.72,71.55,71.55,0,0,1-23,6,37,37,0,0,1-26.6-11.76,150,150,0,0,1-21.16-25.32,175.14,175.14,0,0,1-22.38-44.44,162.8,162.8,0,0,1-9.4-53,96.68,96.68,0,0,1,12.71-50.61,74.61,74.61,0,0,1,26.6-26.92,71.62,71.62,0,0,1,36-10.15,84.72,84.72,0,0,1,27.82,6.48,89,89,0,0,0,22.07,6.49,131.77,131.77,0,0,0,24.47-7.65,81.08,81.08,0,0,1,33.26-5.9A76.47,76.47,0,0,1,360,151.81a15.46,15.46,0,0,1,2,21.78,16,16,0,0,1-1.51,1.57,59.63,59.63,0,0,0-19.9,46.56,61.66,61.66,0,0,0,20.25,46.46,68,68,0,0,0,9.16,7.34,15.88,15.88,0,0,1,5.84,19.38c.09.06.09.08.08.1Z" transform="translate(0 0)"/>
  </g>
</svg>
