<svg xmlns="http://www.w3.org/2000/svg" width="22" height="75" viewBox="0 0 22 75" fill="#2b5c0b">
<g id="Frame 1329">
<path id="Subtract" fill-rule="evenodd" clip-rule="evenodd" d="M4.66484 29.2044C5.70217 31.7404 9.257 32.3898 11.9514 30.5357L12.9095 29.8764L13.3721 31.0525C13.6267 31.6992 13.9323 32.8985 14.0514 33.7176C14.2119 34.8227 13.7861 60.9791 13.4544 70.3712L13.423 71.2659L11.8412 69.4328C10.8573 68.2926 10.1396 67.6656 9.94266 67.7748C9.35523 68.0997 9.59579 68.5651 11.583 70.9461C12.6726 72.2511 13.5403 73.4334 13.5109 73.5731C13.4818 73.7127 13.6807 73.8356 13.9527 73.8461C14.4786 73.8664 18.2692 69.3707 18.1331 68.888C18.093 68.7457 17.872 68.5859 17.6419 68.533C17.3652 68.4693 16.8213 69.011 16.0329 70.1347L14.8421 71.8327L14.7398 70.1649C14.6836 69.2476 14.7697 64.4131 14.9316 59.4215C15.0933 54.4299 15.2683 46.6615 15.3204 42.1584C15.4192 33.6483 15.3171 32.5201 14.2356 30.1623L13.7478 29.0994L14.3943 28.3283C16.6978 25.5802 16.9145 20.5035 14.8506 17.6391L14.0342 16.5061L14.5959 15.3785C14.946 14.6753 15.2313 13.4668 15.3542 12.1671C15.6659 8.86562 14.5804 5.66117 12.3552 3.31401C11.3929 2.2988 9.11684 0.841258 8.44842 0.811866C7.547 0.772464 7.9937 1.44525 9.38759 2.22679C10.9042 3.07705 12.5459 4.84212 13.3037 6.43664C14.5177 8.99204 14.6585 12.5248 13.6329 14.6942L13.2036 15.6017L12.1739 14.9097C10.1859 13.5739 7.58135 13.159 6.29791 13.9741C5.08445 14.7446 4.7374 16.428 5.5129 17.7847C6.89582 20.2048 9.71351 20.3747 12.5595 18.2095C13.4179 17.5564 13.445 17.5531 13.8072 18.0534C14.7493 19.3543 15.1661 20.9111 15.0951 22.8635C15.0334 24.563 14.9025 25.0402 14.0989 26.4959L13.1739 28.1719L12.3821 27.3757C9.93253 24.9121 6.22953 24.4093 4.90738 26.3604C4.28898 27.2732 4.21762 28.1113 4.66484 29.2044ZM6.39191 26.602C7.2384 26.0007 7.61899 25.9962 9.13857 26.5686C10.2253 26.9781 12.1781 28.4273 12.1565 28.8084C12.1387 29.1197 10.3692 30.0218 9.31609 30.2563C7.90147 30.5713 6.47898 30.1086 6.00979 29.1808C5.45172 28.0785 5.58576 27.1745 6.39191 26.602ZM6.87698 15.0193C7.66223 14.1911 10.3014 14.7635 11.9873 16.1279C12.4907 16.5354 12.4893 16.5445 11.8159 17.1974C9.89831 19.0572 7.21103 18.9806 6.46487 17.0446C6.13024 16.1767 6.2261 15.7058 6.87698 15.0193Z" fill="#2b5c0b"/>
</g>
</svg>