<svg width="18" height="18" viewBox="0 0 18 18" fill="none" xmlns="http://www.w3.org/2000/svg">
<g id="Frame">
<g id="Home">
<path id="Vector" d="M16.7102 9.72728L9.39773 2.41478C9.17802 2.19507 8.82207 2.19507 8.6023 2.41478L1.2898 9.72728C1.12887 9.88822 1.08077 10.1299 1.16785 10.3403C1.25498 10.5504 1.46012 10.6875 1.68754 10.6875H3.37504V15.1875C3.37504 15.4981 3.62693 15.75 3.93754 15.75H7.42954H10.6875H14.0625C14.3734 15.75 14.625 15.4981 14.625 15.1875V10.6875H16.3125C16.54 10.6875 16.7454 10.5504 16.8322 10.3403C16.9195 10.1299 16.8712 9.88822 16.7102 9.72728ZM7.87504 14.625V11.8125C7.87504 11.192 8.3796 10.6875 9.00004 10.6875C9.6202 10.6875 10.125 11.192 10.125 11.8125V14.625H7.87504ZM14.0625 9.56247C13.7516 9.56247 13.5 9.81436 13.5 10.125V14.625H11.25V11.8125C11.25 10.5718 10.241 9.56247 9.00004 9.56247C7.75939 9.56247 6.75004 10.5718 6.75004 11.8125V14.625H4.50004V10.125C4.50004 9.81436 4.24815 9.56247 3.93754 9.56247H3.04547L9.00004 3.6079L14.9546 9.56247H14.0625Z" fill="#4F4F4F"/>
</g>
</g>
</svg>
