<svg id="Capa_1" data-name="Capa 1" xmlns="http://www.w3.org/2000/svg" xmlns:xlink="http://www.w3.org/1999/xlink" viewBox="0 0 512 485.01"><defs><style>.cls-1{fill:url(#Безымянный_градиент_4);}.cls-2,.cls-7{fill:#83a33d;}.cls-2{opacity:0.54;}.cls-3{fill:#f9dc26;}.cls-4{fill:#5bc8ab;}.cls-5{fill:#ff7eb7;}.cls-6{fill:#8eb943;}.cls-8{fill:#2c5209;}.cls-9{fill:#ff5ba7;}</style><linearGradient id="Безымянный_градиент_4" y1="256" x2="512" y2="256" gradientTransform="matrix(1, 0, 0, -1, 0, 512)" gradientUnits="userSpaceOnUse"><stop offset="0.05" stop-color="#53900f"/><stop offset="1" stop-color="#f9dc26"/></linearGradient></defs><path class="cls-1" d="M507.14,367.56c-8.51-21-27.28-35.59-42.78-52.08-19.54-22.6-41.13-49.69-42.38-80.67,5.86-41.63,49-75.08,30.08-123.93C442.58,86,397.32,66.75,358.83,92.3,111.53,256.46,280.17,61.42,83.26,14.88,41.62,5-12.4,48.53,45.93,117.43c32.05,37.87,22.61,93,4.46,136C12.25,343.74-63.55,508.75,105.09,498c64.57-4.11,128.23-30.17,192.19-20.43,52.45,12.54,109.4,26.94,159-3.18,37.83-19.2,67.86-64.5,50.88-106.83Z" transform="translate(0 -13.5)"/><path class="cls-2" d="M398.2,60.29A52.75,52.75,0,0,0,372,64.19c-22.6-9.49-40.59-5.65-41.36-5.48a5,5,0,0,0,2.16,9.76c.14,0,12-2.47,27.9,2.27A52.81,52.81,0,0,0,340,107.43a49.4,49.4,0,0,0,.19,12H128.94a10,10,0,0,0-10,10V344.36h-30a10,10,0,0,0-10,10V377a20,20,0,0,0,20,20h20v54.66a10,10,0,0,0,10,10h85.43c17.43,24.68,43,34.53,64.54,31.92A52.7,52.7,0,0,0,303.49,484a83.28,83.28,0,0,0,14.15,1.22,79.56,79.56,0,0,0,12.65-1,5,5,0,0,0-1.58-9.87,70.89,70.89,0,0,1-15.62.71,53.27,53.27,0,0,0,8.23-13.4H423.06a10,10,0,0,0,10-10V181.3a146.7,146.7,0,0,1,16.88,8.62,4.35,4.35,0,0,0,6.47-2.68c19.87-80-20.8-123-58.21-127Z" transform="translate(0 -13.5)"/><path class="cls-3" d="M433.06,353v74.66a10,10,0,0,1-10,10H128.94a10,10,0,0,1-10-10V373Z" transform="translate(0 -13.5)"/><path class="cls-3" d="M433.06,143.7V353a20,20,0,0,1-20,20l-25-5L123.94,325.36l-5-5V143.7l5-5H428.06Z" transform="translate(0 -13.5)"/><path class="cls-4" d="M433.06,105.43V143.7H118.94V105.43a10,10,0,0,1,10-10H423.06A10,10,0,0,1,433.06,105.43Z" transform="translate(0 -13.5)"/><path class="cls-5" d="M393.06,353V330.36a10,10,0,0,0-10-10H88.94a10,10,0,0,0-10,10V353a20,20,0,0,0,20,20H413.06A20,20,0,0,1,393.06,353Z" transform="translate(0 -13.5)"/><path class="cls-6" d="M179.53,258.71H161.42a5,5,0,0,1-3.13-8.9c5-4.05,12.85-11.45,14.41-15.23a4.5,4.5,0,0,0-.25-4.17,2.92,2.92,0,0,0-2.59-1.32,3.45,3.45,0,0,0-3.44,3.44,5,5,0,0,1-10,0,13.46,13.46,0,0,1,13.44-13.44,12.88,12.88,0,0,1,10.9,5.76,14.38,14.38,0,0,1,1.18,13.55c-1.35,3.28-4.4,7-7.59,10.31h5.18a5,5,0,1,1,0,10Z" transform="translate(0 -13.5)"/><path class="cls-5" d="M211,258.71H192.93a5,5,0,0,1-3.13-8.9c5-4.05,12.84-11.45,14.4-15.23a4.53,4.53,0,0,0-.24-4.18,2.94,2.94,0,0,0-2.59-1.31,3.44,3.44,0,0,0-3.44,3.44,5,5,0,1,1-10,0,13.46,13.46,0,0,1,13.44-13.44,12.89,12.89,0,0,1,10.9,5.76,14.44,14.44,0,0,1,1.18,13.55c-1.36,3.27-4.4,7-7.6,10.31H211a5,5,0,0,1,0,10Z" transform="translate(0 -13.5)"/><path class="cls-6" d="M204.74,210.14H199.4a11.82,11.82,0,0,1-11.8-11.8V181.88a11.82,11.82,0,0,1,11.8-11.8h5.34a11.82,11.82,0,0,1,11.8,11.8v16.46A11.82,11.82,0,0,1,204.74,210.14Zm-5.34-30.06a1.81,1.81,0,0,0-1.8,1.8v16.46a1.8,1.8,0,0,0,1.8,1.8h5.34a1.81,1.81,0,0,0,1.8-1.8V181.88a1.81,1.81,0,0,0-1.8-1.8Z" transform="translate(0 -13.5)"/><path class="cls-5" d="M179,209.7h-18.1a5,5,0,0,1-3.13-8.9c5-4.05,12.84-11.45,14.4-15.23a4.5,4.5,0,0,0-.24-4.17,2.93,2.93,0,0,0-2.59-1.32,3.45,3.45,0,0,0-3.44,3.44,5,5,0,0,1-10,0,13.46,13.46,0,0,1,13.44-13.44,12.89,12.89,0,0,1,10.9,5.76,14.42,14.42,0,0,1,1.17,13.56c-1.35,3.27-4.39,7-7.59,10.3H179a5,5,0,1,1,0,10Z" transform="translate(0 -13.5)"/><circle class="cls-5" cx="181.23" cy="398.74" r="5"/><circle class="cls-6" cx="166.24" cy="398.74" r="5"/><circle class="cls-5" cx="151.25" cy="398.74" r="5"/><path class="cls-5" d="M276.23,225.32V204.68a4.25,4.25,0,0,0-4.25-4.25H251.33a4.24,4.24,0,0,0-4.24,4.25v20.64a4.24,4.24,0,0,0,4.24,4.25H272A4.25,4.25,0,0,0,276.23,225.32Z" transform="translate(0 -13.5)"/><path class="cls-6" d="M305.37,225.32V204.68a4.25,4.25,0,0,0-4.25-4.25H280.47a4.24,4.24,0,0,0-4.24,4.25v20.64a4.24,4.24,0,0,0,4.24,4.25h20.65A4.25,4.25,0,0,0,305.37,225.32Z" transform="translate(0 -13.5)"/><path class="cls-6" d="M334.51,196.18V175.54a4.25,4.25,0,0,0-4.25-4.25H309.61a4.24,4.24,0,0,0-4.24,4.25v20.64a4.24,4.24,0,0,0,4.24,4.25h20.65A4.25,4.25,0,0,0,334.51,196.18Z" transform="translate(0 -13.5)"/><path class="cls-5" d="M334.51,225.32V204.68a4.25,4.25,0,0,0-4.25-4.25H309.61a4.24,4.24,0,0,0-4.24,4.25v20.64a4.24,4.24,0,0,0,4.24,4.25h20.65A4.25,4.25,0,0,0,334.51,225.32Z" transform="translate(0 -13.5)"/><path class="cls-5" d="M363.65,196.18V175.54a4.25,4.25,0,0,0-4.25-4.25H338.75a4.24,4.24,0,0,0-4.24,4.25v20.64a4.24,4.24,0,0,0,4.24,4.25H359.4A4.25,4.25,0,0,0,363.65,196.18Z" transform="translate(0 -13.5)"/><path class="cls-6" d="M363.65,225.32V204.68a4.25,4.25,0,0,0-4.25-4.25H338.75a4.24,4.24,0,0,0-4.24,4.25v20.64a4.24,4.24,0,0,0,4.24,4.25H359.4A4.25,4.25,0,0,0,363.65,225.32Z" transform="translate(0 -13.5)"/><path class="cls-6" d="M392.79,196.18V175.54a4.25,4.25,0,0,0-4.25-4.25H367.89a4.24,4.24,0,0,0-4.24,4.25v20.64a4.24,4.24,0,0,0,4.24,4.25h20.65A4.25,4.25,0,0,0,392.79,196.18Z" transform="translate(0 -13.5)"/><path class="cls-5" d="M392.79,225.32V204.68a4.25,4.25,0,0,0-4.25-4.25H367.89a4.24,4.24,0,0,0-4.24,4.25v20.64a4.24,4.24,0,0,0,4.24,4.25h20.65A4.25,4.25,0,0,0,392.79,225.32Z" transform="translate(0 -13.5)"/><path class="cls-6" d="M276.23,254.46V233.82a4.25,4.25,0,0,0-4.25-4.25H251.33a4.24,4.24,0,0,0-4.24,4.25v20.64a4.24,4.24,0,0,0,4.24,4.25H272a4.25,4.25,0,0,0,4.25-4.25Z" transform="translate(0 -13.5)"/><path class="cls-5" d="M305.37,254.46V233.82a4.25,4.25,0,0,0-4.25-4.25H280.47a4.24,4.24,0,0,0-4.24,4.25v20.64a4.24,4.24,0,0,0,4.24,4.25h20.65a4.25,4.25,0,0,0,4.25-4.25Z" transform="translate(0 -13.5)"/><path class="cls-6" d="M334.51,254.46V233.82a4.25,4.25,0,0,0-4.25-4.25H309.61a4.24,4.24,0,0,0-4.24,4.25v20.64a4.24,4.24,0,0,0,4.24,4.25h20.65a4.25,4.25,0,0,0,4.25-4.25Z" transform="translate(0 -13.5)"/><path class="cls-5" d="M363.65,254.46V233.82a4.25,4.25,0,0,0-4.25-4.25H338.75a4.24,4.24,0,0,0-4.24,4.25v20.64a4.24,4.24,0,0,0,4.24,4.25H359.4a4.25,4.25,0,0,0,4.25-4.25Z" transform="translate(0 -13.5)"/><path class="cls-5" d="M180.53,282.15H162a5,5,0,0,1,0-10h18.58a5,5,0,0,1,0,10Z" transform="translate(0 -13.5)"/><path class="cls-4" d="M387.79,282.15H349.2a5,5,0,1,1,0-10h38.59a5,5,0,1,1,0,10Z" transform="translate(0 -13.5)"/><path class="cls-6" d="M387.79,300.91H309.2a5,5,0,0,1,0-10h78.59a5,5,0,0,1,0,10Z" transform="translate(0 -13.5)"/><path class="cls-4" d="M170.53,300.91H162a5,5,0,0,1,0-10h8.58a5,5,0,1,1,0,10Z" transform="translate(0 -13.5)"/><path class="cls-3" d="M398.2,36.29A53,53,0,0,0,340,83.43c-3.05,29.08,18.89,50.62,47.14,58.19,35.64,9.55,54.67,19.35,62.8,24.3a4.34,4.34,0,0,0,6.47-2.68c19.87-80-20.8-123-58.21-127Z" transform="translate(0 -13.5)"/><path class="cls-6" d="M438.73,137.4a5.09,5.09,0,0,1-1.53.24,5,5,0,0,1-4.76-3.47c-1.41-4.38-3-8.94-4.83-13.57-.44,1.61-.85,3.17-1.18,4.53a5,5,0,0,1-4.85,3.83,5.28,5.28,0,0,1-1.18-.14,5,5,0,0,1-3.69-6c1.27-5.25,3.59-13,4.68-16.54a165.41,165.41,0,0,0-11-19.53c-1.76,4.44-3.87,10.1-5.42,15.25a5,5,0,0,1-4.79,3.56,5.17,5.17,0,0,1-1.44-.21,5,5,0,0,1-3.35-6.23c2.51-8.32,6.27-17.59,8.08-21.89A106.56,106.56,0,0,0,390,63.12,93.46,93.46,0,0,0,379,85.5,5,5,0,0,1,374.24,89a5.15,5.15,0,0,1-1.54-.24,5,5,0,0,1-3.22-6.3A103,103,0,0,1,382.08,57a78.57,78.57,0,0,0-17.77-9.09,5,5,0,0,1-2.51-2A52.55,52.55,0,0,1,372,40.19a91.57,91.57,0,0,1,24,14.92,157.79,157.79,0,0,1,22.32,4,5,5,0,0,1-1.26,9.84,5.16,5.16,0,0,1-1.28-.16c-2.66-.7-5.34-1.29-7.86-1.77a140.87,140.87,0,0,1,12.75,17.3c2.6.56,7.84,1.73,12.77,3.15a5,5,0,0,1-1.38,9.81,4.77,4.77,0,0,1-1.39-.2c-1.06-.3-2.14-.6-3.2-.88a224.91,224.91,0,0,1,14.45,35,5,5,0,0,1-3.23,6.29Z" transform="translate(0 -13.5)"/><path class="cls-6" d="M278.91,469.56a53,53,0,0,0,46.22-58.92c-3.51-29-29.7-45.14-58.92-46.22-36.89-1.36-57.62-6.67-66.64-9.69a4.36,4.36,0,0,0-5.72,4.07C192.33,441.25,241.57,474.08,278.91,469.56Z" transform="translate(0 -13.5)"/><path class="cls-7" d="M313.11,451a53,53,0,0,1-9.62,8.94,91.81,91.81,0,0,1-26.85-9.22,162.33,162.33,0,0,1-18.71,1.16q-1.86,0-3.75-.06a5,5,0,1,1,.31-10c2.68.08,5.36.05,7.86,0a138.23,138.23,0,0,1-16.24-14l-3.12,0c-2.79,0-6.39-.05-9.88-.24a5,5,0,0,1,.56-10c1.06.06,2.13.11,3.2.14A226.5,226.5,0,0,1,215.1,386.9a5,5,0,1,1,8.6-5.12q3.86,6.48,7.73,12.2c.08-1.69.13-3.31.15-4.72a5,5,0,0,1,5-4.94h.06a5,5,0,0,1,4.94,5.06c-.06,5.44-.61,13.57-.87,17.26a161.25,161.25,0,0,0,15.42,16.95c1.1-5.1,2.51-12,3.65-18.59a5,5,0,1,1,9.85,1.69c-1.64,9.53-3.85,19.7-4.89,24.36a104.47,104.47,0,0,0,17.17,11.13c1.17-5.69,3-14.85,4.81-25.28a5,5,0,1,1,9.85,1.71c-2.07,11.94-4.16,22.25-5.3,27.69A76.74,76.74,0,0,0,313.11,451Z" transform="translate(0 -13.5)"/><path class="cls-8" d="M465.23,104.17a5,5,0,1,0-9.89,1.5c2.53,16.72,1.33,35.4-3.57,55.52-8.8-5.25-28.21-15-63.34-24.4-19.18-5.14-40.32-19-43.35-42.11V83.13a47.93,47.93,0,0,1,52.59-41.87c20.47,2.15,39.54,16.75,49.77,38.11a5,5,0,0,0,9-4.32C444.56,50.21,423,33.86,398.72,31.32a57.44,57.44,0,0,0-33.24,6.44c-19.46-6.35-34.18-3.19-34.82-3a5,5,0,0,0,2.16,9.76c.11,0,9.08-1.87,21.84.75a57.45,57.45,0,0,0-15.9,22.44,13.87,13.87,0,0,0-7.66-2.3h-6.67a14,14,0,0,0-14,14V90.43H293.32V79.34a14,14,0,0,0-14-14h-6.68a14,14,0,0,0-14,14V90.43H241.55V79.34a14,14,0,0,0-14-14H220.9a14,14,0,0,0-14,14V90.43H189.79V79.34a14,14,0,0,0-14-14h-6.67a14,14,0,0,0-14,14V90.43H128.94a15,15,0,0,0-15,15V315.36h-25a15,15,0,0,0-15,15V353a25,25,0,0,0,25,25h15v49.65a15,15,0,0,0,15,15h82.85a90.12,90.12,0,0,0,11.52,12.65C237.41,468,254.81,475,272,475a62.81,62.81,0,0,0,7.51-.45,57.68,57.68,0,0,0,30.92-13.69c2.49.23,5,.34,7.46.34a78.35,78.35,0,0,0,12.39-1,5,5,0,0,0-1.58-9.88,67.83,67.83,0,0,1-9.38.83,58.23,58.23,0,0,0,5.18-8.53h98.56a15,15,0,0,0,15-15V165.14c4,2,7.05,3.7,9.27,5.05a9.35,9.35,0,0,0,13.93-5.75c5.4-21.72,6.73-42,4-60.27ZM320.45,79.34a4,4,0,0,1,4-4h6.67a4,4,0,0,1,4,4V82.5c0,.14,0,.27-.05.4a53,53,0,0,0-.26,7.53H320.45V79.34Zm-51.77,0a4,4,0,0,1,4-4h6.68a4,4,0,0,1,4,4V90.43H268.68V79.34Zm-51.76,0a4,4,0,0,1,4-4h6.67a4,4,0,0,1,4,4V90.43H216.92Zm-51.77,0a4,4,0,0,1,4-4h6.68a4,4,0,0,1,4,4V90.43H165.15ZM128.94,432.63a5,5,0,0,1-5-5V378H165.8a5,5,0,0,0,0-10H98.94a15,15,0,0,1-15-15V330.36a5,5,0,0,1,5-5H383.06a5,5,0,0,1,5,5V353a24.91,24.91,0,0,0,5,15h-93a78.41,78.41,0,0,0-33.71-8.56c-36.2-1.33-56.41-6.48-65.24-9.43a9.23,9.23,0,0,0-8.33,1.23,9.41,9.41,0,0,0-4,7.48c-.61,33.49,6.75,57.25,16.35,73.93Zm149.37,32c-16.68,2-34.28-4.09-48.3-16.74-20.65-18.65-31.7-49.91-31.17-88.1,9.74,3.15,30.83,8.32,67.18,9.66,22.75.84,50.58,12.29,54.15,41.82a48,48,0,0,1-41.86,53.36Zm144.75-32h-94.7A57.72,57.72,0,0,0,330.1,410a52.87,52.87,0,0,0-16-32.06h99a24.85,24.85,0,0,0,15-5v54.67a5,5,0,0,1-5,5Zm5-79.65a15,15,0,0,1-15,15h0a15,15,0,0,1-15-15V330.36a15,15,0,0,0-15-15H123.94V105.43a5,5,0,0,1,5-5h26.21v11.1a14,14,0,0,0,14,14,5,5,0,0,0,0-10,4,4,0,0,1-4-4v-11.1h41.77v11.1a14,14,0,0,0,14,14,5,5,0,0,0,0-10,4,4,0,0,1-4-4v-11.1h41.76v11.1a14,14,0,0,0,14,14,5,5,0,0,0,0-10,4,4,0,0,1-4-4v-11.1h41.77v11.1a14,14,0,0,0,14,14,5,5,0,0,0,0-10,4,4,0,0,1-4-4v-11.1h15.64c5,21.41,23.26,38.92,49.75,46a323.56,323.56,0,0,1,42.22,14.13V353Z" transform="translate(0 -13.5)"/><path class="cls-3" d="M283.24,48.61a5,5,0,0,1-3.53-1.47l-10.5-10.5a5,5,0,0,1,0-7.07l10.5-10.5a5,5,0,0,1,7.07,0l10.5,10.5a5,5,0,0,1,0,7.07l-10.5,10.5A5,5,0,0,1,283.24,48.61Zm-3.43-15.5,3.43,3.43,3.43-3.43-3.43-3.43Z" transform="translate(0 -13.5)"/><path class="cls-5" d="M78.94,235.35a5,5,0,0,1-3.54-1.47l-10.5-10.5a5,5,0,0,1,0-7.07l10.5-10.5a5,5,0,0,1,7.07,0L93,216.31a5,5,0,0,1,0,7.07l-10.5,10.5A5,5,0,0,1,78.94,235.35Zm-3.43-15.5,3.43,3.42,3.43-3.42-3.43-3.43Z" transform="translate(0 -13.5)"/><path class="cls-6" d="M472.13,243.87a5,5,0,0,1-3.54-1.46l-10.5-10.5a5,5,0,0,1,0-7.07l10.5-10.5a5,5,0,0,1,7.07,0l10.5,10.5a5,5,0,0,1,0,7.07l-10.5,10.5A5,5,0,0,1,472.13,243.87Zm-3.43-15.5,3.43,3.43,3.43-3.43-3.43-3.43Z" transform="translate(0 -13.5)"/><path class="cls-9" d="M187.59,481.61a5,5,0,0,1-5-5v-7.73h-7.73a5,5,0,0,1,0-10h12.73a5,5,0,0,1,5,5v12.73A5,5,0,0,1,187.59,481.61Z" transform="translate(0 -13.5)"/><path class="cls-4" d="M67.29,287.25a5,5,0,0,1-5-5v-7.73H54.56a5,5,0,0,1,0-10H67.29a5,5,0,0,1,5,5v12.73A5,5,0,0,1,67.29,287.25Z" transform="translate(0 -13.5)"/></svg>