<svg width="74" height="88" viewBox="0 0 74 88" fill="none" xmlns="http://www.w3.org/2000/svg">
<g id="Group 1137">
<path id="Vector 230" d="M28.9737 47.0876C30.2602 45.5847 31.6372 44.4444 33.2544 43.3062C34.3985 42.5011 35.5498 41.7114 36.7428 40.9789C37.4383 40.552 38.2024 39.8261 38.9732 39.558C40.0626 39.179 41.1026 38.566 42.0943 37.9849C44.4692 36.5935 46.7671 35.1614 49.2763 34.008C50.7436 33.3335 52.0394 32.5865 53.4319 31.7896C54.3363 31.2721 55.1433 30.691 55.9701 30.0556C56.6251 29.5521 57.3897 29.1174 57.9969 28.5647C58.6664 27.9553 59.5544 27.5504 60.2148 26.9492" stroke="#2b5c0b" stroke-width="2" stroke-linecap="round"/>
<path id="Vector 231" d="M37.8793 50.9116C38.425 50.7578 38.9689 50.5967 39.5177 50.4541C41.3263 49.9844 43.1961 49.826 45.0344 49.4879C45.857 49.3367 46.6751 49.2097 47.5125 49.1348C47.56 49.1305 47.8502 49.0353 47.7377 49.1687" stroke="#2b5c0b" stroke-width="2" stroke-linecap="round"/>
<path id="Vector 232" d="M38.8332 59.991C39.6922 59.8348 40.7064 60.0246 41.5707 60.0679C44.1657 60.1977 46.7722 60.5007 49.3304 60.9496C54.1531 61.796 58.9058 63.0981 63.5584 64.6049" stroke="#2b5c0b" stroke-width="2" stroke-linecap="round"/>
<path id="Vector 233" d="M28.1138 35.2607C28.1514 34.7923 28.6215 34.3241 28.8719 33.9685C29.7176 32.7672 30.4362 31.488 31.1819 30.2237C33.6263 26.0791 35.761 21.7581 37.8899 17.446C39.7128 13.7538 41.236 9.92517 43.0799 6.24564C43.1676 6.07047 43.7685 4.71404 43.5549 4.86931" stroke="#2b5c0b" stroke-width="2" stroke-linecap="round"/>
<path id="Vector 235" d="M9.92461 38.9794C8.64238 34.4315 8.53893 28.5314 5.87345 24.6075C5.31266 23.3635 3.74991 22.6087 1.89915 21.572" stroke="#2b5c0b" stroke-width="2" stroke-linecap="round"/>
<path id="Vector 236" d="M47.0769 75.3297C47.434 75.2957 47.8984 75.4578 48.2389 75.5375C49.3588 75.7994 50.3734 76.2996 51.4022 76.7979C52.0995 77.1357 53.4019 77.4521 53.866 78.1354" stroke="#2b5c0b" stroke-width="2" stroke-linecap="round"/>
</g>
</svg>
