<svg id="Слой_1" data-name="Слой 1" xmlns="http://www.w3.org/2000/svg" xmlns:xlink="http://www.w3.org/1999/xlink" viewBox="0 0 127.01 204.76"><defs><style>.cls-1{fill:#8b4b23;}.cls-2{fill:#5d3217;}.cls-3{fill:#b9642e;}.cls-4{fill:#562f01;}.cls-5{fill:#b26830;}.cls-6{fill:#964e1e;}.cls-7{fill:url(#linear-gradient);}.cls-8{fill:url(#linear-gradient-2);}.cls-9{fill:url(#linear-gradient-3);}.cls-10{fill:#a1792a;}.cls-11{fill:url(#linear-gradient-4);}.cls-12{fill:#996623;}.cls-13{fill:url(#linear-gradient-5);}.cls-14{fill:url(#linear-gradient-6);}.cls-15{fill:url(#linear-gradient-7);}.cls-16{fill:url(#linear-gradient-8);}.cls-17{fill:url(#linear-gradient-9);}.cls-18{fill:url(#linear-gradient-10);}.cls-19{fill:url(#linear-gradient-11);}.cls-20{fill:url(#linear-gradient-12);}.cls-21{fill:url(#linear-gradient-13);}.cls-22{fill:url(#linear-gradient-14);}.cls-23{fill:url(#linear-gradient-15);}.cls-24{fill:url(#linear-gradient-16);}.cls-25{fill:url(#linear-gradient-17);}.cls-26{fill:url(#linear-gradient-18);}.cls-27{fill:url(#linear-gradient-19);}.cls-28{fill:url(#linear-gradient-20);}.cls-29{fill:url(#linear-gradient-21);}.cls-30{fill:url(#linear-gradient-22);}.cls-31{fill:url(#linear-gradient-23);}.cls-32{fill:url(#linear-gradient-24);}.cls-33{fill:url(#linear-gradient-25);}.cls-34{fill:url(#linear-gradient-26);}.cls-35{fill:url(#linear-gradient-27);}.cls-36{fill:url(#linear-gradient-28);}.cls-37{fill:url(#linear-gradient-29);}.cls-38{fill:url(#linear-gradient-30);}.cls-39{fill:url(#linear-gradient-31);}.cls-40{fill:url(#linear-gradient-32);}.cls-41{fill:url(#linear-gradient-33);}.cls-42{fill:url(#linear-gradient-34);}.cls-43{fill:url(#linear-gradient-35);}.cls-44{fill:url(#linear-gradient-36);}</style><linearGradient id="linear-gradient" x1="152.4" y1="56.6" x2="151.74" y2="98.64" gradientUnits="userSpaceOnUse"><stop offset="0" stop-color="#df884a"/><stop offset="1" stop-color="#c16e37"/></linearGradient><linearGradient id="linear-gradient-2" x1="141.43" y1="58.03" x2="141.1" y2="96.93" gradientUnits="userSpaceOnUse"><stop offset="0" stop-color="#f9ab4a"/><stop offset="1" stop-color="#c87d38"/></linearGradient><linearGradient id="linear-gradient-3" x1="126.07" y1="57.9" x2="125.74" y2="96.8" xlink:href="#linear-gradient-2"/><linearGradient id="linear-gradient-4" x1="116.31" y1="57.82" x2="115.98" y2="96.72" xlink:href="#linear-gradient-2"/><linearGradient id="linear-gradient-5" x1="98.8" y1="57.67" x2="98.48" y2="96.57" xlink:href="#linear-gradient-2"/><linearGradient id="linear-gradient-6" x1="172.1" y1="58.29" x2="171.77" y2="97.19" xlink:href="#linear-gradient-2"/><linearGradient id="linear-gradient-7" x1="193.9" y1="58.48" x2="193.57" y2="97.37" xlink:href="#linear-gradient-2"/><linearGradient id="linear-gradient-8" x1="199.75" y1="58.52" x2="199.42" y2="97.43" xlink:href="#linear-gradient-2"/><linearGradient id="linear-gradient-9" x1="165.45" y1="58.23" x2="165.12" y2="97.14" xlink:href="#linear-gradient-2"/><linearGradient id="linear-gradient-10" x1="151.81" y1="102.32" x2="150.66" y2="139.58" xlink:href="#linear-gradient"/><linearGradient id="linear-gradient-11" x1="128.39" y1="101.95" x2="127.73" y2="138.71" xlink:href="#linear-gradient-2"/><linearGradient id="linear-gradient-12" x1="122.98" y1="101.85" x2="122.32" y2="138.62" xlink:href="#linear-gradient-2"/><linearGradient id="linear-gradient-13" x1="130.78" y1="102" x2="130.12" y2="138.75" xlink:href="#linear-gradient-2"/><linearGradient id="linear-gradient-14" x1="112.07" y1="101.66" x2="111.41" y2="138.42" xlink:href="#linear-gradient-2"/><linearGradient id="linear-gradient-15" x1="122.11" y1="101.84" x2="121.45" y2="138.6" xlink:href="#linear-gradient-2"/><linearGradient id="linear-gradient-16" x1="176.9" y1="102.82" x2="176.24" y2="139.58" xlink:href="#linear-gradient-2"/><linearGradient id="linear-gradient-17" x1="192.46" y1="103.1" x2="191.8" y2="139.86" xlink:href="#linear-gradient-2"/><linearGradient id="linear-gradient-18" x1="203.41" y1="103.3" x2="202.75" y2="140.06" xlink:href="#linear-gradient-2"/><linearGradient id="linear-gradient-19" x1="150.35" y1="192.18" x2="150.35" y2="226.47" xlink:href="#linear-gradient"/><linearGradient id="linear-gradient-20" x1="173.32" y1="192.27" x2="172.76" y2="222.64" xlink:href="#linear-gradient-2"/><linearGradient id="linear-gradient-21" x1="178.64" y1="192.37" x2="178.08" y2="222.73" xlink:href="#linear-gradient-2"/><linearGradient id="linear-gradient-22" x1="170.72" y1="192.22" x2="170.16" y2="222.59" xlink:href="#linear-gradient-2"/><linearGradient id="linear-gradient-23" x1="190.54" y1="192.59" x2="189.98" y2="222.95" xlink:href="#linear-gradient-2"/><linearGradient id="linear-gradient-24" x1="180.44" y1="192.4" x2="179.88" y2="222.77" xlink:href="#linear-gradient-2"/><linearGradient id="linear-gradient-25" x1="125.57" y1="191.39" x2="125.01" y2="221.76" xlink:href="#linear-gradient-2"/><linearGradient id="linear-gradient-26" x1="109.86" y1="191.1" x2="109.3" y2="221.47" xlink:href="#linear-gradient-2"/><linearGradient id="linear-gradient-27" x1="98.55" y1="190.9" x2="98" y2="221.26" xlink:href="#linear-gradient-2"/><linearGradient id="linear-gradient-28" x1="151.15" y1="147.46" x2="151.81" y2="182.57" xlink:href="#linear-gradient"/><linearGradient id="linear-gradient-29" x1="114.85" y1="148.19" x2="115.01" y2="183.8" xlink:href="#linear-gradient-2"/><linearGradient id="linear-gradient-30" x1="129.19" y1="148.13" x2="129.35" y2="183.73" xlink:href="#linear-gradient-2"/><linearGradient id="linear-gradient-31" x1="120.6" y1="148.17" x2="120.77" y2="183.77" xlink:href="#linear-gradient-2"/><linearGradient id="linear-gradient-32" x1="133.5" y1="148.11" x2="133.66" y2="183.71" xlink:href="#linear-gradient-2"/><linearGradient id="linear-gradient-33" x1="143.44" y1="148.06" x2="143.61" y2="183.67" xlink:href="#linear-gradient-2"/><linearGradient id="linear-gradient-34" x1="179.54" y1="147.89" x2="179.7" y2="183.5" xlink:href="#linear-gradient-2"/><linearGradient id="linear-gradient-35" x1="192.4" y1="147.83" x2="192.57" y2="183.44" xlink:href="#linear-gradient-2"/><linearGradient id="linear-gradient-36" x1="202.94" y1="147.78" x2="203.11" y2="183.39" xlink:href="#linear-gradient-2"/></defs><polygon class="cls-1" points="24.85 203.74 16.35 203.74 14.04 201.26 14.04 0.21 22.54 0.21 24.85 2.68 24.85 203.74"/><path class="cls-2" d="M111.69,251.17h-8.77l-2.43-2.59V47.23h8.78l2.42,2.59Zm-8.62-.41h8.23V50l-2.19-2.35h-8.23V248.41Z" transform="translate(-86.65 -47.23)"/><rect class="cls-3" x="16.35" y="2.68" width="8.5" height="201.06"/><path class="cls-2" d="M111.69,251.17H102.8V49.7h8.89Zm-8.5-.41h8.11V50.12h-8.11Z" transform="translate(-86.65 -47.23)"/><polygon class="cls-4" points="16.21 2.82 13.9 0.35 14.17 0.06 16.48 2.53 16.21 2.82"/><polygon class="cls-1" points="114.78 204.56 106.28 204.56 103.97 202.09 103.97 1.03 112.47 1.03 114.78 3.5 114.78 204.56"/><path class="cls-2" d="M201.62,252h-8.77l-2.42-2.6V48.05h8.77l2.42,2.6Zm-8.61-.42h8.23V50.82L199,48.47h-8.23V249.23Z" transform="translate(-86.65 -47.23)"/><rect class="cls-3" x="106.28" y="3.5" width="8.5" height="201.06"/><path class="cls-2" d="M201.62,252h-8.88V50.53h8.88Zm-8.5-.42h8.12V50.94h-8.12Z" transform="translate(-86.65 -47.23)"/><polygon class="cls-2" points="106.14 3.65 103.83 1.18 104.11 0.89 106.41 3.36 106.14 3.65"/><path class="cls-5" d="M212.89,92.33c-.28.39-14.65-1.32-33.2.22-9.92.83-20.38-.71-30.12-.67-25.92.1-51.5,2.79-58.6,3a3.11,3.11,0,0,1-2.67-1.52c-.33-1.13.55-7.72,1.18-8.73s4.92-1.57,4.92-1.57-4.3-1.25-5.12-1.94.24-7.67.82-8.26,6.1-1,6.1-1S90.47,70.69,89.8,70s-.79-7.86.3-8.76c7.7-1.73,106.49-5.2,122.46-.19,1.73,4.3-.5,9.33-1.22,9.81s-4.81-.38-4.81-.38a28.59,28.59,0,0,1,3.85,3.41,11.42,11.42,0,0,1,1,4.38c0,.87,1,3.56,0,4.62-.37.41-3.44-.16-5.77.1a38.4,38.4,0,0,0-7,1.54s13.68,1.78,14.2,3.08S213.71,91.17,212.89,92.33Z" transform="translate(-86.65 -47.23)"/><path class="cls-6" d="M90.89,95.1a3.29,3.29,0,0,1-2.78-1.65c-.35-1.19.55-7.84,1.2-8.89.5-.8,2.89-1.31,4.22-1.53a20.24,20.24,0,0,1-4.37-1.73c-.21-.18-.32-.59-.36-1.28-.1-2.16.62-6.71,1.16-7.26s3.21-.8,5-1c-1.76-.4-4.73-1.12-5.24-1.62s-.63-3.35-.55-5.23c0-1.2.23-3.29.86-3.81l0,0h0c4.67-1.05,43.81-2.79,77.23-2.79,16.89,0,38.46.45,45.33,2.6l.09,0,0,.09c1.75,4.35-.48,9.5-1.29,10a1.85,1.85,0,0,1-1,.18,20.33,20.33,0,0,1-3.18-.38,21.5,21.5,0,0,1,3.25,3,11.48,11.48,0,0,1,1,4.48,7.46,7.46,0,0,0,.16,1c.24,1.22.56,2.89-.21,3.73-.14.15-.42.22-1,.22-.38,0-.86,0-1.37-.06s-1.36-.07-2.07-.07a12.21,12.21,0,0,0-1.43.07,38.83,38.83,0,0,0-6.15,1.27c3.49.48,13,1.87,13.49,3.08s1.06,3.55.12,4.87c-.08.1-.2.14-.73.14s-1.57,0-2.95-.12c-3-.15-7.58-.37-13.33-.37-5.6,0-11.09.22-16.34.66-2,.16-4.07.24-6.39.24-3.95,0-8-.24-11.9-.47s-7.74-.45-11.49-.45h-.35c-18.53.07-36.54,1.44-48.45,2.35C96.58,94.76,93,95,91,95.1Zm-.7-33.64c-.35.35-.61,1.68-.69,3.5-.1,2.44.15,4.66.44,4.94.46.45,4,1.31,6.29,1.78l1.34.27-1.36.11c-2.1.16-5.59.57-6,1s-1.16,4.74-1,7c0,.79.18,1,.22,1,.64.55,3.86,1.56,5,1.91l.88.25-.91.12c-1.17.15-4.31.72-4.78,1.48-.61,1-1.48,7.47-1.16,8.58a3,3,0,0,0,2.41,1.38H91c2-.07,5.6-.34,10.13-.69,11.19-.85,29.93-2.27,48.48-2.34h.35c3.76,0,7.7.23,11.51.45s7.94.46,11.88.46c2.31,0,4.39-.08,6.36-.24,5.26-.44,10.76-.66,16.37-.66,5.76,0,10.33.23,13.35.38,1.37.07,2.36.12,2.93.12a2.15,2.15,0,0,0,.44,0c.74-1.11.3-3.26-.18-4.45-.32-.78-7.48-2.11-14.06-3l-.83-.11.79-.27a39.1,39.1,0,0,1,7.07-1.54,12.63,12.63,0,0,1,1.47-.08c.72,0,1.44,0,2.09.08.5,0,1,0,1.35,0,.61,0,.72-.07.74-.09.63-.7.33-2.26.11-3.4a6.33,6.33,0,0,1-.16-1.09,11.4,11.4,0,0,0-.93-4.27,28.59,28.59,0,0,0-3.81-3.37l-.68-.52.84.18a24.83,24.83,0,0,0,3.9.53,1.56,1.56,0,0,0,.77-.12c.67-.45,2.79-5.36,1.18-9.49-6.92-2.12-28.34-2.57-45.13-2.57C134,58.68,95.06,60.41,90.19,61.46Z" transform="translate(-86.65 -47.23)"/><path class="cls-7" d="M212.88,94c-.27.39-13.09-1.45-31.65.09-9.92.83-20.38-.71-30.12-.67C120.8,93.53,91.55,95,91,94.91c-1.16-.24-.58-7.7,0-8.71s4.93-1.57,4.93-1.57-4.3-1.25-5.12-1.94.24-7.67.82-8.26,6.09-1,6.09-1S92,72.23,91.34,71.58s-.79-7.86.3-8.76c7.7-1.73,105.27-5,121.24,0,.84,1.22.72,9.14,0,9.62s-4.81-.38-4.81-.38a28.59,28.59,0,0,1,3.85,3.41,11.42,11.42,0,0,1,1,4.38c0,.87,1,3.56,0,4.62-.37.41-3.44-.16-5.77.1a38.64,38.64,0,0,0-7,1.54s12.27,1.78,12.8,3.08S213.7,92.84,212.88,94Z" transform="translate(-86.65 -47.23)"/><path class="cls-8" d="M142.83,86.88c5-.77,16.55-.2,26-2.31s22.9-4,23.29-7-11.16-4.71-21.94-6.83-14-2.89-25.6-3.85-21.17-1.92-32.9-1.54c-8.93.29-15.52,0-20.62-.87a20,20,0,0,0-.21,3c10.85.83,22.15-1,30.45.34,9.62,1.54,26.94,1.74,33.48,3.47s26.18,4,26.37,6.25-14.44,3.95-19.82,5.29S148.22,84,140.52,85.14s-28.29,2.12-34.83,3.28a96.36,96.36,0,0,1-15.25.75c-.06.63-.11,1.3-.13,2,6.29,0,14.36-.49,17.69-1.36C113.19,88.42,137.83,87.65,142.83,86.88Z" transform="translate(-86.65 -47.23)"/><path class="cls-9" d="M125.59,83.71c3.6-.53,11.9-.13,18.69-1.57s16.46-2.73,16.74-4.75-8-3.19-15.78-4.62a135.65,135.65,0,0,0-18.4-2.6c-8.3-.65-15.22-1.3-23.66-1a94.65,94.65,0,0,1-12.32-.27,13.93,13.93,0,0,0,.19,1.86c6.89.16,13.8-.69,19,.1,6.92,1,19.37,1.17,24.07,2.34s18.82,2.73,19,4.23S142.75,80.06,138.88,81s-9.41.78-14.95,1.57-20.34,1.43-25,2.21a49.34,49.34,0,0,1-5.88.47,3.85,3.85,0,0,0-2,1,2.1,2.1,0,0,0-.13.32,59.27,59.27,0,0,0,9.67-.86C104.28,84.75,122,84.23,125.59,83.71Z" transform="translate(-86.65 -47.23)"/><path class="cls-10" d="M91.37,75.05a1.69,1.69,0,0,1,.08-.24A1.69,1.69,0,0,0,91.37,75.05Z" transform="translate(-86.65 -47.23)"/><path class="cls-10" d="M90.65,79.05c0-.33.08-.67.12-1C90.73,78.38,90.68,78.72,90.65,79.05Z" transform="translate(-86.65 -47.23)"/><path class="cls-10" d="M91.19,75.73c.06-.25.11-.47.17-.66C91.3,75.26,91.25,75.48,91.19,75.73Z" transform="translate(-86.65 -47.23)"/><path class="cls-10" d="M90.77,78c.07-.49.15-1,.23-1.42C90.92,77.06,90.84,77.54,90.77,78Z" transform="translate(-86.65 -47.23)"/><path class="cls-10" d="M91,76.58c.06-.29.11-.56.17-.81C91.12,76,91.07,76.29,91,76.58Z" transform="translate(-86.65 -47.23)"/><path class="cls-11" d="M121.86,73.6c-6.7-1.42-16.56-.78-24.5-.27l.37.07s-5.51.44-6.09,1a.63.63,0,0,0-.1.17,65.57,65.57,0,0,1,16,.63c8.84,1.41,17.4,0,18,1.47.94,2.25-23.22,5-35,4.65a2.11,2.11,0,0,0,.29,1.34,1.11,1.11,0,0,0,.16.11c16.09.73,50.84-2.85,50.74-5.1C141.59,75,132.76,75.91,121.86,73.6Z" transform="translate(-86.65 -47.23)"/><path class="cls-10" d="M91.45,74.8a1.29,1.29,0,0,1,.09-.2A1.29,1.29,0,0,0,91.45,74.8Z" transform="translate(-86.65 -47.23)"/><path class="cls-10" d="M90.65,79.05a17.64,17.64,0,0,0-.12,2.3A17.64,17.64,0,0,1,90.65,79.05Z" transform="translate(-86.65 -47.23)"/><polygon class="cls-12" points="3.88 34.12 3.88 34.12 3.88 34.12 3.88 34.12"/><path class="cls-12" d="M90.65,79.05Z" transform="translate(-86.65 -47.23)"/><path class="cls-12" d="M90.77,78h0Z" transform="translate(-86.65 -47.23)"/><path class="cls-12" d="M91.18,75.77v0Z" transform="translate(-86.65 -47.23)"/><polygon class="cls-12" points="4.89 27.37 4.89 27.37 4.89 27.37 4.89 27.37"/><path class="cls-12" d="M91.45,74.81h0Z" transform="translate(-86.65 -47.23)"/><path class="cls-12" d="M91,76.61a0,0,0,0,0,0,0A0,0,0,0,1,91,76.61Z" transform="translate(-86.65 -47.23)"/><path class="cls-12" d="M91.36,75.07v0Z" transform="translate(-86.65 -47.23)"/><path class="cls-13" d="M106.65,77.54c-.6-1.36-10.39-1.47-15.53-1.51a31.24,31.24,0,0,0-.54,3.78C97.25,79.72,107.22,78.81,106.65,77.54Z" transform="translate(-86.65 -47.23)"/><path class="cls-14" d="M174,68.86c5.76,2.12,26.42,5.19,37.54,6.17a38.44,38.44,0,0,0-3.48-3s4.09.86,4.81.38c.29-.19.48-1.56.55-3.22a85.2,85.2,0,0,0-10.75-.36c-5.58.5-14.05.31-19.05-1.23s-13.09-4.42-18.48-5c-3.64-.39-9.48-.79-13.84-2.37-7,.1-14,.25-20.65.44,5.26,1.6,11.77,1.86,16.4,2.89C154,65.13,166.89,66.25,174,68.86Z" transform="translate(-86.65 -47.23)"/><path class="cls-15" d="M212.88,62.82c-5.5-1.73-20.71-2.47-38.59-2.63,8.05,2.31,30,5.38,39.14,5.92A8.51,8.51,0,0,0,212.88,62.82Z" transform="translate(-86.65 -47.23)"/><path class="cls-16" d="M212.88,94c.82-1.16.53-3.52,0-4.81s-12.8-3.08-12.8-3.08a38.64,38.64,0,0,1,7-1.54c2.33-.26,5.4.31,5.77-.1,1-1,0-3.73,0-4.61-9.57.5-22.1,2.76-26.36,5.28-3.23,1.92,2.22,5.46,11.15,8.33C207,93.53,212.7,94.26,212.88,94Z" transform="translate(-86.65 -47.23)"/><path class="cls-17" d="M179.59,87.45c-3.07,1.54-16.72,4-28.82,6h.34c5.3,0,10.81.42,16.33.7C173.14,91.83,178.67,89.05,179.59,87.45Z" transform="translate(-86.65 -47.23)"/><path class="cls-6" d="M91.16,95.11h-.23a.73.73,0,0,1-.48-.49c-.7-1.62-.18-7.57.4-8.51s2.89-1.31,4.22-1.53a20.24,20.24,0,0,1-4.37-1.73c-.21-.18-.32-.59-.36-1.28-.1-2.16.62-6.71,1.16-7.26s3.21-.8,5-1c-1.76-.4-4.73-1.12-5.24-1.62s-.63-3.35-.55-5.23c0-1.2.23-3.29.86-3.81l0,0h0c4.46-1,41.26-2.66,74.77-2.66,17.36,0,39.53.46,46.57,2.67l.06,0,0,.05c.73,1.07.77,6.77.34,8.95-.13.69-.28.87-.39.94a1.85,1.85,0,0,1-1,.18,20.33,20.33,0,0,1-3.18-.38,21.5,21.5,0,0,1,3.25,3,11.48,11.48,0,0,1,1,4.48,7.46,7.46,0,0,0,.16,1c.23,1.22.56,2.89-.21,3.73-.14.16-.42.22-1,.22-.38,0-.86,0-1.37-.06s-1.36-.07-2.07-.07a12.09,12.09,0,0,0-1.43.07A37.32,37.32,0,0,0,201,86c3.18.48,11.62,1.87,12.11,3.07s.87,3.74,0,5c-.08.1-.21.14-.61.14s-1.37-.06-2.59-.13c-2.78-.18-7.43-.46-13.39-.46-5.09,0-10.21.21-15.21.62-2,.17-4.07.25-6.39.25-3.95,0-8-.24-11.9-.47s-7.74-.45-11.49-.45h-.35c-22.11.09-43.6.9-53.92,1.29C94,95,91.8,95.11,91.16,95.11ZM91.73,63c-.35.35-.61,1.68-.69,3.5-.1,2.44.15,4.66.43,4.94.47.45,4,1.31,6.3,1.78l1.34.27-1.36.11c-2.1.16-5.59.57-6,1s-1.16,4.74-1,7c0,.79.17,1,.22,1,.64.55,3.86,1.56,5,1.91l.88.25-.91.12c-1.17.15-4.31.72-4.78,1.48s-1,6.7-.38,8.16c.06.15.14.25.21.26h.15c.63,0,2.78-.08,6-.2,10.33-.39,31.82-1.21,53.94-1.29h.35c3.76,0,7.7.23,11.51.45s7.94.46,11.88.46c2.31,0,4.39-.08,6.36-.24,5-.42,10.14-.63,15.24-.63,6,0,10.63.29,13.41.46,1.21.08,2.09.13,2.57.13a1.56,1.56,0,0,0,.32,0c.74-1.1.45-3.36-.05-4.58-.35-.87-7.94-2.28-12.64-3l-.8-.12.76-.26a39.1,39.1,0,0,1,7.07-1.54,12.63,12.63,0,0,1,1.47-.08c.72,0,1.45,0,2.09.08s1,.05,1.35.05c.62,0,.73-.07.74-.09.63-.69.33-2.26.11-3.4a6.33,6.33,0,0,1-.16-1.09,11.4,11.4,0,0,0-.93-4.27,28.53,28.53,0,0,0-3.8-3.37l-.69-.52.84.18a24.63,24.63,0,0,0,3.9.53,1.56,1.56,0,0,0,.77-.12c.57-.43.77-7.93,0-9.3-7.07-2.17-29.11-2.63-46.39-2.63C133,60.35,96.39,62,91.73,63Z" transform="translate(-86.65 -47.23)"/><path class="cls-5" d="M210.51,137c-5.39-1.35-17.45-1.73-40.93-1.35-9,.15-17.69-1.64-26.94-1.28-30.11,1.15-51.29,4.58-51.78,4-.9-.22-1.69-.28-2.11-1.48-1.33-3.81-.39-11.84.57-12.46,1.26-.82,10.5-2,10.5-2a62.34,62.34,0,0,1-9,.1,3.57,3.57,0,0,1-2.2-1.35c-1.34-.82-1-15.93.66-17.18.94-.71,39.83-3.62,73.33-1.54,27.92,1.74,47.15,2.06,48,2.51a3.66,3.66,0,0,1,1.62,2.82c.27,3.66-1.78,9.88-1.78,9.88l-8.92,3.52,8.92,3,1.54,1.54-1.54,3.72-10.46.23,10.46,3s1.42.56,1.54,1.54S211,136.45,210.51,137Z" transform="translate(-86.65 -47.23)"/><path class="cls-6" d="M91.37,138.65a1.28,1.28,0,0,1-.6-.08l-.21-.06a2.22,2.22,0,0,1-2-1.53c-1.32-3.81-.47-12,.64-12.69.72-.47,3.84-1,6.5-1.46H94.5c-1.3,0-2.53,0-3.66-.12a3.76,3.76,0,0,1-2.33-1.41c-.2-.14-.64-.66-.81-4.06-.23-4.71.25-12.45,1.5-13.4.84-.64,23.2-2.32,47.42-2.32,9.39,0,18.16.25,26,.74,15,.94,27.68,1.46,36.05,1.81s11.61.5,12,.72a3.85,3.85,0,0,1,1.73,3c.26,3.66-1.71,9.7-1.8,10l0,.08-8.51,3.37,8.46,2.86,1.67,1.67-1.64,4-9.31.2,9.23,2.63c.08,0,1.55.62,1.68,1.71.11.92-.87,2.1-1.45,2.8l-.21.26-.12,0c-4.1-1-12-1.49-25.74-1.49-4.38,0-9.33,0-15.14.14a122.86,122.86,0,0,1-12.65-.65c-3.83-.33-7.79-.68-11.79-.68-.85,0-1.69,0-2.49,0C123.42,135.34,108.11,137,99,138,95,138.37,92.43,138.65,91.37,138.65Zm-.38-.41a1.45,1.45,0,0,0,.38,0c1,0,3.63-.28,7.55-.7,9.15-1,24.47-2.61,43.71-3.35.81,0,1.66-.05,2.51-.05,4,0,8,.34,11.83.68a125.09,125.09,0,0,0,12.61.65c5.81-.09,10.76-.14,15.14-.14,13.61,0,21.55.45,25.72,1.46l.05-.06c.51-.62,1.46-1.76,1.37-2.52s-1.41-1.38-1.42-1.38l-11.67-3.33,11.61-.25,1.44-3.48-1.42-1.42L201,121.21l9.32-3.69c.25-.76,2-6.37,1.75-9.72a3.5,3.5,0,0,0-1.52-2.66c-.39-.19-5.21-.39-11.88-.67-8.37-.35-21-.88-36.06-1.81-7.88-.49-16.64-.74-26-.74-24.84,0-46.28,1.72-47.19,2.24-1,.77-1.6,8-1.34,13.07.12,2.57.44,3.64.67,3.79l0,0,0,0a3.39,3.39,0,0,0,2,1.25c1.12.08,2.34.12,3.63.12,2.94,0,5.28-.22,5.3-.22l0,.38c-3.18.42-9.45,1.37-10.42,2-.77.5-1.85,8.33-.48,12.24.34,1,.94,1.12,1.7,1.29l.33.08Z" transform="translate(-86.65 -47.23)"/><path class="cls-18" d="M212.05,138.58c-5.39-1.35-17.45-1.73-40.93-1.35-9,.15-17.69-1.64-26.94-1.28-30.11,1.15-52.83,3-53.32,2.44-1-1.29-1.27-11.58,0-12.4s10.5-2,10.5-2a58.81,58.81,0,0,0-10.5-1.44c-1.34-.82-1.65-15.73,0-17,.94-.71,39.83-3.62,73.33-1.54,27.92,1.74,47.42,2.08,47.86,3,1,2.06,0,12.26,0,12.26l-8.92,3.53,8.92,3V131l-10.46.22,10.46,3S213,137.36,212.05,138.58Z" transform="translate(-86.65 -47.23)"/><path class="cls-19" d="M134.94,123.5c9-.22,25.64-9.57,31.85-19.34l-2.6-.16-3.06-.17c-6.63,7-20.74,16.3-27.22,16.26-8.08,0-19.11-6.46-26.55-7.75-5.59-1-10.59,2.34-17.62,1.77,0,1.17.05,2.33.12,3.41a82.1,82.1,0,0,0,11.6-1.58C110.69,114,124.42,123.76,134.94,123.5Z" transform="translate(-86.65 -47.23)"/><path class="cls-20" d="M102.11,108.75c5.52-1.54,9.43.64,14,2.7s14.33,5.64,23.7,2a52.35,52.35,0,0,0,16.08-9.91c-1.76-.07-3.52-.12-5.28-.17a33.74,33.74,0,0,1-12.86,7.1c-10.39,3-19.68-3.74-25.27-4.46-9.43-1.22-14.62,1.85-22.17.57a17.53,17.53,0,0,0-.44,3A37.71,37.71,0,0,0,102.11,108.75Z" transform="translate(-86.65 -47.23)"/><path class="cls-21" d="M134.81,107.21a10.39,10.39,0,0,0,6.84-3.93c-7.65,0-15.08.07-21.8.28C124.32,106,130.12,107.72,134.81,107.21Z" transform="translate(-86.65 -47.23)"/><path class="cls-22" d="M90,130.85c0,1.26,0,2.6.1,3.79a58.19,58.19,0,0,1,18.14,3.08c6.79-.38,15.24-.86,24.76-1.3C119.25,129.23,100.71,128.78,90,130.85Z" transform="translate(-86.65 -47.23)"/><path class="cls-23" d="M98.38,123.37c1.79.31,3,.6,3,.6s-9.24,1.2-10.5,2c-.34.22-.57,1.11-.71,2.31,13.18-.84,35.77-.79,49.69,7.82l4.34-.17a82.67,82.67,0,0,1,8.79.19C141.38,127.65,121.51,121.78,98.38,123.37Z" transform="translate(-86.65 -47.23)"/><path class="cls-24" d="M186.71,105.24l-8.16-.42c-11.36,5.92-22.64,15.83-28.47,17.66,2.16,1,9.95,2.76,17.84,8.08,6.28,4.24,12.66,4.78,19.52,6.53,6.31,0,11.34.13,15.31.36-8.72-1.86-19.22-4.1-31.76-10.36-5.3-2.65-8.69-3.34-13.34-5.13C165.11,118.39,173.28,111,186.71,105.24Z" transform="translate(-86.65 -47.23)"/><path class="cls-25" d="M208.06,106.35c-2-.15-4.6-.3-7.83-.46-3.71,1.68-7.17,4.19-10.9,5.76-9.26,3.9-13.4,8.29-17.28,9.33,1.94.82,8.44,7.39,16,7.66a40,40,0,0,1,13.53,2.59l10.46-.22v-.14c-6.13-1.71-14.28-5.83-22.07-5.79-6.17,0-8.58-2.54-12.8-3.94,4.55-1.88,8.86-6.11,17.09-8.65C198.76,111.1,203.07,108.21,208.06,106.35Z" transform="translate(-86.65 -47.23)"/><path class="cls-26" d="M203.13,122.74l2.69-1.07-4.39-1.31a107.23,107.23,0,0,0,10.93-5.19c.07-1.12.12-2.35.14-3.53-7.67,4-14.51,8.12-18.64,9.12,2.19.83,9.19,3.59,18.19,6.39v-1.4Z" transform="translate(-86.65 -47.23)"/><path class="cls-6" d="M212.12,138.8l-.12,0c-4.1-1-12-1.48-25.74-1.48-4.38,0-9.33,0-15.13.14a125.77,125.77,0,0,1-12.66-.66c-3.83-.33-7.79-.68-11.79-.68-.85,0-1.69,0-2.49,0-14.58.56-27.46,1.29-36.86,1.83-7.42.42-12.77.73-15.13.73-1.24,0-1.4-.08-1.49-.19-.88-1.08-1.17-7.64-.67-10.83.17-1,.4-1.65.71-1.85,1-.67,7-1.56,9.51-1.91a58.18,58.18,0,0,0-9.41-1.2h0l0,0c-.76-.46-1-4-1.14-6-.19-3.88-.06-10.37,1.12-11.27.84-.63,23.21-2.32,47.42-2.32,9.39,0,18.15.25,26.05.74,11.35.71,21.23,1.18,29.16,1.55,14.08.67,18.55.91,18.85,1.51,1,2.08.06,11.94,0,12.36v.11l-8.54,3.38,8.55,2.89v5.59l-9.37.2,9.33,2.66,0,.1c0,.13,1,3.26,0,4.54Zm-25.86-1.9c13.6,0,21.54.45,25.71,1.46.71-1.06.07-3.47-.08-4l-11.58-3.3,11.55-.25v-4.93l-9.29-3.14,9.3-3.68c.11-1.13.94-10.16,0-12-.49-.43-8.06-.79-18.52-1.29-7.94-.38-17.82-.85-29.18-1.55-7.88-.49-16.64-.74-26-.74-24.84,0-46.28,1.71-47.19,2.24s-1.2,6.19-1,10.94c.18,3.52.6,5.39.92,5.7a60.22,60.22,0,0,1,10.48,1.44l1,.25-1,.13c-3.18.42-9.45,1.36-10.42,2-.1.07-.34.35-.54,1.59-.5,3.2-.16,9.52.57,10.5a4.59,4.59,0,0,0,1.21.07c2.34,0,7.7-.3,15.11-.72,9.4-.54,22.28-1.27,36.86-1.83.81,0,1.66,0,2.51,0,4,0,8,.34,11.83.68a124.94,124.94,0,0,0,12.61.65C176.93,137,181.88,136.9,186.26,136.9Z" transform="translate(-86.65 -47.23)"/><path class="cls-5" d="M88.65,226.18c5.39-1.35,17.45-1.73,40.93-1.35,9,.15,17.69-1.63,26.94-1.28,30.11,1.15,51.29,4.58,51.78,4,.9-.22,1.69-.28,2.1-1.48,1.34-3.81.4-11.84-.56-12.46-1.26-.82-10.5-2-10.5-2a62.34,62.34,0,0,0,9,.1,3.57,3.57,0,0,0,2.2-1.35c1.34-.82,1-15.93-.66-17.18-.94-.71-39.83-3.62-73.33-1.54-27.92,1.74-47.15,2.05-48,2.51a3.7,3.7,0,0,0-1.63,2.81c-.25,3.67,1.79,9.89,1.79,9.89l8.92,3.52-8.92,3-1.54,1.54,1.54,3.72,10.46.22-10.46,3s-1.42.56-1.54,1.54S88.17,225.59,88.65,226.18Z" transform="translate(-86.65 -47.23)"/><path class="cls-6" d="M200.2,227.09c-9.15-1-24.46-2.61-43.69-3.35-.8,0-1.64,0-2.49,0-4,0-8,.34-11.79.67a125.92,125.92,0,0,1-12.66.66c-5.8-.1-10.75-.15-15.13-.15-13.7,0-21.64.46-25.74,1.48l-.12,0-.21-.26c-.58-.7-1.56-1.88-1.45-2.81.13-1.08,1.6-1.67,1.68-1.7L97.83,219l-9.31-.2-1.64-4,1.67-1.66L97,210.32,88.5,207l0-.08c-.09-.26-2.06-6.3-1.8-10a3.89,3.89,0,0,1,1.73-3c.42-.21,3.79-.36,12-.71s21-.88,36.05-1.81c7.89-.49,16.66-.74,26-.74,24.21,0,46.58,1.69,47.42,2.32,1.25.95,1.73,8.69,1.5,13.39-.17,3.41-.62,3.93-.81,4.08a3.79,3.79,0,0,1-2.33,1.4c-1.13.08-2.36.12-3.66.12h-1.22c2.67.42,5.79,1,6.51,1.46,1.11.72,2,8.88.64,12.68a2.24,2.24,0,0,1-2,1.55l-.21.05a1.3,1.3,0,0,1-.6.08C206.73,227.79,204.13,227.51,200.2,227.09Zm8,.26.33-.07c.76-.17,1.36-.31,1.7-1.29,1.37-3.91.29-11.74-.48-12.24-1-.63-7.24-1.58-10.43-2l.05-.38s2.36.22,5.3.22c1.29,0,2.51,0,3.63-.13a3.38,3.38,0,0,0,2-1.24l0,0,0,0c.23-.14.54-1.21.67-3.79.26-5.11-.33-12.29-1.34-13.06-.91-.53-22.35-2.24-47.19-2.24-9.39,0-18.14.25-26,.74-15.05.93-27.7,1.46-36.06,1.81-6.67.27-11.49.48-11.88.67a3.47,3.47,0,0,0-1.52,2.66c-.24,3.35,1.5,9,1.75,9.72l9.32,3.69-9.38,3.17-1.41,1.41,1.44,3.49,11.61.25L88.72,222s-1.31.52-1.42,1.38.86,1.9,1.37,2.52l0,.06c4.17-1,12.12-1.46,25.72-1.46,4.38,0,9.33.05,15.14.14A125.29,125.29,0,0,0,142.2,224c3.83-.34,7.81-.68,11.82-.68.85,0,1.7,0,2.51.05,19.24.74,34.56,2.37,43.71,3.35,3.92.42,6.51.7,7.55.7a1.45,1.45,0,0,0,.38,0Z" transform="translate(-86.65 -47.23)"/><path class="cls-27" d="M89.42,227.72c5.39-1.35,17.45-1.73,40.93-1.35,9,.15,17.69-1.64,26.94-1.28,30.11,1.15,52.83,3,53.32,2.44,1-1.29,1.26-11.58,0-12.4s-10.5-2-10.5-2a58.81,58.81,0,0,1,10.5-1.44c1.34-.82,1.65-15.74,0-17-.94-.71-39.83-3.62-73.33-1.54-27.92,1.74-47.42,2.08-47.86,3-1,2.06,0,12.26,0,12.26l8.92,3.52-8.92,3v5.26l10.46.22-10.46,3S88.43,226.5,89.42,227.72Z" transform="translate(-86.65 -47.23)"/><path class="cls-28" d="M166.53,212.65c-9-.23-25.65-9.57-31.85-19.35l2.6-.16,3.06-.17c6.63,6.95,20.74,16.3,27.21,16.26,8.09,0,19.12-6.46,26.56-7.75,5.59-1,10.59,2.34,17.62,1.77,0,1.17,0,2.33-.12,3.41a82.1,82.1,0,0,1-11.6-1.58C190.78,203.15,177.05,212.9,166.53,212.65Z" transform="translate(-86.65 -47.23)"/><path class="cls-29" d="M199.35,197.89c-5.51-1.54-9.42.64-14,2.69s-14.33,5.65-23.7,2.06a52.35,52.35,0,0,1-16.08-9.91c1.75-.07,3.52-.12,5.28-.17a33.77,33.77,0,0,0,12.85,7.1c10.4,3,19.69-3.74,25.28-4.46,9.43-1.22,14.62,1.85,22.17.57a17.53,17.53,0,0,1,.44,3A37.8,37.8,0,0,1,199.35,197.89Z" transform="translate(-86.65 -47.23)"/><path class="cls-30" d="M166.66,196.35a10.41,10.41,0,0,1-6.85-3.93c7.66,0,15.09.07,21.81.28C177.15,195.11,171.34,196.86,166.66,196.35Z" transform="translate(-86.65 -47.23)"/><path class="cls-31" d="M211.47,220c0,1.26,0,2.6-.1,3.8a58,58,0,0,0-18.15,3.07c-6.78-.38-15.23-.86-24.75-1.3C182.22,218.37,200.76,217.93,211.47,220Z" transform="translate(-86.65 -47.23)"/><path class="cls-32" d="M203.08,212.51c-1.78.31-3,.6-3,.6s9.24,1.2,10.5,2c.34.22.57,1.11.71,2.32-13.18-.85-35.77-.8-49.69,7.81l-4.34-.17a80.11,80.11,0,0,0-8.79.19C160.09,216.79,180,210.92,203.08,212.51Z" transform="translate(-86.65 -47.23)"/><path class="cls-33" d="M114.76,194.38l8.16-.42c11.36,5.92,22.64,15.84,28.47,17.66-2.16,1-9.95,2.76-17.85,8.09-6.27,4.23-12.66,4.77-19.51,6.52-6.31,0-11.35.13-15.31.36,8.73-1.86,19.22-4.1,31.76-10.36,5.3-2.65,8.68-3.33,13.34-5.13C136.35,207.53,128.19,200.09,114.76,194.38Z" transform="translate(-86.65 -47.23)"/><path class="cls-34" d="M93.41,195.49c2-.15,4.6-.3,7.83-.46,3.71,1.68,7.17,4.19,10.89,5.76,9.27,3.9,13.41,8.29,17.29,9.33-1.94.82-8.44,7.39-16,7.66a40,40,0,0,0-13.53,2.59l-10.46-.22V220c6.13-1.71,14.28-5.84,22.07-5.79,6.17,0,8.58-2.55,12.8-3.94-4.55-1.88-8.86-6.11-17.09-8.65C102.71,200.24,98.4,197.36,93.41,195.49Z" transform="translate(-86.65 -47.23)"/><path class="cls-35" d="M98.34,211.87l-2.69-1.06L100,209.5a110.38,110.38,0,0,1-10.92-5.19C89,203.19,89,202,89,200.78c7.67,4,14.51,8.11,18.64,9.12-2.2.82-9.19,3.58-18.19,6.39v-1.4Z" transform="translate(-86.65 -47.23)"/><path class="cls-6" d="M89.27,227.84c-1-1.28-.07-4.41,0-4.54l0-.1,9.33-2.66-9.37-.2v-5.59l8.55-2.89-8.54-3.38v-.11c0-.42-1-10.28,0-12.36.29-.59,4.76-.84,18.84-1.51,7.94-.38,17.82-.85,29.17-1.55,7.89-.49,16.66-.74,26.05-.74,24.21,0,46.58,1.69,47.42,2.32,1.18.89,1.31,7.39,1.12,11.27-.1,2-.39,5.57-1.14,6l0,0h0a56.91,56.91,0,0,0-9.41,1.2c2.49.35,8.47,1.24,9.51,1.91.31.2.54.81.71,1.85.5,3.18.21,9.75-.67,10.83-.09.11-.25.19-1.49.19-2.36,0-7.72-.31-15.13-.73-9.4-.54-22.28-1.27-36.86-1.83-.8,0-1.64,0-2.49,0-4,0-8,.34-11.79.67a122.86,122.86,0,0,1-12.65.65c-5.81-.09-10.76-.14-15.14-.14-13.7,0-21.64.46-25.74,1.49l-.12,0Zm41.08-1.66a125.29,125.29,0,0,0,12.62-.65c3.83-.34,7.81-.68,11.82-.68.85,0,1.7,0,2.51.05,14.58.56,27.46,1.29,36.86,1.83,7.41.42,12.76.72,15.11.72a4.67,4.67,0,0,0,1.21-.07c.72-1,1.07-7.3.57-10.5-.2-1.25-.45-1.53-.54-1.59-1-.63-7.25-1.58-10.43-2l-1-.13,1-.25a60.59,60.59,0,0,1,10.48-1.44c.33-.31.75-2.18.93-5.7.23-4.75-.1-10.28-1-10.94s-22.35-2.24-47.19-2.24c-9.39,0-18.14.25-26,.73-11.36.71-21.24,1.18-29.18,1.56-10.46.5-18,.86-18.52,1.29-.93,1.87-.1,10.9,0,12l9.3,3.68L89.61,215V220l11.55.25-11.59,3.3c-.14.52-.78,2.93-.07,4,4.17-1,12.11-1.46,25.71-1.46C119.59,226,124.54,226.08,130.35,226.18Z" transform="translate(-86.65 -47.23)"/><path class="cls-5" d="M208.58,180.6c-.41.39-28.75-1.76-57.09-1.54-10.18.07-20.94,1.9-30,2.3-14.48.63-25,2.52-29.06,2.22a4,4,0,0,1-2.76-2.16c-.52-1.43.07-15.35.64-15.95s11.13-.28,11.13-.28-10.17-.89-11.67-3.32c-.73-1.18-1.7-10.46-.23-12.19.65-.76,23-3.42,48.5-3.34,11.5,0,23.48,1,36.08-.19,20-1.83,34,3,34.45,3.18a5.1,5.1,0,0,1,2.71,3.52c.06,2.27-2.28,5.05-2.58,5.42-.47.58-6.45.39-6.45.39s5.24,1.66,6.13,1.87a3.84,3.84,0,0,1,2.62,2.88c.14,2.89-2,7.51-2.36,8.08-.5.78-4.46,1.6-4.46,1.6s3.41.79,4.05.92c3.06.62,2.75,2,2.81,3.29S209,180.19,208.58,180.6Z" transform="translate(-86.65 -47.23)"/><path class="cls-6" d="M93.39,183.81c-.38,0-.7,0-1,0a4.16,4.16,0,0,1-2.93-2.29c-.54-1.46.06-15.5.68-16.14.13-.13.42-.42,5.83-.42H97.8c-3.12-.49-7.26-1.42-8.22-3-.71-1.15-1.78-10.56-.2-12.42.71-.83,23-3.4,47.52-3.4H138c3.39,0,6.75.1,10.31.19,3.78.1,7.69.2,11.62.2,5.35,0,9.84-.19,14.13-.58,3-.28,6-.41,9-.41,15.15,0,25.08,3.45,25.5,3.59a5.37,5.37,0,0,1,2.84,3.7c0,1.45-.88,3.4-2.58,5.49l0,.06c-.12.15-.39.49-4.46.49h-.8c1.61.5,4.24,1.32,4.84,1.47a4,4,0,0,1,2.76,3.05c.15,2.95-2,7.62-2.38,8.19s-2.53,1.21-3.76,1.5l3.22.73c2.91.59,2.93,1.92,2.95,3.1,0,.12,0,.24,0,.37,0,1.2-1.5,2.56-2.24,3.22l-.25.23c-.07.06-.14.1-.82.1-1.26,0-4.23-.14-8.33-.34-10.77-.51-29.38-1.39-48.08-1.25-5.82.05-11.83.66-17.63,1.26-4.37.45-8.5.87-12.38,1-7.59.33-14,1-19.16,1.53C98.45,183.49,95.4,183.81,93.39,183.81ZM96,165.3c-4.79,0-5.46.24-5.55.31-.42.59-1.17,14.19-.6,15.74a3.77,3.77,0,0,0,2.59,2c.29,0,.6,0,1,0,2,0,5-.32,8.89-.72,5.16-.54,11.58-1.2,19.18-1.53,3.87-.17,8-.6,12.36-1,5.81-.6,11.82-1.22,17.67-1.26,18.71-.14,37.32.74,48.1,1.25,4.09.19,7.06.33,8.31.33a4.18,4.18,0,0,0,.58,0l.24-.21c.64-.57,2.15-1.9,2.1-2.92v-.37c0-1.19,0-2.2-2.64-2.73l-4.07-.92-.86-.2.87-.17c1.5-.32,4-1,4.34-1.53s2.46-5.15,2.32-8a3.65,3.65,0,0,0-2.46-2.7c-.89-.22-5.93-1.81-6.14-1.88l-1.33-.42,1.39,0s1,0,2.13,0c3.66,0,4.11-.29,4.16-.35l.05-.06c1.64-2,2.53-3.88,2.49-5.24a5,5,0,0,0-2.58-3.34c-.42-.15-10.29-3.58-25.37-3.58-3,0-6,.14-9,.41-4.31.4-8.81.58-14.17.58-3.93,0-7.85-.1-11.63-.2-3.55-.09-6.91-.18-10.3-.19H136.9c-24.82,0-46.39,2.59-47.24,3.28-1.34,1.58-.47,10.78.25,11.95,1.44,2.33,11.43,3.23,11.53,3.23l0,.39S98.69,165.3,96,165.3Z" transform="translate(-86.65 -47.23)"/><path class="cls-36" d="M210.89,182.91c-.41.39-28.75-1.76-57.09-1.54-10.18.08-20.94,1.9-30,2.3-18,.78-31,.3-31.37-.09-1-1.12-.38-15.2.19-15.8s10.3-1.62,10.3-1.62-10.14-1.79-10.86-3-1.68-9.46-.21-11.19c.65-.76,23-3.42,48.5-3.34,11.49,0,23.48,1,36.08-.19,20-1.83,34.27,3.53,34.61,3.91.95,1,.43,7.64,0,8.21s-6.45.39-6.45.39,6,1.65,6.44,2.44.46,9.6,0,10.39-4.46,1.6-4.46,1.6,4.07,1.12,4.45,1.67S211.74,182.09,210.89,182.91Z" transform="translate(-86.65 -47.23)"/><path class="cls-37" d="M91.87,177.17c0,1.35,0,2.64.07,3.72,10.69-1.38,24.94-1.59,36.86,2.44,3-.25,6.13-.58,9.32-.91C126.22,177.09,106.12,175.18,91.87,177.17Z" transform="translate(-86.65 -47.23)"/><path class="cls-38" d="M148,172c-9.82-1-19.65-.77-26.41-2.56-5.07-1.35-18.82-1.9-29.16-.91-.18,1.09-.35,3.2-.45,5.51,7.41-.62,18.39-2.22,26.44-.75,11.29,2.05,25.81.12,31.58,2.56,3.79,1.61,8.36,2.54,12.51,5.52l4.22,0A30.6,30.6,0,0,0,148,172Z" transform="translate(-86.65 -47.23)"/><path class="cls-39" d="M121,164.56c6.8.77,19.88,2.57,29.12-.9-7.45,1.42-23.35-1.54-33-3.2a85,85,0,0,0-25.86-1,13,13,0,0,0,.79,3.75c.4.66,3.68,1.5,6.53,2.13C106.56,165,116.52,164.06,121,164.56Z" transform="translate(-86.65 -47.23)"/><path class="cls-40" d="M116.85,155.84c11,2.43,33.23,7.7,42.85,5.26,8.2-2.08,14.58-7.24,16.27-12.6-1.45.12-2.9.23-4.33.3-1.15,3.51-4.38,7.54-12.32,9.47-12.6,3.08-30.28-4.23-41.19-5.39-5.47-.57-11.16-1.7-16.71-2.37-5.77.6-9.33,1.18-9.59,1.48-.56.66-.77,2.26-.77,4.07C98.87,155.13,107.44,153.76,116.85,155.84Z" transform="translate(-86.65 -47.23)"/><path class="cls-41" d="M144.82,155.2c10.73-.19,17-2.89,19.92-6.18q-3.47,0-6.89,0c-5.44,4.36-18.64,6.48-27.86-.24-2.69.07-5.31.16-7.84.27C126.9,152.22,134.09,155.38,144.82,155.2Z" transform="translate(-86.65 -47.23)"/><path class="cls-42" d="M162.53,168.67c2.82-1,7.69-6.93,14.49-9.82,5.32-2.26,12.84-6.91,21.2-9.75a88.47,88.47,0,0,0-11-1,78.53,78.53,0,0,0-17.12,9.51c-4.24,3.34-12.7,10.27-22.13,11,4.93,1.28,11,2.69,13.4,5.13,1.83,1.83,10,4.17,15.65,7.84,18.81.52,33.58,1.55,33.87,1.27a2.86,2.86,0,0,0,.47-1.69c-7.89-1.59-19.29-1.58-24.71-3.31C180.23,175.85,168.56,169.56,162.53,168.67Z" transform="translate(-86.65 -47.23)"/><path class="cls-43" d="M193.86,161.73c2.64-2.45,11-6.59,17.65-7.39a3.87,3.87,0,0,0-.49-2,26.56,26.56,0,0,0-5.14-1.7,79,79,0,0,0-16.67,8.89c-3.85,2.56-15.27,4.52-15.78,7.52s10.78,5.69,14.37,6.46c3.15.68,15.62,3.22,23.51,5.47a6.32,6.32,0,0,0-.39-1.94c-.38-.55-4.45-1.67-4.45-1.67s4-.82,4.46-1.6a1,1,0,0,0,.11-.33c-8.42-.86-23.49-3.29-26.7-6.39C180.21,163.11,190.69,164.67,193.86,161.73Z" transform="translate(-86.65 -47.23)"/><path class="cls-44" d="M211,163.41c-.47-.79-6.44-2.44-6.44-2.44s6,.19,6.45-.39a7.27,7.27,0,0,0,.43-2.19c-7.46.74-15.88,3.86-16.82,7.32,1,2.14,9.68,4.13,16.69,4.53C211.37,167.41,211.26,163.89,211,163.41Z" transform="translate(-86.65 -47.23)"/><path class="cls-6" d="M105.37,184.28c-4.35,0-12.69-.12-13.1-.57-1.19-1.3-.4-15.45.19-16.06s6.25-1.21,9.11-1.54c-2.84-.54-9.09-1.82-9.7-2.83-.75-1.24-1.74-9.59-.18-11.42.71-.83,23-3.4,47.51-3.4h1.13c3.39,0,6.75.1,10.31.19,3.78.1,7.69.19,11.62.19,5.35,0,9.83-.18,14.13-.57,2.75-.26,5.55-.38,8.32-.38,15.91,0,26.19,4.07,26.46,4.35,1,1.13.44,7.87,0,8.47-.12.14-.39.48-4.46.48H206c1.87.56,4.78,1.51,5.14,2.12.52.87.47,9.78,0,10.59-.4.64-2.63,1.24-3.84,1.52,1.26.37,3.51,1.08,3.82,1.54.44.63.9,5.18,0,6.09-.07.06-.14.1-.82.1-1.26,0-4.23-.14-8.33-.34-10.77-.51-29.38-1.39-48.08-1.25-5.82,0-11.83.66-17.64,1.26-4.37.45-8.49.87-12.37,1C117.48,184.13,111.11,184.28,105.37,184.28Zm33.83-35.44c-24.81,0-46.38,2.6-47.23,3.28-1.38,1.62-.46,9.82.23,11,.49.81,6.84,2.21,10.73,2.9l1.35.23-1.36.15c-4.65.49-9.8,1.2-10.18,1.56-.49.68-1.16,14.47-.19,15.53.35.17,5,.44,12.82.44,5.73,0,12.1-.14,18.4-.41,3.87-.17,8-.6,12.35-1,5.82-.59,11.83-1.21,17.68-1.25,18.71-.14,37.32.74,48.1,1.25,4.09.19,7,.33,8.31.33a4.44,4.44,0,0,0,.58,0c.74-.82.27-5.13,0-5.56a16.93,16.93,0,0,0-4.34-1.59l-.77-.21.78-.17c1.5-.31,4-1,4.34-1.51.44-.69.47-9.46,0-10.2-.31-.52-4-1.72-6.32-2.34l-1.55-.44,1.61.06s1,0,2.13,0c3.66,0,4.11-.29,4.16-.35.36-.44.95-7,0-8-.43-.33-10.71-4.23-26.17-4.23-2.76,0-5.54.13-8.28.38-4.31.4-8.81.58-14.17.58-3.93,0-7.85-.1-11.63-.2-3.56-.09-6.91-.18-10.3-.19Z" transform="translate(-86.65 -47.23)"/><path class="cls-12" d="M92,174c.1-2.31.27-4.42.45-5.51" transform="translate(-86.65 -47.23)"/></svg>