<svg id="Слой_1" data-name="Слой 1" xmlns="http://www.w3.org/2000/svg" xmlns:xlink="http://www.w3.org/1999/xlink" viewBox="0 0 1400.64 1882"><defs><style>.cls-1{fill:#fff;}.cls-1,.cls-2,.cls-4,.cls-6{fill-rule:evenodd;}.cls-2{fill:url(#Безымянный_градиент_13);}.cls-3,.cls-7{fill:none;stroke:#ead627;}.cls-3{stroke-opacity:0.4;}.cls-4{fill:url(#Безымянный_градиент_7);}.cls-5{mask:url(#mask);}.cls-6{fill:url(#Новый_образец_градиентной_за_2);}.cls-7{stroke-miterlimit:10;stroke-opacity:0.3;}</style><linearGradient id="Безымянный_градиент_13" x1="1400" y1="1617.25" x2="0" y2="1617.25" gradientTransform="matrix(1, 0, 0, -1, 0, 1834)" gradientUnits="userSpaceOnUse"><stop offset="0" stop-color="#5bc8ab" stop-opacity="0.1"/><stop offset="1" stop-color="#31705f" stop-opacity="0.3"/></linearGradient><linearGradient id="Безымянный_градиент_7" x1="1602.24" y1="1452.11" x2="-169.88" y2="158.89" gradientTransform="matrix(1, 0, 0, -1, 0, 1834)" gradientUnits="userSpaceOnUse"><stop offset="0" stop-color="#ead627"/><stop offset="0.2" stop-color="#e3d321"/><stop offset="0.41" stop-color="#d6ce14"/><stop offset="0.46" stop-color="#c6c713"/><stop offset="0.63" stop-color="#95af12"/><stop offset="0.78" stop-color="#719e10"/><stop offset="0.91" stop-color="#5b940f"/><stop offset="0.99" stop-color="#53900f"/></linearGradient><mask id="mask" x="0.14" y="0" width="1400" height="1825.9" maskUnits="userSpaceOnUse"><g transform="translate(0.14 49)"><g id="h"><path class="cls-1" d="M0,247.62s214,49.24,386,35.29S851.66,124,1047,113.28s353,67.86,353,67.86V1729s-332.69,84.33-508.55,29.14S574.13,1614.52,386,1562,0,1494.45,0,1494.45Z"/></g></g></mask><linearGradient id="Новый_образец_градиентной_за_2" x1="896.11" y1="1528.68" x2="1264.11" y2="1848.64" gradientTransform="matrix(1, 0, 0, -1, 0, 1834)" gradientUnits="userSpaceOnUse"><stop offset="0" stop-color="#e7d72a"/><stop offset="0.23" stop-color="#f28d9f"/><stop offset="0.43" stop-color="#98dcc7"/><stop offset="0.45" stop-color="#91dac4"/><stop offset="0.62" stop-color="#5bc8ab"/><stop offset="0.81" stop-color="#468502"/><stop offset="1" stop-color="#3a7b0f"/></linearGradient></defs><path class="cls-2" d="M0,215.22s217.29,61.88,382.1,38.65S801.82,54.72,1008,37.3s392,97.38,392,97.38V398H0" transform="translate(0.14 49)"/><path class="cls-3" d="M0,215.22s217.29,61.88,382.1,38.65S801.82,54.72,1008,37.3s392,97.38,392,97.38V398H0" transform="translate(0.14 49)"/><path class="cls-4" d="M0,247.62s214,49.24,386,35.29S851.66,124,1047,113.28s353,67.86,353,67.86V1833H0Z" transform="translate(0.14 49)"/><g class="cls-5"><path class="cls-6" d="M1092-49a184,184,0,1,0,184,184A184,184,0,0,0,1092-49Z" transform="translate(0.14 49)"/></g><path class="cls-7" d="M0,201.15s240.61,67.1,416.9,18.3S824.33,23.49,1005.51,2.9,1400,107.82,1400,107.82" transform="translate(0.14 49)"/></svg>