<svg id="Слой_1" data-name="Слой 1" xmlns="http://www.w3.org/2000/svg" xmlns:xlink="http://www.w3.org/1999/xlink" viewBox="0 0 1400.64 927.87">
  <defs>
    <style>
      .cls-1, .cls-4, .cls-6 {
        fill: none;
      }

      .cls-2 {
        clip-path: url(#clip-path);
      }

      .cls-3, .cls-5 {
        fill-rule: evenodd;
      }

      .cls-3 {
        fill: url(#Безымянный_градиент);
      }

      .cls-4, .cls-6 {
        stroke: #ead627;
      }

      .cls-4 {
        stroke-opacity: 0.4;
      }

      .cls-5 {
        fill: url(#Безымянный_градиент_2);
      }

      .cls-6 {
        stroke-miterlimit: 10;
        stroke-opacity: 0.3;
      }
    </style>
    <clipPath id="clip-path" transform="translate(0 -49.13)">
      <rect class="cls-1" x="0.14" y="49.62" width="1400" height="927.38"/>
    </clipPath>
    <linearGradient id="Безымянный_градиент" data-name="Безымянный градиент" x1="1400" y1="-1333.17" x2="0" y2="-1333.17" gradientTransform="translate(0.14 1598.92)" gradientUnits="userSpaceOnUse">
      <stop offset="0" stop-color="#5bc8ab" stop-opacity="0.1"/>
      <stop offset="1" stop-color="#31705f" stop-opacity="0.3"/>
    </linearGradient>
    <linearGradient id="Безымянный_градиент_2" data-name="Безымянный градиент 2" x1="1377.55" y1="-1456.55" x2="54.63" y2="-491.14" gradientTransform="translate(0.14 1598.92)" gradientUnits="userSpaceOnUse">
      <stop offset="0" stop-color="#ead627"/>
      <stop offset="0.2" stop-color="#e3d321"/>
      <stop offset="0.41" stop-color="#d6ce14"/>
      <stop offset="0.46" stop-color="#c6c713"/>
      <stop offset="0.63" stop-color="#95af12"/>
      <stop offset="0.78" stop-color="#719e10"/>
      <stop offset="0.91" stop-color="#5b940f"/>
      <stop offset="0.99" stop-color="#53900f"/>
    </linearGradient>
  </defs>
  <g class="cls-2">
    <g>
      <path class="cls-3" d="M.14,264.22s217.29,61.88,382.1,38.65S802,103.73,1008.14,86.3s392,97.38,392,97.38V447H.14" transform="translate(0 -49.13)"/>
      <path class="cls-4" d="M.14,264.22s217.29,61.88,382.1,38.65S802,103.73,1008.14,86.3s392,97.38,392,97.38V447H.14" transform="translate(0 -49.13)"/>
      <path class="cls-5" d="M.14,296.62s214,49.24,386,35.29,465.64-158.92,661-169.63,353,67.86,353,67.86V977H.14Z" transform="translate(0 -49.13)"/>
      <path class="cls-6" d="M.14,250.15s240.61,67.1,416.9,18.3,407.43-196,588.61-216.55,394.49,104.92,394.49,104.92" transform="translate(0 -49.13)"/>
    </g>
  </g>
</svg>
