<svg id="Capa_1" data-name="Capa 1" xmlns="http://www.w3.org/2000/svg" xmlns:xlink="http://www.w3.org/1999/xlink" viewBox="0 0 484.12 512.01"><defs><style>.cls-1{fill:url(#Безымянный_градиент);}.cls-2,.cls-5{fill:#2626bb;}.cls-2,.cls-4{opacity:0.1;}.cls-2{isolation:isolate;}.cls-3{fill:#8eb943;}.cls-6{fill:#fff;}.cls-7{fill:#8db843;}.cls-8{fill:#f9dc26;}.cls-9{fill:#2c5209;}.cls-10{fill:#ff5ba7;}.cls-11{fill:#5bc8ab;}</style><linearGradient id="Безымянный_градиент" x1="104.33" y1="228.45" x2="488.55" y2="-155.76" gradientTransform="translate(-13.94 212)" gradientUnits="userSpaceOnUse"><stop offset="0.05" stop-color="#53900f"/><stop offset="1" stop-color="#f9dc26"/></linearGradient></defs><path class="cls-1" d="M480.25,391.9c-34.4-102.63-125.94-141.85-40.38-259,88.39-121-76.8-161.06-168-113.29-33.61,17.6-65,39-98.12,57.55-33.81,19-126-40.91-135,22.79-4.09,29.21,29.81,52.29,31.31,83.4,1.74,36.34-28.08,51.2-51.54,71.39C-17.15,285.45,1.59,379.61,50.11,389.8c22.94,4.81,44.09-12.43,66.07-20.54,88-32.44,130.71,64.72,181.72,116.82C357.9,547.3,510.25,493.7,480.25,391.9Z" transform="translate(0 0.02)"/><path class="cls-2" d="M269.52,386.09l-15.59-4.6-9.18-13.41a4.29,4.29,0,0,0-6-1.09,4.18,4.18,0,0,0-1.09,1.09l-9.19,13.41-15.59,4.6a4.28,4.28,0,0,0-2.89,5.32,4.36,4.36,0,0,0,.71,1.39l9.91,12.88-.44,16.24a4.27,4.27,0,0,0,4.14,4.4,4.2,4.2,0,0,0,1.57-.25l15.31-5.44,15.31,5.44a4.29,4.29,0,0,0,5.47-2.6,4.53,4.53,0,0,0,.24-1.55l-.45-16.24,9.91-12.88a4.27,4.27,0,0,0-.77-6,4.19,4.19,0,0,0-1.41-.72Z" transform="translate(0 0.02)"/><path class="cls-2" d="M340.52,416.13l-15.59-4.59-9.18-13.41A4.28,4.28,0,0,0,309.8,397a4.19,4.19,0,0,0-1.11,1.11l-9.19,13.41-15.59,4.59a4.3,4.3,0,0,0-2.89,5.34,4.21,4.21,0,0,0,.71,1.38l9.91,12.88L291.2,452a4.27,4.27,0,0,0,4.14,4.4,4.2,4.2,0,0,0,1.57-.25l15.31-5.45,15.31,5.45a4.29,4.29,0,0,0,5.47-2.6,4.53,4.53,0,0,0,.24-1.55l-.45-16.24,9.91-12.88a4.28,4.28,0,0,0-.77-6,4.19,4.19,0,0,0-1.41-.72Z" transform="translate(0 0.02)"/><path class="cls-2" d="M200.21,416.13l-15.59-4.59-9.19-13.41a4.28,4.28,0,0,0-6-1.11,4.19,4.19,0,0,0-1.11,1.11l-9.19,13.41-15.58,4.59a4.28,4.28,0,0,0-2.91,5.31,4.38,4.38,0,0,0,.72,1.41l9.92,12.88L150.88,452a4.28,4.28,0,0,0,4.16,4.39,4.09,4.09,0,0,0,1.55-.24l15.31-5.45,15.31,5.45a4.27,4.27,0,0,0,5.46-2.58,4.17,4.17,0,0,0,.25-1.57l-.44-16.24,9.91-12.88a4.29,4.29,0,0,0-.8-6,4.21,4.21,0,0,0-1.38-.71Z" transform="translate(0 0.02)"/><path class="cls-2" d="M473.2,207.31a30.3,30.3,0,0,0-30,8.56c-.49.53-1,1.08-1.42,1.63a118.29,118.29,0,0,0-6.86-35.31,30.3,30.3,0,0,0,13.8-50.14,30.32,30.32,0,0,0-23.66,20.39,31.33,31.33,0,0,0-1.4,6.85,117.89,117.89,0,0,0-19.6-23.58,35.92,35.92,0,0,0-46-39.18,35.9,35.9,0,0,0,38.78,46.09,108.18,108.18,0,0,1,17,19.74,29.49,29.49,0,0,0-4.52-1.92,30.31,30.31,0,0,0-30.44,6.86,30.32,30.32,0,0,0,47.2,19.7,109,109,0,0,1,5.9,35.48v2.58a30.38,30.38,0,0,0-36.92-15.18,30.31,30.31,0,0,0,34,37.8,106.76,106.76,0,0,1-16.28,36.48,30.64,30.64,0,0,0-.7-7.64,30.3,30.3,0,0,0-21.51-22.61,30.29,30.29,0,0,0-10,28.56c-32.75-12.41-80.85-25.6-137.36-25.6-57.08,0-106.21,13.47-139.53,26a30.28,30.28,0,0,0-9.94-28.93,30.24,30.24,0,0,0-22.21,30.25,107,107,0,0,1-16.28-36.48,30.31,30.31,0,0,0,34-37.81,30.34,30.34,0,0,0-36.91,15.18V222.5A109.05,109.05,0,0,1,58.13,187a30.32,30.32,0,0,0,47.2-19.7,30.33,30.33,0,0,0-30.44-6.86,28.53,28.53,0,0,0-4.52,1.92,108.91,108.91,0,0,1,17-19.74,35.91,35.91,0,0,0,38.79-46.09,35.93,35.93,0,0,0-46,39.18,118,118,0,0,0-19.68,23.58,30.79,30.79,0,0,0-1.42-6.85,30.3,30.3,0,0,0-23.61-20.39,30.31,30.31,0,0,0,13.8,50.14,118.29,118.29,0,0,0-6.86,35.31c-.45-.55-.93-1.1-1.42-1.63a30.34,30.34,0,0,0-30-8.56A30.32,30.32,0,0,0,44.75,247a116.76,116.76,0,0,0,16.78,40.43,30.24,30.24,0,0,0-34,8.47A30.29,30.29,0,0,0,64.8,317l.15,0,9.47,17a157.74,157.74,0,0,0-53,37.34A5.26,5.26,0,0,0,24.06,380l31.82,7.56L53,432.44a5.27,5.27,0,0,0,9,4.08c31.61-31.59,69.16-41,81.37-43.29a5,5,0,0,0,4-4.91V352.89a313.21,313.21,0,0,1,189.37-.67v36.1a5,5,0,0,0,4.06,4.9c12.21,2.33,49.76,11.71,81.37,43.3a5.27,5.27,0,0,0,9-4.08l-2.9-44.88L460.06,380a5.26,5.26,0,0,0,3.93-6.32,5.35,5.35,0,0,0-1.25-2.36,157.91,157.91,0,0,0-52.32-37L419.51,317a30.29,30.29,0,0,0,37.09-21.18A30.28,30.28,0,0,0,427,286a30.63,30.63,0,0,0-4.4,1.35A116.67,116.67,0,0,0,439.37,247a30.32,30.32,0,0,0,33.83-39.65Z" transform="translate(0 0.02)"/><path class="cls-3" d="M62,412.52c38.34-38.32,85.42-44,85.42-44L110.92,299s-50.5,6.05-89.5,48.2A5.28,5.28,0,0,0,24.06,356l31.82,7.56L53,408.44a5.27,5.27,0,0,0,9,4.08Z" transform="translate(0 0.02)"/><path class="cls-2" d="M110.92,299.06l36.45,69.5s-15.92,1.91-36.79,11l-9.84-3.46a10,10,0,0,1-5.42-4.58L63.88,315C89.55,301.62,110.92,299.06,110.92,299.06Z" transform="translate(0 0.02)"/><path class="cls-3" d="M422.17,412.52c-38.34-38.32-85.42-44-85.42-44L373.2,299s50.5,6.05,89.5,48.2a5.28,5.28,0,0,1-2.64,8.78l-31.82,7.56,2.89,44.88a5.27,5.27,0,0,1-9,4.08Z" transform="translate(0 0.02)"/><path class="cls-2" d="M420.51,315.16l-29.58,56.18a10,10,0,0,1-5.65,4.82l-11.07,3.74c-21.19-9.39-37.46-11.34-37.46-11.34l36.45-69.5S394.72,301.64,420.51,315.16Z" transform="translate(0 0.02)"/><g class="cls-4"><path class="cls-5" d="M97.16,350.87l50.21,17.69v-57H97.16Z" transform="translate(0 0.02)"/></g><path class="cls-3" d="M243.11,232.87c-84.59,0-151.7,29.57-175.81,41.79a10.53,10.53,0,0,0-4.64,14.15c.06.13.13.25.2.38l34.3,61.68s58-37,146-37,146,37,146,37L421.64,289a10.55,10.55,0,0,0-4.41-14.24l-.06,0c-23.46-12.18-89.32-41.85-174.06-41.85Z" transform="translate(0 0.02)"/><path class="cls-2" d="M97.16,350.87l50.21,17.69v-57H97.16Z" transform="translate(0 0.02)"/><path class="cls-2" d="M389.06,350.87l-52.32,17.69v-57h52.32Z" transform="translate(0 0.02)"/><path class="cls-3" d="M243.11,232.87c-84.59,0-151.7,29.57-175.81,41.79a10.53,10.53,0,0,0-4.64,14.15c.06.13.13.25.2.38l34.3,61.68s58-37,146-37,146,37,146,37L421.64,289a10.55,10.55,0,0,0-4.41-14.24l-.06,0c-23.46-12.18-89.32-41.85-174.06-41.85Z" transform="translate(0 0.02)"/><g class="cls-4"><path class="cls-5" d="M418.2,275.34q-2.54,4.53-5.51,8.83a30.72,30.72,0,0,0-.7-7.65,31.26,31.26,0,0,0-1.71-5.25c-6.62-3.22-15.14-7.07-25.32-11.07a30.29,30.29,0,0,0,8.57,42c.66.44,1.33.85,2,1.23-2.15,1.91-4.37,3.75-6.7,5.51a5,5,0,1,0,6,8h0a123.63,123.63,0,0,0,10.21-8.64,30.68,30.68,0,0,0,4.38,3.91L421.64,289a10.54,10.54,0,0,0-3.44-13.65Z" transform="translate(0 0.02)"/><path class="cls-5" d="M72.13,276.52a30.72,30.72,0,0,0-.7,7.65q-2.94-4.23-5.45-8.7a10.54,10.54,0,0,0-3.12,13.72l12.5,22.48a31.25,31.25,0,0,0,3.7-3.39,126.39,126.39,0,0,0,10.17,8.61,5,5,0,0,0,6-8q-3.48-2.64-6.7-5.51a30.28,30.28,0,0,0,11.83-41.16c-.33-.6-.69-1.19-1.06-1.77-10.29,4-18.91,7.83-25.59,11a32.37,32.37,0,0,0-1.61,5Z" transform="translate(0 0.02)"/><path class="cls-5" d="M337.86,262.48h-7.34a18.65,18.65,0,1,1,.86,37.29h-88a68.22,68.22,0,0,1-37.58-11.28,40.58,40.58,0,0,0-22.36-6.72h-49.2a10,10,0,0,1-10-10V251.71c31.63-10,72.64-18.84,118.88-18.84a387,387,0,0,1,112.36,17.07A18.65,18.65,0,0,1,337.86,262.48Z" transform="translate(0 0.02)"/></g><path class="cls-6" d="M330.52,126.6H293.85a11.6,11.6,0,0,1-11.6-11.6h0V88.2a32.57,32.57,0,0,0-32.57-32.57h0A12.71,12.71,0,0,0,237,68.33V97a56.32,56.32,0,0,1-24.38,46.38,66.31,66.31,0,0,1-37.52,11.67H160.68l-5,5v92.72l5,5h22.75a40.5,40.5,0,0,1,22.36,6.72,68.22,68.22,0,0,0,37.58,11.28h87.16V126.6Z" transform="translate(0 0.02)"/><path class="cls-7" d="M124.23,165.05v82.72a10,10,0,0,0,10,10h26.45V155.05H134.23A10,10,0,0,0,124.23,165.05Z" transform="translate(0 0.02)"/><path class="cls-8" d="M278,178.72a5,5,0,0,0-6.7,2.16c-.11.19-11.38,19.61-60.55,19.61h-5a5,5,0,0,0,0,10h27.67c9.67,0,17.85,7.65,18.24,17v1.08a5,5,0,1,0,10,0v-1.49a27.54,27.54,0,0,0-12-21.62c23.63-7.09,30.17-19.3,30.54-20a5,5,0,0,0-2.18-6.73Z" transform="translate(0 0.02)"/><path class="cls-8" d="M330.52,238.48H305.06a18.65,18.65,0,1,0-.86,37.29h26.32a18.65,18.65,0,1,0,.86-37.29Z" transform="translate(0 0.02)"/><path class="cls-8" d="M341.23,163.9H294.34a18.64,18.64,0,0,0-18.64,18.64c0,.22,0,.45,0,.67.35,10.11,9,18,19.08,18h46a18.94,18.94,0,0,0,19.08-18,18.65,18.65,0,0,0-18-19.31h-.67Z" transform="translate(0 0.02)"/><path class="cls-6" d="M297.72,238.48a18.65,18.65,0,0,1,0-37.29h40.13a18.65,18.65,0,1,1,.86,37.29c-.28,0-.57,0-.86,0Z" transform="translate(0 0.02)"/><path class="cls-6" d="M340.79,126.6h-46c-10.11,0-18.73,7.86-19.08,18a18.65,18.65,0,0,0,18,19.32h47.56a18.65,18.65,0,0,0,18.65-18.65c0-.23,0-.45,0-.68-.36-10.11-9-18-19.08-18Z" transform="translate(0 0.02)"/><ellipse class="cls-3" cx="380.33" cy="94.98" rx="19.01" ry="31.69" transform="translate(44.24 296.77) rotate(-45)"/><ellipse class="cls-3" cx="404.24" cy="151.57" rx="16.05" ry="26.76" transform="translate(133.76 488.07) rotate(-71.76)"/><ellipse class="cls-3" cx="439.04" cy="132.84" rx="26.74" ry="16.04" transform="translate(176.56 509.03) rotate(-71.93)"/><ellipse class="cls-3" cx="414.69" cy="204.25" rx="16.05" ry="26.77" transform="translate(-17.91 367.2) rotate(-46.86)"/><ellipse class="cls-3" cx="455.15" cy="202.93" rx="26.77" ry="16.05" transform="translate(-4.15 396.3) rotate(-46.86)"/><ellipse class="cls-3" cx="396.29" cy="256.21" rx="16.05" ry="26.76" transform="translate(-46.32 92.56) rotate(-12.59)"/><ellipse class="cls-3" cx="430.45" cy="277.9" rx="26.76" ry="16.05" transform="translate(-50.23 100.53) rotate(-12.59)"/><ellipse class="cls-3" cx="103.71" cy="94.95" rx="31.69" ry="19.01" transform="translate(-36.76 101.16) rotate(-45)"/><ellipse class="cls-3" cx="79.94" cy="151.72" rx="26.76" ry="16.05" transform="translate(-43.47 32.66) rotate(-18.24)"/><ellipse class="cls-3" cx="43.8" cy="133.5" rx="16.05" ry="26.76" transform="translate(-39.59 20.43) rotate(-18.24)"/><ellipse class="cls-3" cx="69.76" cy="204.13" rx="26.77" ry="16.05" transform="translate(-120.72 102.9) rotate(-43.14)"/><ellipse class="cls-3" cx="29.31" cy="202.83" rx="16.05" ry="26.77" transform="translate(-130.77 74.89) rotate(-43.14)"/><ellipse class="cls-3" cx="87.79" cy="255.92" rx="26.76" ry="16.05" transform="translate(-181.11 285.83) rotate(-77.41)"/><ellipse class="cls-3" cx="53.65" cy="277.59" rx="16.05" ry="26.76" transform="translate(-228.97 269.46) rotate(-77.41)"/><path class="cls-8" d="M241.22,396.63l-15.31,5.44a4.27,4.27,0,0,1-5.46-2.58,4.17,4.17,0,0,1-.25-1.57l.44-16.24-9.91-12.88a4.29,4.29,0,0,1,.8-6,4.21,4.21,0,0,1,1.38-.71l15.59-4.59,9.19-13.41a4.28,4.28,0,0,1,5.95-1.11,4.19,4.19,0,0,1,1.11,1.11l9.18,13.41,15.59,4.59a4.29,4.29,0,0,1,2.9,5.31,4.38,4.38,0,0,1-.72,1.41l-9.91,12.88.45,16.24a4.28,4.28,0,0,1-4.16,4.39,4.09,4.09,0,0,1-1.55-.24Z" transform="translate(0 0.02)"/><path class="cls-8" d="M312.22,426.67l-15.31,5.45a4.27,4.27,0,0,1-5.46-2.58,4.17,4.17,0,0,1-.25-1.57l.44-16.24-9.91-12.89a4.27,4.27,0,0,1,.79-6,4.36,4.36,0,0,1,1.39-.71l15.59-4.59,9.19-13.41a4.28,4.28,0,0,1,5.95-1.11,4.19,4.19,0,0,1,1.11,1.11l9.18,13.41,15.59,4.59a4.27,4.27,0,0,1,2.9,5.3,4.19,4.19,0,0,1-.72,1.41l-9.91,12.89.45,16.24a4.28,4.28,0,0,1-4.16,4.39,4.09,4.09,0,0,1-1.55-.24Z" transform="translate(0 0.02)"/><path class="cls-8" d="M171.9,426.67l-15.31,5.45a4.29,4.29,0,0,1-5.47-2.6,4.53,4.53,0,0,1-.24-1.55l.45-16.24-9.91-12.89a4.27,4.27,0,0,1,.77-6,4.19,4.19,0,0,1,1.41-.72l15.59-4.59,9.18-13.41a4.28,4.28,0,0,1,5.95-1.11,4.19,4.19,0,0,1,1.11,1.11l9.19,13.41,15.59,4.59a4.28,4.28,0,0,1,2.89,5.32,4.36,4.36,0,0,1-.71,1.39l-9.91,12.89.44,16.24a4.27,4.27,0,0,1-4.14,4.4,4.36,4.36,0,0,1-1.56-.25Z" transform="translate(0 0.02)"/><path class="cls-9" d="M444.5,228.41a35.34,35.34,0,0,0,33.43-46.71,5,5,0,0,0-3.44-3.22,35.25,35.25,0,0,0-33.18,8.22,118.12,118.12,0,0,0-4.82-23.76,35.31,35.31,0,0,0,15.84-58.34,5,5,0,0,0-4.47-1.47,35.25,35.25,0,0,0-27.51,23.74c-.28.83-.51,1.67-.72,2.5A121,121,0,0,0,408.34,116a40.93,40.93,0,0,0-51.82-48.2,5,5,0,0,0-3.33,3.33,40.9,40.9,0,0,0,48,51.86q3.76,3.87,7.09,8a35.3,35.3,0,0,0-33,8.71,5,5,0,0,0-1.47,4.48A35.32,35.32,0,0,0,427.55,168a108.55,108.55,0,0,1,4.11,23.8,33.24,33.24,0,0,0-2.81-3,35.28,35.28,0,0,0-35.53-7.66,5,5,0,0,0-3.22,3.44,35.35,35.35,0,0,0,34.11,44.49c1.12,0,2.25-.06,3.38-.17a106.71,106.71,0,0,1-10.4,24.21c-.1-.56-.2-1.13-.33-1.69a35.26,35.26,0,0,0-25-26.33,5,5,0,0,0-4.6,1,35.25,35.25,0,0,0-12.25,25c-8.34-3-16.89-5.7-25.53-8.16a23.34,23.34,0,0,0-1.56-1.89,23.8,23.8,0,0,0,13.61-20.39,23.49,23.49,0,0,0-6.62-17.28,12.44,12.44,0,0,0-1.07-1,23.58,23.58,0,0,0,2-38.48,24.65,24.65,0,0,0,2.46-2.22,23.49,23.49,0,0,0,6.62-17.28c-.45-12.57-11.25-22.79-24.08-22.79h-47a6.62,6.62,0,0,1-6.6-6.6V88.2a37.62,37.62,0,0,0-37.58-37.57A17.74,17.74,0,0,0,232,68.35a5,5,0,0,0,10,0,7.74,7.74,0,0,1,7.72-7.72A27.61,27.61,0,0,1,277.25,88.2V115a16.52,16.52,0,0,0,4,10.77,23.41,23.41,0,0,0-3.91,35.9,26.06,26.06,0,0,0,2.47,2.22,24.86,24.86,0,0,0-2.47,2.23,23.45,23.45,0,0,0,.47,33.15,24,24,0,0,0,4,3.11,23.62,23.62,0,0,0-1.55,33.37,23.88,23.88,0,0,0,7.36,5.44,23.61,23.61,0,0,0-1.85,29.58H243.37a63.1,63.1,0,0,1-35-10.57,45.28,45.28,0,0,0-25.2-7.43H134.23a5,5,0,0,1-5-5V165.05a5,5,0,0,1,5-5h40.83a70.94,70.94,0,0,0,40.38-12.55A61.29,61.29,0,0,0,242,97a5,5,0,0,0-10,0,51.27,51.27,0,0,1-22.21,42.26,61,61,0,0,1-34.68,10.79h-40.8a15,15,0,0,0-15,15h0v83c-3.38,1.11-6.75,2.24-10.1,3.42a35.18,35.18,0,0,0-12.25-25.37,5,5,0,0,0-4.6-1,35.26,35.26,0,0,0-25,26.33c-.13.56-.23,1.13-.33,1.69a106.71,106.71,0,0,1-10.4-24.21c1.12.11,2.25.17,3.38.17a35.35,35.35,0,0,0,34.1-44.52,5,5,0,0,0-3.22-3.44,35.28,35.28,0,0,0-35.53,7.66,33.24,33.24,0,0,0-2.81,3A108.09,108.09,0,0,1,56.57,168a35.33,35.33,0,0,0,53.68-23.82,5,5,0,0,0-1.47-4.47A35.27,35.27,0,0,0,75.83,131a104.77,104.77,0,0,1,7.09-8,40.93,40.93,0,0,0,48-51.86,5,5,0,0,0-3.33-3.33A40.93,40.93,0,0,0,75.78,116a122.68,122.68,0,0,0-11.3,13.42c-.21-.83-.43-1.67-.71-2.49a35.26,35.26,0,0,0-27.51-23.8,5,5,0,0,0-4.47,1.47,35.31,35.31,0,0,0,15.84,58.34,118.12,118.12,0,0,0-4.82,23.76,35.25,35.25,0,0,0-33.18-8.22,5,5,0,0,0-3.44,3.22,35.34,35.34,0,0,0,33.43,46.72,34.44,34.44,0,0,0,6.25-.58,116.36,116.36,0,0,0,11.77,29.21A35.24,35.24,0,0,0,23.73,268.6a5,5,0,0,0-1,4.59,35.28,35.28,0,0,0,39.69,25.45l30.4,54.66a4.92,4.92,0,0,0,2.48,2.17c.07,0,34,12,34,12-17.79,5.13-46,16.63-70.88,41.53-.09.08-.12.11-.28,0s-.18-.15-.17-.27l2.89-44.88a5,5,0,0,0-3.8-5.15l-31.82-7.56a.22.22,0,0,1-.18-.14.28.28,0,0,1,.08-.31,148.35,148.35,0,0,1,27-22.87,5,5,0,1,0-5.53-8.34h0A158.39,158.39,0,0,0,17.83,343.9a10.28,10.28,0,0,0,5.15,17l27.71,6.58-2.62,40.67a10.26,10.26,0,0,0,17.49,7.94c36.59-36.56,82-42.48,82.49-42.54a5,5,0,0,0,4.38-4.89v-36A306.69,306.69,0,0,1,331.75,332v36.65a5,5,0,0,0,4.37,4.88c.46.06,45.91,6,82.48,42.53a10.27,10.27,0,0,0,17.5-7.93l-2.62-40.67,27.71-6.58a10.28,10.28,0,0,0,5.15-17,160.86,160.86,0,0,0-49-35.88l4.88-9.26a35.33,35.33,0,0,0,39.24-25.52,5,5,0,0,0-1-4.6,35.25,35.25,0,0,0-33.91-11.54,116.36,116.36,0,0,0,11.77-29.21,34.44,34.44,0,0,0,6.25.58Zm2.34-33.12a25.29,25.29,0,0,1,22.37-7.72,25.35,25.35,0,0,1-28.6,30.54,25.27,25.27,0,0,1,6.23-22.82Zm-48.14-82a30.93,30.93,0,0,1-36.64-36.65,30.94,30.94,0,0,1,36.62,36.61Zm2.05,48.92a25.26,25.26,0,0,1-16.41-17,25.35,25.35,0,0,1,39.72,13,25.27,25.27,0,0,1-23.33,3.94ZM93.83,85a30.85,30.85,0,0,1,28.23-8.36,30.92,30.92,0,0,1-36.61,36.61A30.87,30.87,0,0,1,93.83,85ZM76.46,141.19a25.25,25.25,0,0,1,23.32,3.94,25.35,25.35,0,0,1-39.72,13.1A25.3,25.3,0,0,1,76.46,141.19ZM43.52,218.11a25.33,25.33,0,0,1-28.6-30.54,25.27,25.27,0,0,1,22.36,7.72h0a25.31,25.31,0,0,1,6.24,22.82ZM33.29,136.92a25.28,25.28,0,0,1,3.94-23.32,25.33,25.33,0,0,1,13.1,39.73A25.34,25.34,0,0,1,33.29,136.92ZM62.06,196.1a25.3,25.3,0,0,1,22.82-6.23,25.33,25.33,0,0,1-30.54,28.6A25.34,25.34,0,0,1,62.06,196.1Zm329.7,39.51a25.33,25.33,0,0,1,9.13,40.83,25.35,25.35,0,0,1-9.13-40.83ZM284.53,154.72a13.57,13.57,0,0,1-3.82-10c.25-7.22,6.52-13.1,14-13.14h46.08c7.51,0,13.83,5.89,14.09,13.14a13.65,13.65,0,0,1-13.14,14.14h-47.4A13.59,13.59,0,0,1,284.53,154.72Zm10.26,41.46c-7.51,0-13.83-5.89-14.08-13.14a13.63,13.63,0,0,1,13.11-14.13h47.44a13.65,13.65,0,0,1,13.63,13.67c0,.15,0,.29,0,.43-.26,7.25-6.58,13.15-14.09,13.15h-46Zm2.93,10h40.14a13.65,13.65,0,0,1,13.64,13.66c0,.16,0,.33,0,.49-.25,7.23-6.54,13.11-14,13.15H297.72a13.65,13.65,0,0,1,0-27.3Zm-2.31,60.6a13.65,13.65,0,0,1,9.65-23.3h25.46a13.65,13.65,0,0,1,.74,27.29H305a13.61,13.61,0,0,1-9.57-4ZM77.06,253.61a25.31,25.31,0,0,1,15.35-18,25.31,25.31,0,0,1-9.13,40.83A25.29,25.29,0,0,1,77.06,253.61ZM51.22,288.48a25.29,25.29,0,0,1-18-15.35,25.34,25.34,0,0,1,40.84,9.14A25.34,25.34,0,0,1,51.22,288.48Zm91.15,73-33-11.64a264.73,264.73,0,0,1,33-13.94Zm100.74-52.6c-75.41,0-128.59,26.39-144,35.12L72.14,295.6a35.46,35.46,0,0,0,10.65-7.93c2.09,1.82,4.23,3.57,6.46,5.26a5,5,0,0,0,6-8c-.9-.68-1.78-1.38-2.65-2.09a35.21,35.21,0,0,0,15.2-20.21q7.38-2.72,15-5.19a15,15,0,0,0,11.45,5.34h48.91a35.32,35.32,0,0,1,19.67,5.75,72.91,72.91,0,0,0,40.54,12.25h87.15a23.69,23.69,0,0,0,23.65-23.65c0-.8-.05-1.59-.12-2.37,7.5,2.3,14.91,4.79,22.14,7.47a35.25,35.25,0,0,0,15.31,20.61c-.87.7-1.75,1.41-2.65,2.09a5,5,0,0,0,6,8c2.23-1.69,4.37-3.45,6.46-5.26a35.27,35.27,0,0,0,11.08,8.13l-25.33,48.1c-15.62-8.75-68.73-35-144-35Zm98.64,26.29a268.27,268.27,0,0,1,35,14.58l-35,11.82Zm117.31,15.48a.28.28,0,0,1,.08.31.21.21,0,0,1-.19.18l-31.89,7.56a5,5,0,0,0-3.83,5.18l2.89,44.88c0,.12,0,.19-.17.27s-.19,0-.28,0c-24.72-24.71-52.7-36.22-70.44-41.4,0,0,35.58-12,35.65-12.09a4.94,4.94,0,0,0,2.58-2.29l19.15-36.38A150.92,150.92,0,0,1,459.06,350.65Zm-31-83.73a25.28,25.28,0,0,1,22.83,6.21,25.33,25.33,0,0,1-40.83,9.14A25.27,25.27,0,0,1,428.06,266.92Zm1.66-48.45a25.35,25.35,0,0,1-30.54-28.6,25.35,25.35,0,0,1,30.54,28.6Zm.1-88.46a25.31,25.31,0,0,1,17.05-16.41,25.33,25.33,0,0,1-13.1,39.73A25.24,25.24,0,0,1,429.84,130Z" transform="translate(0 0.02)"/><path class="cls-9" d="M277.14,363.32a9.28,9.28,0,0,0-6.2-6l-13.88-4.12-8.18-11.94A9.29,9.29,0,0,0,236,338.87a9.06,9.06,0,0,0-2.39,2.39l-8.18,11.94-13.88,4.09a9.27,9.27,0,0,0-4.73,14.55l8.83,11.48-.4,14.46a9.26,9.26,0,0,0,9,9.53,9,9,0,0,0,3.38-.53l13.64-4.85,13.64,4.85a9.07,9.07,0,0,0,3.1.54,9.26,9.26,0,0,0,9.28-9.26v-.28l-.4-14.46,8.83-11.48a9.3,9.3,0,0,0,1.47-8.52Zm-19.31,15.31a5,5,0,0,0-1,3.19l.42,15.19-14.32-5.09a4.94,4.94,0,0,0-3.35,0L225.22,397l.42-15.19a5,5,0,0,0-1-3.19l-9.27-12.05L230,362.28a5,5,0,0,0,2.71-2l8.59-12.54,8.59,12.54a5,5,0,0,0,2.71,2l14.51,4.3Z" transform="translate(0 0.02)"/><path class="cls-9" d="M341.94,387.34l-13.88-4.09-8.18-11.94a9.26,9.26,0,0,0-15.3,0l-8.19,11.94-13.88,4.09a9.27,9.27,0,0,0-4.73,14.55l8.83,11.47-.4,14.47a9.26,9.26,0,0,0,9,9.53,9,9,0,0,0,3.38-.53L312.22,432l13.64,4.85a9.28,9.28,0,0,0,11.85-5.62,9.46,9.46,0,0,0,.53-3.38l-.4-14.47,8.83-11.47a9.27,9.27,0,0,0-4.73-14.55Zm-13.11,21.34a4.93,4.93,0,0,0-1,3.18l.41,15.2L313.89,422a5,5,0,0,0-1.67-.28,5.06,5.06,0,0,0-1.68.28l-14.32,5.1.42-15.2a5,5,0,0,0-1-3.18l-9.27-12.05,14.58-4.3a5,5,0,0,0,2.71-2l8.59-12.53,8.59,12.53a5,5,0,0,0,2.71,2l14.58,4.3Z" transform="translate(0 0.02)"/><path class="cls-9" d="M201.62,387.34l-13.88-4.09-8.19-11.94a9.26,9.26,0,0,0-15.3,0l-8.19,11.94-13.89,4.09a9.27,9.27,0,0,0-4.73,14.55l8.83,11.47-.4,14.47a9.26,9.26,0,0,0,9,9.53,9,9,0,0,0,3.38-.53L171.9,432l13.64,4.85a9.28,9.28,0,0,0,11.85-5.62,9.46,9.46,0,0,0,.53-3.38l-.4-14.47,8.83-11.47a9.27,9.27,0,0,0-4.73-14.55Zm-13.11,21.34a5,5,0,0,0-1,3.18l.42,15.2L173.58,422a5.06,5.06,0,0,0-1.68-.28,5,5,0,0,0-1.67.28l-14.32,5.1.41-15.2a5,5,0,0,0-1-3.18l-9.26-12.09,14.58-4.3a5,5,0,0,0,2.71-2l8.59-12.53,8.59,12.53a5,5,0,0,0,2.71,2l14.58,4.3Z" transform="translate(0 0.02)"/><path class="cls-7" d="M373.41,49.5a5,5,0,0,1-5-5,5.51,5.51,0,0,0-5.5-5.5,5,5,0,0,1,0-10,5.51,5.51,0,0,0,5.5-5.5,5,5,0,0,1,10,0,5.51,5.51,0,0,0,5.5,5.5,5,5,0,0,1,0,10,5.51,5.51,0,0,0-5.5,5.5A5,5,0,0,1,373.41,49.5Z" transform="translate(0 0.02)"/><path class="cls-10" d="M147.37,483a5,5,0,0,1-5-5,5.5,5.5,0,0,0-5.5-5.5h0a5,5,0,0,1,0-10,5.5,5.5,0,0,0,5.5-5.5,5,5,0,0,1,10,0,5.51,5.51,0,0,0,5.5,5.5,5,5,0,0,1,0,10,5.51,5.51,0,0,0-5.5,5.5A5,5,0,0,1,147.37,483Z" transform="translate(0 0.02)"/><path class="cls-10" d="M190.23,127.14a5,5,0,0,1-5-5,5.51,5.51,0,0,0-5.5-5.5,5,5,0,0,1,0-10,5.51,5.51,0,0,0,5.5-5.5,5,5,0,0,1,10,0,5.51,5.51,0,0,0,5.5,5.5,5,5,0,0,1,0,10,5.51,5.51,0,0,0-5.5,5.5A5,5,0,0,1,190.23,127.14Z" transform="translate(0 0.02)"/><path class="cls-11" d="M104.19,458.21a5,5,0,0,1-3.53-1.46l-10.5-10.5a5,5,0,0,1,0-7.07l10.5-10.5a5,5,0,0,1,7.07,0l10.5,10.5a5,5,0,0,1,0,7.07l-10.5,10.5A5,5,0,0,1,104.19,458.21Zm-3.42-15.5,3.42,3.43,3.43-3.43-3.43-3.42Z" transform="translate(0 0.02)"/><path class="cls-10" d="M423.56,71.13a5,5,0,0,1-3.5-1.47l-10.5-10.5a5,5,0,0,1,0-7.07l10.5-10.5a5,5,0,0,1,7.07,0h0l10.5,10.5a5,5,0,0,1,0,7.07l-10.58,10.5A5,5,0,0,1,423.56,71.13Zm-3.43-15.5,3.43,3.43L427,55.63l-3.43-3.43Z" transform="translate(0 0.02)"/></svg>