<svg id="Слой_1" data-name="Слой 1" xmlns="http://www.w3.org/2000/svg" viewBox="0 0 512 512">
  <defs>
    <style>
      .cls-1 {
        fill: #3a7b0f;
      }

      .cls-1, .cls-2, .cls-3, .cls-4, .cls-5, .cls-6, .cls-7 {
        fill-rule: evenodd;
      }

      .cls-2, .cls-3 {
        fill: #ffc107;
      }

      .cls-2 {
        opacity: 0.5;
      }

      .cls-4 {
        fill: #00ff64;
      }

      .cls-5 {
        fill: #ffc800;
      }

      .cls-6 {
        fill: #ff003c;
      }

      .cls-7 {
        fill: #00d2ff;
      }
    </style>
  </defs>
  <g>
    <path class="cls-1" d="M384,512H128A128,128,0,0,1,0,384V128A128,128,0,0,1,128,0H384A128,128,0,0,1,512,128V384A128,128,0,0,1,384,512h0" transform="translate(0 0)"/>
    <path class="cls-2" d="M240,144H384A72,72,0,0,0,391.36.37C388.88.23,386.48,0,384,0H128A128,128,0,0,0,0,128V384C0,251.45,107.45,144,240,144" transform="translate(0 0)"/>
    <path class="cls-3" d="M384,256A128,128,0,1,0,512,384V128A128,128,0,0,1,384,256h0" transform="translate(0 0)"/>
    <path class="cls-4" d="M146.88,114.86a14.86,14.86,0,0,1,5.2-4.77,15.9,15.9,0,0,1,16,.09l167.36,98.41s-28.88,48.36-41.6,69.6a8,8,0,0,1-6.24,3.88,7.92,7.92,0,0,1-6.8-2.92L146.88,114.86Z" transform="translate(0 0)"/>
    <path class="cls-5" d="M335.44,208.59l57.12,33.62a16,16,0,0,1,0,27.58l-57.12,33.62H307.6A27.77,27.77,0,0,1,288,256Z" transform="translate(0 0)"/>
    <path class="cls-6" d="M335.44,303.41,168.08,401.82a15.9,15.9,0,0,1-16,.09,14.86,14.86,0,0,1-5.2-4.77s78.32-98.37,111-139.45A20.24,20.24,0,0,1,288,256v0Z" transform="translate(0 0)"/>
    <path class="cls-7" d="M288,256,146.88,397.14A15.89,15.89,0,0,1,144,388V124a15.89,15.89,0,0,1,2.88-9.12Z" transform="translate(0 0)"/>
  </g>
</svg>
