<svg id="OBJECT" height="512" viewBox="0 0 512 512" width="512" xmlns="http://www.w3.org/2000/svg" xmlns:xlink="http://www.w3.org/1999/xlink">
<path d="m484.5 457h-1v-292.85a25.53 25.53 0 0 0 28.5-25.35 25.65 25.65 0 0 0 -14.42-23l-238.32-115.05a7.46 7.46 0 0 0 -6.52 0l-238.32 115.08a25.65 25.65 0 0 0 -14.42 22.97 25.52 25.52 0 0 0 28.5 25.34v292.86h-1a27.5 27.5 0 0 0 0 55h457a27.5 27.5 0 0 0 0-55zm-464.58-309.29a10.33 10.33 0 0 1 -4.92-8.91 10.56 10.56 0 0 1 5.94-9.46l235.06-113.51 235.06 113.51a10.56 10.56 0 0 1 5.94 9.46 10.51 10.51 0 0 1 -15.08 9.47l-222.66-107.52a7.46 7.46 0 0 0 -6.52 0l-222.66 107.52a10.35 10.35 0 0 1 -10.16-.56zm23.58 10.73 212.5-102.61 212.5 102.61v298.56h-75.5c-2.75-21.19-17.11-40.66-41.16-55.46s-55.06-23.28-88.35-24.4v-20.88l23.9-14.26a86.54 86.54 0 0 0 36.73 8.09 90 90 0 0 0 44.88-12.09c26.91-15.54 44-44 44.5-74.34a7.5 7.5 0 0 0 -3.86-6.69c-26.52-14.7-59.72-14.17-86.64 1.37-26 15-42.84 42.18-44.39 71.37l-15.11 9v-62.66c30.94-20.35 50-56 50-94.13 0-39.59-20.55-76.54-53.64-96.43a7.48 7.48 0 0 0 -7.72 0c-33.09 19.89-53.64 56.84-53.64 96.43 0 38.12 19.06 73.78 50 94.13v62.73l-15.11-9c-1.55-29.22-18.39-56.37-44.39-71.4-26.92-15.54-60.12-16.06-86.64-1.37a7.5 7.5 0 0 0 -3.86 6.69c.5 30.3 17.59 58.8 44.5 74.3a90 90 0 0 0 44.88 12 86.54 86.54 0 0 0 36.73-8l23.89 14.28v20.88c-33.29 1.12-64.42 9.68-88.35 24.4s-38.41 34.25-41.15 55.44h-75.5zm212.5 16a7.5 7.5 0 0 0 -7.5 7.5v75.5c-21.86-18.15-35-46-35-75.5 0-32.78 16.17-63.44 42.5-81.12 26.33 17.68 42.5 48.34 42.5 81.12 0 29.54-13.14 57.35-35 75.5v-75.5a7.5 7.5 0 0 0 -7.5-7.52zm0 217.56c33.36 0 64.6 7.93 88 22.32 19.25 11.85 31 26.78 33.84 42.68h-243.67c2.83-15.9 14.59-30.83 33.84-42.68 23.39-14.39 54.63-22.32 87.99-22.32zm96.44-97.64a7.51 7.51 0 0 0 -10.29-2.59l-47.15 28.23a74.14 74.14 0 0 1 35.53-48.6c21-12.13 46.56-13.29 67.77-3.34-2 23.34-15.76 44.89-36.77 57a74.16 74.16 0 0 1 -57.72 7.13l46.07-27.53a7.51 7.51 0 0 0 2.56-10.3zm-190.29 10.29 46.07 27.53a74.2 74.2 0 0 1 -57.72-7.13c-21-12.13-34.79-33.68-36.77-57 21.21-9.95 46.75-8.79 67.77 3.34a74.14 74.14 0 0 1 35.5 48.61l-47.18-28.2a7.5 7.5 0 0 0 -7.7 12.88zm322.35 192.35h-457a12.5 12.5 0 0 1 0-25h457a12.5 12.5 0 0 1 0 25z" fill="#2b5c0b"/></svg>