<svg id="Слой_1" data-name="Слой 1" xmlns="http://www.w3.org/2000/svg" xmlns:xlink="http://www.w3.org/1999/xlink" viewBox="0 0 1401 1193.21"><defs><style>.cls-1{stroke:#2b5c0b;stroke-opacity:0.5;fill:url(#Безымянный_градиент);}.cls-1,.cls-3{fill-rule:evenodd;}.cls-2{fill:none;stroke:#70a452;stroke-opacity:0.3;}.cls-3{fill:url(#Безымянный_градиент_39);}</style><linearGradient id="Безымянный_градиент" x1="1399.94" y1="93.78" x2="-0.06" y2="93.78" gradientTransform="translate(0 894)" gradientUnits="userSpaceOnUse"><stop offset="0" stop-color="#70a452" stop-opacity="0.1"/><stop offset="1" stop-color="#2b5c0b" stop-opacity="0.1"/></linearGradient><linearGradient id="Безымянный_градиент_39" x1="1260.09" y1="-1016.71" x2="179.5" y2="203.44" gradientTransform="translate(0 894)" gradientUnits="userSpaceOnUse"><stop offset="0" stop-color="#ead627"/><stop offset="0.25" stop-color="#e3d320"/><stop offset="0.28" stop-color="#e2d31f"/><stop offset="0.49" stop-color="#d6ce14"/><stop offset="0.57" stop-color="#b7bf13"/><stop offset="0.7" stop-color="#8cab11"/><stop offset="0.82" stop-color="#6d9c10"/><stop offset="0.92" stop-color="#5a930f"/><stop offset="0.99" stop-color="#53900f"/></linearGradient></defs><path class="cls-1" d="M-.06,933.34s154.6-61.7,279.7-61.7,528.6,268,740.8,284,379.5-42.4,379.5-42.4V817.14H-.06Z" transform="translate(0.56 -1.14)"/><path class="cls-2" d="M-.06,954.34s147.1-51.2,277.3-51.2,531.4,261.5,742.4,283.9,380.3-17.6,380.3-17.6" transform="translate(0.56 -1.14)"/><path class="cls-3" d="M-.06,1.14h1400v1017.3s-320.1,90.9-500.3,45.6S529,820,347.64,820-.06,898.84-.06,898.84Z" transform="translate(0.56 -1.14)"/></svg>