<svg id="Glyph" height="512" viewBox="0 0 64 64" width="512" xmlns="http://www.w3.org/2000/svg" fill="#3a7306">
<path d="m57.94484 24.41169-23.44197-19.52999c-1.41069-1.17058-3.59186-1.1806-5.00256 0l-23.44197 19.52999c-2.10688 1.66373-.81224 5.27395 1.88107 5.20263-.0001.00004 3.71176.00004 3.71176.00004.37732.02945.73464-.29763 1.00048-.53032.00003.00002 19.34994-16.12821 19.34994-16.12821 4.88877 4.08092 14.8904 12.40847 19.71 16.42835.18017.15013.41027.23019.64043.23019h3.71186c2.66836.09076 3.9937-3.55887 1.88097-5.20267z"/>
<path d="m23.39722 41.15022c2.11106 1.32068 3.85194 3.06156 5.24267 4.97257.69075-1.16636.74231-2.75776.26014-3.96204-1.46756-3.67642-6.3312-4.06918-9.97511-3.85194.93046 1.98099 1.77092 4.56232 2.04101 6.37325.74043 2.93149 3.07158 3.92199 4.89251 3.5518.51027-.10003.98054-.30014 1.40074-.58031-1.31067-1.88097-2.95152-3.57183-4.93251-4.80244-1.0852-.7279-.062-2.37413 1.07055-1.70088z"/>
<path d="m41.26633 43.74157c-1.59084.58025-3.50179 1.78088-5.12261 3.54179.08.08006.14009.16012.2301.2301.94261.88181 2.22528 1.24612 3.41178.72038 1.44067-.60026 2.61132-2.11104 3.57177-4.60231.64034-1.65087 2.40125-4.19214 3.54185-5.75294-5.66584-1.36494-13.04065.48144-11.71603 7.49395 1.01837-1.07004 5.93172-5.01744 6.6834-2.91175.19013.52038-.07997 1.09068-.60026 1.28078z"/>
<path d="m50.43099 30.92503-18.4294-15.3679s-18.4294 15.3679-18.4294 15.3679c-.78175.70266-1.9266.7315-2.92157.69028.00003.00008.00003 22.83175.00003 22.83175 0 3.06156 2.49132 5.55282 5.55289 5.55282h14.63748c.17248-3.78006-.52452-7.10613-2.52138-10.65547-3.55931 2.20723-8.03755.56509-9.31472-4.27208-.32014-2.11119-1.46073-5.33281-2.51126-7.11374-.7477-1.92037 1.99899-1.54053 3.09153-1.68095 5.91307-.21999 9.77502 1.57091 11.17576 5.16277.85584 2.06424.47999 4.76336-.92051 6.50331.64034 1.10055 1.19067 2.22111 1.63083 3.34168.51027-1.5208 1.2907-2.91146 2.21115-4.15208-.93446-2.02744-.87919-4.47223.06002-6.61343 2.42851-5.40098 9.41989-5.75356 14.84759-4.30208.80491-.06423 1.39272.96129.85038 1.61073-.00995.00999-.28005.36021-.69029.91048-1.80091 2.43123-3.08159 4.48227-3.52182 5.62287-1.74182 5.08927-6.33313 8.1942-10.33527 4.49229-1.36064 1.98099-2.27114 4.45228-2.1611 7.34378.15857.92691.10187 2.86089.11009 3.80205 0-.00012 14.9576-.00012 14.9576-.00012 3.06156 0 5.55289-2.49126 5.55289-5.55282v-22.83167c-1.00697.04895-2.13275.00784-2.92154-.69036z"/></svg>