<svg id="Capa_1" data-name="Capa 1" xmlns="http://www.w3.org/2000/svg" xmlns:xlink="http://www.w3.org/1999/xlink" viewBox="0 0 494.77 512.04"><defs><style>.cls-1{fill:url(#Безымянный_градиент);}.cls-2,.cls-5{fill:#2626bb;}.cls-2,.cls-4{opacity:0.1;}.cls-2{isolation:isolate;}.cls-3{fill:#8eb943;}.cls-6{fill:#d1ddff;}.cls-7{fill:#f9dc26;}.cls-8{fill:#f4dc78;}.cls-9{fill:#ff7eb7;}.cls-10{fill:#ffa7ce;}.cls-11{fill:#2c5209;}.cls-12{fill:#8db843;}.cls-13{fill:#5bc8ab;}</style><linearGradient id="Безымянный_градиент" x1="191.41" y1="157.7" x2="511.88" y2="-162.77" gradientTransform="translate(-8.62 212)" gradientUnits="userSpaceOnUse"><stop offset="0.05" stop-color="#53900f"/><stop offset="1" stop-color="#f9dc26"/></linearGradient></defs><path class="cls-1" d="M492.17,424.79c-20.85-85.18-76.46-173.88-36.23-260.51C486.07,99.4,512.32-16.81,408.5,2c-69.76,12.67-182,18.79-222.77,6.82C122.92-9.57,116.51,53.73,87.2,91.39c-12.85,16.51-39.26,13-57.95,22.42-48.18,24.21-32,87,13.32,110.09,89.8,45.77,220.27,47.7,265.19,148.55,13,29.12,13.67,62.29,27.41,91.05C373.38,543.38,515.61,520.52,492.17,424.79Z" transform="translate(0.01 0.03)"/><path class="cls-2" d="M106.5,213.51h11.42a5,5,0,1,0,0-10H106.5a5,5,0,0,0,0,10Z" transform="translate(0.01 0.03)"/><path class="cls-2" d="M371.84,208.51a5,5,0,0,0,5,5h11.42a5,5,0,0,0,0-10H376.84A5,5,0,0,0,371.84,208.51Z" transform="translate(0.01 0.03)"/><path class="cls-2" d="M247.38,84.05a5,5,0,0,0,5-5V67.63a5,5,0,0,0-10,0V79.05A5,5,0,0,0,247.38,84.05Z" transform="translate(0.01 0.03)"/><path class="cls-2" d="M359.5,148.78a5,5,0,0,0,2.5-.67l9.89-5.71a5,5,0,0,0-5-8.66L357,139.45a5,5,0,0,0,2.5,9.33Z" transform="translate(0.01 0.03)"/><path class="cls-2" d="M178.32,98.89A5,5,0,0,0,187,94l0-.06L181.27,84a5,5,0,0,0-8.66,5Z" transform="translate(0.01 0.03)"/><path class="cls-2" d="M309.61,100.72a5,5,0,0,0,6.83-1.83L322.15,89a5,5,0,0,0-8.66-5l-5.71,9.88a5,5,0,0,0,1.82,6.83Z" transform="translate(0.01 0.03)"/><path class="cls-2" d="M122.87,142.4l9.89,5.71a5,5,0,1,0,5-8.66l-9.89-5.71a5,5,0,0,0-5.06,8.63Z" transform="translate(0.01 0.03)"/><path class="cls-2" d="M456.73,386.64c-24.58-15-40.8-31.43-56.16-45.6,24.6-39,23.05-87.92,21.69-104.26a4.22,4.22,0,0,0-5.68-3.62c-29.21,10.88-52.85,11.41-74,16.12a102.8,102.8,0,0,0-97.72-141.39c-55.81,1.3-100.77,47.82-100.27,103.65a102.4,102.4,0,0,0,7.52,37.74c-21.11-4.71-44.76-5.24-74-16.12a4.24,4.24,0,0,0-5.43,2.52,4.08,4.08,0,0,0-.24,1.1C71.14,253.11,69.59,302,94.19,341,78.83,355.17,62.61,371.62,38,386.6a5,5,0,0,0-1.61,6.88,4.81,4.81,0,0,0,.83,1c16.58,15.5,74.44,63.85,141.13,55.9A97.64,97.64,0,0,0,207,442.81a70.49,70.49,0,0,0,10.35-5.72,24.84,24.84,0,0,0,12.75,5.84v20.44a5,5,0,0,0,5,5h24.64a5,5,0,0,0,5-5V442.93a24.84,24.84,0,0,0,12.75-5.84,70.49,70.49,0,0,0,10.35,5.72,97.46,97.46,0,0,0,28.59,7.59c66.7,8,124.56-40.41,141.14-55.86a5,5,0,0,0,.23-7.07,5.08,5.08,0,0,0-1-.83Z" transform="translate(0.01 0.03)"/><path class="cls-3" d="M72.5,212.78a4.24,4.24,0,0,1,5.67-3.62c51,19,85.06,6.44,118.3,39.67a87.54,87.54,0,0,1,13.43,17.23c14.14,23.79,9.93,54.22-9.63,73.8-18.73,18.72-47.52,23.5-71,11.19a82.88,82.88,0,0,1-20-15C69,295.8,70.9,232,72.49,212.81Z" transform="translate(0.01 0.03)"/><path class="cls-2" d="M209.9,266.06c13.86,23.32,10.09,53-8.49,72.62a116.1,116.1,0,0,0-29-57.8,102.21,102.21,0,0,1-26.94-56.95c18.43,3.4,34.81,8.72,51,24.9a87.54,87.54,0,0,1,13.43,17.23Z" transform="translate(0.01 0.03)"/><g class="cls-4"><path class="cls-5" d="M202.06,308.43c4,5,7.37,9.88,10.26,14.31a59.63,59.63,0,0,1-5.72,9.68A189,189,0,0,0,194,314.32a186.91,186.91,0,0,0-79.52-58.74,5,5,0,1,1,3.59-9.34h0a197.24,197.24,0,0,1,84,62.19Z" transform="translate(0.01 0.03)"/></g><path class="cls-3" d="M37.25,370.54a5,5,0,0,1-.24-7.07,5.37,5.37,0,0,1,1-.83c54.87-33.45,68.08-74.18,123.17-80.74A103.92,103.92,0,0,1,187,282c32.39,4.26,57.54,30.38,61.4,62.81,3.7,31-12.89,61.23-41.42,74a98.4,98.4,0,0,1-28.58,7.58C111.69,434.35,53.83,386,37.25,370.54Z" transform="translate(0.01 0.03)"/><path class="cls-2" d="M248.89,353.45c0,27.3-15.39,52.72-40.32,64.62l-4.3-38.6h-3.59a10,10,0,0,1-10-10v-7.38a10,10,0,0,1,10-10h2.7l-.76-5.87c-3.1-24.23-13.29-47.19-30-65.06a102.19,102.19,0,0,1,14.31.86c32.39,4.26,57.54,30.38,61.4,62.81a73,73,0,0,1,.51,8.62Z" transform="translate(0.01 0.03)"/><g class="cls-4"><path class="cls-5" d="M111.77,365.75a187.13,187.13,0,0,1,96.1-23.18,171.5,171.5,0,0,1,40.85,5.91c-.08-1.21-.19-2.43-.34-3.65a68.46,68.46,0,0,0-1.21-7.13,187.39,187.39,0,0,0-38.6-5.11A197.1,197.1,0,0,0,106.92,357a5,5,0,1,0,4.85,8.75Z" transform="translate(0.01 0.03)"/></g><path class="cls-3" d="M422.26,212.78a4.22,4.22,0,0,0-5.68-3.62c-51,19-85.05,6.44-118.29,39.67a87.54,87.54,0,0,0-13.43,17.23c-14.14,23.79-9.93,54.22,9.63,73.8,18.73,18.72,47.52,23.5,71,11.19a82.88,82.88,0,0,0,20-15c40.25-40.25,38.38-104.1,36.79-123.24Z" transform="translate(0.01 0.03)"/><path class="cls-2" d="M349.28,223.93a102.29,102.29,0,0,1-25.85,55.78,122.85,122.85,0,0,0-30.08,59c-18.58-19.6-22.35-49.31-8.49-72.63a87.54,87.54,0,0,1,13.43-17.23c16.19-16.18,32.56-21.5,51-24.9Z" transform="translate(0.01 0.03)"/><g class="cls-4"><path class="cls-5" d="M292.7,308.43c-4,5-7.37,9.88-10.27,14.31a59.68,59.68,0,0,0,5.73,9.68,187.9,187.9,0,0,1,92.16-76.84,5,5,0,1,0-3.59-9.34h0a197,197,0,0,0-84,62.19Z" transform="translate(0.01 0.03)"/></g><path class="cls-3" d="M457.51,370.54a5,5,0,0,0,.24-7.07,5.37,5.37,0,0,0-1-.83c-54.87-33.45-68.08-74.18-123.17-80.74a103.92,103.92,0,0,0-25.78.12c-32.4,4.26-57.54,30.38-61.4,62.81-3.7,31,12.89,61.23,41.42,74a98.4,98.4,0,0,0,28.58,7.58C383.07,434.35,440.93,386,457.51,370.54Z" transform="translate(0.01 0.03)"/><path class="cls-2" d="M304.08,362.09v7.38a10,10,0,0,1-10,10h-3.59l-4.3,38.6c-24.93-11.9-40.32-37.32-40.32-64.62a73,73,0,0,1,.51-8.62c3.86-32.43,29-58.55,61.4-62.81a99.8,99.8,0,0,1,14.35-.86c-16.16,18.3-26.88,40.74-30,65l-.76,5.94h2.7a10,10,0,0,1,10,10Z" transform="translate(0.01 0.03)"/><g class="cls-4"><path class="cls-5" d="M383,365.75a187.13,187.13,0,0,0-96.1-23.18A171.42,171.42,0,0,0,246,348.48c.07-1.21.19-2.43.33-3.65.29-2.41.7-4.78,1.22-7.13a187.39,187.39,0,0,1,38.6-5.11A197.1,197.1,0,0,1,387.84,357a5,5,0,0,1-4.85,8.75Z" transform="translate(0.01 0.03)"/></g><path class="cls-6" d="M259.7,444.37H235.06a5,5,0,0,1-5-5V409.74H264.7v29.63A5,5,0,0,1,259.7,444.37Z" transform="translate(0.01 0.03)"/><path class="cls-3" d="M285.85,397.09l4.64-41.62H204.27l4.64,41.62a24.88,24.88,0,0,0,24.72,22.13h27.5A24.88,24.88,0,0,0,285.85,397.09Z" transform="translate(0.01 0.03)"/><path class="cls-7" d="M350.14,186.62a102.36,102.36,0,0,1-26.71,69.09c-16.88,18.56-28.1,41.55-31.29,66.44l-1.53,11.94H204.15l-1.53-11.87c-3.12-24.36-13.4-47.43-30.21-65.34a102.3,102.3,0,0,1-27.79-69.34c-.5-55.83,44.46-102.35,100.28-103.65A102.74,102.74,0,0,1,350.11,184.1Q350.14,185.36,350.14,186.62Z" transform="translate(0.01 0.03)"/><circle class="cls-8" cx="247.39" cy="184.54" r="78.76"/><path class="cls-9" d="M233,279.24v54.85H223V280.36l-12.57-26.75a5,5,0,1,1,9.05-4.26l13,27.77A5,5,0,0,1,233,279.24Z" transform="translate(0.01 0.03)"/><path class="cls-9" d="M284.31,253.61l-12.57,26.75v53.73h-10V279.24a5,5,0,0,1,.47-2.12l13.05-27.77a5,5,0,0,1,9.05,4.26Z" transform="translate(0.01 0.03)"/><path class="cls-9" d="M238.68,267.6a5,5,0,0,1-5-5v-7.18a5,5,0,0,1,10,0h0v7.18A5,5,0,0,1,238.68,267.6Z" transform="translate(0.01 0.03)"/><path class="cls-9" d="M256.08,267.6a5,5,0,0,1-5-5v-7.18a5,5,0,0,1,10,0h0v7.18A5,5,0,0,1,256.08,267.6Z" transform="translate(0.01 0.03)"/><path class="cls-10" d="M230.79,285.5a5,5,0,1,0,0,10h31v-10Z" transform="translate(0.01 0.03)"/><path class="cls-10" d="M264,303.45H233v10h31a5,5,0,0,0,0-10Z" transform="translate(0.01 0.03)"/><path class="cls-3" d="M294.08,355.47h-93.4a10,10,0,0,1-10-10v-7.38a10,10,0,0,1,10-10h93.4a10,10,0,0,1,10,10v7.38A10,10,0,0,1,294.08,355.47Z" transform="translate(0.01 0.03)"/><path class="cls-11" d="M464.06,365.9a9.9,9.9,0,0,0-4.73-7.53c-20.78-12.67-35.76-26.69-49-39.06l-3.4-3.17c22.8-39,21.82-85.36,20.29-103.77a9.21,9.21,0,0,0-12.4-7.89c-16.13,6-30.62,8.79-43.88,10.91a5,5,0,0,0,1.58,9.87c13.5-2.16,28.26-5,44.82-11,1.1,14.55,2.37,58.61-18,95-17.81-16-35.83-28.78-65.25-32.28a109.94,109.94,0,0,0-20.2-.54,123.05,123.05,0,0,1,13.17-17.31,107.76,107.76,0,0,0-82.35-180.2C186.27,80.26,139.1,129,139.61,187.59a107.49,107.49,0,0,0,4.87,31.09c-4.25-.75-8.57-1.42-13.06-2.11-15.12-2.31-32.26-4.93-51.51-12.1a9.22,9.22,0,0,0-12.39,7.89C66,230.86,65,277.19,87.8,316.14l-3.42,3.17c-13.22,12.37-28.2,26.39-49,39.06A10,10,0,0,0,33.8,374.2c15.37,14.32,67.49,58.08,129.79,58.08a129.34,129.34,0,0,0,15.36-.91,103.76,103.76,0,0,0,30-8,71.67,71.67,0,0,0,8-4.2,29.63,29.63,0,0,0,8,3.78v16.41a10,10,0,0,0,10,10h24.64a10,10,0,0,0,10-10V423a29.63,29.63,0,0,0,8-3.78,71.67,71.67,0,0,0,8,4.2,103.36,103.36,0,0,0,30,8,129.34,129.34,0,0,0,15.36.91c62.28,0,114.41-43.76,129.77-58.07a9.89,9.89,0,0,0,3.16-8.31ZM77.38,214.2c19.8,7.26,37.16,9.91,52.52,12.26,6.51,1,12.7,2,18.64,3.19a107.57,107.57,0,0,0,20.21,30.65,105.51,105.51,0,0,1,12.43,16.12,108.16,108.16,0,0,0-20.59.52c-29.42,3.49-47.44,16.29-65.24,32.26-20.33-36.39-19.08-80.4-18-95ZM204.92,414.25a93.32,93.32,0,0,1-27.11,7.19c-64.67,7.7-121.33-39.81-137.18-54.53,21.66-13.2,37-27.6,50.62-40.3,21.44-20.07,38.38-35.92,70.55-39.75a98.63,98.63,0,0,1,24.58.14,1.08,1.08,0,0,0,.66-.13,112.28,112.28,0,0,1,5.66,14,5,5,0,0,0,9.53-3l0-.12a118.43,118.43,0,0,0-26.08-44.21,97.36,97.36,0,0,1-26.45-66c-.46-53.13,42.33-97.37,95.4-98.62a97.75,97.75,0,0,1,74.72,163.47c-18,19.81-29.28,43.73-32.55,69.17l-.2,1.57H200.68a15,15,0,0,0-15,15h0v7.38a15,15,0,0,0,14.11,15l1.14,10.22a5,5,0,0,0,.92,9.9H202l1.28,11.4a5,5,0,0,0,1.37,9.72A29.5,29.5,0,0,0,209.51,412c-1.5.82-3,1.59-4.59,2.28Zm89.16-81.16a5,5,0,0,1,5,5v7.38a5,5,0,0,1-5,5h-93.4a5,5,0,0,1-5-5v-7.38a5,5,0,0,1,5-5ZM259.7,439.37H235.06V424.22H259.7Zm1.43-25.15h-27.5a19.84,19.84,0,0,1-18.44-12.47h64.38A19.84,19.84,0,0,1,261.13,414.22Zm20.25-22.47h-68l-1.24-11.2h70.57Zm2.36-21.2H211l-1.12-10.08h75Zm33.17,50.9a93.34,93.34,0,0,1-27.11-7.2c-1.56-.69-3.08-1.46-4.59-2.28a29.56,29.56,0,0,0,4.89-10.51,5,5,0,0,0,3.11-6.35,5.07,5.07,0,0,0-1.87-2.48l1.37-12.24a5,5,0,0,0,1-9.29l1.19-10.67a15,15,0,0,0,14.11-15v-7.38A15,15,0,0,0,297,323.34l.07-.59A112.73,112.73,0,0,1,308,287a.9.9,0,0,0,.4,0,98.31,98.31,0,0,1,24.54-.11c32.16,3.82,49.1,19.67,70.54,39.74,13.58,12.7,29,27.1,50.59,40.27-15.82,14.75-72.48,62.26-137.15,54.57Z" transform="translate(0.01 0.03)"/><path class="cls-7" d="M106.5,189.51h11.42a5,5,0,1,0,0-10H106.5a5,5,0,0,0,0,10Z" transform="translate(0.01 0.03)"/><path class="cls-7" d="M371.84,184.51a5,5,0,0,0,5,5h11.42a5,5,0,0,0,0-10H376.84A5,5,0,0,0,371.84,184.51Z" transform="translate(0.01 0.03)"/><path class="cls-7" d="M247.38,60.05a5,5,0,0,0,5-5V43.63a5,5,0,1,0-10,0V55.05A5,5,0,0,0,247.38,60.05Z" transform="translate(0.01 0.03)"/><path class="cls-7" d="M359.5,124.78a5,5,0,0,0,2.5-.67l9.89-5.71a5,5,0,0,0-5-8.66L357,115.45a5,5,0,0,0,2.5,9.33Z" transform="translate(0.01 0.03)"/><path class="cls-7" d="M178.32,74.89A5,5,0,0,0,187,70l0-.06L181.27,60a5,5,0,0,0-8.66,5Z" transform="translate(0.01 0.03)"/><path class="cls-7" d="M309.61,76.72a5,5,0,0,0,6.83-1.83L322.15,65a5,5,0,0,0-8.66-5l-5.71,9.88a5,5,0,0,0,1.82,6.83Z" transform="translate(0.01 0.03)"/><path class="cls-7" d="M122.87,118.4l9.89,5.71a5,5,0,0,0,5-8.66l-9.89-5.71a5,5,0,0,0-5.06,8.63Z" transform="translate(0.01 0.03)"/><path class="cls-12" d="M67.09,77.28a5,5,0,0,1-5-5A6.35,6.35,0,0,0,55.76,66a5,5,0,1,1,0-10,6.35,6.35,0,0,0,6.33-6.33,5,5,0,0,1,10,0A6.34,6.34,0,0,0,78.38,56a5,5,0,0,1,0,10,6.35,6.35,0,0,0-6.33,6.33A5,5,0,0,1,67.09,77.28Z" transform="translate(0.01 0.03)"/><path class="cls-12" d="M300.88,492.44a5,5,0,0,1-5-5,6.35,6.35,0,0,0-6.33-6.33,5,5,0,0,1,0-10,6.35,6.35,0,0,0,6.33-6.33,5,5,0,0,1,10,0,6.35,6.35,0,0,0,6.33,6.33,5,5,0,0,1,0,10,6.35,6.35,0,0,0-6.33,6.33A5,5,0,0,1,300.88,492.44Z" transform="translate(0.01 0.03)"/><path class="cls-9" d="M419.46,117.86a5,5,0,0,1-5-5,6.35,6.35,0,0,0-6.33-6.33,5,5,0,0,1,0-10,6.35,6.35,0,0,0,6.33-6.33,5,5,0,1,1,10,0,6.35,6.35,0,0,0,6.33,6.33,5,5,0,0,1,0,10,6.35,6.35,0,0,0-6.33,6.33A5,5,0,0,1,419.46,117.86Z" transform="translate(0.01 0.03)"/><path class="cls-9" d="M51.7,318a5,5,0,0,1-3.54-1.47L42.7,311l-5.47,5.46A5,5,0,0,1,30,309.51l.12-.12,9-9a5,5,0,0,1,7.07,0l9,9A5,5,0,0,1,51.7,318Z" transform="translate(0.01 0.03)"/><path class="cls-13" d="M388.52,73A5,5,0,0,1,385,71.54L379.52,66l-5.47,5.47a5,5,0,0,1-7.19-7l.12-.12,9-9a5,5,0,0,1,7.07,0l9,9a5,5,0,0,1-3.53,8.6Z" transform="translate(0.01 0.03)"/></svg>