<svg id="Brush_strokes_collection" data-name="Brush strokes collection" xmlns="http://www.w3.org/2000/svg" viewBox="0 0 148.04 297.96"><defs><style>.cls-1{fill:none;}</style></defs><path class="cls-1" d="M545.82,235c0,.39,0,.59,0,0Z" transform="translate(-539 -32.04)"/><path class="cls-1" d="M624.74,38.19a.86.86,0,0,0,.16,0c.11-.4.22-.75.32-1Z" transform="translate(-539 -32.04)"/><path class="cls-1" d="M650.76,40.69l.16.11C650.9,40.56,650.93,40.32,650.76,40.69Z" transform="translate(-539 -32.04)"/><path class="cls-1" d="M571.31,313.08l-.12,0a1.62,1.62,0,0,1,.28.25Z" transform="translate(-539 -32.04)"/><path class="cls-1" d="M570.59,313.59a.46.46,0,0,0,.19.17A.53.53,0,0,0,570.59,313.59Z" transform="translate(-539 -32.04)"/><path class="cls-1" d="M570.59,313.59c-.09-.22.4-.41.6-.48a1.75,1.75,0,0,0-1.91-.33C569.29,313.3,570.15,313.32,570.59,313.59Z" transform="translate(-539 -32.04)"/><path class="cls-1" d="M678.74,47.62a1.35,1.35,0,0,0,0,1Z" transform="translate(-539 -32.04)"/><path class="cls-1" d="M684.94,118.13c.06.06.11.21.18.22a67.56,67.56,0,0,0,.19-7.41l-.64-.22Z" transform="translate(-539 -32.04)"/><path class="cls-1" d="M686.85,95.36,687,96A2.89,2.89,0,0,0,686.85,95.36Z" transform="translate(-539 -32.04)"/><path class="cls-1" d="M683.64,152l0,.37.64-1.4Z" transform="translate(-539 -32.04)"/><path class="cls-1" d="M614.06,321.81c-.35.05-.62-.61-.48-.87-.73.64-.7-.22-.86,1.22-.48.64-.91-.43-.37-.93l-1.33.67.76.36c-.27,1.17-1.21-.57-1.52.8l1.39.11-.09.39c.34-.38,1-.1,1.16.11-.05.19,0,.52-.29.51,1.68.37.55-2,2-2.21A.42.42,0,0,1,614.06,321.81Z" transform="translate(-539 -32.04)"/><path class="cls-1" d="M617,324.1c0-.52.78-.84.3-1.37-.09.07-.29.2-.44.13.16-1.12,1.34-.38,1.09-1.57-.79.19-.9-.07-1.42.77a2.74,2.74,0,0,1-1.54-1c-.22.14-.28.82-.55.92l.18,0,0,1.71c.24-.32.44-.12.69-.12l-1.24,1.8c.3,1.66,1.48.89,1.91,1.62-.5-1.51.48-.64-.57-2l.66-1.42Z" transform="translate(-539 -32.04)"/><path class="cls-1" d="M682.93,248.36a.12.12,0,0,0,.1,0l-.27-.53A3.66,3.66,0,0,0,682.93,248.36Z" transform="translate(-539 -32.04)"/><path class="cls-1" d="M685.07,264.68l-.26-2.83c.21.43.26-.87.5-.22,0-.22,0-1.19-.19-1l0,.54c-.62-1.6-1-.86-1.36-3.25-.72,1.58.17,2.26.12,3.53A15.7,15.7,0,0,0,685.07,264.68Z" transform="translate(-539 -32.04)"/><path class="cls-1" d="M669,311.1l-.33,1A2.87,2.87,0,0,0,669,311.1Z" transform="translate(-539 -32.04)"/><path class="cls-1" d="M627.43,326.15l0,0a.73.73,0,0,1,.08-.09Z" transform="translate(-539 -32.04)"/><path class="cls-1" d="M653.12,322.18a.68.68,0,0,0-.34-.19C652.82,322.14,652.94,322.19,653.12,322.18Z" transform="translate(-539 -32.04)"/><path class="cls-1" d="M669.06,310.92h0l0,.17Z" transform="translate(-539 -32.04)"/><path class="cls-1" d="M682.45,270.58v-1A3.63,3.63,0,0,0,682.45,270.58Z" transform="translate(-539 -32.04)"/><path class="cls-1" d="M620.72,320.44h0l0-.2Z" transform="translate(-539 -32.04)"/><path class="cls-1" d="M646,322.91c-.15-.2-.47-.39-.36-.71C645.45,322.63,645.55,323.47,646,322.91Z" transform="translate(-539 -32.04)"/><path class="cls-1" d="M618.15,325.36l.31-1.05c.7,1.06,1.18.4,1.9.59-.86-.24-3.18-1.72-1.21-2a.36.36,0,0,1-.3-.31c-.09.39-1.83,1-.4,1.43-.1,1.25-.94.46-1.34.71.27.33-.17.79-.1,1.25.19-.13.43-.46.74-.32.13.59-.37.91-.73.64.43.73-.63.92,0,1.51a4.24,4.24,0,0,0,3.46-2.28C619.68,325.69,618.77,326,618.15,325.36Z" transform="translate(-539 -32.04)"/><path class="cls-1" d="M620.27,313.17l0,0a.43.43,0,0,0-.07.1Z" transform="translate(-539 -32.04)"/><path class="cls-1" d="M681.4,280.3s.05,0,.08,0C681.49,280.13,681.45,280.19,681.4,280.3Z" transform="translate(-539 -32.04)"/><path class="cls-1" d="M647.79,327.12a.92.92,0,0,0-.42.24A1.13,1.13,0,0,0,647.79,327.12Z" transform="translate(-539 -32.04)"/><path class="cls-1" d="M639.06,318.81a.6.6,0,0,0,.29,0s0-.1,0-.14S639.15,318.71,639.06,318.81Z" transform="translate(-539 -32.04)"/><path class="cls-1" d="M638.52,315.92c-.24,0-.39.51-.63.71.27-.17.6-.14,1,.17A2.51,2.51,0,0,1,638.52,315.92Z" transform="translate(-539 -32.04)"/><path class="cls-1" d="M686.84,244.51l-.73.49c-.11-.6-.2-2-.26-2.71.24-.16.75-2.14,1-.66.44-3.21-1.52-2.84-1.31-6.41a18.69,18.69,0,0,0-.12,3.15c-.4-1.39-.32-.21-.82-.36.46-.83,0-3.51.64-1.69,0-1.12.06-3.31-.25-3.8l-.23,1a6.41,6.41,0,0,0-1-3.69c.11,1.91,1,1.81,1,4.3-.48,2.72-.52-.63-1.21,1.17l.53,1.91.07-.91c.71.29-.06,3,.81,2.75-.68,2-.27,2.58-.93,4.75.29.54.32-.27.37-.89,0,1.11.79,1.23.26,2.67-.13.74.59.28.61-1-.06,1.13.07,2.23-.06,3.48l.58-1.24,0,1.35L686,247c0,2.59-.21,5.58-1,6.82-.42-2.35-.09-6-1-7.33-.27.45.61,1.81-.2,2.36.72.65.88,3.17.23,3.43a12.86,12.86,0,0,0-1.13-3.89c-.12,0-.15-.27-.18-.55v0c.13-.51-.43-3.22.45-2.3.71-2.47-1-4.24-.51-6.8.45,0,.55-2,.78-1.4a7,7,0,0,0-.77-3.3c.41-.23.1-2.27.55-1.55l-.5-.95a8.8,8.8,0,0,0,.28-1.41c.25-3.13-.1-2-.41-1.14,0-.49,0-.89.25-1a.79.79,0,0,0-.36-.64l.62-4.22c.06,2.59.29,2.23.5,1.61.15.8.29,1.66.37,2.41,0-.18,0-.32,0-.48a8.86,8.86,0,0,1,.15,1.52,3.57,3.57,0,0,1,.47-1.41c.62-.13.39,1.92.47,3.36.33-1.3.71.24.95.72v-.18c.07,0,.15,0,.27-.17-.21-1.21.29-2.18.29-3-1,.85-.3-2.65-.64-3.59,0-.29-.16-1.25-.15-1.53.11-.1.26,0,.48.63-.22-.53-.2-2.29-.52-2.09,0-.19-.29-4.37,0-4.36-.07-.13-.12-.14-.17-.12l-.59-17.24h0v0h0a2.72,2.72,0,0,1,0-.28v0a5.18,5.18,0,0,0,0-1,12.8,12.8,0,0,1-.45,3.53.56.56,0,0,0-.11-.11c.35-2-.25-.71-.37.35a18.69,18.69,0,0,1-.05-2.49c.16.61.36,1.23.7.82l-.32-1.49.22.1-.12-1.85c-.19.22-.28.39-.38.51,0-.52.07-1,.12-1.62.64-.6.13-2.7.31-3.52l0,0c.48-6.17,1.33-13.22.44-13.74h.25c-.66-.63-1.32-.22-1.86-.61.23-.23.38-.61.28-1.44l-.67.34,0,.53c-.58-.61-.14-2.47.09-3.22-.12-.42-.88-5.42.3-4.05-.48-4.91.09-11.78.23-17.73l-2.86,6.31c.66-5,2-14.09,1.08-15.1l1-3c1.83-10.07-.8-7-.25-11.05l1.05-5.06,0,5c.53-5,.87-7,1.56-11.06,0,0,0,0,0,0,0,.27-.09.45-.16.49l0-.71c-1.56-6.79-1.15-13.95-.36-23.8l-1.08-2,.64-6H685c-.06,5.92.27,17.06.31,24.66l.39.14c.4-4.14-1.67-15.53,1.15-15.72-2.28-16.61,1.74-25.46-4.33-40.92.15.73.27,1.5.39,2.24C676.73,43,673.71,43.2,661.4,38.77l-.71,1.88c-1.07-.1-2.66-2.94-3.18-.31-2,.6-4,1.8-6.27.68h0l-.32-.22c0,.05,0,.1,0,.15-3.29-.83,0,1.69-3.73.61-1.21-1.34-1.34,2.38-3.17,2l-1.85-2.7c-3.32-1.55-3.89,1.16-8.71,1.16-2.31-1-3.43-3.26-1.9-5.31-2.11,2.48-1,1.62-3.75,2.81-.43-1-.14-1.24.48-2.15-2.48-1.2-1.53.92-3.4.86-.55,1.91-1.17,5-1.78,5.09l.72.6a7.35,7.35,0,0,1-6.45.54l.09-1-2.45.49-.16-1.23-3.5.38.48.33c-.82.17-3.52.59-5.07-.05l.06-.69a8.1,8.1,0,0,0-5-.66c-.09-.56-.29-1.27.84-1.5.53,1.2,2.61.36,2.73,1.33.39-.15.57-.12.6-.86-.36-.05-1.14.24-.72-.63.71-.41,1.07.15,1.64,0,0,.2-.41.9-.2.71,1.39-.65,4-1.1,5.19-3.47-.48.31-.48,1-1.17.85,0-.53.33-.53.46-.85-.15-.94-.64.86-1.38.27.36-.47.72-.92,1.08-1.43l-.7-.75c.8-1.05,1.59-2.16,2.36-3.22-2.11-.1-2.86,3.74-4.68,2.75.26-.35,0-.57-.1-.8-.53.56-1.19.65-1.51,1.34l-.89.08c0-.53.3-1.84,1.19-2-3.11.31-5.52,3.05-8.73,2.1-.13-.25.43-.31.19-.48-.37.27-1,.56-1.08.84.05-.21.14-.47.37-.5-1.66.51-2.53-1.13-3.6-.37-.06-.65.82-.41.68-.65-1.63-.58-2.5,1.39-4.15,1.33.55-.9-.36-1-.8-1.51-1.37.78-4.27.89-6.33,1.58.53-2.32-2.3,0-2.49-1.93a1.24,1.24,0,0,0-1.22,1.12c.25-.38.89.18.81.59-.67.16-1.69.32-1.76,1.25l-.86-.88c0,.72-.26,1.64-.72,1.69-1.08-1.72.16,1.28-1.32.46a11.29,11.29,0,0,0,.67-2c-.72-.09-.6.34-1.09.6-.19-.55.42-1.63.95-2.09l-.94-.43c-.84,1.32-2.27,3.15-3.68,3.21.17-.74.64-.84.2-1.68-.6.44-1.3,1.87-2.14,1.55.1-.11,0-.21.12-.33-1.3,1.51-1.08.06-2.36.47,0-.11,0-.24,0-.37-.44.65-1.49,2.52-2.13,1.85-6.43,5.29-14.65,10.32-18.63,20.31a21.24,21.24,0,0,0-1.36,3.19,5.63,5.63,0,0,1-.31,3.74c.07-.07.42-.76.93-1.76l0,.61a41.53,41.53,0,0,0-1.94,4.42,6.62,6.62,0,0,1,.42-2c-1.07.69-.83,4.3-1.93,4.71a2.81,2.81,0,0,1,0-.29c-.16.7-.32,1.4-.47,2.11a.5.5,0,0,1,.5-.11c-.07.28-.15.56-.22.84l-.32-.53c-.61,2.88-1.12,5.85-1.53,8.87,0,0,0,.12.07.14-.19,1.51-.49,2.87-.6,4.36,0,0,0-.05,0-.07-.16,6.67.46,5.67,2.37.86-.22,2.21-.49,4.56-.63,6.94l.31-.29c-.11.76.29,1.37-.08,1.78-.65-1-2.48-4.83-2.26-6.23-.3,3.25-.41,6.57-.5,9.69v.15c.25.16.5.43.3-.8l.45,1.14a.88.88,0,0,0,.16-.27,5.15,5.15,0,0,1-.46,3c-.17.07-.26-.66-.36-1.07a6.08,6.08,0,0,0,.08,2.62c.06-1.68.36-.83.83-1.25.29,1.28.68,6.09-.74,5,.27.86.1,1.84.67,2.67-.65-1.63,1.18-.29.31-2.36.74-.82.59,1.76.36,3-.16-.57-.39,0-.61-.1.37,1.67.89.71,1-.56l.54,1.89v-.2l.32,2c-.59.42-1,.58-.88,0l-.34,1.19-.28-1.61c-.45.82.06,1.86.12,2.71-.24,1-.73-2.21-1.51-3,0,1.18,0,2.36.06,3.54a1.75,1.75,0,0,1,.45.79l-.27.4c-.08,3,1.48,2.2,1.47,5-.6.71-1.08-1.6-1.6-3.19.34,2.35-.43,5.72.52,7.61-.78,2,.06,4.71-.11,6.94.13,0,.28.15.45.56-.31-1.25.19-1.58-.29-2.72,1,1.14.46-2,1-2.31.37,1.43-.23,4.52-.36,4.15.17-.11.27,1.72.12,2.49l.86.77c-.09-1.17-.57-2.64.11-2.42l-.49-1.47a6.17,6.17,0,0,1,1.71,2.54c.52-3.32-1.42-5.11-.93-7.86l.12.36c-.69-4.9.25-6.42,1.32-7.85.15.72.29,1.41.41,2l-.5.32c0,3,1.54,4.91,1.26,7.62,0-.05,0-.07-.08,0,.12,1.1.07,2.17.15,3.25a.94.94,0,0,0,0-.09c.28,4.57.41,8.73.62,12.7a.57.57,0,0,1-.46.17l-.31-2.59c-.06.9-.36,1.47-.37,2.18h0c0,.31.15,1.62.74,1.23,1.23,3,.47,6.6.91,9.91l-.82-5.14c-.61,0-.19,3.71-1.13,2.09-.23-.4-1.12,0-1-2,.08-.05.15.09.21.26a6,6,0,0,1,0-2c.55-.48.53,1,1,1.46a6.26,6.26,0,0,1-.48-1.8l.22.08-.32-1.91c-.52-.66.09,1.5-.24,1.72a13.5,13.5,0,0,1-.58-7.89c.13-2.64-1.31,1.11-1.21-4-.44.19-.52-1-1.08-.84l0-1.65c-.93-.27.12,2.24-.28,2.54.25,2.93-.12,6,.48,8.84a1.14,1.14,0,0,0-.21-.4c-.17,3,.46,4.93,1.12,8.07-.25.33-.59.59-.86.95l.06,2.3.09.13c.09,1.5.69,3.34.44,4.41l-.07-.19c-.12,1.77.71,1.55.69.22l.48,1.47-.17.11c.55,2,1.6,3.63,2.06,6.9-.63-.7-.77,2.87-1.23-.07.35.77.49-.66.71-.92a6.15,6.15,0,0,0-.78-2.35c-.27.46-1.05.4-1.52,0,1.11,1.83.86,8.15,2.37,8.14.18,2.68.87,6,.88,9.15.06-.15.16-.44.27-.41l-.38,2.83-.18-.56-.29,1.88c-.31.66-1-2-.49-1.46-.65-1.69-.07,1.61-.71.59a9.54,9.54,0,0,0-.15-1.37c-.17,2.24.85,2.91.16,4.49a7.56,7.56,0,0,1,1.07,4.77c-.41-.63.27,2.05-.48,1.32.41.62.11,2.49.56,2.64a3.21,3.21,0,0,1-.15-1.69c.11.59,1,1.16.49,1.8.46,1.1,1.34.07,1.59,2a1.32,1.32,0,0,0,.11.73c.6,4.68-1.61-.84-1.8,0,.34.11.84,2.57.65,3.83l-.18-.23a3.15,3.15,0,0,1,.27,2.06,4.4,4.4,0,0,1,1.27.78c.23,7.45-.6,17,0,24.54a1.36,1.36,0,0,1,.73-1.21c-.37,2.54.09,7.7-1,7.33l-.11-.65c-1.06-.37.5,7.73-.42,10.57l1.14-1.56-.19,4.83-.22-1.29c3.43,20.61-5.16,42.32,11.47,56.51-2.31.47,3.79,2,3.07,3.57,3.27,4.38,5.73,1.84,9-.28a.87.87,0,0,1,.15-.47l3.8.31c-2.27,3.21,2.74-2.67.65.06,9.9,2.41,22.82,0,34.29,1.07l-.51-.83c3.38,0,6.88-.73,9.55.76.56.74,1.86,1.14,1.94-.24-.38.59-.61.91-1.16.78a5.71,5.71,0,0,1,0-.59,6.13,6.13,0,0,0,2.36-1.25,1.58,1.58,0,0,0-.34.47l.23.29a.42.42,0,0,1,.77,0c-.63.27.4,1.24-.28,1.71-.92.47-1.66-1-2.21.33.85.28,2,1.18,2.35.59l-.55-.13,1.32-1.59c0,.66,1.12-.29,1.07.75a7.27,7.27,0,0,1-1.18.17c.07.46,1.15.36,1.61.54l-.57-.44c1-.74,2.35-.36,3.36-.94-.8.78,1,.77.33,1.6-.26.56-.66-.34-.54-.09-.1.94.6.23.79.93.12-.6,1.14-.89.55-1.62.32.43,1.05-.48,1.49.18-.13-1.1.83-.69,1-1.18a1.05,1.05,0,0,1,.49.54c-.41.34-.92.8-1.45,1.29h0c-.56-.38-.5.1-.5.47-1.06,1-2.15,2-2.7,2.36l.27-.53c-.83,1.28-1.61-.17-2.46.77,0-.19.14-.26,0-.32-1-.3-1.47,1.56-2.27.58l.13-.59a1.4,1.4,0,0,0-.5,1.18c.69-.14.83-.39,1.44-.15a1.49,1.49,0,0,1-1.24.87c0,2.77-1,.33-1.67,1.45l.59.79s-.07.06-.11.09c.28-.07.52-.18.6-.43.93-.46,1.35,1.11,1.49,1.69.42.39-.2,1.32-.17,2,.71-.15.7-1.33,1.41-1.48a.35.35,0,0,1,0,.53l.53-.54c0,.33,1.22.66.49,1.35-.11,0-.31,0-.46-.08,1,.84,2.65,1.81,2.58,3,.54.29.4-.29,1.26.1.41-.83,0-1.7.94-2.25l-.74-.44a5.11,5.11,0,0,1-.45.48l.77-.06c-.49.36-.41.82-.56,1.62-1.2,0-1.5-1.45-2.09-1.89.38-.6,1-.38.79-1.42.57.94.66-.84,1.34,0l-.14.27c.56-.76.63.22,1.1-.49a.62.62,0,0,0,.08.45c1-.44-.3-.62.71-1.59.88.16.28,1.68.52,2.18-1.5,1.35,0,1.71-1.61,2.8,0,1.38.64,1.57,1.52,1.41-.57-.59.37-2-.38-3,1.3-.67,1.18-3.35,2.64-2.13l0,.21.59-1,.82.5c-.49,1.49-1.12.79-1.52,1.64,1,1.43,1.34-1.47,2.49-1.43,1,1.58-1.16,1-1.14,2.4.23-.38.88.29.82.7-1.11-.46-.67.93-1.9.2.59-.49-.09-.45,0-1.06-.16.48-1.31.75-2.11.5-.18,1,.7.85,1.21,1.28,1-1.12,2,.82,2.72-.52,1.05-.2.1,1,.16,1.09,1,.41.4-.86.69-1.12,1.4-.89,1.62,1,2.66,1,.8-1.47,2.88-1.36,4.35-1.63a2.05,2.05,0,0,0,.2,1.26,6.39,6.39,0,0,1,1.47-2.73l-1-.41c.71-.43,1.18-1.88,1.93-1.07-1-1.41,1-1.64,1.51-2.41.8.37,1.38-1.23,1.91-.34l-.09.12,1.08-.27.09,1.67c.82.24,1.56-1.4,1.23-1.75.83,0,.41.43.63,1.12-.36.72-1.12,2.58-1.57,1.41.08.09.25,0,.26-.16-2.13.2-.41,2.26-1.4,3.12,1.59.51,2.27-.81,3.32-2.4-.64,1.1-1.14.59-1.8.31.51-.12.47-1.06,1-.75l-.09.34.45-.84c.23.92,1.54-.43.89,1.15.71-.64.12-1,.73-1.72-.46.14-.9.3-1.36.4-.22-1.31-.22-1.44,1-1.66l-.23-1.1,1.07.42c-.24-.68.52-.78.68-1.08.58.1.58,2,1.25.48l-.08-.08a2.32,2.32,0,0,1,1.4-1.33,1.53,1.53,0,0,1-.23.65c1.1-.2,2.26-3,3.06-1.88.13.91-.39.77-.18,1.75-1.8,0-.7,2.44-2.68,3.05-.52-2.15-1.29,2.35-2,.39.77-.2,1.44-2.18,1.27-2.33a5,5,0,0,1-2,1.29,3.52,3.52,0,0,1,.47,2.74c1-1.29,3.2-1.12,4.76-2.17l-.47-1.18c1.08-1.95.13,1.36,1.16.6l.21-1.33.09.05.44-1.79c-.5.51,0,1.23-.73,1.19s-.21-1-.25-1.83c.43.08,1.57-1.25,1.05.27.33-.81.66-1.63,1-2.49a3.26,3.26,0,0,1-.17,1.35l.87-1.16,0,.22c.6-1.27,1.63-2.4,1.9-3.9-1.5.5.26-1.67-.07-2.21.47-.36,1.33,1.56.65,3.47-.49-.42-.85,1.24-1.32,1.83.76-.24.78-1.06,1.25-1.66-.18.93.88,0,1,.44s.18,1.68-.61,2c-1,1-.45-1-.67-.49-.6-.86-1.27,1.63-2,1.87-.09-.05.06-.37.14-.54-.49.58-1.56,1.61-1.42,2.49.38-.57.75-1.21,1.11-1.83.35,0-.19,1.13.35,1.22a2.16,2.16,0,0,1,1-1.14l0,.43c1-.11,2.11-1.75,2.87-3.07-.4-2-.32-3.57-.62-5.85,1.21-1.57,2.47-3.19,3.77-4.75a6.42,6.42,0,0,1-1.51,3.85l.21-.94a4.63,4.63,0,0,0-1,2.55c0-.21-.12-.24-.31-.3-.57,1-.57,2.4,0,2.59l.11-.58.76.24c-.41-1.76,1.23-2.74,1.66-4.41-.2,1.34-.07,3.37-1.08,3.34l.38.69c-.52.93-1.29.67-1.32,1.87l.61-1,.15.45c.46-.67.78-2.19,1.39-2.32a7,7,0,0,1,1.2-3.67l0,.21c-.09-2.15,2-2,2.35-3.55-.41-1.79-1.27,1.25-1.86,1.2.14-1.17.89-1.18.18-1.38.56-2.18,1.1.19,1.37-2l-.58.41c-.11-1.15,1.12-2.15.53-3.22a14.25,14.25,0,0,0,3.45-4.13c-.05.8.38,1.33,0,2.75l-.94.66c-.26.88.34.13.49.28-.3,1.12-.76,1-1.08,1.63.19,0,.53-.29.63.1-.88.54-1.19,2-2.31,1.91.59,0,.37,2,.2,2.59a19.15,19.15,0,0,0,1.69-1c1.19-3,2.31-4.38,3.3-8.12l.19.56c2.81-4.28.37-6,1.71-10.7.75.56.49-2.3,1.14-1.48-.44,1.42-.09,1.39.36,1.27a6.68,6.68,0,0,1,.27-3.53c.23.93.88-.31.64,1.48.68-2.18.93-3.54.5-5.19,0-4.2,1.07-.58,1.34-4.63l.19.73.27-2.44-.5.57c0-1,0-2,0-3-.22-1.89-.58.46-.86.08l.47.85c-.3,1-.06,2.88-.5,2.88.21-1.86-.3-1.66-.41-2.49l0,1.83-.51.31c-.28,1.67-.64,2.87-.36,4.2.34-.56-.19-1.4.24-1.82.53,1.27.22,3.45,0,5.66-.59.49-.5.17-.33-.46-.33-.09-.27-1.35-.88.38a19.84,19.84,0,0,0-1-3.1,13.75,13.75,0,0,1,.66-3.41l.09.13c.26-.88.08-3.15.59-3,0-.64.06-2.29-.47-.85,0-.93.09-1.85.1-2.77.84.89,1.36-1.58,1.75,1.46,0-.1,0-1.14.05-2.8.1.11.11.29.21.39-.07.31,0,.53-.23.5.53,1.25.87-.08,1.11-1.57l-.47-.57c2.14-2.81-.56-6.27-.74-9.27.33-.43.19-2.18.76-1.39.21-.31.51,1.13,0,1.22.31.28.69.46,1.1-.39a3.5,3.5,0,0,0,0,1.76l.14-.95c0,1.45.58,3.86,1,4-.6-.63.1-1.39.27-2.16.08.64.33,2,.48,1.06-.23-.43-.39-3.2-.78-1.36a8.17,8.17,0,0,1-.13-2.83c.26,1.12.51.47.93.86a2,2,0,0,0-1-1.28c.69-2.57,1.87-3.51,1.53-6.61-.07-.41.14,1.87-.28,1.53C685.59,246.94,687.1,246.45,686.84,244.51Zm-3-20.47c0-.66,0-1.36.08-2.1.27.78.41,2.38.93.62.37.35.21,2.26-.13,2.38-.16-.24-.33-1.24-.53-.58l.93,1.41c-.83,2.63-1.18-3.52-1.28-1.44l-.05-.16S683.84,224.08,683.86,224ZM539.33,97.31c.15.11.24,0,.31-.17,0,.48.06,1,.1,1.47C539.47,98.4,539.18,98.73,539.33,97.31Zm6.45,70s0,0,0,.05c-.39-1-1-3.19-.35-4.06.09.92.15,1.13.26.95C545.71,165.29,545.75,166.31,545.78,167.35Zm-1-53.86a2,2,0,0,0-.32.13,9.36,9.36,0,0,0,.21-1.76c.1.14.21.26.31.39C544.9,112.64,544.83,113.05,544.77,113.49Zm-.14-3.71c-.53-1.82,0-3-.78-4.49,1-.14,1.15-.7,1.74-.26a.33.33,0,0,1,0,.19l.12.13c0,1.2-.07,2.46-.15,3.82l-.44-1.54C545.26,108.53,545.2,110,544.63,109.78Zm.8.68c0,.14-.08.3-.13.44l0-2,.26.26C545.49,109.62,545.47,110,545.43,110.46Zm-.64,47.92c1.38.35.47,3.42.83,4.74-.34-1.27-.42-3-1.06-2.69C544.34,158.56,544.65,159.81,544.79,158.38Zm.52,17.59a5.5,5.5,0,0,1,0-1l-.17,2.24c-.41-.62-1.31-3.05-1.42-3.08.2-.92,0-2.13.33-2.69l.65,1.36-.38.7.63.69c.11-1.06.27-3.28.71-3.89C546,172.13,545.46,174,545.31,176ZM588.63,42.8l-1.39-.28,1.35-.42.13.49C588.66,42.68,588.62,42.75,588.63,42.8Zm1.86,0c-.59,0-1-.76-1.53-1.41v0c.46,0,.59.28.51.67,1-.34,1.35-1.62,2.4-1.31-.46.82-.75,1.38-1.49,1.37l1.19,0A2.06,2.06,0,0,1,590.49,42.78Zm1.42.85,0-.67a8.44,8.44,0,0,0,1.84-1.31,1.28,1.28,0,0,0,.16.21C593,41.75,593.68,44.22,591.91,43.63Zm1.88-.06.67-1.4-.09-.06c.54,0,1.19-.5,1.88-.16.14.25.45.54.26,1l-.28,0a5.63,5.63,0,0,0,4.09-1.4l.35.63A38.5,38.5,0,0,1,593.79,43.57Zm30.58,268.17a.95.95,0,1,1-1.7-.74c-.59.74-1.36.75-2,1.1,1.26-1.1,2.51-1.66,3.81-1.13-.24.32-.79.43-.77.74C623.93,311.58,624.06,311.3,624.37,311.74Zm7.53-.68c-1.07.26-1.21-.15-1-.76a5.67,5.67,0,0,1,1.76-.22C632.53,310.6,632.38,311,631.9,311.06Zm11-1.27c-1,.42-2.21,1.08-3.32.89a1,1,0,0,1,.17.54l-.82-.62A17.77,17.77,0,0,1,642.93,309.79Zm-.43,8.66a.6.6,0,0,1,.1-.31,10.92,10.92,0,0,0-2,.78l.22-.61c-.2-.75-.82.24-1.5.46-.18.5-.6,1-.9.5.3-1-.4-1.16-1.51-.94.22-.49.5-1.45.93-1.68-.15.11-.33.11-.59-.16l1.21-2.35c-.67-.2-.67,1.79-1.5,1.58a3.88,3.88,0,0,1,.73-3c.76.11,0,.74.4,1.21.49-1.6.8,1.15,1.3-.7.71-.25.54.67.81,1.11-.72.26.42,1.19-.48,1.64.8.59.46-1.43,1.12-1.07l.19,1.27c.59.21,1.9.58,2.6-.51-.73-.6.3-1,.12-1.69,0,1.16-1,.68-1,.14.49-.41,1.74-1.12,2-.91l-1-.38c.2-.53.8-1.51,1.12-2.1a6.94,6.94,0,0,0,1.35.32l-.47,1-.34-.7-.28,1.19c.48.18,1.52.47,1.84,1.27C645.92,314.26,644.38,315.59,642.5,318.45Zm13.41-5.66v-.21l-1.23,1.21.07-.56c-.2.45-.39.9-.6,1.32-1.24-3.51-1.37.61-3.16.66l.08-.56c-.4,1.32-2,1.06-2.91,1.23v-.21c.49-.69.51-1.33.19-1.67.16-.3.43-.59.57-.91.31,0,1.08-.88,1.3,0-.61.39-.54.47-.16.89.47-1.19,1.7-1.32,1.38-2.71.83-.61.31.11,1,.18a2,2,0,0,1-.13,1.33c.79-.76,1.58-1.47,2.33-2.32,0,0,0-.07,0-.11a10,10,0,0,1,1.95.16C656.37,311.19,656.17,311.93,655.91,312.79Zm7.18-5.91c.3-.49.38-.67.35-.72l.42-.4C663.81,306.36,663.71,306.85,663.09,306.88Zm8.06-5.9-.09-1.17-.82,2.92c.2,1.8.56,1.22.13,3.35a2.5,2.5,0,0,1-1.81-2.18c.52-.12,1-1.42,1.34-.61,0-.92.28-2.27.3-3.18a8.14,8.14,0,0,0,1.87-1.06A6.65,6.65,0,0,1,671.15,301Zm7.71-9-1.26,2.46a3,3,0,0,0,.06-1c-.36,2.37-1.06,2.41-1.11,4.53-.58.54.22-1.85-.26-1a7.27,7.27,0,0,0-.1-3c.18-.35.36-.71.52-1.08a6.52,6.52,0,0,1-.13,1.16c1.48-2.92.92-2.39,2.08-5.17C679.26,289.12,678.3,292.26,678.86,292Z" transform="translate(-539 -32.04)"/><path class="cls-1" d="M545.52,190.34v.11A.21.21,0,0,1,545.52,190.34Z" transform="translate(-539 -32.04)"/><path class="cls-1" d="M545,92.17c0,.33,0,.65.07,1h0A7.43,7.43,0,0,1,545,92.17Z" transform="translate(-539 -32.04)"/><polygon class="cls-1" points="49.78 10.79 49.76 10.78 49.77 10.72 49.78 10.79"/><path class="cls-1" d="M545.39,84.36a.3.3,0,0,1-.4.15v-.3A.58.58,0,0,0,545.39,84.36Z" transform="translate(-539 -32.04)"/><polygon class="cls-1" points="86.03 279.2 86.03 279.2 86.03 279.2 86.03 279.2"/><path class="cls-1" d="M658.38,311.25c-.15.08-.23,0-.26-.18l.51-.47A4.44,4.44,0,0,0,658.38,311.25Z" transform="translate(-539 -32.04)"/><path class="cls-1" d="M620.26,320.25c-.24.33-.79.2-.71,1C619.57,320.38,620.55,321.23,620.26,320.25Z" transform="translate(-539 -32.04)"/><path class="cls-1" d="M619.34,319.86l.7-.13-.42-.4C619.58,319.53,619.59,319.86,619.34,319.86Z" transform="translate(-539 -32.04)"/><path class="cls-1" d="M631.79,329.63c.06.65.43,0,.63-.16C632.26,329.43,632,329.27,631.79,329.63Z" transform="translate(-539 -32.04)"/><path class="cls-1" d="M647.38,323.46l-.68-1.06c-1.14,1.1-1.57,2.34-2.8,3.06C645.68,326.17,645.86,322.75,647.38,323.46Z" transform="translate(-539 -32.04)"/><path class="cls-1" d="M647.36,325c-.8.64-.26,1.32-1,1.51l.51,1.1C646.49,326.54,647.65,325.84,647.36,325Z" transform="translate(-539 -32.04)"/><polygon class="cls-1" points="113.31 292.11 114 292.11 113.41 291.76 113.31 292.11"/><path class="cls-1" d="M644.49,312.33c.08-.1.75.18.41-.54Z" transform="translate(-539 -32.04)"/><polygon class="cls-1" points="117.67 288.82 117.17 289.71 117.25 289.78 117.75 288.89 117.67 288.82"/><path class="cls-1" d="M670.47,308.09c-.8,1-.26,1.77-.61,2.65.79-1.37,1.07-1.41,2-3.17C670.93,308.53,670.68,308.71,670.47,308.09Z" transform="translate(-539 -32.04)"/><path class="cls-1" d="M669.86,310.74l-.28.47A1.94,1.94,0,0,0,669.86,310.74Z" transform="translate(-539 -32.04)"/><path class="cls-1" d="M672.49,306.55c.23.61.72-.85.56-.63S672.69,306.54,672.49,306.55Z" transform="translate(-539 -32.04)"/><path class="cls-1" d="M673.92,300c-.14.22-.53.27-.68-.3C673.2,300.26,673.46,301.64,673.92,300Z" transform="translate(-539 -32.04)"/><path class="cls-1" d="M681.33,284.22v1.1l.36-1C681.53,284.52,681.22,283.55,681.33,284.22Z" transform="translate(-539 -32.04)"/><path class="cls-1" d="M681.79,277.35c0,.51-.1,1-.18,1.52.11-.53.19-1.07.27-1.6Z" transform="translate(-539 -32.04)"/><path class="cls-1" d="M684.1,271.21l.16-.19c0-.45,0-.91,0-1.35l-.16.19Z" transform="translate(-539 -32.04)"/><path class="cls-1" d="M685.5,234.42c.28-.78.42.57.63.71l0-2.8c-.22,0-.47-.24-.66-.17Z" transform="translate(-539 -32.04)"/><path class="cls-1" d="M686.48,231.5a1.51,1.51,0,0,1-.42-.69l0,1.52C686.25,232.32,686.39,232.14,686.48,231.5Z" transform="translate(-539 -32.04)"/><path class="cls-1" d="M683.07,175.77c0-.39.06-.83.06-1.36Z" transform="translate(-539 -32.04)"/><path class="cls-1" d="M682.94,176.85l.08,0,.05-1C683,176.16,683,176.5,682.94,176.85Z" transform="translate(-539 -32.04)"/><path class="cls-1" d="M683.2,171.91c.28,0,.1-.69,0-1A3.62,3.62,0,0,0,683.2,171.91Z" transform="translate(-539 -32.04)"/><path class="cls-1" d="M607.75,34.43a2.5,2.5,0,0,0,.38-.55C607.74,34.11,607.69,34.27,607.75,34.43Z" transform="translate(-539 -32.04)"/><path class="cls-1" d="M545.55,105.22a1.09,1.09,0,0,0-.13-.11C545.45,105.22,545.51,105.27,545.55,105.22Z" transform="translate(-539 -32.04)"/><path class="cls-1" d="M542.46,169.14a.8.8,0,0,0,.1-.33A.26.26,0,0,0,542.46,169.14Z" transform="translate(-539 -32.04)"/><polygon class="cls-1" points="3.67 105.5 3.59 105.31 3.58 105.45 3.67 105.5"/><path class="cls-1" d="M542.6,141.27a.81.81,0,0,0-.21-.18c.36,1.2.33,3.64,1,3.71-.06-.43.08-2.8.47-2.54-.24-.84.06-2.31-.09-2.75-.19,1.57-.49.33-.8-.59.09-1,.51,0,.55-.81l-.27-2.05.09,1.83-.64-.35C543.48,140.46,541.89,138.36,542.6,141.27Z" transform="translate(-539 -32.04)"/><path class="cls-1" d="M542.39,141.09a2.06,2.06,0,0,0-.19-.44C542.24,140.93,542.31,141,542.39,141.09Z" transform="translate(-539 -32.04)"/><path class="cls-1" d="M542.65,153.94c0,.15.08.31.14.51Z" transform="translate(-539 -32.04)"/><path class="cls-1" d="M544.1,142.74c-.11-.31-.19-.43-.27-.48A.91.91,0,0,0,544.1,142.74Z" transform="translate(-539 -32.04)"/><polygon class="cls-1" points="4.45 153.95 4.05 153.33 4.23 153.88 4.45 153.95"/><polygon class="cls-1" points="2.98 153.47 2.95 154.62 3.3 155.06 2.98 153.47"/><path class="cls-1" d="M544.49,174.69l.3.9C544.73,175.41,544.86,174,544.49,174.69Z" transform="translate(-539 -32.04)"/><path class="cls-1" d="M542,167.63c-.43.85-.32-1.9-.62-.36C541.54,168.48,541.75,167.89,542,167.63Z" transform="translate(-539 -32.04)"/><path class="cls-1" d="M544,153.54a2.14,2.14,0,0,0-.09-1.41C544,152.65,543.83,153.23,544,153.54Z" transform="translate(-539 -32.04)"/><path class="cls-1" d="M543.22,146.23v.48c-.29-.4-.23-.18,0,.18.06.49.22.41.33.43l.22.25C543.41,147.19,543.55,145.8,543.22,146.23Z" transform="translate(-539 -32.04)"/><path class="cls-1" d="M542.47,128c-.22.25,0,1.31,0,1.8C542.44,129.08,543.09,128.31,542.47,128Z" transform="translate(-539 -32.04)"/><polygon class="cls-1" points="3.23 92.71 3.13 93 3.49 94.11 3.23 92.71"/><path class="cls-1" d="M539.67,112.53a5.85,5.85,0,0,0,.21,1.77C540,114,540,112.35,539.67,112.53Z" transform="translate(-539 -32.04)"/><path class="cls-1" d="M572.86,36.5c0-.28.68-.74.51-1.17l-1,.54C572.65,35.85,572.75,36.17,572.86,36.5Z" transform="translate(-539 -32.04)"/><path class="cls-1" d="M572,36.13l.41-.26C572.31,35.87,572.18,35.94,572,36.13Z" transform="translate(-539 -32.04)"/><path class="cls-1" d="M572.92,36.66l-.06-.16A.14.14,0,0,0,572.92,36.66Z" transform="translate(-539 -32.04)"/><path class="cls-1" d="M610.23,32.36l0,.2.48-.52c-.47.21-1.49.29-1.73,1C609.18,32.55,610,33.07,610.23,32.36Z" transform="translate(-539 -32.04)"/></svg>