<svg xmlns="http://www.w3.org/2000/svg" viewBox="0 0 44.03 48.78"><defs><style>.cls-1{isolation:isolate;}.cls-2{fill:#217f1c;opacity:0.4;mix-blend-mode:darken;}.cls-3{fill:#5caa29;}.cls-4{fill:#478c1b;}.cls-5{fill:#529e21;}.cls-6{fill:#a89d94;}.cls-7{fill:#93897f;}.cls-8{fill:#7f7369;}.cls-9{fill:#c4b8ae;opacity:0.7;}</style></defs><g class="cls-1"><g id="Layer_1" data-name="Layer 1"><path class="cls-2" d="M333.36,406.92c-2.17-1.28-3.83-2.48-6.14-3a55.24,55.24,0,0,0-8.67-1.35,47.71,47.71,0,0,0-9.78.16,10.86,10.86,0,0,0-3.35.9c-2.33-.16-5.27.58-6.52,2.75-1.1,1.91-.06,4,1.52,5.14,2.93,2.11,7.37,2.71,10.78,3.16,2.16.29,5.37-.49,7.56-1.26a32.2,32.2,0,0,0,13.7-.26C335,412.37,337.4,409.31,333.36,406.92Z" transform="translate(-295.89 -365.94)"/><path class="cls-3" d="M327.3,405.12s1.11-.05,1.67-2.68.56-7.83,1.06-11.05c1-6.44,2.9-9.28,4.69-9.05s5.2,1.07,5.2,1.07-2.71-2.36-5.11-2.77-3.16.24-4.65,2.69-3.3,9.65-3.3,9.65-.47-9.82.79-15a54.72,54.72,0,0,0,1.54-9,42.17,42.17,0,0,0-3.6,8.06c-.68,2.32-1.46,10.41-1.75,15.12-1.48-6.12-1.33-11.25-2-15.2-.75-4.46-2-7.25-3.69-8a28.7,28.7,0,0,0-4.41-1.57,29.76,29.76,0,0,1,3.87,3.56c1,1.3,1.88,5.13,2.16,7.87s.47,6.23.55,8.69.33,16,.33,16Z" transform="translate(-295.89 -365.94)"/><path class="cls-4" d="M309.65,394.88A50.34,50.34,0,0,0,311,383.75a37.35,37.35,0,0,0-.75-8.14,16.31,16.31,0,0,0-1.43-3.92,12.28,12.28,0,0,1,3,4.64,43.48,43.48,0,0,1,1,7.9s1-5.36,1.55-8.66a73.41,73.41,0,0,1,2.88-9.63s-.76,6.22-1,8.87c-.49,5.49-1,9,.24,13.77.86-4.4.69-9.5,1.48-13,.68-3,1.72-4.27,3.73-4.08a8,8,0,0,0,3.45-.38,5.59,5.59,0,0,1-2.3,1.77c-1.24.39-2.28-.05-2.87,1.58s-.63,5.22-.63,8v8.73a11,11,0,0,0,2.35-6.48c.1-5.17,1.44-8.14,2.3-9.14a15.21,15.21,0,0,1,1.82-1.78,19.72,19.72,0,0,0-1.44,4.79c-.19,2-.25,8.31-1,11.19s-2.37,7.38-2.37,7.38Z" transform="translate(-295.89 -365.94)"/><path class="cls-5" d="M295.89,390.16s4.46-2.34,6.15-2.15,1.6,6,1.51,10.1.19,6.22.28,6.13,9.91-5,9.91-5-.52-12.17-.43-16.67a62.67,62.67,0,0,0-.55-11.78c-.6-3.44-.69-4.88-.69-4.88a36.16,36.16,0,0,0-.5,3.83c-.17,2.11,0,4.5,0,7s0,6.22,0,6.22-.63-5-2.75-7.41-4.24-4.55-4.24-4.55a16.7,16.7,0,0,0,1.36,3.54c.86,1.53,1.92,2.49,2.3,3.54s1.05,7.5,1.05,7.5-2.06-5.2-4.09-6.54a38.29,38.29,0,0,1-5.26-5,13.08,13.08,0,0,0,2.1,4.6c1.41,1.62,2.13,3,3.16,4.3a8.16,8.16,0,0,1,1.6,4.12c.1,1.15-.09,4.39-.09,4.39s-1.25-3.53-3-4.39-2.78-1.24-4.41.19S295.89,390.16,295.89,390.16Z" transform="translate(-295.89 -365.94)"/><path class="cls-4" d="M329.81,384a44.64,44.64,0,0,0-2.95,9c-.53,3.6-.72,8.89-.72,8.89l1.68.6a78.86,78.86,0,0,1,.16-10.73c.51-3.63,2.66-8.71,3.86-9.71a7.85,7.85,0,0,1,3.31-1.32,3.84,3.84,0,0,0-2.58,0C331.17,381.21,330.42,382.87,329.81,384Z" transform="translate(-295.89 -365.94)"/><path class="cls-4" d="M303.2,386.84a6.46,6.46,0,0,1,1.88,2.51,49.59,49.59,0,0,1,.84,7.09,28.29,28.29,0,0,0,.36,3.3L308,399s-.68-5.9-1.23-7.83A6.7,6.7,0,0,0,303.2,386.84Z" transform="translate(-295.89 -365.94)"/><path class="cls-3" d="M306.58,380.49c.32,1.18,1.52,4.23,2,5.76s.43,9.28.58,9.32a10.19,10.19,0,0,0,1.24,0s-.39-5.37-.48-7.16A13.13,13.13,0,0,0,306.58,380.49Z" transform="translate(-295.89 -365.94)"/><path class="cls-6" d="M310.93,393.68a8.27,8.27,0,0,0,.61,4.68,2.07,2.07,0,0,0-2,.39c-1.79,1.53-.32,4.83.66,6.4s3.13,4.25,5.38,3.31a3.28,3.28,0,0,0,1.91-3.08c7.2,4.61,14,3.28,15-2.36V403c-1.74-3-5.62-5.85-8.12-8.24-3.92-3.75-6.42-5.19-10.26-4.62-.27,0-.5.13-.75.19A5.13,5.13,0,0,0,310.93,393.68Z" transform="translate(-295.89 -365.94)"/><path class="cls-7" d="M307.67,395.83a2.31,2.31,0,0,0,.81,1.27,5.8,5.8,0,0,0-2.39,3.4,8.27,8.27,0,0,0,2.6,8.16c3.25,2.6,6.57,2.67,7.6,2a4.27,4.27,0,0,0,1.5-2s1.35,2.08,6.89,1.88,6.94-1.57,8.68-4.72a5.8,5.8,0,0,0-.9-2.86V403c-1,5.64-7.78,7-15,2.36a3.28,3.28,0,0,1-1.91,3.08c-2.25.94-4.33-1.65-5.38-3.31s-2.45-4.87-.66-6.4a2.07,2.07,0,0,1,2-.39,8.27,8.27,0,0,1-.61-4.68,5.13,5.13,0,0,1,2.4-3.39,9.57,9.57,0,0,0-4.89,3.39C308.29,393.92,307.53,395.12,307.67,395.83Z" transform="translate(-295.89 -365.94)"/><path class="cls-8" d="M306.15,410.64c7.63,2.39,8.8,1.94,11.85.89,2.88.79,11.82,1.16,14.71-3.47a4.07,4.07,0,0,0,.65-2.24c-1.74,3.15-3.16,4.53-8.68,4.72s-6.89-1.88-6.89-1.88a4.27,4.27,0,0,1-1.5,2c-1,.63-4.35.56-7.6-2a8.27,8.27,0,0,1-2.6-8.16,5.8,5.8,0,0,1,2.39-3.4,2.31,2.31,0,0,1-.81-1.27c-.14-.71.62-1.91.77-2.15-1.24,1.45-2.46,3.24-3.9,5.25C301.21,403.56,298.52,408.24,306.15,410.64Z" transform="translate(-295.89 -365.94)"/><path class="cls-9" d="M314.71,402.66c-.49-.86-1.57-2.84-2.78-3.22-1.51-.47-2.16.47-1.65,2.27s2.32,5.15,4.11,5.05C316.46,406.64,315.38,403.83,314.71,402.66Z" transform="translate(-295.89 -365.94)"/><path class="cls-9" d="M323.09,394.57c-1.53-1.35-5.09-4.15-7.38-3.42a2.31,2.31,0,0,0-1.65,2.5,6.21,6.21,0,0,0,.76,2.68c1.87,3.66,8.23,10.38,13.08,8.59C333,403,324.77,396,323.09,394.57Z" transform="translate(-295.89 -365.94)"/></g></g></svg>