<svg id="Layer_1" data-name="Layer 1" xmlns="http://www.w3.org/2000/svg" viewBox="0 0 78.67 18.41"><defs><style>.cls-1{fill:#83913d;}.cls-1,.cls-2{opacity:0.4;}.cls-3{fill:#a5ae7a;}.cls-4{fill:#b8dfdb;}</style></defs><path class="cls-1" d="M423.45,402.05c-.12-.55-2.93-.18-3.43-.17a35.64,35.64,0,0,1-4.62-.34,62.91,62.91,0,0,0-9.21,0c-6.24.3-12.72.85-19,.34-3-.24-6.08-.06-9-.45-3.11-.42-6.2,0-9.31-.28a38,38,0,0,0-8,.46,34.25,34.25,0,0,1-4.41.28c-.72,0-2.93-.37-3.46.39a9.78,9.78,0,0,1,3.87.86,18.36,18.36,0,0,0,5.83.48c-1.28-.14-1.8,1.23-3,1.16,2.08-.06,4.24.65,6.28,1,1.73.27,4.24,1.28,5.81,1a3,3,0,0,1,1.25-.24c.65.07,1.28.23,1.93.31a57.68,57.68,0,0,0,6.81.65c-3,0-6,.46-9,.37a9.26,9.26,0,0,0,3,1.15c.7.17,1.44.08,2.16.21.39.08,1.79.3,1.24.62.54.6,2.62.31,3.33.34a16.26,16.26,0,0,1,1.84.13c.35.06,1.95.24.42.26,2.5,0,5,0,7.5,0,2.12,0,4.08.42,6.17.56,1.86.13,3.67-.24,5.53-.21,1.05,0,4.19.63,5-.35-.56,0-7.38-.88-7.45-1.23s1.13-.74,1.44-.8a8.63,8.63,0,0,1,2.38-.09c.24,0,2.11.17.83.19,3.58,0,7.15-.19,10.72-.19-2.63,0-5.16-1-7.82-1,1,0,2.05-.53,3-.39a8.28,8.28,0,0,1-2-.52,11.17,11.17,0,0,1,5.33-.12,38.47,38.47,0,0,0,6.17.25c.8,0,9.2,1.06,9.39.24a22.91,22.91,0,0,0-2.39-.36,30.78,30.78,0,0,0-3.13-.59c-.79-.08-3.55.14-4.06-.63.24-.81,4.23-.38,4.79-.33a10.36,10.36,0,0,0,2.48-.17,19.65,19.65,0,0,0,2.88-.12c-.07-.5-3.4-.69-4-.74a34.16,34.16,0,0,0-4.84-.56,23.92,23.92,0,0,1,2.61-.82,5.16,5.16,0,0,0-2.53-.63,3.74,3.74,0,0,1,.66.09C423.43,402,422.33,401.86,423.45,402.05Z" transform="translate(-352.97 -392.71)"/><g class="cls-2"><path class="cls-3" d="M406.13,408.6a1.67,1.67,0,0,1,.5,0Z" transform="translate(-352.97 -392.71)"/><path class="cls-3" d="M359.82,403.59c.77-1,2.46-.48,3.6-.37.54,0,1.38-.2,1.88,0s.36.6.77.79c1.45.69,3.23-.36,4.66-.15.54.08,1.08.62,1.62.8a8.77,8.77,0,0,0,2.44.34,79.64,79.64,0,0,0,8.74.08,10.2,10.2,0,0,1,4.13.61c.19.08,1.29.6,1.23.93s-1.26.13-1.57.23c.5.42,1.48.11,2,.08a27.24,27.24,0,0,1,3.13,0c2.1.15,4.79,1.17,6.88.59.85-.23.33-.33.85-.86s1.78-.22,2.46-.32c2.76-.41-1.48-1.23-2.07-1.43.06-1,2.93-.45,3.48-.35a5.37,5.37,0,0,0,1.73.29c.42-.08.33-.37.8-.49,1.17-.32,2.67.16,3.84.25.61.05,1.24-.07,1.84,0a14,14,0,0,0,1.9.5,12,12,0,0,0,1.91.27c1.55-.09,3.09-.43,4.65-.53s3,0,4.47-.1a17.38,17.38,0,0,1,4-.14c.23.12-.66-.28-.64-.36a2.61,2.61,0,0,1,1.82.5c-1.67-.07-3.17.27-4.84.15-.48,0-4-.3-4.21.39.51.77,3.29.55,4.06.63a26.71,26.71,0,0,1,2.81.52,23.56,23.56,0,0,1,2.71.43c-.19.82-8.6-.24-9.39-.24a35.06,35.06,0,0,1-5.89-.18,11.22,11.22,0,0,0-5.61.05,8.28,8.28,0,0,0,2,.52c-1-.14-2,.43-3,.39,2.67,0,5.19,1,7.82,1-2.57,0-5.15.1-7.72.15-2,0-4.43-.55-6.39,0-1.51.4-1.44.88.06,1,2,.18,4.18,1.07,6.13,1-.58.72-1.94.42-2.74.39a31.9,31.9,0,0,0-4.48,0c-2.67.3-5-.31-7.68-.39-2.84-.1-5.82.35-8.64,0-1.05-.12-2.08-.35-3.2-.38-.7,0-2.54.2-3-.35.55-.32-.85-.54-1.24-.62-.72-.13-1.46,0-2.16-.21a9.26,9.26,0,0,1-3-1.15c2.24.06,4.36-.21,6.59-.33a41.41,41.41,0,0,1-5.51-.83,4.92,4.92,0,0,0-1.35-.24c-.54.08-.69.4-1.1.45a7.66,7.66,0,0,1-2.28-.54c-1-.27-2.1-.42-3.17-.59-2-.34-4.21-1.05-6.28-1,1.17.07,1.69-1.3,3-1.16-.95,0-1.9,0-2.85,0C359.9,403.48,359.82,403.6,359.82,403.59Z" transform="translate(-352.97 -392.71)"/><path class="cls-3" d="M384.75,410.53a.64.64,0,0,1,.66,0Z" transform="translate(-352.97 -392.71)"/><path class="cls-3" d="M415,405.13l-.76,0A3.86,3.86,0,0,1,415,405.13Z" transform="translate(-352.97 -392.71)"/></g><g class="cls-2"><path class="cls-4" d="M406.13,408.6a1.67,1.67,0,0,1,.5,0Z" transform="translate(-352.97 -392.71)"/><path class="cls-4" d="M367.91,405.78a20,20,0,0,1,4.82.07,18,18,0,0,1,5,.76c1.48.49,2.85-.06,4.33-.21a2.71,2.71,0,0,1,1.87.36c.24.15,1.5,1.06,1.46,1.33-.31.07-2.91.07-3,.5.12.35,4.59.18,5.16.29a38.63,38.63,0,0,0,5.58.55c2,.09,4,.5,6-.17a7.41,7.41,0,0,1,1.4-.41c1-.16,1.54.39,1.12-.83,1.64-.52,3.39-.14,5.07-.25.57,0,1.54.06,1.37-.59s-1.94-.41-2.18-1.09c-.11-.3,1.36,0,1.53,0a18.88,18.88,0,0,0,3.27-.25,10.66,10.66,0,0,1,4.59.57,10,10,0,0,0-5.19.13,8.28,8.28,0,0,0,2,.52c-1-.14-2,.43-3,.39,2.67,0,5.19,1,7.82,1-2.57,0-5.15.1-7.72.15-2,0-4.43-.55-6.39,0-1.51.4-1.44.88.06,1,2,.18,4.18,1.07,6.13,1-.58.72-1.94.42-2.74.39a31.9,31.9,0,0,0-4.48,0c-2.67.3-5-.31-7.68-.39-2.84-.1-5.82.35-8.64,0-1.05-.12-2.08-.35-3.2-.38-.7,0-2.54.2-3-.35.55-.32-.85-.54-1.24-.62-.72-.13-1.46,0-2.16-.21a9.26,9.26,0,0,1-3-1.15c2.24.06,4.36-.21,6.59-.33a41,41,0,0,1-4.09-.66,13.52,13.52,0,0,0-2.77-.41c-.93.14-.92.51-2,.26-1.35-.31-2.65-.66-4-.87A5.71,5.71,0,0,0,367.91,405.78Z" transform="translate(-352.97 -392.71)"/><path class="cls-4" d="M384.75,410.53a.64.64,0,0,1,.66,0Z" transform="translate(-352.97 -392.71)"/><path class="cls-4" d="M418.92,406.68a13,13,0,0,1-2.92-.14c1.67.17,3.46-.39,5.06.13Z" transform="translate(-352.97 -392.71)"/><path class="cls-4" d="M361.46,404.9c1.43-.19,4.8-.69,5.82.75.21.28-2,0-1.95,0-1.3-.2-2.57-.49-3.87-.72C362,404.83,361.89,405,361.46,404.9Z" transform="translate(-352.97 -392.71)"/></g><path class="cls-1" d="M361.16,401.78c.11.55,2.92.18,3.43.17a33.93,33.93,0,0,1,4.61.34,62.91,62.91,0,0,0,9.21,0c6.25-.31,12.73-.85,19-.35,3,.25,6.07.07,9,.46,3.11.41,6.2,0,9.31.28a38.11,38.11,0,0,0,8-.46,32.3,32.3,0,0,1,4.4-.28c.72,0,2.94.37,3.47-.39a9.7,9.7,0,0,1-3.87-.86,18.14,18.14,0,0,0-5.84-.48c1.28.14,1.8-1.23,3-1.16-2.07.06-4.24-.66-6.28-1-1.72-.28-4.24-1.28-5.8-1a3,3,0,0,1-1.26.24c-.64-.07-1.28-.23-1.93-.31a55.45,55.45,0,0,0-6.81-.65c3,0,6-.46,9-.37a8.85,8.85,0,0,0-2.95-1.15c-.7-.17-1.45-.08-2.16-.21-.4-.08-1.8-.3-1.24-.62-.55-.6-2.63-.31-3.33-.35a16.26,16.26,0,0,1-1.85-.12c-.34-.06-1.95-.24-.42-.26h-7.5c-2.11,0-4.08-.43-6.17-.57-1.86-.12-3.66.25-5.52.22-1.05,0-4.19-.63-5,.35.56,0,7.37.88,7.44,1.23s-1.13.73-1.44.8a9,9,0,0,1-2.37.09c-.25,0-2.12-.18-.84-.2-3.58,0-7.15.2-10.72.2,2.63,0,5.16.95,7.82,1-1,0-2.05.53-3,.39a7.33,7.33,0,0,1,2,.52,11.13,11.13,0,0,1-5.32.12,37.47,37.47,0,0,0-6.18-.25c-.79,0-9.19-1.06-9.39-.24a20.38,20.38,0,0,0,2.4.35,27.44,27.44,0,0,0,3.13.6c.78.08,3.54-.14,4.06.63-.24.81-4.23.38-4.8.32A10.37,10.37,0,0,0,356,399a19.71,19.71,0,0,0-2.88.12c.07.5,3.41.69,4,.74a34.16,34.16,0,0,0,4.84.56,23.75,23.75,0,0,1-2.6.82,5.12,5.12,0,0,0,2.52.63c-.22,0-.44-.05-.65-.09C361.17,401.83,362.27,402,361.16,401.78Z" transform="translate(-352.97 -392.71)"/><g class="cls-2"><path class="cls-3" d="M378.47,395.22a1.4,1.4,0,0,1-.5,0Z" transform="translate(-352.97 -392.71)"/><path class="cls-3" d="M424.79,400.23c-.78,1-2.46.49-3.6.38-.55-.06-1.39.2-1.89,0s-.35-.6-.77-.8c-1.45-.68-3.23.36-4.66.16-.54-.08-1.07-.62-1.62-.8a9.09,9.09,0,0,0-2.43-.35,82.37,82.37,0,0,0-8.75-.07,10.15,10.15,0,0,1-4.12-.61c-.2-.08-1.3-.6-1.24-.93s1.26-.13,1.57-.23c-.5-.42-1.47-.12-2-.09a25,25,0,0,1-3.12,0c-2.11-.15-4.8-1.17-6.89-.6-.84.24-.32.34-.85.87s-1.77.21-2.46.32c-2.76.41,1.48,1.23,2.07,1.43-.06,1-2.93.44-3.48.35a5.35,5.35,0,0,0-1.72-.29c-.43.08-.33.36-.81.49-1.17.32-2.67-.16-3.84-.25-.6-.05-1.23.06-1.83,0a16.22,16.22,0,0,0-1.91-.49,12,12,0,0,0-1.9-.27c-1.56.09-3.1.43-4.65.53s-3,0-4.48.1a16.84,16.84,0,0,1-4,.13c-.23-.11.66.29.65.37a2.64,2.64,0,0,1-1.82-.5c1.66.07,3.17-.28,4.83-.15.49,0,4,.3,4.22-.39-.52-.77-3.3-.55-4.06-.63a26.9,26.9,0,0,1-2.82-.52,26,26,0,0,1-2.71-.43c.2-.82,8.6.24,9.39.24a33.07,33.07,0,0,1,5.89.18,11.22,11.22,0,0,0,5.61,0,7.33,7.33,0,0,0-2-.52c1,.14,2-.43,3-.39-2.66,0-5.19-1-7.82-1,2.58,0,5.15-.1,7.73-.15,2,0,4.43.55,6.39,0,1.5-.41,1.44-.88-.06-1-2-.18-4.19-1.07-6.13-1,.58-.72,1.93-.42,2.73-.39a32,32,0,0,0,4.49,0c2.67-.31,5,.3,7.68.39,2.84.09,5.81-.35,8.63,0,1.05.12,2.09.35,3.21.38.69,0,2.53-.2,3,.35-.56.32.84.54,1.24.62.71.13,1.46,0,2.16.21A8.85,8.85,0,0,1,411.8,396c-2.24-.07-4.36.21-6.58.32a43.41,43.41,0,0,1,5.51.84,4.79,4.79,0,0,0,1.34.24c.55-.08.69-.41,1.1-.46a7.67,7.67,0,0,1,2.28.55c1.05.27,2.11.42,3.17.59,2,.33,4.21,1.05,6.28,1-1.17-.07-1.69,1.3-3,1.16.95,0,1.91,0,2.86,0C424.7,400.35,424.78,400.23,424.79,400.23Z" transform="translate(-352.97 -392.71)"/><path class="cls-3" d="M399.85,393.3a.63.63,0,0,1-.65,0Z" transform="translate(-352.97 -392.71)"/><path class="cls-3" d="M369.65,398.69h.75A3.76,3.76,0,0,1,369.65,398.69Z" transform="translate(-352.97 -392.71)"/></g><g class="cls-2"><path class="cls-4" d="M378.47,395.22a1.4,1.4,0,0,1-.5,0Z" transform="translate(-352.97 -392.71)"/><path class="cls-4" d="M416.7,398a19.53,19.53,0,0,1-4.83-.06,18,18,0,0,1-5-.76c-1.48-.5-2.84.06-4.33.21a2.73,2.73,0,0,1-1.87-.37c-.23-.14-1.49-1.06-1.46-1.32.31-.07,2.92-.08,3-.5-.12-.35-4.59-.18-5.16-.29a38.49,38.49,0,0,0-5.58-.55c-2-.09-4-.51-6,.17a7.2,7.2,0,0,1-1.4.41c-1.05.15-1.54-.39-1.12.82-1.64.53-3.38.15-5.07.26-.57,0-1.53-.06-1.37.59s1.95.41,2.18,1.09c.11.3-1.36,0-1.53,0A17.77,17.77,0,0,0,374,398a10.68,10.68,0,0,1-4.6-.57,10.25,10.25,0,0,0,5.19-.13,7.33,7.33,0,0,0-2-.52c1,.14,2-.43,3-.39-2.66,0-5.19-1-7.82-1,2.58,0,5.15-.1,7.73-.15,2,0,4.43.55,6.39,0,1.5-.41,1.44-.88-.06-1-2-.18-4.19-1.07-6.13-1,.58-.72,1.93-.42,2.73-.39a32,32,0,0,0,4.49,0c2.67-.31,5,.3,7.68.39,2.84.09,5.81-.35,8.63,0,1.05.12,2.09.35,3.21.38.69,0,2.53-.2,3,.35-.56.32.84.54,1.24.62.71.13,1.46,0,2.16.21A8.85,8.85,0,0,1,411.8,396c-2.24-.07-4.36.21-6.58.32,1.37,0,2.71.49,4.08.66a13,13,0,0,0,2.77.42c.93-.14.92-.51,2-.26,1.35.31,2.65.66,4,.86A6.73,6.73,0,0,0,416.7,398Z" transform="translate(-352.97 -392.71)"/><path class="cls-4" d="M399.85,393.3a.63.63,0,0,1-.65,0Z" transform="translate(-352.97 -392.71)"/><path class="cls-4" d="M365.68,397.15a12.92,12.92,0,0,1,2.92.14c-1.67-.17-3.45.39-5.06-.13Z" transform="translate(-352.97 -392.71)"/><path class="cls-4" d="M423.14,398.92c-1.42.2-4.8.7-5.82-.74-.2-.29,2,0,1.95,0,1.31.2,2.58.49,3.87.71C422.59,399,422.71,398.85,423.14,398.92Z" transform="translate(-352.97 -392.71)"/></g></svg>