<svg id="Слой_1" data-name="Слой 1" xmlns="http://www.w3.org/2000/svg" viewBox="0 0 274.37 64.21"><defs><style>.cls-1{fill:#83913d;}.cls-2{fill:#a5ae7a;}.cls-3{fill:#b8dfdb;}</style></defs><path class="cls-1" d="M259.28,150.14c-.39-1.92-10.19-.64-11.95-.59-5.54.15-10.64-.63-16.11-1.19-10.38-1.07-21.68-.6-32.1-.1-21.8,1.06-44.39,3-66.2,1.19-10.39-.84-21.18-.22-31.46-1.59-10.85-1.44-21.62-.08-32.48-1-9.68-.79-18.45.38-28.06,1.59a114.12,114.12,0,0,1-15.35,1c-2.51,0-10.24-1.27-12.09,1.38,5-.3,8.91,1.43,13.49,3,6.45,2.2,13.6,1.65,20.35,1.68C42.87,155,41,159.8,37,159.56c7.22-.21,14.77,2.28,21.88,3.43,6,1,14.79,4.48,20.25,3.47,1.33-.25,2.27-1.09,4.39-.85s4.46.81,6.71,1.08c8.19,1,15.49,2.27,23.76,2.27-10.52,0-20.78,1.6-31.32,1.31,2.93,2,6.85,3.18,10.31,4,2.45.58,5.05.26,7.54.73,1.37.26,6.25,1,4.32,2.16,1.91,2.1,9.15,1.08,11.61,1.2a53.45,53.45,0,0,1,6.44.44c1.2.2,6.79.83,1.47.9,8.71,0,17.43,0,26.15,0,7.37,0,14.24,1.48,21.53,2,6.48.43,12.78-.84,19.26-.76,3.65.05,14.61,2.21,17.36-1.23-1.95.11-25.71-3-25.95-4.27-.31-1.54,3.94-2.56,5-2.8a31.51,31.51,0,0,1,8.29-.32c.85.06,7.36.62,2.92.69,12.47,0,24.92-.67,37.38-.67-9.18,0-18-3.32-27.28-3.36,3.46.14,7.15-1.83,10.46-1.35-.69,0-6.88-1.42-6.87-1.83,5.64-2.09,12.77-1.31,18.58-.4,7.17,1.13,14.25.88,21.53.87,2.78,0,32.07,3.69,32.76.84-2.49-.88-5.73-.66-8.37-1.24a98.54,98.54,0,0,0-10.91-2.09c-2.74-.28-12.36.49-14.16-2.2.83-2.82,14.76-1.3,16.73-1.12a36.42,36.42,0,0,0,8.64-.6c3.22-.44,6.92.47,10-.43-.23-1.75-11.87-2.4-13.83-2.59-5.8-.56-11-2.19-16.88-1.95,2.73-1.3,6.25-1.91,9.07-2.87-.89-1-7.22-2.55-8.8-2.18a15.84,15.84,0,0,1,2.28.32C259.24,150,255.41,149.46,259.28,150.14Z" transform="translate(-13.48 -117.56)"/><path class="cls-2" d="M198.91,173a5.51,5.51,0,0,1,1.72,0l-1.72,0Z" transform="translate(-13.48 -117.56)"/><path class="cls-2" d="M37.37,155.52c2.7-3.62,8.58-1.68,12.55-1.3,1.89.19,4.83-.7,6.58.09,1.37.62,1.24,2.1,2.69,2.78,5,2.39,11.27-1.25,16.25-.53,1.88.27,3.75,2.15,5.66,2.79a30.32,30.32,0,0,0,8.48,1.19c10.36.4,20.12,1,30.5.26a36,36,0,0,1,14.39,2.13c.68.28,4.51,2.09,4.29,3.26-.29,1.6-4.38.45-5.47.79,1.74,1.46,5.15.4,7.12.29a90.1,90.1,0,0,1,10.9-.05c7.34.52,16.72,4.09,24,2.08,2.94-.82,1.12-1.17,2.95-3s6.2-.76,8.58-1.12c9.62-1.44-5.15-4.31-7.21-5,.2-3.49,10.2-1.55,12.13-1.2,1.69.3,4.26,1.34,6,1,1.49-.29,1.14-1.27,2.8-1.72,4.09-1.1,9.33.58,13.39.89,2.12.16,4.32-.24,6.41.08,2.32.35,4.28,1.66,6.64,1.72a43.41,43.41,0,0,0,6.65,1c5.42-.31,10.78-1.51,16.22-1.87,5.18-.35,10.41-.06,15.6-.34,4.39-.23,9.59-1.31,14-.47.81.39-2.3-1-2.24-1.27,1.93-.54,4.8.68,6.34,1.74-5.8-.23-11,1-16.85.52-1.7-.13-14-1-14.71,1.35,1.8,2.69,11.49,1.92,14.16,2.2A86.18,86.18,0,0,1,276,165.6c3,.66,6.63.49,9.46,1.49-.69,2.85-30-.84-32.76-.84-6.84,0-13.8.53-20.54-.64-6.13-1.07-13.57-2.05-19.56.17,0,.41,6.17,1.88,6.86,1.83-3.33-.49-7,1.49-10.46,1.35,9.29,0,18.09,3.4,27.28,3.36-9,0-18,.34-26.95.52-7,.15-15.45-1.91-22.29-.07-5.25,1.41-5,3,.22,3.55,6.85.64,14.59,3.74,21.37,3.37-2,2.53-6.75,1.47-9.54,1.38-5.11-.19-10.56-.6-15.64,0-9.31,1.06-17.54-1.07-26.78-1.37-9.9-.33-20.29,1.22-30.12,0-3.66-.43-7.26-1.24-11.18-1.34-2.41-.06-8.83.7-10.56-1.2,1.93-1.14-3-1.9-4.32-2.16-2.49-.47-5.09-.15-7.54-.73-3.46-.83-7.38-2-10.31-4,7.81.21,15.21-.76,23-1.14-6.25-.16-13-1.9-19.22-2.92-1.44-.23-3.22-1.05-4.69-.83-1.89.28-2.41,1.41-3.84,1.58-2.34.28-5.72-1.33-8-1.9-3.66-.93-7.33-1.47-11.06-2.07-7.1-1.15-14.68-3.64-21.88-3.43,4.06.24,5.89-4.55,10.34-4.05-3.32,0-6.64.13-10,0C37.67,155.12,37.38,155.53,37.37,155.52Z" transform="translate(-13.48 -117.56)"/><path class="cls-2" d="M124.34,179.71a2.16,2.16,0,0,1,2.27,0l-2.27,0Z" transform="translate(-13.48 -117.56)"/><path class="cls-2" d="M229.68,160.9c-.86,0-1.75.06-2.64,0A13.73,13.73,0,0,1,229.68,160.9Z" transform="translate(-13.48 -117.56)"/><path class="cls-3" d="M198.91,173a5.51,5.51,0,0,1,1.72,0l-1.72,0Z" transform="translate(-13.48 -117.56)"/><path class="cls-3" d="M65.58,163.16c5.5-1.11,11.28,0,16.82.23,6.23.3,11.61.72,17.42,2.65,5.15,1.72,9.92-.22,15.09-.75a9.61,9.61,0,0,1,6.53,1.29c.82.51,5.21,3.7,5.1,4.61-1.1.25-10.18.27-10.6,1.74.41,1.24,16,.64,18,1a133,133,0,0,0,19.46,1.9c7.09.33,14,1.77,20.92-.59a25.83,25.83,0,0,1,4.89-1.41c3.66-.55,5.37,1.34,3.9-2.89,5.71-1.84,11.81-.51,17.67-.89,2-.13,5.37.21,4.78-2.05-.54-2.08-6.78-1.43-7.6-3.8-.37-1.06,4.74,0,5.34,0,3.87.24,7.57-.47,11.39-.89a37.07,37.07,0,0,1,16,2c-5.46-1.18-12.8-1.53-18.1.43,0,.41,6.17,1.88,6.86,1.83-3.33-.49-7,1.49-10.46,1.35,9.29,0,18.09,3.4,27.28,3.36-9,0-18,.34-26.95.52-7,.15-15.45-1.91-22.29-.07-5.25,1.41-5,3,.22,3.55,6.85.64,14.59,3.74,21.37,3.37-2,2.53-6.75,1.47-9.54,1.38-5.11-.19-10.56-.6-15.64,0-9.31,1.06-17.54-1.07-26.78-1.37-9.9-.33-20.29,1.22-30.12,0-3.66-.43-7.26-1.24-11.18-1.34-2.41-.06-8.83.7-10.56-1.2,1.93-1.14-3-1.9-4.32-2.16-2.49-.47-5.09-.15-7.54-.73-3.46-.83-7.38-2-10.31-4,7.81.21,15.21-.76,23-1.14-4.79-.12-9.48-1.72-14.24-2.31-2.39-.3-7.17-1.82-9.67-1.44-3.24.49-3.2,1.78-7,.9-4.71-1.09-9.26-2.29-14.06-3A22.24,22.24,0,0,0,65.58,163.16Z" transform="translate(-13.48 -117.56)"/><path class="cls-3" d="M124.34,179.71a2.16,2.16,0,0,1,2.27,0l-2.27,0Z" transform="translate(-13.48 -117.56)"/><path class="cls-3" d="M243.51,166.27c-3.44,0-6.82.29-10.2-.46,5.84.57,12.06-1.37,17.66.45Z" transform="translate(-13.48 -117.56)"/><path class="cls-3" d="M43.09,160.09c5-.69,16.75-2.43,20.32,2.59.7,1-6.84-.11-6.8-.1-4.55-.7-9-1.7-13.52-2.49C45,159.82,44.61,160.35,43.09,160.09Z" transform="translate(-13.48 -117.56)"/><path class="cls-1" d="M42.05,149.19c.39,1.91,10.19.64,12,.59,5.54-.15,10.63.63,16.11,1.19,10.38,1.07,21.68.6,32.1.09,21.79-1.05,44.39-3,66.19-1.19,10.39.85,21.19.23,31.47,1.59,10.85,1.44,21.62.08,32.48,1,9.67.78,18.44-.39,28-1.59a115.94,115.94,0,0,1,15.36-1c2.51,0,10.24,1.27,12.09-1.38-5,.3-8.91-1.42-13.5-3-6.44-2.2-13.59-1.65-20.34-1.68,4.45.51,6.28-4.29,10.34-4.05-7.22.22-14.77-2.27-21.89-3.42-6-1-14.78-4.48-20.24-3.47-1.34.25-2.27,1.08-4.39.84s-4.46-.8-6.72-1.07c-8.18-1-15.48-2.27-23.76-2.27,10.52,0,20.79-1.61,31.33-1.31-2.93-2-6.85-3.18-10.31-4-2.45-.59-5.05-.26-7.54-.73-1.37-.26-6.25-1-4.32-2.17-1.91-2.09-9.15-1.08-11.61-1.19a55.43,55.43,0,0,1-6.44-.44c-1.2-.21-6.8-.84-1.47-.91-8.71,0-17.43,0-26.15,0-7.38,0-14.24-1.48-21.53-2-6.48-.43-12.78.84-19.26.75-3.66-.05-14.61-2.2-17.36,1.23,2-.1,25.71,3,26,4.27.31,1.54-3.94,2.57-5,2.8a31.52,31.52,0,0,1-8.29.32c-.85-.06-7.36-.62-2.92-.69C90,126.33,77.5,127,65,127c9.19-.05,18,3.32,27.29,3.36-3.46-.15-7.15,1.83-10.47,1.34.7-.05,6.89,1.42,6.87,1.83-5.64,2.09-12.77,1.32-18.57.4-7.18-1.13-14.25-.88-21.53-.87-2.78,0-32.07-3.69-32.76-.83,2.49.87,5.73.66,8.37,1.24a100.91,100.91,0,0,0,10.91,2.09c2.74.28,12.35-.5,14.16,2.19-.84,2.83-14.76,1.31-16.73,1.13a35.36,35.36,0,0,0-8.64.6c-3.22.43-6.93-.47-10,.42.24,1.76,11.88,2.41,13.84,2.59,5.8.56,11,2.19,16.88,1.95-2.73,1.3-6.25,1.91-9.07,2.87.88,1,7.21,2.56,8.8,2.19a15.84,15.84,0,0,1-2.28-.32C42.09,149.38,45.92,149.87,42.05,149.19Z" transform="translate(-13.48 -117.56)"/><path class="cls-2" d="M102.42,126.33a5.22,5.22,0,0,1-1.72,0Z" transform="translate(-13.48 -117.56)"/><path class="cls-2" d="M264,143.8c-2.7,3.62-8.58,1.68-12.56,1.3-1.89-.18-4.82.7-6.57-.09-1.38-.61-1.24-2.09-2.69-2.78-5-2.38-11.27,1.26-16.25.54-1.89-.27-3.75-2.16-5.66-2.79a30.38,30.38,0,0,0-8.48-1.2c-10.36-.39-20.12-1-30.5-.25a36,36,0,0,1-14.39-2.13c-.68-.28-4.51-2.1-4.29-3.26.29-1.61,4.38-.46,5.47-.79-1.75-1.46-5.15-.41-7.12-.3a88.11,88.11,0,0,1-10.9.06c-7.34-.52-16.72-4.1-24-2.08-3,.81-1.12,1.16-3,3s-6.2.76-8.58,1.11c-9.63,1.44,5.15,4.31,7.2,5-.19,3.5-10.2,1.55-12.12,1.21-1.69-.3-4.26-1.35-6-1-1.49.29-1.15,1.28-2.81,1.72-4.09,1.11-9.32-.57-13.38-.88-2.12-.17-4.32.23-6.41-.08-2.32-.36-4.28-1.67-6.65-1.72a40.65,40.65,0,0,0-6.64-1c-5.42.31-10.78,1.51-16.22,1.87-5.18.34-10.42.06-15.6.33-4.4.24-9.59,1.32-14,.48-.81-.39,2.3,1,2.24,1.27-1.94.54-4.81-.68-6.35-1.75,5.81.24,11.05-.95,16.86-.51,1.69.13,14,1,14.71-1.36-1.8-2.69-11.49-1.92-14.16-2.19a89,89,0,0,1-9.83-1.84c-3-.66-6.62-.5-9.45-1.49.69-2.85,30,.83,32.76.83,6.84,0,13.8-.53,20.54.65,6.13,1.07,13.57,2,19.56-.18,0-.41-6.17-1.88-6.87-1.83,3.34.49,7-1.49,10.47-1.34C83,130.33,74.22,127,65,127c9,0,18-.34,27-.53,7-.14,15.46,1.92,22.3.08,5.25-1.42,5-3.06-.22-3.55-6.85-.65-14.59-3.74-21.37-3.38,2-2.52,6.75-1.47,9.54-1.37,5.11.18,10.56.6,15.64,0,9.31-1,17.54,1.07,26.78,1.38,9.9.33,20.29-1.22,30.12,0,3.65.44,7.26,1.24,11.18,1.34,2.41.07,8.83-.69,10.56,1.2-1.93,1.14,3,1.91,4.32,2.17,2.49.47,5.09.14,7.54.73,3.46.83,7.38,2,10.31,4-7.82-.22-15.21.75-23,1.14,6.24.16,13,1.9,19.21,2.91,1.45.24,3.22,1.06,4.7.84,1.89-.29,2.41-1.41,3.84-1.58,2.34-.28,5.72,1.33,7.95,1.89,3.66.93,7.33,1.47,11.05,2.08,7.11,1.15,14.69,3.64,21.89,3.42-4.06-.24-5.89,4.56-10.34,4.05,3.31,0,6.64-.12,9.95,0C263.66,144.2,264,143.8,264,143.8Z" transform="translate(-13.48 -117.56)"/><path class="cls-2" d="M177,119.61a2.2,2.2,0,0,1-2.28,0l2.28,0Z" transform="translate(-13.48 -117.56)"/><path class="cls-2" d="M71.65,138.43c.86,0,1.75-.06,2.63,0A14.46,14.46,0,0,1,71.65,138.43Z" transform="translate(-13.48 -117.56)"/><path class="cls-3" d="M102.42,126.33a5.22,5.22,0,0,1-1.72,0Z" transform="translate(-13.48 -117.56)"/><path class="cls-3" d="M235.75,136.16c-5.5,1.11-11.28.05-16.83-.22-6.22-.31-11.61-.72-17.41-2.66-5.15-1.72-9.92.23-15.09.75a9.53,9.53,0,0,1-6.53-1.28c-.82-.51-5.21-3.7-5.1-4.62,1.1-.24,10.17-.27,10.6-1.73-.42-1.25-16-.64-18-1a131.82,131.82,0,0,0-19.46-1.9c-7.09-.33-14-1.78-20.92.59a25.72,25.72,0,0,1-4.9,1.41c-3.65.55-5.36-1.34-3.89,2.89-5.72,1.84-11.81.5-17.67.88-2,.13-5.37-.21-4.78,2,.54,2.08,6.78,1.44,7.6,3.81.37,1.05-4.74,0-5.34,0-3.88-.25-7.58.47-11.39.88a37,37,0,0,1-16-2c5.46,1.18,12.8,1.54,18.1-.43,0-.41-6.17-1.88-6.87-1.83,3.34.49,7-1.49,10.47-1.34C83,130.33,74.22,127,65,127c9,0,18-.34,27-.53,7-.14,15.46,1.92,22.3.08,5.25-1.42,5-3.06-.22-3.55-6.85-.65-14.59-3.74-21.37-3.38,2-2.52,6.75-1.47,9.54-1.37,5.11.18,10.56.6,15.64,0,9.31-1,17.54,1.07,26.78,1.38,9.9.33,20.29-1.22,30.12,0,3.65.44,7.26,1.24,11.18,1.34,2.41.07,8.83-.69,10.56,1.2-1.93,1.14,3,1.91,4.32,2.17,2.49.47,5.09.14,7.54.73,3.46.83,7.38,2,10.31,4-7.82-.22-15.21.75-23,1.14,4.79.12,9.47,1.71,14.24,2.31,2.39.29,7.16,1.81,9.67,1.44,3.23-.49,3.2-1.79,7-.9,4.71,1.08,9.26,2.29,14,3A22.15,22.15,0,0,0,235.75,136.16Z" transform="translate(-13.48 -117.56)"/><path class="cls-3" d="M177,119.61a2.2,2.2,0,0,1-2.28,0l2.28,0Z" transform="translate(-13.48 -117.56)"/><path class="cls-3" d="M57.82,133.06c3.44,0,6.82-.3,10.19.46-5.83-.57-12.05,1.36-17.65-.45Z" transform="translate(-13.48 -117.56)"/><path class="cls-3" d="M258.23,139.24c-5,.69-16.75,2.42-20.31-2.6-.71-1,6.84.11,6.8.11,4.55.7,9,1.7,13.51,2.49C256.29,139.51,256.72,139,258.23,139.24Z" transform="translate(-13.48 -117.56)"/></svg>