<svg id="Слой_1" data-name="Слой 1" xmlns="http://www.w3.org/2000/svg" xmlns:xlink="http://www.w3.org/1999/xlink" viewBox="0 0 1032 615"><defs><style>.cls-1{fill-opacity:0.2;fill:url(#Безымянный_градиент_17);}.cls-1,.cls-3,.cls-5{fill-rule:evenodd;}.cls-2,.cls-4{fill:none;}.cls-2{stroke:#2b5c0b;stroke-opacity:0.5;}.cls-3{fill:url(#Безымянный_градиент_8);}.cls-4{stroke-width:8px;stroke:url(#Новый_образец_градиентной_за_14);}.cls-5{fill:url(#Новый_образец_градиентной_за_15);}</style><linearGradient id="Безымянный_градиент_17" x1="807.94" y1="-68.33" x2="302.66" y2="678.28" gradientTransform="matrix(1, 0, 0, -1, 0, 616)" gradientUnits="userSpaceOnUse"><stop offset="0" stop-color="#87d8f7"/><stop offset="1" stop-color="#2b5c0b"/></linearGradient><linearGradient id="Безымянный_градиент_8" x1="762.74" y1="-35.43" x2="333.58" y2="638.45" gradientTransform="matrix(1, 0, 0, -1, 0, 616)" gradientUnits="userSpaceOnUse"><stop offset="0" stop-color="#3a7b0f"/><stop offset="0.4" stop-color="#5bc8ab"/><stop offset="0.71" stop-color="#f28d9f"/><stop offset="1" stop-color="#e7d72a"/></linearGradient><linearGradient id="Новый_образец_градиентной_за_14" x1="195.63" y1="537.5" x2="236.71" y2="537.5" gradientTransform="matrix(1, 0, 0, -1, 0, 616)" gradientUnits="userSpaceOnUse"><stop offset="0" stop-color="#e7d72a"/><stop offset="0.06" stop-color="#e5d72e"/><stop offset="0.12" stop-color="#ded83b"/><stop offset="0.18" stop-color="#d3d851"/><stop offset="0.25" stop-color="#c4d96f"/><stop offset="0.31" stop-color="#b1da96"/><stop offset="0.38" stop-color="#99dcc5"/><stop offset="0.38" stop-color="#98dcc7"/><stop offset="0.62" stop-color="#5bc8ab"/><stop offset="0.68" stop-color="#86b7a8"/><stop offset="0.75" stop-color="#ada8a5"/><stop offset="0.82" stop-color="#cb9ca2"/><stop offset="0.88" stop-color="#e194a0"/><stop offset="0.94" stop-color="#ee8f9f"/><stop offset="1" stop-color="#f28d9f"/></linearGradient><linearGradient id="Новый_образец_градиентной_за_15" x1="956.74" y1="215.14" x2="933.74" y2="195.15" xlink:href="#Новый_образец_градиентной_за_14"/></defs><path class="cls-1" d="M163.62,150.83C73.31,212.25,14,370,80.32,435S300.84,482.4,468,516.38s299.66,86.55,362.27,43.28,48.45-151.88,75.26-249,103-197.34,35.09-253.11S717.15,75.84,532.53,89,253.94,89.41,163.62,150.83Z" transform="translate(0 0)"/><path class="cls-2" d="M163.91,151.24c-45,30.64-82.4,85.33-100.2,140.47s-16,110.61,17,142.92c16.51,16.18,38.5,27.24,64.84,35.25s57,13,90.89,16.95c19.49,2.29,40,4.27,61.39,6.32,52.85,5.08,110.74,10.64,170.26,22.74,41.79,8.5,81.41,18.16,118.32,27.19l2.51.61c36,8.8,69.28,17,99.49,22.81,30.91,6,58.53,9.55,82.32,8.93s43.7-5.44,59.24-16.18c31.12-21.51,43.21-59.29,50.85-104,2.56-15,4.62-30.71,6.73-46.85,1-7.93,2.08-16,3.21-24,3.42-24.53,7.57-49.55,14.28-73.87s16.51-48.82,26.36-72.75l3.15-7.64c8.78-21.26,17.34-42,23.55-61.7C965,146.36,969,125.65,967,107s-9.88-35.23-26.74-49.08-39.17-19.66-66.12-20.35-58.49,3.74-93.71,10.34c-17.63,3.3-36.19,7.15-55.55,11.16-57.94,12-123.09,25.5-192.3,30.44-42.06,3-79.41,4.66-113.09,6.15l-9.75.43c-36.19,1.61-68.05,3.17-97,6.23C255,108.45,209,120.6,163.91,151.24Z" transform="translate(0 0)"/><path class="cls-2" d="M126,130.29c-50.76,35-92.85,97.38-112.9,160.32s-18,126.25,19.12,163.14,99.16,50.47,175.48,59.58c22,2.61,45.1,4.87,69.18,7.21,59.53,5.79,124.76,12.14,191.8,26,47.08,9.69,91.72,20.71,133.3,31l2.84.71c40.5,10,78,19.34,112.08,26,34.83,6.83,66,10.9,92.76,10.19s49.26-6.21,66.78-18.48c35.08-24.56,48.71-67.69,57.32-118.69,2.88-17.09,5.2-35,7.58-53.45q1.74-13.57,3.62-27.43c3.85-28,8.53-56.53,16.09-84.28s18.59-55.69,29.69-83q1.77-4.38,3.55-8.72c9.89-24.26,19.54-47.92,26.53-70.41,7.82-25.17,12.3-48.81,10.07-70.11s-11.14-40.23-30.16-56S956.61,1.37,926.24.58s-65.91,4.27-105.59,11.8c-19.86,3.77-40.77,8.16-62.58,12.73-65.28,13.7-138.67,29.1-216.65,34.73C494,63.27,452,65.16,414,66.86l-11,.49c-40.77,1.84-76.67,3.62-109.25,7.11-65.14,7-116.95,20.85-167.74,55.83Z" transform="translate(0 0)"/><path class="cls-3" d="M189.22,173.05c-83.51,53.44-138.35,190.68-77,247.25s203.91,41.26,358.43,70.83,277.09,75.3,335,37.65,44.8-132.15,69.59-216.68,95.2-171.71,32.44-220.24S701,107.8,530.33,119.26s-257.6.34-341.11,53.79Z" transform="translate(0 0)"/><path class="cls-4" d="M229,78.5A11.5,11.5,0,1,1,217.5,67,11.5,11.5,0,0,1,229,78.5Z" transform="translate(0 0)"/><path class="cls-5" d="M944.5,423A11.5,11.5,0,1,0,933,411.5,11.5,11.5,0,0,0,944.5,423Z" transform="translate(0 0)"/></svg>