<svg id="Слой_1" data-name="Слой 1" xmlns="http://www.w3.org/2000/svg" viewBox="0 0 37.15 17.72"><defs><style>.cls-1{fill:#788538;}.cls-2{fill:#a5ae7a;}.cls-3{fill:#bbe2e4;}</style></defs><path class="cls-1" d="M135.64,148.31c0-.3,2.9,0,3.37-.08a15.62,15.62,0,0,1,4.41.3c3.17.58,6.43,1.42,9.62,1.11a51.87,51.87,0,0,1,8.36.06c1.08.07,2.18.85,3.23,1.17.59.18,2.78-.14,3,.78-.7-.16-1.12.25-1.7.6a4.24,4.24,0,0,1-2.75.31c.7-.11.7,1.3,1.31,1.28-1.86-.3-3.76,1.54-5.56,1.54.26,0-.52-.41-.55-.41a3.7,3.7,0,0,0-.9.22,8.9,8.9,0,0,1-3.12.35c1.39.13,2.67.72,4.07.77a3.27,3.27,0,0,1-1.38,1c-.38.13-.8,0-1.18.19-.09.05-.64.62-.4.49a3.11,3.11,0,0,1-1.52.19c-.16,0-1.82.18-1,.28-1.14-.11-2.27-.23-3.41-.33a19.64,19.64,0,0,0-2.88.27,10.21,10.21,0,0,1-2.19-.42c-.54-.09-2.23.26-2.51-.6a10,10,0,0,0,3.31-.76c.23-.41-.19-.77-.51-1a2.24,2.24,0,0,0-1.08-.2c-.06,0-1,.09-.39.16-1.62-.16-3.24-.51-4.86-.67,1.22.14,2.33-.72,3.59-.61-.46,0-.95-.6-1.35-.51.1,0,.91-.32.91-.44-.89-.83-9.45.26-9.51-.56a7.78,7.78,0,0,1,2.69-.72c.31,0,1.47.12,1.63-.32s-4-.8-4.5-1.17c0-.45,3.58-1,4-.9a8.44,8.44,0,0,0-1.15-.94c.12-.26.92-.51,1.16-.51l-.29.06C135.64,148.26,136.15,148.17,135.64,148.31Z" transform="translate(-131.88 -140.75)"/><path class="cls-2" d="M143.28,155.6a.33.33,0,0,0-.22,0Z" transform="translate(-131.88 -140.75)"/><path class="cls-2" d="M164.5,152.69c-.28-1-1.16-.64-1.8-.55-.22,0-.47-.15-.68,0s-.13.6-.38.75c-.66.41-1.39-.38-2-.3s-.89.75-1.49.88c-1.63.34-3.14-.19-4.76-.31a2.56,2.56,0,0,0-1.75.53c-.83.86-.25.69.24,1.08-.26.42-2.71-.09-3.24,0-.78.16-2,.47-2.55-.17-.12-.13-.1-.63-.34-.89s-.9.12-1.17-.36c-.51-.87,1-1,1.33-1.14,0-.87-1.25-.54-1.57-.49s-.56.25-.89.18c-.11,0,0-.38-.17-.42a4.86,4.86,0,0,0-1.66,0,8.65,8.65,0,0,0-1,0c-.33.07-.54.42-.89.41.2.11-.7.2-.82.19-.78-.07-1.56-.62-2.35-.78s-2.79-.84-3.64-.57a.83.83,0,0,0,.3-.34c-.26-.18-.69.22-.84.42.86,0,1.62.35,2.5.39.44,0,1.74,0,1.41.75-.15.33-1.3.19-1.54.22a8.25,8.25,0,0,0-2.69.72c.06.82,8.63-.26,9.51.56,0,.12-.81.46-.91.44.4-.09.89.51,1.35.51-1.26-.11-2.37.75-3.59.61,1.33.13,2.67.48,4,.57.71.05,2-.34,2.6.37s.09.73-.44.86-2,.81-2.64.66c.24.75,1.24.52,1.74.55a17.14,17.14,0,0,1,2.18.42,6.58,6.58,0,0,0,2.16-.24,11.6,11.6,0,0,1,2.75.14,12.43,12.43,0,0,0,2.52,0c.58-.06,1.42.22,2,0,.73-.35-.53,0,.45-.59.35-.22.75-.13,1.11-.25a3.25,3.25,0,0,0,1.63-1,17,17,0,0,1-3-.62,16.23,16.23,0,0,0,2.49-.57c.25,0,.46-.24.72-.19.41.08.06.47.49.49.71,0,1.73-.71,2.45-.88.89-.21,2-.85,2.89-.7-.61,0-.61-1.39-1.31-1.28.42,0,.86.12,1.29.13Z" transform="translate(-131.88 -140.75)"/><path class="cls-2" d="M152.94,158.47c-.13-.1-.23-.11-.3,0l.3,0Z" transform="translate(-131.88 -140.75)"/><path class="cls-2" d="M139.39,151.76l.34.05A.78.78,0,0,0,139.39,151.76Z" transform="translate(-131.88 -140.75)"/><path class="cls-3" d="M143.28,155.6a.33.33,0,0,0-.22,0Z" transform="translate(-131.88 -140.75)"/><path class="cls-3" d="M160.75,154.5c-1.34-.73-3.26,0-4.49.39-.84.28-1.09-.24-1.87-.37a1.54,1.54,0,0,0-1.66,1.5c.19.11,1.33.27,1.37.63,0,0-4.73.34-5,.35a4.43,4.43,0,0,1-2.93-.76c-.69-.38-1,.09-.78-1-.72-.6-1.53-.17-2.29-.48-1.8-.73.89-1.1.38-1.83,0,0-1.65-.09-1.81-.13a2.77,2.77,0,0,0-2.43.23,2.54,2.54,0,0,1,2.36.35c0,.12-.81.46-.91.44.4-.09.89.51,1.35.51-1.26-.11-2.37.75-3.59.61,1.33.13,2.67.48,4,.57.71.05,2-.34,2.6.37s.09.73-.44.86-2,.81-2.64.66c.24.75,1.24.52,1.74.55a17.14,17.14,0,0,1,2.18.42,6.58,6.58,0,0,0,2.16-.24,11.6,11.6,0,0,1,2.75.14,12.43,12.43,0,0,0,2.52,0c.58-.06,1.42.22,2,0,.73-.35-.53,0,.45-.59.35-.22.75-.13,1.11-.25a3.25,3.25,0,0,0,1.63-1,17,17,0,0,1-3-.62c1,.05,2.16-.93,3.21-.76.41.07.23.38.78.38s1.34-.58,1.93-.71A1.33,1.33,0,0,1,160.75,154.5Z" transform="translate(-131.88 -140.75)"/><path class="cls-3" d="M152.94,158.47c-.13-.1-.23-.11-.3,0l.3,0Z" transform="translate(-131.88 -140.75)"/><path class="cls-3" d="M137.54,153.12a2.72,2.72,0,0,0,1.33,0c-.76.09-1.62-.5-2.3-.09Z" transform="translate(-131.88 -140.75)"/><path class="cls-3" d="M163.71,153.91a3.15,3.15,0,0,0-1.58-.31c-.12,0-1.32.64-1.06,1,.39.48,2.25-.54,2.64-.65C163.46,153.81,163.51,154,163.71,153.91Z" transform="translate(-131.88 -140.75)"/><path class="cls-1" d="M169,148.63c0,.44-3.58,1-4.05.9a10.05,10.05,0,0,0,1.16.93c-.12.27-.92.52-1.16.52l.29-.07c0,.06-.51.15,0,0,0,.31-2.9,0-3.37.09a15.7,15.7,0,0,1-4.42-.31c-3.16-.57-6.43-1.41-9.61-1.1a53.17,53.17,0,0,1-8.37-.06c-1.07-.08-2.17-.85-3.22-1.17-.59-.18-2.78.13-3-.79.7.16,1.11-.24,1.7-.59a4.17,4.17,0,0,1,2.75-.31c-.7.11-.7-1.3-1.31-1.28,1.86.3,3.76-1.55,5.55-1.54-.26,0,.53.41.56.41a3.85,3.85,0,0,0,.9-.23,9.13,9.13,0,0,1,3.12-.34c-1.39-.14-2.67-.72-4.07-.78a3.16,3.16,0,0,1,1.38-1c.38-.12.8,0,1.17-.19.1-.05.65-.61.4-.48a2.94,2.94,0,0,1,1.53-.19c.16,0,1.82-.19,1-.29,1.14.12,2.27.24,3.41.34a19.77,19.77,0,0,0,2.88-.27,10.33,10.33,0,0,1,2.19.42c.53.09,2.23-.27,2.51.6a10,10,0,0,0-3.31.75c-.24.42.19.78.51,1a2.13,2.13,0,0,0,1.08.2c.06,0,1-.08.38-.16,1.63.16,3.24.51,4.87.67-1.22-.13-2.33.72-3.59.61.45,0,.94.61,1.35.52-.11,0-.91.32-.91.43.89.84,9.44-.25,9.51.56" transform="translate(-131.88 -140.75)"/><path class="cls-1" d="M168.85,146.41a7.79,7.79,0,0,1-2.69.73c-.31,0-1.47-.12-1.63.32s4,.8,4.5,1.17" transform="translate(-131.88 -140.75)"/><path class="cls-2" d="M157.62,143.62a.37.37,0,0,0,.23,0l-.23,0Z" transform="translate(-131.88 -140.75)"/><path class="cls-2" d="M168.85,146.41c-.07-.82-8.63.27-9.51-.56,0-.11.8-.46.91-.43-.41.09-.9-.51-1.35-.52,1.26.11,2.37-.74,3.59-.61-1.34-.13-2.67-.47-4-.56-.71,0-2,.34-2.61-.38s-.08-.72.45-.85,2-.81,2.64-.66c-.25-.76-1.25-.52-1.74-.55a19.09,19.09,0,0,1-2.18-.42,6.56,6.56,0,0,0-2.16.24,11.57,11.57,0,0,1-2.75-.14,12.42,12.42,0,0,0-2.52,0c-.58.05-1.42-.22-2,0-.73.35.52,0-.45.59-.35.22-.76.12-1.12.25a3.32,3.32,0,0,0-1.62,1,18.14,18.14,0,0,1,3,.62,16.27,16.27,0,0,0-2.49.58c-.25,0-.46.23-.72.19-.42-.08-.07-.48-.49-.49-.71,0-1.74.71-2.45.88-.89.21-2,.84-2.89.7.6,0,.61,1.39,1.31,1.28-.43,0-.87-.12-1.3-.13,0,.12,0,0,0,0,.29,1,1.16.63,1.81.55.22,0,.47.15.68,0s.13-.6.37-.76c.66-.41,1.4.39,2,.3s.89-.75,1.49-.87c1.62-.34,3.14.19,4.75.31a2.54,2.54,0,0,0,1.76-.54c.82-.86.24-.68-.24-1.07.26-.43,2.7.08,3.24,0,.78-.16,2-.48,2.55.17.12.13.1.62.34.89s.89-.12,1.17.35c.5.87-1,1-1.33,1.14,0,.87,1.25.55,1.57.49s.56-.25.88-.17c.12,0,0,.38.17.42a5.19,5.19,0,0,0,1.67,0,8.7,8.7,0,0,0,1,0c.33-.07.54-.43.88-.41-.2-.11.71-.2.82-.19.78.07,1.57.62,2.36.78s2.79.84,3.64.57a.8.8,0,0,0-.3.33c.25.19.69-.21.84-.41" transform="translate(-131.88 -140.75)"/><path class="cls-2" d="M168.53,148.5c-.86,0-1.62-.36-2.5-.39-.44,0-1.75,0-1.42-.76.16-.32,1.31-.18,1.55-.21a8.33,8.33,0,0,0,2.69-.73" transform="translate(-131.88 -140.75)"/><path class="cls-2" d="M148,140.75c.13.11.23.12.3,0l-.3,0C148.07,140.76,148.07,140.77,148,140.75Z" transform="translate(-131.88 -140.75)"/><path class="cls-2" d="M161.52,147.46l-.35,0A.84.84,0,0,0,161.52,147.46Z" transform="translate(-131.88 -140.75)"/><path class="cls-3" d="M157.62,143.62a.37.37,0,0,0,.23,0l-.23,0Z" transform="translate(-131.88 -140.75)"/><path class="cls-3" d="M140.15,144.72c1.35.74,3.27,0,4.49-.38.84-.28,1.1.23,1.88.37a1.54,1.54,0,0,0,1.65-1.5c-.18-.11-1.32-.27-1.36-.63,0,0,4.73-.34,5-.35a4.42,4.42,0,0,1,2.93.75c.69.38,1-.09.77,1,.73.6,1.54.17,2.3.48,1.8.72-.89,1.1-.39,1.83,0,0,1.66.09,1.82.13a2.79,2.79,0,0,0,2.42-.23,2.5,2.5,0,0,1-2.35-.36c0-.11.8-.46.91-.43-.41.09-.9-.51-1.35-.52,1.26.11,2.37-.74,3.59-.61-1.34-.13-2.67-.47-4-.56-.71,0-2,.34-2.61-.38s-.08-.72.45-.85,2-.81,2.64-.66c-.25-.76-1.25-.52-1.74-.55a19.09,19.09,0,0,1-2.18-.42,6.56,6.56,0,0,0-2.16.24,11.57,11.57,0,0,1-2.75-.14,12.42,12.42,0,0,0-2.52,0c-.58.05-1.42-.22-2,0-.73.35.52,0-.45.59-.35.22-.76.12-1.12.25a3.32,3.32,0,0,0-1.62,1,18.14,18.14,0,0,1,3,.62c-1,0-2.16.94-3.21.77-.41-.07-.23-.39-.78-.38s-1.34.58-1.93.71A1.41,1.41,0,0,1,140.15,144.72Z" transform="translate(-131.88 -140.75)"/><path class="cls-3" d="M148,140.75c.13.11.23.12.3,0l-.3,0C148.07,140.76,148.07,140.77,148,140.75Z" transform="translate(-131.88 -140.75)"/><path class="cls-3" d="M163.37,146.11a2.85,2.85,0,0,0-1.33,0c.76-.09,1.61.51,2.3.1Z" transform="translate(-131.88 -140.75)"/><path class="cls-3" d="M137.2,145.31a3,3,0,0,0,1.58.31c.12,0,1.31-.63,1.05-1s-2.24.54-2.63.65C137.45,145.42,137.39,145.26,137.2,145.31Z" transform="translate(-131.88 -140.75)"/></svg>