<svg xmlns="http://www.w3.org/2000/svg" xmlns:xlink="http://www.w3.org/1999/xlink" viewBox="0 0 1032 802.6"><defs><style>.cls-1,.cls-32,.cls-4{fill:none;}.cls-1{clip-rule:evenodd;}.cls-2{isolation:isolate;}.cls-3{fill-opacity:0.2;fill:url(#Безымянный_градиент_17);}.cls-3,.cls-33,.cls-5{fill-rule:evenodd;}.cls-4{stroke:#2b5c0b;stroke-opacity:0.5;}.cls-5{fill:url(#Новый_образец_градиентной_за_16);}.cls-6{clip-path:url(#clip-path);}.cls-7{fill:url(#radial-gradient);}.cls-8{fill:#5bc8ab;}.cls-10,.cls-21,.cls-23,.cls-25,.cls-9{opacity:0.45;}.cls-10,.cls-21,.cls-23,.cls-31,.cls-9{mix-blend-mode:multiply;}.cls-10,.cls-20,.cls-31{fill:#4b7547;}.cls-11{fill:url(#radial-gradient-2);}.cls-12{fill:url(#radial-gradient-3);}.cls-13{fill:url(#radial-gradient-4);}.cls-14{fill:url(#radial-gradient-5);}.cls-15{fill:url(#radial-gradient-6);}.cls-16{fill:url(#radial-gradient-7);}.cls-17{fill:url(#radial-gradient-8);}.cls-18{fill:url(#radial-gradient-9);}.cls-19{fill:#3a7b0f;}.cls-21{fill:#7d4427;}.cls-22,.cls-27{fill:#cae21a;}.cls-22,.cls-24,.cls-26,.cls-31{opacity:0.25;}.cls-22,.cls-24,.cls-25,.cls-26{mix-blend-mode:screen;}.cls-23{fill:#f28d9f;}.cls-24{fill:#eb8a45;}.cls-28{fill:url(#radial-gradient-10);}.cls-29{fill:#468502;}.cls-30{opacity:0.71;}.cls-32{stroke-width:8px;stroke:url(#Безымянный_градиент_22);}.cls-33{fill:url(#Безымянный_градиент_22-2);}</style><linearGradient id="Безымянный_градиент_17" x1="807.94" y1="-68.33" x2="302.66" y2="678.28" gradientTransform="matrix(1, 0, 0, -1, 0, 616)" gradientUnits="userSpaceOnUse"><stop offset="0" stop-color="#87d8f7"/><stop offset="1" stop-color="#2b5c0b"/></linearGradient><linearGradient id="Новый_образец_градиентной_за_16" x1="762.11" y1="-36.04" x2="332.95" y2="637.84" gradientTransform="matrix(1, 0, 0, -1, 0, 616)" gradientUnits="userSpaceOnUse"><stop offset="0" stop-color="#1f6421"/><stop offset="0.19" stop-color="#53900f"/><stop offset="0.28" stop-color="#6baa4f"/><stop offset="0.36" stop-color="#7ec082"/><stop offset="0.43" stop-color="#8ccfa8"/><stop offset="0.49" stop-color="#95d9bf"/><stop offset="0.53" stop-color="#98dcc7"/><stop offset="0.56" stop-color="#9bdbbf"/><stop offset="0.61" stop-color="#a2daa9"/><stop offset="0.67" stop-color="#afd785"/><stop offset="0.75" stop-color="#c0d353"/><stop offset="0.83" stop-color="#d6ce14"/><stop offset="0.92" stop-color="#e3d321"/><stop offset="1" stop-color="#ead627"/></linearGradient><clipPath id="clip-path" transform="translate(0 0)"><path class="cls-1" d="M189.22,173.05c-83.51,53.44-138.35,190.68-77,247.25s203.91,41.26,358.43,70.83,277.09,75.3,335,37.65,44.8-132.15,69.59-216.68,95.2-171.71,32.44-220.24S701,107.8,530.33,119.26s-257.6.34-341.11,53.79Z"/></clipPath><radialGradient id="radial-gradient" cx="408.54" cy="223.32" r="721.17" gradientUnits="userSpaceOnUse"><stop offset="0.47" stop-color="#2663af"/><stop offset="1" stop-color="#2548a5"/></radialGradient><radialGradient id="radial-gradient-2" cx="434.96" cy="246.09" r="829.89" gradientUnits="userSpaceOnUse"><stop offset="0.07" stop-color="#75b443"/><stop offset="1" stop-color="#5bb443"/></radialGradient><radialGradient id="radial-gradient-3" cx="435" cy="246.09" r="829.96" xlink:href="#radial-gradient-2"/><radialGradient id="radial-gradient-4" cx="434.96" cy="246.09" r="829.9" xlink:href="#radial-gradient-2"/><radialGradient id="radial-gradient-5" cx="434.96" cy="246.09" r="829.91" xlink:href="#radial-gradient-2"/><radialGradient id="radial-gradient-6" cx="434.96" cy="246.09" r="829.91" xlink:href="#radial-gradient-2"/><radialGradient id="radial-gradient-7" cx="434.96" cy="246.09" r="829.9" xlink:href="#radial-gradient-2"/><radialGradient id="radial-gradient-8" cx="434.96" cy="246.09" r="829.91" xlink:href="#radial-gradient-2"/><radialGradient id="radial-gradient-9" cx="434.96" cy="246.09" r="829.9" xlink:href="#radial-gradient-2"/><radialGradient id="radial-gradient-10" cx="476.47" cy="311.75" r="257.71" gradientTransform="translate(-3.55 164.28) scale(1.01 0.73)" gradientUnits="userSpaceOnUse"><stop offset="0.12" stop-color="#5bb443"/><stop offset="1" stop-color="#5bb443"/></radialGradient><linearGradient id="Безымянный_градиент_22" x1="234" y1="551.85" x2="203" y2="524.89" gradientTransform="matrix(1, 0, 0, -1, 0, 616)" gradientUnits="userSpaceOnUse"><stop offset="0" stop-color="#70a452"/><stop offset="1" stop-color="#2b5c0b"/></linearGradient><linearGradient id="Безымянный_градиент_22-2" x1="956.74" y1="215.14" x2="933.74" y2="195.15" xlink:href="#Безымянный_градиент_22"/></defs><g class="cls-2"><g id="Слой_1" data-name="Слой 1"><path class="cls-3" d="M163.62,150.83C73.31,212.25,14,370,80.32,435S300.84,482.4,468,516.38s299.66,86.55,362.27,43.28,48.45-151.88,75.26-249,103-197.34,35.09-253.11S717.15,75.84,532.53,89,253.94,89.41,163.62,150.83Z" transform="translate(0 0)"/><path class="cls-4" d="M163.91,151.24c-45,30.64-82.4,85.33-100.2,140.47s-16,110.61,17,142.92c16.51,16.18,38.5,27.24,64.84,35.25s57,13,90.89,16.95c19.49,2.29,40,4.27,61.39,6.32,52.85,5.08,110.74,10.64,170.26,22.74,41.79,8.5,81.41,18.16,118.32,27.19l2.51.61c36,8.8,69.28,17,99.49,22.81,30.91,6,58.53,9.55,82.32,8.93s43.7-5.44,59.24-16.18c31.12-21.51,43.21-59.29,50.85-104,2.56-15,4.62-30.71,6.73-46.85,1-7.93,2.08-16,3.21-24,3.42-24.53,7.57-49.55,14.28-73.87s16.51-48.82,26.36-72.75l3.15-7.64c8.78-21.26,17.34-42,23.55-61.7C965,146.36,969,125.65,967,107s-9.88-35.23-26.74-49.08-39.17-19.66-66.12-20.35-58.49,3.74-93.71,10.34c-17.63,3.3-36.19,7.15-55.55,11.16-57.94,12-123.09,25.5-192.3,30.44-42.06,3-79.41,4.66-113.09,6.15l-9.75.43c-36.19,1.61-68.05,3.17-97,6.23C255,108.45,209,120.6,163.91,151.24Z" transform="translate(0 0)"/><path class="cls-4" d="M126,130.29c-50.76,35-92.85,97.38-112.9,160.32s-18,126.25,19.12,163.14,99.16,50.47,175.48,59.58c22,2.61,45.1,4.87,69.18,7.21,59.53,5.79,124.76,12.14,191.8,26,47.08,9.69,91.72,20.71,133.3,31l2.84.71c40.5,10,78,19.34,112.08,26,34.83,6.83,66,10.9,92.76,10.19s49.26-6.21,66.78-18.48c35.08-24.56,48.71-67.69,57.32-118.69,2.88-17.09,5.2-35,7.58-53.45q1.74-13.57,3.62-27.43c3.85-28,8.53-56.53,16.09-84.28s18.59-55.69,29.69-83q1.77-4.38,3.55-8.72c9.89-24.26,19.54-47.92,26.53-70.41,7.82-25.17,12.3-48.81,10.07-70.11s-11.14-40.23-30.16-56S956.61,1.37,926.24.58s-65.91,4.27-105.59,11.8c-19.86,3.77-40.77,8.16-62.58,12.73-65.28,13.7-138.67,29.1-216.65,34.73C494,63.27,452,65.16,414,66.86l-11,.49c-40.77,1.84-76.67,3.62-109.25,7.11-65.14,7-116.95,20.85-167.74,55.83Z" transform="translate(0 0)"/><path class="cls-5" d="M188.58,173.66c-83.51,53.45-138.34,190.68-77,247.25S315.47,462.17,470,491.74s277.09,75.31,335,37.65,44.81-132.15,69.6-216.67S969.76,141,907,92.48s-206.59,15.93-377.3,27.39-257.61.34-341.12,53.79Z" transform="translate(0 0)"/><g class="cls-6"><path class="cls-7" d="M114.94,393.27a370.67,370.67,0,0,0-2.62,43.82C112.32,639,276,802.61,477.83,802.61S843.34,639,843.34,437.09a368.55,368.55,0,0,0-2.62-43.82Z" transform="translate(0 0)"/><path class="cls-8" d="M114.94,393.27a370.67,370.67,0,0,0-2.62,43.82C112.32,639,276,802.61,477.83,802.61S843.34,639,843.34,437.09a368.55,368.55,0,0,0-2.62-43.82Z" transform="translate(0 0)"/><g class="cls-9"><path class="cls-10" d="M641.71,393.27H616.2c2.64,3.38,5.52,7.14,8.16,10.79l2.18,3c2.33,3.35,8.66,2.55,10.36,1.19s-.47-5.74-1.33-6.53C635,401.2,638.16,396.37,641.71,393.27Z" transform="translate(0 0)"/><path class="cls-10" d="M597.06,398.16c5.38,5.5,9.46,2.28,14.62-1.51a19.76,19.76,0,0,0-2.95-3.38H592.27Z" transform="translate(0 0)"/><path class="cls-10" d="M492.46,417.19c5.63.48,20.61.34,25-2.37s11.06-8.91,14.72-13.79c0,0,2.33-3.11,5.11-7.76H486.67C485.7,400.25,487.2,416.75,492.46,417.19Z" transform="translate(0 0)"/><path class="cls-10" d="M772,393.27a39.79,39.79,0,0,0,3.57,6.2s6.09,8.8-7,16.28c-2.86,1.63-11.72-1.63-13.49-4.93a16.51,16.51,0,0,1-1.94-8.76,19.91,19.91,0,0,0-1.33-8.79H653.62c-1.56,3-3.52,6.79-3.16,8.8.59,3.27,4.19,9.84,8,14.6,0,0,.89,1.12,5.7,2.13a61.42,61.42,0,0,0,15.32,1.28c6.07-.42,11.52,1.52,12.1,4.32l.08,2.15c.51,14.21-6.27,20.76-20.13,20.42l-3-.08c-4.14,2.25-12,2-17.4-.6s-10.74-4.41-10.74-4.41c-5.6-2.43-13.1-3.27-16.67-1.88l-2,2.49-1.82,2.3c-.59,4.4-5.62,6-11.19,3.47L587,438.55c-5.56-2.48-5.82-17.47-8.49-20.25s-9.81-4.43-15.85-3.68c0,0-21.34,2.66-36.76,7.3-8.28,2.48-11.67,2.28-11.67,2.28-6.08-.37-14.4,3-18.49,7.52l-3,3.91a119,119,0,0,0-9.15,13.09c-2.61,4.49-3.82,9.93-6.91,14-2.4,3.12-7.85,4-10.07,7.13C456,485,448.8,501.48,452.78,520.51c1.83,8.78.89,10.34.89,10.34-3.17,5.2-3.82,18.9-3.15,21.84s4.27,9.29,8,14.13l16.83,21.74c3.84,4.66,8.69,14,15.16,15.37,7.82,1.63,7.72-7.65,15.88-6.93A52.85,52.85,0,0,0,538,590.24c5.38-3,12-4.11,14.76,5.32l.82,2.8c4.49,2,19.43,11.47,19.16,16.81s-3.11,17.33-1.74,19.29A146.44,146.44,0,0,1,578.37,648L589,665.43c.79,6.05,3.24,23.38,1.66,27.6s-4.21,12.33-5.83,18a34.36,34.36,0,0,0-1.12,11.16c1.89,5.79,4.88,15.3,6.65,21.13,0,0,2.87,9.49,5.59,19.65,1.21,4.48,1.11,9.56,3.19,13.51q1.22,2.31,2.38,4.59a365.26,365.26,0,0,0,116.62-68.64A70.66,70.66,0,0,0,721,692.36a50.55,50.55,0,0,0-2.84-13.84c-7.55-21.7-1.8-41.12,14.44-54.47C750.28,609.54,765,581.82,765,581.82c2.86-5.4,6.72-18.2,4.92-20.37s-10.71-.34-13.55.93-10.13,1.83-16.19,1.22c0,0-7.38-.73-11.6-5.94-9.37-11.56-15.68-25.65-23-38.88-4.13-7.51-11.45-15.77-10.63-22.92,1.22-10.61-5-15.17-9.48-21.82l-2.69-4c-2.46-4.71,3.91-3.28,6.45-1s7,8.62,9.88,14l10.23,17.39a153.88,153.88,0,0,0,11.84,18.63q2.33,8.64,4.63,17.27c1.81,5.81,4.43,13.32,5.84,16.67l2.4,1.47c1.23.76,4.63-2.18,7.14-3.23,4.54-1.91,9.11-3.75,13.73-5.45l6.77-2.5c5.7-2.16,14.86-6.13,20.34-8.82l15.17-18.66A49.61,49.61,0,0,0,809,498s.74-2.17-7.51-7.08l-4.25-2.53c-4.72-3.63-10-4.15-11.68-1.16l-2.37.23c-4.74.44-10.6.06-14.31-2.46-4.24-2.89-6.63-8.49-9.85-12.9l-5.11-7c-3.61-4.92,1.45-8.23,3.27-8.06s6.36,4.27,10,9.12l10.58,7.77c6.1.08,18.94,5.07,21.31,6.46s16.39,3.7,21.09,3.5,13.19,1.43,18.88,3.63c0,0,.27.1.72.31a368.25,368.25,0,0,0,.91-94.56Z" transform="translate(0 0)"/><path class="cls-10" d="M320.4,759.62a92.86,92.86,0,0,1,19.31-7.33s1.43-.34,3-3.93c4.29-9.72,9.45-20.88,8.32-30.92-1.92-16.91,8.25-30.9,8.25-30.9a63.22,63.22,0,0,0,8.85-19.62s2.31-10.28-3.15-13.66a188.33,188.33,0,0,0-18.33-9.82c-5.56-2.54-14.68-6.63-20.28-9.11,0,0-.51-.22-5.58-2-9.32-3.26-19.93-2.47-19.93-2.47-6.06.45-9.31-3.82-7.23-9.49,0,0,2.93-8-4.73-15.83a29.72,29.72,0,0,0-13-8.06A60.16,60.16,0,0,1,256.41,587c-4.43,1.44-12.74-18.22-17.54-19.89-8.15-2.84-17.49,4.67-25.34.25-4.48-2.53-17.3-8.28-20.9-7.25S177,570.12,173.52,573s-10.74,3.23-16.18.83l-5.1.52c-8.74.9-16.23-4.18-15.62-13.26a86.47,86.47,0,0,1,.93-8.85c1-5.46-6.52-11.69-10.83-13.27a363.26,363.26,0,0,0,15.77,43.73c5.41,2.65,11.64.73,12.14-.38s3.53,2.19,6.72,7.39l2.1,13.58c-1.28,3.48-2.88,8.38-4.25,13A367.14,367.14,0,0,0,316,764.88C317.57,762.31,319.1,760.34,320.4,759.62Z" transform="translate(0 0)"/><path class="cls-10" d="M160.52,508a15.36,15.36,0,0,1,5.14,6c6.08,12.57,10.58,9.52,10.58,9.52,5-3.42,4.76-8.61-.58-11.53Z" transform="translate(0 0)"/><path class="cls-10" d="M115,393.27a368.55,368.55,0,0,0-2.63,43.82q0,14.52,1.12,28.77c1.37-.34,2.71-.84,2.89-1.39,5-15.51,15.28-3.24,22.65-4,5.48-.56,7.89,5.42,7.72,12.08a17,17,0,0,0,5.15,12.95c4.64,3.9,8.59,3.83,8.77-.16l-.38-3.05-.53-4.34a158.61,158.61,0,0,1-2.58-19.53s-.93-14.63,16.55-23c7.88-3.78,13.31-7.6,10.34-17.17a5.1,5.1,0,0,1,.42-4c7.7-10.41,18.86-19,18.86-19a30,30,0,0,0,2.34-2Z" transform="translate(0 0)"/><path class="cls-10" d="M195.91,515.28c-4.35-.21-8.37,3.82-8.37,3.82-4.3,4.28-2.82,7.79,3.28,7.79s21.45-1.31,21.59-1.82-3.67-4-8.47-7.72C203.94,517.35,201.61,515.54,195.91,515.28Z" transform="translate(0 0)"/><path class="cls-10" d="M122.42,517.35l.43-3.05a7.07,7.07,0,0,0-3.2-4c.71,3.49,1.48,7,2.28,10.41C122.08,519.71,122.24,518.63,122.42,517.35Z" transform="translate(0 0)"/></g><path class="cls-11" d="M618.12,394.68l2.17,3c2.34,3.35,8.67,2.55,10.36,1.19,1.34-1.07.27-4-.66-5.6H617.08C617.43,393.74,617.77,394.22,618.12,394.68Z" transform="translate(0 0)"/><path class="cls-12" d="M124.8,532q2.57,9.56,5.63,18.91a81.3,81.3,0,0,1,.87-8.1C132,539,128.47,534.76,124.8,532Z" transform="translate(0 0)"/><path class="cls-13" d="M486.22,407.82c5.62.48,20.6.33,25-2.37,4-2.41,9.66-7.62,13.44-12.18H480.34C480.9,400.21,482.73,407.53,486.22,407.82Z" transform="translate(0 0)"/><path class="cls-14" d="M189.66,505.9c-4.34-.2-8.37,3.82-8.37,3.82-4.29,4.29-2.81,7.8,3.28,7.8s21.46-1.31,21.6-1.82-3.68-4-8.48-7.72C197.69,508,195.37,506.17,189.66,505.9Z" transform="translate(0 0)"/><path class="cls-15" d="M140.45,463.18a17,17,0,0,0,5.15,13c4.64,3.9,8.59,3.83,8.77-.16l-.37-3.05-.54-4.34a158.61,158.61,0,0,1-2.58-19.53s-.93-14.63,16.55-23c7.88-3.78,13.32-7.6,10.34-17.17a5.1,5.1,0,0,1,.42-4,94.16,94.16,0,0,1,10.44-11.63H115a368.55,368.55,0,0,0-2.63,43.82c0,4.32.1,8.6.25,12.88,5.42-7.06,13.87,1.78,20.17,1.14C138.21,450.55,140.62,456.53,140.45,463.18Z" transform="translate(0 0)"/><path class="cls-16" d="M770.51,393.27c.64,3.24,0,8.43-8.21,13.1-2.86,1.64-11.72-1.62-13.49-4.92a16.74,16.74,0,0,1-2-8.18H644.36c.85,3.41,4.25,9.52,7.86,14,0,0,.89,1.11,5.7,2.13a61.42,61.42,0,0,0,15.32,1.28c6.08-.42,11.52,1.52,12.11,4.32,0,0,0,0,.07,2.15.52,14.21-6.27,20.76-20.13,20.42l-3-.08c-4.15,2.25-12,2-17.41-.6s-10.74-4.41-10.74-4.41c-5.6-2.43-13.1-3.28-16.67-1.89l-2,2.5-1.82,2.3c-.59,4.4-5.62,6-11.19,3.47l-21.72-9.71c-5.57-2.49-5.83-17.48-8.5-20.25s-9.81-4.43-15.85-3.68c0,0-21.34,2.66-36.76,7.29C511.41,415,508,414.83,508,414.83c-6.08-.37-14.41,3-18.5,7.52,0,0,0,0-3,3.91a116.75,116.75,0,0,0-9.15,13.09c-2.61,4.49-3.82,9.93-6.92,14-2.39,3.12-7.85,4-10.07,7.13-10.62,15.15-17.8,31.66-13.82,50.69,1.84,8.77.89,10.33.89,10.33-3.16,5.21-3.81,18.91-3.14,21.85s4.26,9.29,8,14.13l16.83,21.74c3.85,4.66,8.69,14,15.16,15.37,7.82,1.63,7.72-7.65,15.88-6.93a52.9,52.9,0,0,0,31.61-6.76c5.38-3,12-4.12,14.76,5.32l.82,2.8c4.5,2,19.43,11.47,19.16,16.81s-3.11,17.33-1.74,19.28a148.33,148.33,0,0,1,7.37,13.5l10.66,17.48c.79,6.05,3.24,23.38,1.66,27.6s-4.2,12.33-5.83,18a34.43,34.43,0,0,0-1.12,11.17c1.89,5.79,4.88,15.3,6.65,21.13,0,0,2.87,9.49,5.6,19.65,1.2,4.48,1.1,9.56,3.18,13.51,2.54,4.83,5,9.59,7,14.52a364.09,364.09,0,0,0,87.79-45.34c-.14-.89-.28-1.79-.39-2.68-.47-3.88.49-9.31,3-11.95,5.44-5.75,12.74-9.7,18.37-15.31l3.17-3.15A70.52,70.52,0,0,0,714.76,683a50.19,50.19,0,0,0-2.84-13.85c-7.54-21.7-1.8-41.11,14.45-54.46,17.67-14.51,32.35-42.24,32.34-42.24,2.86-5.39,6.72-18.19,4.93-20.36s-10.72-.34-13.56.93-10.13,1.83-16.19,1.22c0,0-7.38-.73-11.6-5.94-9.36-11.56-15.68-25.65-23-38.88-4.14-7.51-11.46-15.77-10.64-22.92,1.22-10.61-5-15.18-9.48-21.83l-2.69-4c-2.46-4.71,3.91-3.29,6.45-1s7,8.62,9.88,14l10.23,17.4a154,154,0,0,0,11.85,18.63L719.55,527c1.81,5.81,4.44,13.31,5.84,16.67l2.4,1.47c1.24.76,4.63-2.18,7.14-3.23,4.54-1.91,9.11-3.75,13.73-5.45,5.78-2.13,6.77-2.51,6.77-2.51,5.71-2.16,14.86-6.12,20.34-8.81l15.17-18.66a49.61,49.61,0,0,0,11.81-17.85s.74-2.18-7.51-7.09L791,479c-4.73-3.63-10-4.15-11.69-1.16l-2.36.23c-4.74.44-10.61.06-14.32-2.46-4.24-2.89-6.63-8.49-9.84-12.9-3.49-4.79-5.12-7-5.12-7-3.61-4.93,1.45-8.23,3.28-8.06s6.35,4.27,10,9.12l10.57,7.77c6.1.08,18.94,5.06,21.31,6.46s16.4,3.7,21.09,3.5,13.19,1.43,18.88,3.63a24.82,24.82,0,0,1,7.61,5.06,370.65,370.65,0,0,0,.28-89.94Z" transform="translate(0 0)"/><path class="cls-17" d="M154.27,498.59a15.39,15.39,0,0,1,5.15,6c6.07,12.57,10.57,9.52,10.57,9.52,5-3.42,4.76-8.61-.58-11.53Z" transform="translate(0 0)"/><path class="cls-18" d="M358.75,643.89a187.53,187.53,0,0,0-18.32-9.82c-5.56-2.54-14.69-6.64-20.28-9.11,0,0-.52-.22-5.59-2-9.32-3.25-19.93-2.46-19.93-2.46-6.05.45-9.31-3.82-7.22-9.49,0,0,2.92-8-4.74-15.83a29.72,29.72,0,0,0-13-8.06,60,60,0,0,1-19.54-9.46c-4.43,1.45-12.74-18.21-17.54-19.89-8.14-2.84-17.48,4.68-25.34.25-4.48-2.52-17.3-8.27-20.9-7.24s-15.66,10-19.11,12.83-10.73,3.23-16.18.83L146,565a15.25,15.25,0,0,1-11.94-3.45q2.34,6.43,4.9,12.74c4.59,1.07,9-.39,9.43-1.33.51-1.12,3.53,2.2,6.72,7.4q1.05,6.78,2.11,13.58c-1.16,3.13-2.57,7.42-3.84,11.61A367.11,367.11,0,0,0,307,760.3c2.5-4.8,5.08-8.93,7.11-10a92.3,92.3,0,0,1,19.31-7.33s1.43-.34,3-3.93c4.29-9.72,9.46-20.88,8.32-30.92-1.92-16.91,8.25-30.9,8.25-30.9a63.48,63.48,0,0,0,8.86-19.62S364.21,647.27,358.75,643.89Z" transform="translate(0 0)"/><path class="cls-19" d="M189.66,505.9c-4.34-.2-8.37,3.82-8.37,3.82-4.29,4.29-2.81,7.8,3.28,7.8s21.46-1.31,21.6-1.82-3.68-4-8.48-7.72C197.69,508,195.37,506.17,189.66,505.9Z" transform="translate(0 0)"/><path class="cls-20" d="M486.22,407.82c5.62.48,20.6.33,25-2.37,4-2.41,9.66-7.62,13.44-12.18H480.34C480.9,400.21,482.73,407.53,486.22,407.82Z" transform="translate(0 0)"/><path class="cls-20" d="M618.12,394.68l2.17,3c2.34,3.35,8.67,2.55,10.36,1.19,1.34-1.07.27-4-.66-5.6H617.08C617.43,393.74,617.77,394.22,618.12,394.68Z" transform="translate(0 0)"/><path class="cls-19" d="M124.8,532q2.57,9.56,5.63,18.91a81.3,81.3,0,0,1,.87-8.1C132,539,128.47,534.76,124.8,532Z" transform="translate(0 0)"/><path class="cls-19" d="M770.51,393.27c.64,3.24,0,8.43-8.21,13.1-2.86,1.64-11.72-1.62-13.49-4.92a16.74,16.74,0,0,1-2-8.18H644.36c.85,3.41,4.25,9.52,7.86,14,0,0,.89,1.11,5.7,2.13a61.42,61.42,0,0,0,15.32,1.28c6.08-.42,11.52,1.52,12.11,4.32,0,0,0,0,.07,2.15.52,14.21-6.27,20.76-20.13,20.42l-3-.08c-4.15,2.25-12,2-17.41-.6s-10.74-4.41-10.74-4.41c-5.6-2.43-13.1-3.28-16.67-1.89l-2,2.5-1.82,2.3c-.59,4.4-5.62,6-11.19,3.47l-21.72-9.71c-5.57-2.49-5.83-17.48-8.5-20.25s-9.81-4.43-15.85-3.68c0,0-21.34,2.66-36.76,7.29C511.41,415,508,414.83,508,414.83c-6.08-.37-14.41,3-18.5,7.52,0,0,0,0-3,3.91a116.75,116.75,0,0,0-9.15,13.09c-2.61,4.49-3.82,9.93-6.92,14-2.39,3.12-7.85,4-10.07,7.13-10.62,15.15-17.8,31.66-13.82,50.69,1.84,8.77.89,10.33.89,10.33-3.16,5.21-3.81,18.91-3.14,21.85s4.26,9.29,8,14.13l16.83,21.74c3.85,4.66,8.69,14,15.16,15.37,7.82,1.63,7.72-7.65,15.88-6.93a52.9,52.9,0,0,0,31.61-6.76c5.38-3,12-4.12,14.76,5.32l.82,2.8c4.5,2,19.43,11.47,19.16,16.81s-3.11,17.33-1.74,19.28a148.33,148.33,0,0,1,7.37,13.5l10.66,17.48c.79,6.05,3.24,23.38,1.66,27.6s-4.2,12.33-5.83,18a34.43,34.43,0,0,0-1.12,11.17c1.89,5.79,4.88,15.3,6.65,21.13,0,0,2.87,9.49,5.6,19.65,1.2,4.48,1.1,9.56,3.18,13.51,2.54,4.83,5,9.59,7,14.52a364.09,364.09,0,0,0,87.79-45.34c-.14-.89-.28-1.79-.39-2.68-.47-3.88.49-9.31,3-11.95,5.44-5.75,12.74-9.7,18.37-15.31l3.17-3.15A70.52,70.52,0,0,0,714.76,683a50.19,50.19,0,0,0-2.84-13.85c-7.54-21.7-1.8-41.11,14.45-54.46,17.67-14.51,32.35-42.24,32.34-42.24,2.86-5.39,6.72-18.19,4.93-20.36s-10.72-.34-13.56.93-10.13,1.83-16.19,1.22c0,0-7.38-.73-11.6-5.94-9.36-11.56-15.68-25.65-23-38.88-4.14-7.51-11.46-15.77-10.64-22.92,1.22-10.61-5-15.18-9.48-21.83l-2.69-4c-2.46-4.71,3.91-3.29,6.45-1s7,8.62,9.88,14l10.23,17.4a154,154,0,0,0,11.85,18.63L719.55,527c1.81,5.81,4.44,13.31,5.84,16.67l2.4,1.47c1.24.76,4.63-2.18,7.14-3.23,4.54-1.91,9.11-3.75,13.73-5.45,5.78-2.13,6.77-2.51,6.77-2.51,5.71-2.16,14.86-6.12,20.34-8.81l15.17-18.66a49.61,49.61,0,0,0,11.81-17.85s.74-2.18-7.51-7.09L791,479c-4.73-3.63-10-4.15-11.69-1.16l-2.36.23c-4.74.44-10.61.06-14.32-2.46-4.24-2.89-6.63-8.49-9.84-12.9-3.49-4.79-5.12-7-5.12-7-3.61-4.93,1.45-8.23,3.28-8.06s6.35,4.27,10,9.12l10.57,7.77c6.1.08,18.94,5.06,21.31,6.46s16.4,3.7,21.09,3.5,13.19,1.43,18.88,3.63a24.82,24.82,0,0,1,7.61,5.06,370.65,370.65,0,0,0,.28-89.94Z" transform="translate(0 0)"/><path class="cls-19" d="M358.75,643.89a187.53,187.53,0,0,0-18.32-9.82c-5.56-2.54-14.69-6.64-20.28-9.11,0,0-.52-.22-5.59-2-9.32-3.25-19.93-2.46-19.93-2.46-6.05.45-9.31-3.82-7.22-9.49,0,0,2.92-8-4.74-15.83a29.72,29.72,0,0,0-13-8.06,60,60,0,0,1-19.54-9.46c-4.43,1.45-12.74-18.21-17.54-19.89-8.14-2.84-17.48,4.68-25.34.25-4.48-2.52-17.3-8.27-20.9-7.24s-15.66,10-19.11,12.83-10.73,3.23-16.18.83L146,565a15.25,15.25,0,0,1-11.94-3.45q2.34,6.43,4.9,12.74c4.59,1.07,9-.39,9.43-1.33.51-1.12,3.53,2.2,6.72,7.4q1.05,6.78,2.11,13.58c-1.16,3.13-2.57,7.42-3.84,11.61A367.11,367.11,0,0,0,307,760.3c2.5-4.8,5.08-8.93,7.11-10a92.3,92.3,0,0,1,19.31-7.33s1.43-.34,3-3.93c4.29-9.72,9.46-20.88,8.32-30.92-1.92-16.91,8.25-30.9,8.25-30.9a63.48,63.48,0,0,0,8.86-19.62S364.21,647.27,358.75,643.89Z" transform="translate(0 0)"/><path class="cls-19" d="M140.45,463.18a17,17,0,0,0,5.15,13c4.64,3.9,8.59,3.83,8.77-.16l-.37-3.05-.54-4.34a158.61,158.61,0,0,1-2.58-19.53s-.93-14.63,16.55-23c7.88-3.78,13.32-7.6,10.34-17.17a5.1,5.1,0,0,1,.42-4,94.16,94.16,0,0,1,10.44-11.63H115a368.55,368.55,0,0,0-2.63,43.82c0,4.32.1,8.6.25,12.88,5.42-7.06,13.87,1.78,20.17,1.14C138.21,450.55,140.62,456.53,140.45,463.18Z" transform="translate(0 0)"/><path class="cls-19" d="M154.27,498.59a15.39,15.39,0,0,1,5.15,6c6.07,12.57,10.57,9.52,10.57,9.52,5-3.42,4.76-8.61-.58-11.53Z" transform="translate(0 0)"/><path class="cls-21" d="M301.54,717.79c-5.23,9.25-11.28,19.48-17.41,29.3q11.19,7,22.91,13.21c2.5-4.8,5.08-8.93,7.11-10a92.3,92.3,0,0,1,19.31-7.33s1.43-.34,3-3.93c4.29-9.72,9.46-20.88,8.32-30.92-1.92-16.91,8.25-30.9,8.26-30.91a63.53,63.53,0,0,0,8.85-19.61s2.3-10.28-3.16-13.66a187.53,187.53,0,0,0-18.32-9.82c-5.57-2.54-14.69-6.64-20.28-9.11,0,0-.52-.23-5.59-2-9.32-3.25-19.93-2.46-19.93-2.46-6.05.45-9.31-3.82-7.22-9.49,0,0,2.92-8-4.74-15.83a29.72,29.72,0,0,0-13-8.06,60,60,0,0,1-19.54-9.46c-4.43,1.45-12.74-18.21-17.54-19.89-8.14-2.84-17.48,4.68-25.34.25-4.48-2.52-17.3-8.27-20.9-7.24s-15.66,10-19.11,12.83-10.73,3.23-16.18.83L146,565a15.25,15.25,0,0,1-11.94-3.45q2.34,6.45,4.91,12.77a14.93,14.93,0,0,0,3,.37c-.94-2.25-1.35-4.3,1.91-4.63,9.85-1,21.68,3,36.45-4.92S193.18,572,210.91,574s33.49,11.82,52.21,25.61,3,16.75,4.93,43.34,29.55,14.78,47.28,34.48S314.35,695.13,301.54,717.79Z" transform="translate(0 0)"/><path class="cls-21" d="M188.63,393.27H150.88c-16.58,10.9-19.6,22.26-33.56,32.93a36.85,36.85,0,0,1-4.9,3.15c-.06,2.57-.1,5.15-.1,7.74,0,4.32.1,8.6.25,12.88,5.42-7.06,13.87,1.78,20.17,1.14,5.47-.56,7.88,5.42,7.71,12.07a17,17,0,0,0,5.15,13c4.64,3.9,8.59,3.83,8.77-.16l-.37-3.05-.54-4.34a158.61,158.61,0,0,1-2.58-19.53s-.93-14.63,16.55-23c7.88-3.78,13.32-7.6,10.34-17.17a5.1,5.1,0,0,1,.42-4A94.16,94.16,0,0,1,188.63,393.27Z" transform="translate(0 0)"/><path class="cls-21" d="M154.27,498.59a15.39,15.39,0,0,1,5.15,6c6.07,12.57,10.57,9.52,10.57,9.52,5-3.42,4.76-8.61-.58-11.53Z" transform="translate(0 0)"/><path class="cls-21" d="M189.66,505.9c-4.34-.2-8.37,3.82-8.37,3.82-4.29,4.29-2.81,7.8,3.28,7.8s21.46-1.31,21.6-1.82-3.68-4-8.48-7.72C197.69,508,195.37,506.17,189.66,505.9Z" transform="translate(0 0)"/><path class="cls-21" d="M131.3,542.85c.72-3.85-2.83-8.09-6.5-10.81q2.57,9.56,5.63,18.91A81.3,81.3,0,0,1,131.3,542.85Z" transform="translate(0 0)"/><path class="cls-21" d="M833,478.21l0,0,.45.2,0,0,.76.38h0c.28.14.59.3.91.49l.14.08a24,24,0,0,1,2.33,1.5l.14.1c.38.28.76.57,1.14.89l.17.14q.65.54,1.29,1.17,1.39-11.1,2.12-22.39c-6.84-.16-12.74-3.14-30.5-5.68-24.69-3.53-46.73-22.92-62.6-25.57s-10.58,10.58-12.35,23.81,8.82,24.69,20.28,35.27-10.58,15.87-27.33,17.63-6.17-16.75-17.64-31.74-34.38-28.22-40.55-20.28,7.93,26.45,4.4,51.14,30,48.49,45.85,59.07-7.93,24.69-22,45-8.82,38.79-26.45,61.72,0,32.62-20.28,44.08S619,687.91,617.22,673.8s-7.94-24.68-17.63-43.2-36.15-74.94-46.74-75.83-13.22-2.64-31.74,2.65-48.49-12.35-49.37-21.16,3.52-26.45-11.46-36.15c-12.15-7.86-2.88-31.92,1.08-40.77a6,6,0,0,0-1,1.09l0,0c-6.63,9.47-11.93,19.47-14,30.28a53.45,53.45,0,0,0-.83,6.59c-.07,1.12-.11,2.24-.1,3.37a51.4,51.4,0,0,0,1.11,10.45c.23,1.09.41,2.08.56,3,.08.44.15.86.2,1.25.75,5.09.13,6.12.13,6.12-3.16,5.21-3.81,18.91-3.14,21.85s4.26,9.29,8,14.13l16.83,21.74c1.44,1.75,3,4.16,4.78,6.56.29.4.59.8.89,1.19.61.79,1.23,1.57,1.88,2.31a26.52,26.52,0,0,0,2,2.09,15.12,15.12,0,0,0,3.26,2.36,9,9,0,0,0,2.35.86c4.89,1,6.68-2.22,9.33-4.62a8,8,0,0,1,5.11-2.34,8.79,8.79,0,0,1,1.44,0c1.41.12,2.81.19,4.19.22a52.42,52.42,0,0,0,27.42-7c3.37-1.89,7.22-3,10.31-1.31a7.42,7.42,0,0,1,1.75,1.39,10.45,10.45,0,0,1,1.22,1.7,15.27,15.27,0,0,1,1.48,3.54c.08.25.14.45.2.65.1.38.2.71.28,1s.1.36.14.5l.2.68a62.58,62.58,0,0,1,9.26,5.58l.9.65a49.31,49.31,0,0,1,5.52,4.65l.06.06.09.09c2.05,2.09,3.41,4.13,3.33,5.78h0c0,1-.19,2.24-.38,3.59-.06.46-.13.92-.2,1.4-.42,2.86-1,6.07-1.28,8.74-.11.89-.18,1.73-.22,2.47a5.86,5.86,0,0,0,.34,3.08c.68,1,1.85,3,3.19,5.43,1,1.84,2.1,3.92,3.15,6,.35.69.7,1.39,1,2.07l6.5,10.66,4.16,6.82c.29,2.22.81,6,1.26,10,0,.16,0,.31.05.46.14,1.25.27,2.52.39,3.78.13,1.47.25,2.94.34,4.33.24,4,.21,7.41-.38,9-1.39,3.69-3.57,10.36-5.18,15.8-.23.77-.45,1.52-.65,2.23a31.35,31.35,0,0,0-.86,4.15c-.18,1.32-.27,2.54-.31,3.58,0,.51,0,1,0,1.41,0,1.26.07,2,.07,2,.23.72.49,1.5.76,2.33,1.59,5,3.65,11.48,5.17,16.46q.39,1.25.72,2.34s1.31,4.34,3,10.29c.07.26.14.52.22.78.75,2.65,1.56,5.58,2.37,8.58.6,2.24.87,4.63,1.26,7a21.69,21.69,0,0,0,1.92,6.56c2.54,4.83,5,9.59,7,14.52a364.09,364.09,0,0,0,87.79-45.34c-.14-.89-.28-1.79-.39-2.68a19,19,0,0,1,1.4-9.51,8.93,8.93,0,0,1,1.58-2.44,56.45,56.45,0,0,1,6.72-5.89l2.39-1.82a83.93,83.93,0,0,0,9.26-7.6l3.12-3.1,0,0h0A70.52,70.52,0,0,0,714.76,683,48.42,48.42,0,0,0,713,672.65c-.31-1.12-.65-2.28-1.08-3.51-.58-1.68-1.06-3.34-1.48-5-3.71-14.34-1.52-27.52,5.75-38.38a51.46,51.46,0,0,1,10.18-11.09c1.1-.9,2.19-1.86,3.27-2.86,1.62-1.5,3.2-3.1,4.75-4.75q1.53-1.65,3-3.38c2.47-2.86,4.8-5.83,7-8.75l1.27-1.74a207.21,207.21,0,0,0,12-18.88c.41-.72.7-1.25.86-1.56s.17-.32.17-.32A53.48,53.48,0,0,0,762,564.2c1.47-4.64,2.49-9.47,1.93-11.47a1.78,1.78,0,0,0-.29-.65c-1.8-2.17-10.72-.34-13.56.93a8.73,8.73,0,0,1-1.26.44,30.47,30.47,0,0,1-5.63.88c-.74,0-1.51.09-2.29.12a54.45,54.45,0,0,1-7-.22A20,20,0,0,1,724,550c-.3-.26-.59-.53-.88-.83s-.56-.6-.83-.92c-1.64-2-3.16-4.15-4.64-6.32-1.28-1.88-2.51-3.79-3.7-5.75-.92-1.52-1.83-3.06-2.71-4.62-3.63-6.4-7-13-10.46-19.49-.48-.9-1-1.8-1.45-2.7-.15-.27-.31-.54-.47-.81s-.45-.78-.69-1.17c-1.22-2-2.58-4.08-3.9-6.16a58.61,58.61,0,0,1-3.66-6.37,23.26,23.26,0,0,1-1.3-3.28,12.46,12.46,0,0,1-.62-5.13c1-8.63-2.92-13.25-6.83-18.25-.91-1.15-1.81-2.33-2.65-3.58l-2.69-4a3.56,3.56,0,0,1-.54-2c.33-2.1,4.93-.81,7,1.08a45.57,45.57,0,0,1,5.73,7.19l.89,1.35c.45.7.89,1.4,1.33,2.1.68,1.13,1.34,2.26,1.93,3.34l6.44,11,3.79,6.44c.48.92,1,1.95,1.66,3a158.8,158.8,0,0,0,10.19,15.61L719.55,527c1.36,4.36,3.17,9.67,4.59,13.47.47,1.26.9,2.36,1.25,3.2l2.4,1.47a.91.91,0,0,0,.56.12,2.32,2.32,0,0,0,.72-.15c1.6-.56,4-2.41,5.86-3.2,4.54-1.91,9.11-3.75,13.73-5.45,5.78-2.13,6.77-2.51,6.77-2.51,5.71-2.16,14.86-6.12,20.34-8.81l15.17-18.66a48.84,48.84,0,0,0,9.1-12,36.19,36.19,0,0,0,2.71-5.88s.19-.54-.66-1.7a9.13,9.13,0,0,0-.85-1,19.89,19.89,0,0,0-1.54-1.37,39.68,39.68,0,0,0-4.46-3l-3.71-2.21-.31-.18L791,479a8.31,8.31,0,0,0-.72-.49c-3.93-2.74-8.08-3.38-10.16-1.63a3.53,3.53,0,0,0-.8,1h0l-2.35.23a34.62,34.62,0,0,1-3.72.15h-.07a28.14,28.14,0,0,1-3.56-.25,16.29,16.29,0,0,1-7-2.36,13.63,13.63,0,0,1-1.2-1l-.31-.25c-3.34-3.06-5.52-7.83-8.33-11.69l-.33-.45-4.79-6.55c-2.25-3.08-1.12-5.52.49-6.88a4.3,4.3,0,0,1,.49-.38,3.92,3.92,0,0,1,2.3-.8h0a7,7,0,0,1,3,1.67,37.64,37.64,0,0,1,4.17,4c1,1.07,2,2.23,2.88,3.45l2.8,2.06,7.77,5.71a18.79,18.79,0,0,1,2.79.28c.8.13,1.63.3,2.5.5l.69.17c1.45.36,3,.79,4.46,1.26l1.61.53a66.17,66.17,0,0,1,9.26,3.72,5.08,5.08,0,0,0,.57.28,47,47,0,0,0,7.47,1.79c1.07.19,2.18.38,3.29.54,2.16.33,4.3.59,6.14.75l.23,0c.87.07,1.67.12,2.36.13h0c.36,0,.69,0,1,0,4.7-.2,13.19,1.43,18.88,3.63Z" transform="translate(0 0)"/><path class="cls-10" d="M512.63,393.27a20.35,20.35,0,0,1-16.06,1.86c-3.05-.8-5.24-1.29-6.82-1.86h-9.41c.56,6.94,2.39,14.26,5.88,14.55,5.62.48,20.6.33,25-2.37,4-2.41,9.66-7.62,13.44-12.18Z" transform="translate(0 0)"/><path class="cls-10" d="M617.08,393.27l1,1.41,2.18,3c2.34,3.35,8.67,2.55,10.36,1.19,1.34-1.07.27-4-.66-5.6Z" transform="translate(0 0)"/><path class="cls-22" d="M147.27,407.68c.47-4.84,1.08-9.64,1.75-14.41H136.68A334.12,334.12,0,0,0,174,575.93,334.14,334.14,0,0,1,147.27,407.68Z" transform="translate(0 0)"/><path class="cls-23" d="M766.91,393.27c-45,150.89-184.79,260.92-350.3,260.92-123.64,0-232.93-61.4-299.07-155.36C146.88,671.29,297,802.61,477.83,802.61c201.87,0,365.51-163.65,365.51-365.52a368.56,368.56,0,0,0-2.61-43.82Z" transform="translate(0 0)"/><path class="cls-24" d="M811.28,393.27c.23,5.26.37,10.54.37,15.86,0,194.68-157.82,352.5-352.51,352.5-136.38,0-254.66-77.46-313.27-190.78,53.25,127.09,178.8,216.39,325.22,216.39,194.69,0,352.51-157.82,352.51-352.51a354.66,354.66,0,0,0-2.44-41.46Z" transform="translate(0 0)"/><g class="cls-25"><path class="cls-22" d="M492.19,779.8a326,326,0,0,0,100.48-19.42c7.71-2.8,4.38-15.23-3.42-12.39a314.36,314.36,0,0,1-97.06,19c-8.24.29-8.28,13.14,0,12.85Z" transform="translate(0 0)"/></g><g class="cls-26"><path class="cls-27" d="M614,752.46a56.67,56.67,0,0,1,11.4-5.06c7.85-2.49,4.49-14.9-3.42-12.39a72,72,0,0,0-14.46,6.36c-7.15,4.15-.69,15.25,6.48,11.09Z" transform="translate(0 0)"/></g><g class="cls-26"><path class="cls-27" d="M800.94,511.37a226.46,226.46,0,0,1-35.08,82.36c-4.69,6.85,6.44,13.28,11.09,6.49a235.69,235.69,0,0,0,36.38-85.44c1.68-8.07-10.71-11.52-12.39-3.41Z" transform="translate(0 0)"/></g><ellipse class="cls-28" cx="477.36" cy="391.59" rx="362.86" ry="43.59"/><ellipse class="cls-29" cx="477.36" cy="391.59" rx="362.86" ry="43.59"/><ellipse class="cls-22" cx="477.36" cy="391.59" rx="362.86" ry="43.59"/><path class="cls-22" d="M127.83,396.77c0-24.07,162.46-43.58,362.86-43.58,155.13,0,287.5,11.69,339.39,28.14C791.69,362.21,648.34,348,477.36,348,277,348,114.5,367.51,114.5,391.59c0,5.43,8.31,10.64,23.46,15.44C131.35,403.74,127.83,400.31,127.83,396.77Z" transform="translate(0 0)"/><g class="cls-30"><path class="cls-10" d="M510.21,427.34c15.42-14-171.57-10-184.1-10s-33.74-.5-53-4c-10-1.82,5.56-3.37,21.31-5.22-67.64-1.61-128.5-5.48-176.93-10.93l.34.29c.5.44,1,.87,1.65,1.31l.57.42c.28.19.59.38.89.57s.47.3.73.45.64.37,1,.55.55.32.84.47l1.06.54,1,.47,1.14.53,1.06.47c.4.18.82.35,1.24.52l1.15.47,1.33.52,1.26.46,1.42.51,1.35.46c.49.17,1,.34,1.5.5l1.46.47,1.58.49,1.58.46,1.62.48,1.8.49,1.6.44,2.55.66,2.35.58c.77.19,1.53.38,2.32.56.56.14,1.16.27,1.74.4l2.19.5,1.84.4,2.26.49,1.93.4,2.33.47,2,.4,2.45.47,2,.38,2.57.47,2.08.37,2.71.47,2.07.36,2.92.48,2,.33,3.14.49,2,.31,3.51.52,1.73.26,4.36.62,1,.15q5.56.76,11.43,1.51l1,.13,4.9.6,1.52.18L226,423l1.84.21,4.33.48,1.95.22,4.35.46,2,.21,4.44.46,2,.2,4.65.45,1.91.18,4.94.46,1.75.16,5.39.47,1.4.12,6.14.52.78.06q14.31,1.17,29.57,2.17l.4,0,7.13.45,1,.06,6.61.4,1.41.08q3.18.19,6.39.36l1.51.09,6.44.34,1.5.07,6.56.33,1.46.07,6.87.32,1.17.05,7.42.31.72,0c16.7.68,33.94,1.22,51.63,1.61h.48l8.24.17,1,0,7.81.13,1.29,0,7.64.11,1.39,0,7.65.08,1.39,0,7.88.06h1.14l8.36,0h.71l9.14,0C494.34,433,506.93,430.32,510.21,427.34Z" transform="translate(0 0)"/><path class="cls-10" d="M666.18,428.81c104.36-7.65,174-21.46,174-37.22,0-10.81-32.75-20.69-87-28.3-8.79.13-17.19.5-25.08,1.1a4.73,4.73,0,0,1,.14,1c0,4.49-5.65,8.81-16.12,12.89,27.68,3,67.12,4.63,58.11,5.41-15.86,1.36-61.12-.15-61.12-.15-30.32,3,50.15,3,57.72,8.2s-144,.27-173.75,9.5,125.36,3.47,156.32,9.33C774.28,415.25,702.78,422.64,666.18,428.81Z" transform="translate(0 0)"/></g><path class="cls-31" d="M725.34,359.77c2,1.84,3,3.7,3,5.6,0,24.08-162.46,43.59-362.86,43.59-95.91,0-183.11-4.47-248-11.77,22.89,21.42,175.29,38,359.89,38,200.4,0,362.85-19.51,362.85-43.58C840.21,379,796,367.72,725.34,359.77Z" transform="translate(0 0)"/></g><path class="cls-32" d="M229,78.5A11.5,11.5,0,1,1,217.5,67,11.5,11.5,0,0,1,229,78.5Z" transform="translate(0 0)"/><path class="cls-33" d="M944.5,423A11.5,11.5,0,1,0,933,411.5,11.5,11.5,0,0,0,944.5,423Z" transform="translate(0 0)"/></g></g></svg>