<svg xmlns="http://www.w3.org/2000/svg" xmlns:xlink="http://www.w3.org/1999/xlink" viewBox="0 0 1032 802.6"><defs><style>.cls-1,.cls-32,.cls-4{fill:none;}.cls-1{clip-rule:evenodd;}.cls-2{isolation:isolate;}.cls-3{fill-opacity:0.2;fill:url(#Безымянный_градиент_17);}.cls-3,.cls-33,.cls-5{fill-rule:evenodd;}.cls-4{stroke:#2b5c0b;stroke-opacity:0.5;}.cls-5{fill:url(#Новый_образец_градиентной_за_16);}.cls-6{clip-path:url(#clip-path);}.cls-7{fill:url(#radial-gradient);}.cls-8{fill:#5bc8ab;}.cls-10,.cls-21,.cls-23,.cls-25,.cls-9{opacity:0.45;}.cls-10,.cls-21,.cls-23,.cls-31,.cls-9{mix-blend-mode:multiply;}.cls-10,.cls-20,.cls-31{fill:#4b7547;}.cls-11{fill:url(#radial-gradient-2);}.cls-12{fill:url(#radial-gradient-3);}.cls-13{fill:url(#radial-gradient-4);}.cls-14{fill:url(#radial-gradient-5);}.cls-15{fill:url(#radial-gradient-6);}.cls-16{fill:url(#radial-gradient-7);}.cls-17{fill:url(#radial-gradient-8);}.cls-18{fill:url(#radial-gradient-9);}.cls-19{fill:#3a7b0f;}.cls-21{fill:#7d4427;}.cls-22,.cls-27{fill:#cae21a;}.cls-22,.cls-24,.cls-26,.cls-31{opacity:0.25;}.cls-22,.cls-24,.cls-25,.cls-26{mix-blend-mode:screen;}.cls-23{fill:#f28d9f;}.cls-24{fill:#eb8a45;}.cls-28{fill:url(#radial-gradient-10);}.cls-29{fill:#468502;}.cls-30{opacity:0.71;}.cls-32{stroke-width:8px;stroke:url(#Безымянный_градиент_22);}.cls-33{fill:url(#Безымянный_градиент_22-2);}</style><linearGradient id="Безымянный_градиент_17" x1="807.94" y1="-68.33" x2="302.66" y2="678.28" gradientTransform="translate(1032 616) rotate(180)" gradientUnits="userSpaceOnUse"><stop offset="0" stop-color="#87d8f7"/><stop offset="1" stop-color="#2b5c0b"/></linearGradient><linearGradient id="Новый_образец_градиентной_за_16" x1="762.11" y1="-36.04" x2="332.95" y2="637.84" gradientTransform="translate(1032 616) rotate(180)" gradientUnits="userSpaceOnUse"><stop offset="0" stop-color="#1f6421"/><stop offset="0.19" stop-color="#53900f"/><stop offset="0.28" stop-color="#6baa4f"/><stop offset="0.36" stop-color="#7ec082"/><stop offset="0.43" stop-color="#8ccfa8"/><stop offset="0.49" stop-color="#95d9bf"/><stop offset="0.53" stop-color="#98dcc7"/><stop offset="0.56" stop-color="#9bdbbf"/><stop offset="0.61" stop-color="#a2daa9"/><stop offset="0.67" stop-color="#afd785"/><stop offset="0.75" stop-color="#c0d353"/><stop offset="0.83" stop-color="#d6ce14"/><stop offset="0.92" stop-color="#e3d321"/><stop offset="1" stop-color="#ead627"/></linearGradient><clipPath id="clip-path" transform="translate(0 0)"><path class="cls-1" d="M842.79,173.05c83.51,53.44,138.34,190.67,77,247.25S715.9,461.56,561.38,491.12s-277.09,75.31-335,37.66S181.6,396.63,156.81,312.1,61.61,140.39,124.37,91.86,331,107.8,501.67,119.26s257.61.34,341.12,53.79Z"/></clipPath><radialGradient id="radial-gradient" cx="408.54" cy="223.32" r="721.17" gradientTransform="matrix(-1, 0, 0, 1, 1032, 0)" gradientUnits="userSpaceOnUse"><stop offset="0.47" stop-color="#2663af"/><stop offset="1" stop-color="#2548a5"/></radialGradient><radialGradient id="radial-gradient-2" cx="434.96" cy="246.09" r="829.89" gradientTransform="matrix(-1, 0, 0, 1, 1032, 0)" gradientUnits="userSpaceOnUse"><stop offset="0.07" stop-color="#75b443"/><stop offset="1" stop-color="#5bb443"/></radialGradient><radialGradient id="radial-gradient-3" cx="435" cy="246.09" r="829.96" xlink:href="#radial-gradient-2"/><radialGradient id="radial-gradient-4" cx="434.96" cy="246.09" r="829.9" xlink:href="#radial-gradient-2"/><radialGradient id="radial-gradient-5" cx="434.96" cy="246.09" r="829.91" xlink:href="#radial-gradient-2"/><radialGradient id="radial-gradient-6" cx="434.96" cy="246.09" r="829.91" xlink:href="#radial-gradient-2"/><radialGradient id="radial-gradient-7" cx="434.96" cy="246.09" r="829.9" xlink:href="#radial-gradient-2"/><radialGradient id="radial-gradient-8" cx="434.96" cy="246.09" r="829.91" xlink:href="#radial-gradient-2"/><radialGradient id="radial-gradient-9" cx="434.96" cy="246.09" r="829.9" xlink:href="#radial-gradient-2"/><radialGradient id="radial-gradient-10" cx="476.47" cy="311.75" r="257.71" gradientTransform="matrix(-1.01, 0, 0, 0.73, 1035.55, 164.28)" gradientUnits="userSpaceOnUse"><stop offset="0.12" stop-color="#5bb443"/><stop offset="1" stop-color="#5bb443"/></radialGradient><linearGradient id="Безымянный_градиент_22" x1="234" y1="551.85" x2="203" y2="524.89" gradientTransform="translate(1032 616) rotate(180)" gradientUnits="userSpaceOnUse"><stop offset="0" stop-color="#70a452"/><stop offset="1" stop-color="#2b5c0b"/></linearGradient><linearGradient id="Безымянный_градиент_22-2" x1="956.74" y1="215.14" x2="933.74" y2="195.15" xlink:href="#Безымянный_градиент_22"/></defs><g class="cls-2"><g id="Слой_2" data-name="Слой 2"><path class="cls-3" d="M868.38,150.83C958.69,212.25,1018,370,951.68,435S731.16,482.4,564.05,516.38s-299.66,86.55-362.27,43.28-48.45-151.88-75.26-249S23.56,113.3,91.43,57.53,314.86,75.84,499.47,89,778.06,89.41,868.38,150.83Z" transform="translate(0 0)"/><path class="cls-4" d="M868.1,151.24c45,30.64,82.39,85.33,100.19,140.47s16,110.61-17,142.92c-16.5,16.18-38.49,27.24-64.84,35.25s-57,13-90.89,16.95c-19.49,2.29-40,4.27-61.39,6.32-52.85,5.08-110.74,10.64-170.26,22.74-41.78,8.5-81.41,18.16-118.31,27.19l-2.52.61c-35.95,8.8-69.28,17-99.48,22.81-30.92,6-58.54,9.55-82.33,8.93s-43.7-5.44-59.24-16.19c-31.12-21.51-43.21-59.28-50.85-104-2.56-15-4.61-30.71-6.72-46.84-1-7.93-2.09-16-3.22-24-3.42-24.53-7.57-49.56-14.28-73.87s-16.51-48.82-26.36-72.75l-3.15-7.64c-8.78-21.26-17.34-42-23.54-61.7C67,146.36,63,125.65,65,107s9.88-35.23,26.74-49.08,39.17-19.66,66.12-20.35,58.49,3.74,93.71,10.34c17.64,3.3,36.19,7.15,55.55,11.16,57.94,12,123.09,25.5,192.3,30.44,42.06,3,79.42,4.66,113.09,6.15l9.75.43c36.19,1.61,68.05,3.17,97,6.23,57.82,6.13,103.8,18.27,148.87,48.92Z" transform="translate(0 0)"/><path class="cls-4" d="M906,130.29c50.77,35,92.85,97.38,112.9,160.32s18,126.25-19.12,163.14-99.16,50.47-175.48,59.57c-22,2.62-45.1,4.87-69.18,7.22-59.53,5.79-124.75,12.14-191.8,26-47.08,9.69-91.72,20.71-133.3,31l-2.84.71c-40.5,10-78.05,19.34-112.08,26-34.83,6.83-65.95,10.9-92.76,10.19s-49.26-6.21-66.78-18.48c-35.08-24.56-48.71-67.69-57.31-118.69-2.89-17.09-5.21-35-7.58-53.45-1.17-9.05-2.35-18.21-3.63-27.43-3.85-28-8.52-56.54-16.08-84.28s-18.6-55.69-29.69-83q-1.78-4.38-3.56-8.72C27.78,196.12,18.13,172.46,11.14,150,3.32,124.8-1.16,101.16,1.07,79.86s11.14-40.23,30.16-56S75.39,1.37,105.76.58s65.91,4.27,105.59,11.8c19.87,3.77,40.77,8.16,62.58,12.73,65.28,13.7,138.67,29.1,216.65,34.73,47.38,3.43,89.47,5.32,127.4,7l11,.49c40.77,1.84,76.67,3.62,109.25,7.11,65.14,7,117,20.85,167.74,55.83Z" transform="translate(0 0)"/><path class="cls-5" d="M843.42,173.66c83.51,53.45,138.34,190.68,77,247.25S716.53,462.17,562,491.74s-277.1,75.31-335,37.65-44.81-132.15-69.6-216.67S62.24,141,125,92.48s206.59,15.93,377.3,27.39,257.61.34,341.12,53.79Z" transform="translate(0 0)"/><g class="cls-6"><path class="cls-7" d="M917.06,393.27a368.55,368.55,0,0,1,2.62,43.82C919.68,639,756,802.6,554.17,802.6S188.66,639,188.66,437.09a370.67,370.67,0,0,1,2.62-43.82Z" transform="translate(0 0)"/><path class="cls-8" d="M917.06,393.27a368.55,368.55,0,0,1,2.62,43.82C919.68,639,756,802.6,554.17,802.6S188.66,639,188.66,437.09a370.67,370.67,0,0,1,2.62-43.82Z" transform="translate(0 0)"/><g class="cls-9"><path class="cls-10" d="M390.3,393.27h25.5c-2.64,3.38-5.51,7.14-8.16,10.79l-2.18,3c-2.33,3.35-8.66,2.55-10.35,1.19s.46-5.74,1.32-6.53C397,401.2,393.84,396.37,390.3,393.27Z" transform="translate(0 0)"/><path class="cls-10" d="M434.94,398.16c-5.37,5.5-9.46,2.28-14.62-1.51a19.76,19.76,0,0,1,2.95-3.38h16.46Z" transform="translate(0 0)"/><path class="cls-10" d="M539.54,417.19c-5.63.48-20.61.34-25-2.37s-11.06-8.91-14.72-13.79c0,0-2.33-3.11-5.11-7.76h50.66C546.3,400.25,544.8,416.75,539.54,417.19Z" transform="translate(0 0)"/><path class="cls-10" d="M260.05,393.27a39.44,39.44,0,0,1-3.57,6.2s-6.09,8.8,7,16.28c2.86,1.63,11.72-1.63,13.5-4.93a16.56,16.56,0,0,0,1.93-8.76,19.91,19.91,0,0,1,1.33-8.79h98.17c1.56,3,3.52,6.79,3.16,8.8-.59,3.27-4.19,9.84-8,14.6,0,0-.89,1.12-5.7,2.13a61.4,61.4,0,0,1-15.32,1.28c-6.07-.42-11.52,1.52-12.1,4.32l-.08,2.15c-.51,14.21,6.28,20.76,20.14,20.42l3-.08c4.14,2.25,12,2,17.4-.6s10.74-4.41,10.74-4.41c5.6-2.43,13.1-3.27,16.68-1.89,0,0,0,0,2,2.5l1.82,2.3c.59,4.4,5.63,6,11.19,3.47L445,438.55c5.56-2.49,5.82-17.47,8.49-20.25s9.81-4.43,15.85-3.68c0,0,21.34,2.66,36.76,7.3,8.29,2.48,11.67,2.28,11.67,2.28,6.08-.37,14.4,3,18.49,7.52l3,3.91a119,119,0,0,1,9.15,13.09c2.61,4.49,3.82,9.93,6.92,14,2.39,3.12,7.84,4,10.06,7.13C576,485,583.21,501.48,579.23,520.51c-1.84,8.78-.9,10.34-.9,10.34,3.17,5.2,3.82,18.9,3.15,21.84s-4.27,9.29-8,14.13q-8.4,10.88-16.82,21.74c-3.85,4.66-8.69,14-15.17,15.37-7.82,1.63-7.71-7.65-15.88-6.93A52.85,52.85,0,0,1,494,590.24c-5.38-3-12-4.11-14.76,5.32l-.82,2.8c-4.49,2-19.43,11.47-19.15,16.81s3.1,17.33,1.74,19.29A143.54,143.54,0,0,0,453.63,648L443,665.43c-.78,6.05-3.23,23.38-1.65,27.6s4.2,12.33,5.82,18a34.21,34.21,0,0,1,1.13,11.16c-1.9,5.79-4.89,15.3-6.65,21.13,0,0-2.88,9.49-5.6,19.65-1.2,4.48-1.11,9.56-3.19,13.51-.8,1.54-1.6,3.07-2.38,4.59a365.37,365.37,0,0,1-116.62-68.64A70.66,70.66,0,0,1,311,692.36a50.55,50.55,0,0,1,2.84-13.84c7.55-21.71,1.81-41.12-14.44-54.47C281.72,609.54,267,581.82,267,581.82c-2.85-5.4-6.72-18.2-4.92-20.37s10.71-.34,13.55.93,10.13,1.83,16.19,1.22c0,0,7.38-.73,11.6-5.94,9.37-11.56,15.68-25.65,23-38.88,4.13-7.51,11.45-15.77,10.63-22.92-1.22-10.61,5-15.17,9.48-21.82l2.69-4c2.47-4.71-3.91-3.29-6.45-1s-7,8.62-9.88,14l-10.23,17.39a153.88,153.88,0,0,1-11.84,18.63q-2.32,8.64-4.63,17.27c-1.81,5.81-4.43,13.31-5.84,16.67l-2.4,1.47c-1.23.76-4.63-2.18-7.13-3.23-4.54-1.91-9.11-3.75-13.73-5.45l-6.77-2.5c-5.71-2.16-14.86-6.13-20.34-8.82l-15.17-18.66A49.5,49.5,0,0,1,223,498s-.73-2.17,7.51-7.08l4.25-2.53c4.72-3.63,10-4.15,11.68-1.16l2.37.23c4.74.44,10.61.06,14.31-2.46,4.24-2.89,6.63-8.49,9.85-12.9l5.11-7c3.61-4.92-1.45-8.23-3.27-8.06s-6.35,4.27-10.05,9.12l-10.58,7.77c-6.1.08-18.94,5.07-21.3,6.46s-16.4,3.7-21.1,3.5-13.19,1.43-18.88,3.63c0,0-.27.1-.72.31a368.25,368.25,0,0,1-.91-94.56Z" transform="translate(0 0)"/><path class="cls-10" d="M711.6,759.62a92.86,92.86,0,0,0-19.31-7.33s-1.43-.34-3-3.93c-4.3-9.72-9.46-20.88-8.33-30.92,1.93-16.91-8.25-30.9-8.25-30.9a63.46,63.46,0,0,1-8.85-19.62s-2.3-10.28,3.16-13.66a187.53,187.53,0,0,1,18.32-9.82c5.56-2.54,14.69-6.63,20.28-9.11,0,0,.51-.22,5.59-2,9.31-3.25,19.92-2.46,19.92-2.46,6.06.45,9.32-3.82,7.23-9.49,0,0-2.93-8,4.73-15.83a29.72,29.72,0,0,1,13-8.06A60.16,60.16,0,0,0,775.59,587c4.43,1.44,12.74-18.22,17.54-19.89,8.15-2.84,17.49,4.67,25.34.25,4.48-2.53,17.3-8.28,20.9-7.25s15.66,10,19.11,12.83,10.74,3.23,16.18.83l5.1.52c8.74.9,16.23-4.18,15.62-13.26a82.37,82.37,0,0,0-.93-8.85c-1-5.46,6.52-11.69,10.84-13.27a363.3,363.3,0,0,1-15.78,43.73c-5.41,2.65-11.64.73-12.14-.38s-3.52,2.19-6.72,7.39c-.69,4.53-1.4,9-2.1,13.58,1.29,3.48,2.88,8.38,4.25,13A367.08,367.08,0,0,1,716,764.88C714.43,762.31,712.91,760.34,711.6,759.62Z" transform="translate(0 0)"/><path class="cls-10" d="M871.48,508a15.36,15.36,0,0,0-5.14,6c-6.08,12.57-10.58,9.52-10.58,9.52-5-3.42-4.76-8.61.58-11.53Z" transform="translate(0 0)"/><path class="cls-10" d="M917.05,393.27a368.55,368.55,0,0,1,2.63,43.82q0,14.52-1.12,28.77c-1.37-.34-2.71-.84-2.88-1.39-5-15.51-15.29-3.24-22.66-4-5.48-.56-7.89,5.42-7.72,12.08a17,17,0,0,1-5.15,12.95c-4.64,3.9-8.59,3.83-8.77-.16l.38-3.05.53-4.34a158.51,158.51,0,0,0,2.59-19.53s.93-14.63-16.56-23c-7.88-3.78-13.31-7.6-10.33-17.17a5.1,5.1,0,0,0-.43-4c-7.7-10.41-18.86-19-18.86-19a30,30,0,0,1-2.34-2Z" transform="translate(0 0)"/><path class="cls-10" d="M836.1,515.27c4.34-.2,8.37,3.83,8.37,3.83,4.29,4.28,2.81,7.79-3.29,7.79s-21.45-1.31-21.59-1.82,3.68-4,8.48-7.72C828.07,517.35,830.39,515.54,836.1,515.27Z" transform="translate(0 0)"/><path class="cls-10" d="M909.58,517.35c-.42-3.05-.43-3.05-.43-3.05a7.07,7.07,0,0,1,3.2-4q-1.07,5.24-2.28,10.41C909.92,519.71,909.76,518.63,909.58,517.35Z" transform="translate(0 0)"/></g><path class="cls-11" d="M413.89,394.68l-2.18,3c-2.33,3.35-8.66,2.55-10.36,1.19-1.33-1.07-.27-4,.66-5.6h12.91Z" transform="translate(0 0)"/><path class="cls-12" d="M907.2,532q-2.57,9.56-5.63,18.91a81.3,81.3,0,0,0-.87-8.1C900,539,903.54,534.76,907.2,532Z" transform="translate(0 0)"/><path class="cls-13" d="M545.78,407.82c-5.62.48-20.6.33-25-2.37-4-2.41-9.66-7.62-13.44-12.18h44.35C551.1,400.21,549.27,407.53,545.78,407.82Z" transform="translate(0 0)"/><path class="cls-14" d="M842.34,505.9c4.34-.2,8.37,3.82,8.37,3.82,4.29,4.29,2.81,7.8-3.28,7.8s-21.46-1.31-21.59-1.82,3.67-4,8.47-7.72C834.31,508,836.64,506.17,842.34,505.9Z" transform="translate(0 0)"/><path class="cls-15" d="M891.55,463.18a17,17,0,0,1-5.15,13c-4.64,3.9-8.59,3.82-8.77-.16l.38-3.05.53-4.34a158.61,158.61,0,0,0,2.58-19.53s.93-14.63-16.55-23c-7.88-3.78-13.31-7.6-10.34-17.17a5.1,5.1,0,0,0-.42-4,93.37,93.37,0,0,0-10.44-11.63h73.68a368.55,368.55,0,0,1,2.63,43.82c0,4.32-.1,8.6-.25,12.88-5.42-7.06-13.87,1.78-20.16,1.14C893.79,450.55,891.38,456.53,891.55,463.18Z" transform="translate(0 0)"/><path class="cls-16" d="M261.49,393.27c-.64,3.24,0,8.43,8.21,13.1,2.86,1.64,11.72-1.62,13.49-4.92a16.76,16.76,0,0,0,2-8.18H387.64c-.85,3.41-4.24,9.52-7.86,14,0,0-.89,1.11-5.7,2.13a61.42,61.42,0,0,1-15.32,1.28c-6.07-.42-11.52,1.52-12.1,4.32l-.08,2.15c-.51,14.21,6.27,20.76,20.13,20.42l3-.08c4.14,2.25,12,2,17.4-.6s10.74-4.41,10.74-4.41c5.6-2.43,13.1-3.28,16.67-1.89l2,2.5,1.82,2.3c.59,4.4,5.62,6,11.19,3.47l21.73-9.71c5.56-2.49,5.82-17.48,8.49-20.25s9.81-4.43,15.85-3.68c0,0,21.34,2.66,36.76,7.29,8.28,2.49,11.67,2.29,11.67,2.29,6.08-.37,14.4,3,18.49,7.52l3,3.91a118.07,118.07,0,0,1,9.15,13.09c2.61,4.49,3.81,9.93,6.91,14,2.4,3.12,7.85,4,10.07,7.13,10.62,15.15,17.8,31.66,13.82,50.69-1.83,8.77-.89,10.33-.89,10.33,3.17,5.21,3.82,18.91,3.14,21.85s-4.26,9.29-8,14.13L562.9,579.19c-3.84,4.66-8.69,14-15.16,15.37-7.82,1.63-7.72-7.65-15.88-6.94a52.84,52.84,0,0,1-31.61-6.75c-5.38-3-12-4.12-14.76,5.32l-.82,2.8c-4.49,2-19.43,11.47-19.16,16.81s3.11,17.33,1.74,19.28a148.33,148.33,0,0,0-7.37,13.5l-10.66,17.48c-.79,6.05-3.24,23.38-1.66,27.6s4.21,12.33,5.83,18a34.43,34.43,0,0,1,1.12,11.17c-1.89,5.79-4.88,15.3-6.65,21.13,0,0-2.87,9.49-5.59,19.64-1.21,4.49-1.11,9.57-3.19,13.52-2.54,4.83-5,9.59-7,14.52a364.09,364.09,0,0,1-87.79-45.34c.14-.89.28-1.79.39-2.68.47-3.88-.49-9.31-3-11.95-5.44-5.75-12.74-9.7-18.37-15.31l-3.17-3.15A70.52,70.52,0,0,1,317.24,683a50.19,50.19,0,0,1,2.84-13.85c7.54-21.7,1.8-41.11-14.44-54.46-17.68-14.51-32.36-42.24-32.35-42.24-2.86-5.39-6.72-18.19-4.92-20.36s10.71-.34,13.55.93,10.13,1.82,16.19,1.22c0,0,7.38-.73,11.6-5.94,9.37-11.56,15.68-25.65,23-38.88,4.13-7.51,11.45-15.77,10.63-22.92-1.22-10.61,5-15.18,9.48-21.83l2.69-4c2.46-4.71-3.91-3.29-6.45-1s-7,8.62-9.88,14l-10.23,17.4a152.74,152.74,0,0,1-11.85,18.63L312.45,527c-1.81,5.81-4.43,13.31-5.84,16.67l-2.4,1.47c-1.23.76-4.63-2.18-7.14-3.23-4.54-1.91-9.11-3.75-13.73-5.45-5.78-2.13-6.77-2.51-6.77-2.51-5.7-2.16-14.86-6.12-20.34-8.81l-15.17-18.66a49.61,49.61,0,0,1-11.81-17.85s-.74-2.18,7.51-7.09L241,479c4.72-3.63,10-4.15,11.68-1.16l2.37.23c4.74.44,10.6.06,14.31-2.46,4.24-2.89,6.63-8.49,9.84-12.9l5.12-7c3.61-4.93-1.45-8.23-3.28-8.07s-6.35,4.27-10,9.13l-10.58,7.77c-6.1.08-18.94,5.06-21.31,6.46s-16.39,3.7-21.09,3.5-13.19,1.43-18.88,3.63a24.72,24.72,0,0,0-7.6,5.06,370,370,0,0,1-.29-89.94Z" transform="translate(0 0)"/><path class="cls-17" d="M877.73,498.59a15.29,15.29,0,0,0-5.14,6c-6.08,12.57-10.58,9.52-10.58,9.51-5-3.41-4.76-8.6.58-11.53Z" transform="translate(0 0)"/><path class="cls-18" d="M673.25,643.89a186.29,186.29,0,0,1,18.32-9.82c5.57-2.54,14.69-6.64,20.29-9.11,0,0,.51-.22,5.58-2,9.32-3.25,19.93-2.46,19.93-2.46,6.06.45,9.31-3.82,7.23-9.49,0,0-2.93-8,4.73-15.83a29.72,29.72,0,0,1,13-8.06,60,60,0,0,0,19.54-9.46c4.43,1.45,12.74-18.21,17.54-19.89,8.15-2.84,17.49,4.68,25.34.25,4.48-2.52,17.3-8.27,20.9-7.24s15.66,10,19.11,12.83,10.74,3.23,16.18.83l5.1.52A15.25,15.25,0,0,0,898,561.51q-2.33,6.43-4.9,12.74c-4.59,1.07-9-.39-9.43-1.33-.51-1.12-3.53,2.2-6.72,7.4l-2.1,13.58c1.16,3.13,2.56,7.42,3.83,11.61A367.09,367.09,0,0,1,725,760.3c-2.51-4.8-5.09-8.93-7.12-10a92.3,92.3,0,0,0-19.31-7.33s-1.43-.34-3-3.93c-4.29-9.72-9.45-20.88-8.32-30.93,1.92-16.9-8.25-30.89-8.25-30.89a63.22,63.22,0,0,1-8.85-19.62S667.79,647.27,673.25,643.89Z" transform="translate(0 0)"/><path class="cls-19" d="M842.34,505.9c4.34-.2,8.37,3.82,8.37,3.82,4.29,4.29,2.81,7.8-3.28,7.8s-21.46-1.31-21.59-1.82,3.67-4,8.47-7.72C834.31,508,836.64,506.17,842.34,505.9Z" transform="translate(0 0)"/><path class="cls-20" d="M545.78,407.82c-5.62.48-20.6.33-25-2.37-4-2.41-9.66-7.62-13.44-12.18h44.35C551.1,400.21,549.27,407.53,545.78,407.82Z" transform="translate(0 0)"/><path class="cls-20" d="M413.89,394.68l-2.18,3c-2.33,3.35-8.66,2.55-10.36,1.19-1.33-1.07-.27-4,.66-5.6h12.91Z" transform="translate(0 0)"/><path class="cls-19" d="M907.2,532q-2.57,9.56-5.63,18.91a81.3,81.3,0,0,0-.87-8.1C900,539,903.54,534.76,907.2,532Z" transform="translate(0 0)"/><path class="cls-19" d="M261.49,393.27c-.64,3.24,0,8.43,8.21,13.1,2.86,1.64,11.72-1.62,13.49-4.92a16.76,16.76,0,0,0,2-8.18H387.64c-.85,3.41-4.24,9.52-7.86,14,0,0-.89,1.11-5.7,2.13a61.42,61.42,0,0,1-15.32,1.28c-6.07-.42-11.52,1.52-12.1,4.32l-.08,2.15c-.51,14.21,6.27,20.76,20.13,20.42l3-.08c4.14,2.25,12,2,17.4-.6s10.74-4.41,10.74-4.41c5.6-2.43,13.1-3.28,16.67-1.89l2,2.5,1.82,2.3c.59,4.4,5.62,6,11.19,3.47l21.73-9.71c5.56-2.49,5.82-17.48,8.49-20.25s9.81-4.43,15.85-3.68c0,0,21.34,2.66,36.76,7.29,8.28,2.49,11.67,2.29,11.67,2.29,6.08-.37,14.4,3,18.49,7.52l3,3.91a118.07,118.07,0,0,1,9.15,13.09c2.61,4.49,3.81,9.93,6.91,14,2.4,3.12,7.85,4,10.07,7.13,10.62,15.15,17.8,31.66,13.82,50.69-1.83,8.77-.89,10.33-.89,10.33,3.17,5.21,3.82,18.91,3.14,21.85s-4.26,9.29-8,14.13L562.9,579.19c-3.84,4.66-8.69,14-15.16,15.37-7.82,1.63-7.72-7.65-15.88-6.94a52.84,52.84,0,0,1-31.61-6.75c-5.38-3-12-4.12-14.76,5.32l-.82,2.8c-4.49,2-19.43,11.47-19.16,16.81s3.11,17.33,1.74,19.28a148.33,148.33,0,0,0-7.37,13.5l-10.66,17.48c-.79,6.05-3.24,23.38-1.66,27.6s4.21,12.33,5.83,18a34.43,34.43,0,0,1,1.12,11.17c-1.89,5.79-4.88,15.3-6.65,21.13,0,0-2.87,9.49-5.59,19.64-1.21,4.49-1.11,9.57-3.19,13.52-2.54,4.83-5,9.59-7,14.52a364.09,364.09,0,0,1-87.79-45.34c.14-.89.28-1.79.39-2.68.47-3.88-.49-9.31-3-11.95-5.44-5.75-12.74-9.7-18.37-15.31l-3.17-3.15A70.52,70.52,0,0,1,317.24,683a50.19,50.19,0,0,1,2.84-13.85c7.54-21.7,1.8-41.11-14.44-54.46-17.68-14.51-32.36-42.24-32.35-42.24-2.86-5.39-6.72-18.19-4.92-20.36s10.71-.34,13.55.93,10.13,1.82,16.19,1.22c0,0,7.38-.73,11.6-5.94,9.37-11.56,15.68-25.65,23-38.88,4.13-7.51,11.45-15.77,10.63-22.92-1.22-10.61,5-15.18,9.48-21.83l2.69-4c2.46-4.71-3.91-3.29-6.45-1s-7,8.62-9.88,14l-10.23,17.4a152.74,152.74,0,0,1-11.85,18.63L312.45,527c-1.81,5.81-4.43,13.31-5.84,16.67l-2.4,1.47c-1.23.76-4.63-2.18-7.14-3.23-4.54-1.91-9.11-3.75-13.73-5.45-5.78-2.13-6.77-2.51-6.77-2.51-5.7-2.16-14.86-6.12-20.34-8.81l-15.17-18.66a49.61,49.61,0,0,1-11.81-17.85s-.74-2.18,7.51-7.09L241,479c4.72-3.63,10-4.15,11.68-1.16l2.37.23c4.74.44,10.6.06,14.31-2.46,4.24-2.89,6.63-8.49,9.84-12.9l5.12-7c3.61-4.93-1.45-8.23-3.28-8.07s-6.35,4.27-10,9.13l-10.58,7.77c-6.1.08-18.94,5.06-21.31,6.46s-16.39,3.7-21.09,3.5-13.19,1.43-18.88,3.63a24.72,24.72,0,0,0-7.6,5.06,370,370,0,0,1-.29-89.94Z" transform="translate(0 0)"/><path class="cls-19" d="M673.25,643.89a186.29,186.29,0,0,1,18.32-9.82c5.57-2.54,14.69-6.64,20.29-9.11,0,0,.51-.22,5.58-2,9.32-3.25,19.93-2.46,19.93-2.46,6.06.45,9.31-3.82,7.23-9.49,0,0-2.93-8,4.73-15.83a29.72,29.72,0,0,1,13-8.06,60,60,0,0,0,19.54-9.46c4.43,1.45,12.74-18.21,17.54-19.89,8.15-2.84,17.49,4.68,25.34.25,4.48-2.52,17.3-8.27,20.9-7.24s15.66,10,19.11,12.83,10.74,3.23,16.18.83l5.1.52A15.25,15.25,0,0,0,898,561.51q-2.33,6.43-4.9,12.74c-4.59,1.07-9-.39-9.43-1.33-.51-1.12-3.53,2.2-6.72,7.4l-2.1,13.58c1.16,3.13,2.56,7.42,3.83,11.61A367.09,367.09,0,0,1,725,760.3c-2.51-4.8-5.09-8.93-7.12-10a92.3,92.3,0,0,0-19.31-7.33s-1.43-.34-3-3.93c-4.29-9.72-9.45-20.88-8.32-30.93,1.92-16.9-8.25-30.89-8.25-30.89a63.22,63.22,0,0,1-8.85-19.62S667.79,647.27,673.25,643.89Z" transform="translate(0 0)"/><path class="cls-19" d="M891.55,463.18a17,17,0,0,1-5.15,13c-4.64,3.9-8.59,3.82-8.77-.16l.38-3.05.53-4.34a158.61,158.61,0,0,0,2.58-19.53s.93-14.63-16.55-23c-7.88-3.78-13.31-7.6-10.34-17.17a5.1,5.1,0,0,0-.42-4,93.37,93.37,0,0,0-10.44-11.63h73.68a368.55,368.55,0,0,1,2.63,43.82c0,4.32-.1,8.6-.25,12.88-5.42-7.06-13.87,1.78-20.16,1.14C893.79,450.55,891.38,456.53,891.55,463.18Z" transform="translate(0 0)"/><path class="cls-19" d="M877.73,498.59a15.29,15.29,0,0,0-5.14,6c-6.08,12.57-10.58,9.52-10.58,9.51-5-3.41-4.76-8.6.58-11.53Z" transform="translate(0 0)"/><path class="cls-21" d="M730.46,717.79c5.23,9.25,11.28,19.48,17.41,29.3q-11.19,7-22.9,13.21c-2.51-4.8-5.09-8.93-7.12-10a92.3,92.3,0,0,0-19.31-7.33s-1.43-.34-3-3.93c-4.29-9.72-9.45-20.88-8.32-30.93,1.92-16.9-8.25-30.89-8.25-30.9a63.07,63.07,0,0,1-8.85-19.61s-2.31-10.28,3.15-13.66a186.29,186.29,0,0,1,18.32-9.82c5.57-2.54,14.69-6.64,20.29-9.11,0,0,.51-.23,5.58-2,9.32-3.25,19.93-2.46,19.93-2.46,6.06.45,9.31-3.82,7.23-9.49,0,0-2.93-8,4.73-15.83a29.72,29.72,0,0,1,13-8.06,60.08,60.08,0,0,0,19.53-9.46c4.43,1.45,12.74-18.21,17.54-19.89,8.15-2.84,17.49,4.68,25.34.25,4.48-2.52,17.3-8.27,20.9-7.24s15.66,10,19.11,12.83,10.74,3.23,16.18.83l5.1.52A15.25,15.25,0,0,0,898,561.51Q895.61,568,893,574.28a14.24,14.24,0,0,1-3,.36c.94-2.24,1.35-4.29-1.91-4.62-9.85-1-21.67,3-36.45-4.92S838.82,572,821.09,574s-33.49,11.83-52.21,25.62-3,16.74-4.93,43.34S734.4,657.7,716.67,677.4,717.65,695.13,730.46,717.79Z" transform="translate(0 0)"/><path class="cls-21" d="M843.37,393.27h37.75c16.58,10.9,19.6,22.26,33.56,32.93a36.29,36.29,0,0,0,4.91,3.15c0,2.57.09,5.15.09,7.74,0,4.32-.1,8.6-.25,12.88-5.42-7.06-13.87,1.78-20.16,1.14-5.48-.56-7.89,5.42-7.72,12.07a17,17,0,0,1-5.15,13c-4.64,3.9-8.59,3.82-8.77-.16l.38-3.05.53-4.34a158.61,158.61,0,0,0,2.58-19.53s.93-14.63-16.55-23c-7.88-3.78-13.31-7.6-10.34-17.17a5.1,5.1,0,0,0-.42-4A93.37,93.37,0,0,0,843.37,393.27Z" transform="translate(0 0)"/><path class="cls-21" d="M877.73,498.59a15.33,15.33,0,0,0-5.14,6c-6.08,12.58-10.58,9.53-10.58,9.52-5-3.41-4.76-8.6.58-11.53Z" transform="translate(0 0)"/><path class="cls-21" d="M842.34,505.9c4.34-.2,8.37,3.82,8.37,3.82,4.29,4.29,2.81,7.8-3.28,7.8s-21.46-1.31-21.59-1.82,3.67-4,8.47-7.72C834.31,508,836.64,506.17,842.34,505.9Z" transform="translate(0 0)"/><path class="cls-21" d="M900.7,542.85c-.71-3.86,2.84-8.09,6.5-10.81q-2.57,9.56-5.63,18.91A81.3,81.3,0,0,0,900.7,542.85Z" transform="translate(0 0)"/><path class="cls-21" d="M199,478.21l0,0-.46.2-.05,0-.76.38h0c-.28.14-.58.3-.91.49l-.14.08a25.31,25.31,0,0,0-2.33,1.5l-.14.1c-.38.28-.76.57-1.14.89l-.17.14c-.43.36-.86.75-1.28,1.17q-1.41-11.1-2.12-22.39c6.83-.16,12.73-3.14,30.49-5.68,24.69-3.53,46.74-22.92,62.61-25.57s10.58,10.58,12.34,23.81-8.82,24.68-20.28,35.27,10.58,15.87,27.33,17.63,6.18-16.75,17.64-31.74,34.38-28.22,40.56-20.28-7.94,26.45-4.41,51.14-30,48.49-45.85,59.07,7.93,24.69,22,45,8.82,38.79,26.45,61.72,0,32.62,20.28,44.08S413,687.91,414.78,673.8s7.94-24.68,17.64-43.2,36.15-75,46.73-75.83,13.22-2.64,31.74,2.65,48.49-12.35,49.37-21.16-3.52-26.45,11.47-36.15c12.14-7.86,2.87-31.92-1.09-40.77a6.44,6.44,0,0,1,1,1.09v0c6.64,9.47,11.93,19.47,14,30.28a53.47,53.47,0,0,1,.84,6.59c.07,1.12.1,2.24.1,3.37a52.14,52.14,0,0,1-1.12,10.45c-.23,1.09-.41,2.08-.56,3-.08.44-.14.86-.2,1.25-.75,5.09-.13,6.12-.13,6.12,3.17,5.21,3.82,18.91,3.14,21.85s-4.26,9.29-8,14.13L562.9,579.19c-1.44,1.75-3,4.16-4.78,6.56-.29.4-.59.79-.89,1.19-.61.79-1.23,1.57-1.88,2.31a26.52,26.52,0,0,1-2,2.09,14.88,14.88,0,0,1-3.26,2.36,9,9,0,0,1-2.35.86c-4.89,1-6.68-2.22-9.33-4.62a8,8,0,0,0-5.11-2.34,10,10,0,0,0-1.44,0c-1.41.13-2.81.2-4.19.23a52.42,52.42,0,0,1-27.42-7c-3.36-1.89-7.22-3-10.3-1.31A7,7,0,0,0,488.2,581a9.88,9.88,0,0,0-1.22,1.7,15.26,15.26,0,0,0-1.49,3.54c-.07.25-.13.45-.19.65-.11.38-.21.71-.28,1l-.15.5-.2.68a62.58,62.58,0,0,0-9.26,5.58l-.9.65a49.31,49.31,0,0,0-5.52,4.65l-.06.06-.09.09c-2,2.09-3.41,4.13-3.33,5.78h0c.05,1,.19,2.24.38,3.59.06.46.13.92.2,1.4.43,2.86,1,6.07,1.28,8.74.11.89.19,1.73.23,2.47a5.94,5.94,0,0,1-.35,3.08c-.68,1-1.85,3-3.19,5.43-1,1.84-2.1,3.92-3.15,6-.35.69-.7,1.39-1,2.07l-6.5,10.66-4.16,6.82c-.29,2.22-.8,6-1.26,10,0,.16,0,.31,0,.46-.14,1.25-.27,2.52-.39,3.78-.13,1.47-.25,2.94-.33,4.33-.24,4-.22,7.41.37,9,1.39,3.69,3.57,10.36,5.18,15.8.23.77.45,1.52.65,2.23a29.82,29.82,0,0,1,.86,4.15c.18,1.32.27,2.54.31,3.57,0,.52,0,1,0,1.42,0,1.26-.08,2-.08,2-.23.72-.49,1.5-.75,2.33-1.6,4.95-3.66,11.48-5.18,16.46q-.39,1.25-.72,2.34s-1.31,4.34-3,10.29c-.08.26-.15.52-.22.78-.76,2.65-1.57,5.58-2.37,8.57-.6,2.25-.88,4.64-1.27,7a21.41,21.41,0,0,1-1.92,6.56c-2.54,4.83-5,9.59-7,14.52a364.09,364.09,0,0,1-87.79-45.34c.14-.89.28-1.79.39-2.68a19.13,19.13,0,0,0-1.39-9.51,9,9,0,0,0-1.59-2.44,57.14,57.14,0,0,0-6.71-5.89l-2.4-1.82a86,86,0,0,1-9.26-7.6l-3.11-3.1-.05,0h0A70.52,70.52,0,0,1,317.24,683,48.42,48.42,0,0,1,319,672.65c.31-1.12.65-2.28,1.08-3.51.58-1.68,1.06-3.34,1.49-5,3.7-14.34,1.52-27.52-5.76-38.38a51.66,51.66,0,0,0-10.17-11.09c-1.11-.9-2.2-1.86-3.28-2.86-1.62-1.5-3.2-3.1-4.74-4.75q-1.55-1.65-3-3.38c-2.47-2.86-4.8-5.83-7-8.75l-1.27-1.74a207.21,207.21,0,0,1-12-18.88c-.41-.72-.7-1.25-.86-1.56l-.17-.32A54.52,54.52,0,0,1,270,564.2c-1.47-4.64-2.49-9.47-1.93-11.47a1.78,1.78,0,0,1,.3-.65c1.79-2.17,10.71-.34,13.55.93a8.47,8.47,0,0,0,1.27.44,30.21,30.21,0,0,0,5.62.88c.74,0,1.51.09,2.29.12a54.45,54.45,0,0,0,7-.22A20,20,0,0,0,308,550a11.4,11.4,0,0,0,.88-.83c.29-.29.56-.6.83-.92,1.64-2,3.17-4.15,4.64-6.32,1.28-1.88,2.51-3.79,3.7-5.75.93-1.52,1.83-3.06,2.72-4.62,3.62-6.4,7-13,10.45-19.49.49-.9,1-1.81,1.46-2.7.14-.27.3-.54.46-.81s.45-.78.69-1.17c1.22-2,2.59-4.08,3.91-6.16a62.11,62.11,0,0,0,3.66-6.37,24.45,24.45,0,0,0,1.29-3.28,12.46,12.46,0,0,0,.62-5.13c-1-8.63,2.92-13.25,6.84-18.25.9-1.16,1.8-2.33,2.64-3.58l2.69-4a3.56,3.56,0,0,0,.54-2c-.33-2.11-4.93-.81-7,1.08a45.57,45.57,0,0,0-5.73,7.19l-.89,1.35q-.68,1-1.32,2.1c-.69,1.13-1.35,2.26-1.94,3.34l-6.44,11-3.79,6.44c-.48.92-1.05,1.95-1.66,3a157,157,0,0,1-10.19,15.61L312.45,527c-1.36,4.36-3.17,9.67-4.59,13.47-.47,1.26-.9,2.36-1.25,3.2l-2.4,1.47a.91.91,0,0,1-.56.12,2.65,2.65,0,0,1-.72-.15c-1.6-.56-4-2.41-5.86-3.2-4.54-1.91-9.11-3.75-13.73-5.45-5.78-2.13-6.77-2.51-6.77-2.51-5.7-2.16-14.86-6.12-20.34-8.81l-15.17-18.66a49.09,49.09,0,0,1-9.1-12,37.06,37.06,0,0,1-2.71-5.88s-.19-.54.66-1.7a9.13,9.13,0,0,1,.85-1,19.89,19.89,0,0,1,1.54-1.37,39.68,39.68,0,0,1,4.46-3l3.72-2.21.3-.18L241,479c.24-.19.48-.33.72-.49,3.93-2.74,8.08-3.38,10.17-1.63a3.69,3.69,0,0,1,.79,1h0l2.36.23a34.43,34.43,0,0,0,3.71.15h.08a28.11,28.11,0,0,0,3.55-.25,16.24,16.24,0,0,0,7-2.36,13.63,13.63,0,0,0,1.2-1l.31-.25c3.34-3.06,5.52-7.83,8.33-11.69l.34-.45,4.78-6.55c2.26-3.08,1.13-5.52-.48-6.88a5.51,5.51,0,0,0-.5-.38,4,4,0,0,0-2.29-.81h0a7.24,7.24,0,0,0-3,1.68,37.64,37.64,0,0,0-4.17,4c-1,1.07-1.95,2.23-2.87,3.45l-2.81,2.06-7.77,5.71a18.79,18.79,0,0,0-2.79.28c-.79.13-1.63.3-2.5.5l-.68.17c-1.46.36-3,.79-4.46,1.26l-1.62.53a66.71,66.71,0,0,0-9.26,3.72,4.34,4.34,0,0,1-.57.28,46.68,46.68,0,0,1-7.47,1.79c-1.07.19-2.18.38-3.28.54-2.16.33-4.31.59-6.15.75l-.22,0c-.88.07-1.68.11-2.37.13h0c-.37,0-.7,0-1,0-4.69-.2-13.19,1.43-18.88,3.63Z" transform="translate(0 0)"/><path class="cls-10" d="M519.37,393.27a20.35,20.35,0,0,0,16.06,1.86c3.05-.8,5.24-1.29,6.82-1.86h9.41c-.56,6.94-2.39,14.26-5.88,14.55-5.62.48-20.6.33-25-2.37-4-2.41-9.66-7.62-13.44-12.18Z" transform="translate(0 0)"/><path class="cls-10" d="M414.92,393.27l-1,1.41-2.18,3c-2.33,3.35-8.66,2.55-10.36,1.19-1.33-1.07-.27-4,.66-5.6Z" transform="translate(0 0)"/><path class="cls-22" d="M884.74,407.68c-.48-4.84-1.08-9.64-1.76-14.41h12.34A334,334,0,0,1,858,575.93,334.25,334.25,0,0,0,884.74,407.68Z" transform="translate(0 0)"/><path class="cls-23" d="M265.1,393.27c45,150.89,184.78,260.92,350.29,260.92,123.64,0,232.93-61.4,299.08-155.36C885.12,671.29,735,802.6,554.17,802.6,352.3,802.6,188.66,639,188.66,437.09a368.56,368.56,0,0,1,2.61-43.82Z" transform="translate(0 0)"/><path class="cls-24" d="M220.73,393.27c-.24,5.26-.38,10.54-.38,15.85,0,194.69,157.83,352.51,352.51,352.51,136.38,0,254.66-77.46,313.27-190.78C832.88,697.94,707.34,787.24,560.91,787.24c-194.69,0-352.51-157.82-352.51-352.51a356.85,356.85,0,0,1,2.44-41.46Z" transform="translate(0 0)"/><g class="cls-25"><path class="cls-22" d="M539.81,779.8a326,326,0,0,1-100.48-19.42c-7.71-2.8-4.38-15.23,3.42-12.39a314.42,314.42,0,0,0,97.06,19c8.24.29,8.28,13.14,0,12.85Z" transform="translate(0 0)"/></g><g class="cls-26"><path class="cls-27" d="M418.05,752.46a56.58,56.58,0,0,0-11.39-5.06c-7.86-2.49-4.5-14.9,3.41-12.39a72.29,72.29,0,0,1,14.47,6.36c7.15,4.15.68,15.25-6.49,11.09Z" transform="translate(0 0)"/></g><g class="cls-26"><path class="cls-27" d="M231.06,511.37a226.3,226.3,0,0,0,35.09,82.36c4.68,6.85-6.45,13.28-11.1,6.49a235.69,235.69,0,0,1-36.38-85.44c-1.67-8.07,10.71-11.52,12.39-3.41Z" transform="translate(0 0)"/></g><ellipse class="cls-28" cx="554.65" cy="391.59" rx="362.86" ry="43.59"/><ellipse class="cls-29" cx="554.65" cy="391.59" rx="362.86" ry="43.59"/><ellipse class="cls-22" cx="554.65" cy="391.59" rx="362.86" ry="43.59"/><path class="cls-22" d="M904.17,396.77c0-24.07-162.45-43.58-362.85-43.58-155.13,0-287.5,11.69-339.4,28.14C240.32,362.21,383.66,348,554.65,348c200.4,0,362.85,19.51,362.85,43.59,0,5.43-8.31,10.64-23.46,15.44C900.65,403.74,904.17,400.31,904.17,396.77Z" transform="translate(0 0)"/><g class="cls-30"><path class="cls-10" d="M521.8,427.34c-15.43-14,171.57-10,184.1-10s33.73-.5,53-4c10-1.82-5.56-3.37-21.3-5.22,67.63-1.61,128.5-5.48,176.92-10.93l-.34.29c-.49.44-1,.87-1.64,1.31l-.58.42c-.28.19-.59.38-.89.56s-.47.31-.73.46-.64.37-1,.55-.55.32-.84.47l-1.06.54-1,.47-1.15.53-1.06.47c-.4.18-.82.35-1.24.52l-1.15.47-1.33.52-1.26.46-1.41.51-1.36.46c-.49.17-1,.34-1.5.5s-1,.31-1.46.46l-1.58.5-1.58.46-1.62.48-1.8.49-1.6.44-2.55.66-2.35.58-2.31.56-1.74.4c-.73.17-1.45.34-2.2.5l-1.83.4-2.26.49-1.94.4-2.33.47-2,.4-2.45.47-2,.38-2.57.47-2.08.37-2.71.47-2.07.36-2.92.48-2,.33-3.14.49-2,.31-3.51.52-1.73.26-4.35.62-1,.15q-5.57.76-11.42,1.51l-1,.13-4.89.6-1.53.18L806,423l-1.84.21-4.33.48-2,.22-4.35.46-2,.21-4.44.46-2,.2-4.64.45-1.92.18-4.94.46-1.74.16-5.4.47-1.4.12-6.14.52-.78.06q-14.31,1.17-29.57,2.17l-.4,0-7.13.45-1,.06-6.61.4-1.41.08c-2.12.13-4.24.25-6.39.36l-1.51.09-6.43.34-1.51.07-6.56.33-1.46.07-6.87.32-1.17.05-7.42.31-.72,0c-16.7.68-33.94,1.22-51.62,1.61h-.49l-8.24.17-1,0-7.82.13-1.28,0-7.65.11-1.39,0-7.65.08-1.39,0-7.88.06h-1.14l-8.36,0h-.71l-9.13,0C537.66,433,525.07,430.31,521.8,427.34Z" transform="translate(0 0)"/><path class="cls-10" d="M365.82,428.81c-104.36-7.65-174-21.46-174-37.22,0-10.81,32.76-20.69,87-28.3,8.79.13,17.19.5,25.08,1.1a5.49,5.49,0,0,0-.13,1c0,4.49,5.64,8.81,16.12,12.89-27.69,3-67.13,4.63-58.12,5.41,15.86,1.36,61.12-.15,61.12-.15,30.32,3-50.15,3-57.71,8.2s144,.27,173.74,9.5-125.36,3.47-156.31,9.33C257.72,415.25,329.22,422.64,365.82,428.81Z" transform="translate(0 0)"/></g><path class="cls-31" d="M306.66,359.77c-2,1.84-3,3.7-3,5.6,0,24.08,162.45,43.59,362.85,43.59,95.91,0,183.11-4.47,248-11.77-22.89,21.42-175.28,38-359.88,38-200.4,0-362.86-19.51-362.86-43.58C191.79,379,236,367.72,306.66,359.77Z" transform="translate(0 0)"/></g><path class="cls-32" d="M803,78.5A11.5,11.5,0,1,0,814.5,67,11.5,11.5,0,0,0,803,78.5Z" transform="translate(0 0)"/><path class="cls-33" d="M87.5,423A11.5,11.5,0,1,1,99,411.5,11.5,11.5,0,0,1,87.5,423Z" transform="translate(0 0)"/></g></g></svg>