<svg xmlns="http://www.w3.org/2000/svg" xmlns:xlink="http://www.w3.org/1999/xlink" viewBox="0 0 284.48 192.1"><defs><style>.cls-1{isolation:isolate;}.cls-2{fill:url(#radial-gradient);}.cls-3{fill:#5bc8ab;}.cls-16,.cls-18,.cls-20,.cls-4,.cls-5{opacity:0.45;}.cls-16,.cls-18,.cls-26,.cls-4,.cls-5{mix-blend-mode:multiply;}.cls-15,.cls-26,.cls-5{fill:#4b7547;}.cls-6{fill:url(#radial-gradient-2);}.cls-7{fill:url(#radial-gradient-3);}.cls-8{fill:url(#radial-gradient-4);}.cls-9{fill:url(#radial-gradient-5);}.cls-10{fill:url(#radial-gradient-6);}.cls-11{fill:url(#radial-gradient-7);}.cls-12{fill:url(#radial-gradient-8);}.cls-13{fill:url(#radial-gradient-9);}.cls-14{fill:#3a7b0f;}.cls-16{fill:#7d4427;}.cls-17,.cls-22{fill:#cae21a;}.cls-17,.cls-19,.cls-21,.cls-26{opacity:0.25;}.cls-17,.cls-19,.cls-20,.cls-21{mix-blend-mode:screen;}.cls-18{fill:#f28d9f;}.cls-19{fill:#eb8a45;}.cls-23{fill:url(#radial-gradient-10);}.cls-24{fill:#468502;}.cls-25{opacity:0.71;}</style><radialGradient id="radial-gradient" cx="223.45" cy="218.07" r="280.65" gradientUnits="userSpaceOnUse"><stop offset="0.47" stop-color="#2663af"/><stop offset="1" stop-color="#2548a5"/></radialGradient><radialGradient id="radial-gradient-2" cx="233.73" cy="226.94" r="322.96" gradientUnits="userSpaceOnUse"><stop offset="0.07" stop-color="#75b443"/><stop offset="1" stop-color="#5bb443"/></radialGradient><radialGradient id="radial-gradient-3" cx="233.74" cy="226.94" r="322.98" xlink:href="#radial-gradient-2"/><radialGradient id="radial-gradient-4" cx="233.73" cy="226.94" r="322.96" xlink:href="#radial-gradient-2"/><radialGradient id="radial-gradient-5" cx="233.73" cy="226.93" r="322.96" xlink:href="#radial-gradient-2"/><radialGradient id="radial-gradient-6" cx="233.73" cy="226.94" r="322.96" xlink:href="#radial-gradient-2"/><radialGradient id="radial-gradient-7" cx="233.73" cy="226.94" r="322.96" xlink:href="#radial-gradient-2"/><radialGradient id="radial-gradient-8" cx="233.73" cy="226.94" r="322.96" xlink:href="#radial-gradient-2"/><radialGradient id="radial-gradient-9" cx="233.73" cy="226.94" r="322.96" xlink:href="#radial-gradient-2"/><radialGradient id="radial-gradient-10" cx="248.99" cy="268.55" r="100.29" gradientTransform="translate(-109.25 -344.77) scale(1.01 1.41)" gradientUnits="userSpaceOnUse"><stop offset="0.12" stop-color="#5bb443"/><stop offset="1" stop-color="#5bb443"/></radialGradient></defs><g class="cls-1"><g id="OBJECTS"><path class="cls-2" d="M109.19,284.21a142.24,142.24,0,1,0,282.44,0Z" transform="translate(-108.17 -251.41)"/><path class="cls-3" d="M109.19,284.21a142.24,142.24,0,1,0,282.44,0Z" transform="translate(-108.17 -251.41)"/><g class="cls-4"><path class="cls-5" d="M314.18,284.21h-9.92c1,1.32,2.14,2.78,3.17,4.2l.85,1.17c.91,1.3,3.37,1,4,.46s-.18-2.24-.51-2.54S312.8,285.42,314.18,284.21Z" transform="translate(-108.17 -251.41)"/><path class="cls-5" d="M296.81,286.11c2.09,2.14,3.68.89,5.69-.58a7.62,7.62,0,0,0-1.15-1.32H295Z" transform="translate(-108.17 -251.41)"/><path class="cls-5" d="M256.1,293.52c2.19.19,8,.13,9.75-.92a25.24,25.24,0,0,0,5.73-5.37s.9-1.21,2-3H253.85C253.47,286.93,254.05,293.35,256.1,293.52Z" transform="translate(-108.17 -251.41)"/><path class="cls-5" d="M364.87,284.21a14.78,14.78,0,0,0,1.39,2.41s2.37,3.43-2.72,6.34c-1.11.63-4.56-.64-5.25-1.92a6.37,6.37,0,0,1-.75-3.41,7.75,7.75,0,0,0-.52-3.42h-38.2c-.61,1.16-1.37,2.64-1.23,3.42a17,17,0,0,0,3.11,5.69s.35.43,2.22.83a23.88,23.88,0,0,0,6,.5c2.37-.17,4.49.59,4.72,1.67l0,.84c.2,5.53-2.45,8.08-7.84,7.95l-1.15,0c-1.62.87-4.66.77-6.77-.24a45.2,45.2,0,0,0-4.19-1.71c-2.17-.95-5.09-1.28-6.48-.74l-.77,1-.71.89c-.23,1.71-2.19,2.32-4.36,1.35l-8.45-3.78c-2.17-1-2.27-6.8-3.31-7.88s-3.81-1.72-6.16-1.43a106.66,106.66,0,0,0-14.31,2.84,15.26,15.26,0,0,1-4.54.89,10.22,10.22,0,0,0-7.19,2.92l-1.19,1.53a46,46,0,0,0-3.56,5.09c-1,1.75-1.49,3.86-2.69,5.44-.94,1.21-3.06,1.54-3.92,2.77-4.13,5.9-6.93,12.32-5.38,19.73.71,3.41.35,4,.35,4-1.24,2-1.49,7.36-1.23,8.5a19.52,19.52,0,0,0,3.11,5.5l6.55,8.46c1.5,1.81,3.38,5.46,5.9,6,3,.64,3-3,6.18-2.7a20.51,20.51,0,0,0,12.3-2.63c2.1-1.17,4.68-1.6,5.75,2.07l.32,1.09c1.75.77,7.56,4.47,7.45,6.54s-1.21,6.75-.68,7.51a52.89,52.89,0,0,1,2.87,5.25l4.15,6.8c.31,2.36,1.26,9.1.65,10.74s-1.64,4.8-2.27,7a13.5,13.5,0,0,0-.44,4.35c.74,2.25,1.9,5.95,2.59,8.22,0,0,1.12,3.69,2.18,7.65.47,1.74.43,3.72,1.24,5.25l.93,1.79a142.25,142.25,0,0,0,45.38-26.71,27.39,27.39,0,0,0,1.1-7.83,19.33,19.33,0,0,0-1.1-5.38c-2.94-8.45-.7-16,5.62-21.2,6.88-5.65,12.59-16.44,12.59-16.44,1.11-2.1,2.61-7.08,1.91-7.92s-4.17-.13-5.27.36a16,16,0,0,1-6.3.48,7.41,7.41,0,0,1-4.52-2.32c-3.64-4.49-6.1-10-8.93-15.12-1.61-2.93-4.46-6.14-4.14-8.93.47-4.13-1.95-5.9-3.69-8.49l-1-1.55c-1-1.83,1.52-1.28,2.51-.37a25.58,25.58,0,0,1,3.85,5.44c1.32,2.26,2.65,4.51,4,6.77a59.6,59.6,0,0,0,4.61,7.25l1.8,6.72c.7,2.26,1.72,5.18,2.27,6.49l.93.57c.48.3,1.81-.85,2.78-1.26,1.77-.74,3.55-1.46,5.34-2.12l2.64-1c2.22-.84,5.78-2.39,7.91-3.43l5.91-7.27a19.14,19.14,0,0,0,4.59-6.94s.29-.85-2.92-2.76l-1.65-1c-1.84-1.42-3.89-1.62-4.55-.45l-.92.08c-1.84.18-4.13,0-5.57-.95-1.65-1.13-2.58-3.3-3.83-5l-2-2.73a1.88,1.88,0,0,1,1.27-3.13c.72.06,2.48,1.66,3.92,3.55l4.11,3c2.37,0,7.37,2,8.29,2.52s6.38,1.44,8.21,1.36a22.06,22.06,0,0,1,7.35,1.41l.28.12a143,143,0,0,0,.35-36.8Z" transform="translate(-108.17 -251.41)"/><path class="cls-5" d="M189.14,426.78a36.4,36.4,0,0,1,7.52-2.86s.56-.13,1.17-1.52c1.67-3.79,3.68-8.13,3.24-12-.75-6.58,3.21-12,3.21-12a24.77,24.77,0,0,0,3.45-7.64s.89-4-1.23-5.31a73.21,73.21,0,0,0-7.13-3.83c-2.16-1-5.72-2.58-7.89-3.54,0,0-.2-.09-2.18-.78a22,22,0,0,0-7.75-.95c-2.36.17-3.63-1.49-2.81-3.7,0,0,1.13-3.09-1.84-6.16a11.61,11.61,0,0,0-5.06-3.13,23.5,23.5,0,0,1-7.6-3.68c-1.72.56-5-7.09-6.82-7.74-3.17-1.11-6.81,1.81-9.86.09-1.75-1-6.74-3.22-8.14-2.82s-6.09,3.88-7.43,5-4.18,1.25-6.3.32l-2,.2c-3.4.35-6.32-1.63-6.08-5.16a30.52,30.52,0,0,1,.36-3.44c.39-2.13-2.54-4.55-4.22-5.17a141.16,141.16,0,0,0,6.14,17c2.11,1,4.53.29,4.72-.15s1.38.86,2.62,2.88q.41,2.64.82,5.28c-.5,1.36-1.12,3.26-1.66,5.06a142.83,142.83,0,0,0,61,57.83A6.13,6.13,0,0,1,189.14,426.78Z" transform="translate(-108.17 -251.41)"/><path class="cls-5" d="M126.93,328.84a6,6,0,0,1,2,2.34c2.36,4.9,4.11,3.71,4.11,3.71,2-1.33,1.86-3.35-.22-4.49Z" transform="translate(-108.17 -251.41)"/><path class="cls-5" d="M109.19,284.21a143.23,143.23,0,0,0-1,17.05c0,3.77.15,7.51.44,11.2.53-.13,1-.33,1.12-.54,1.93-6,6-1.26,8.82-1.55,2.13-.22,3.06,2.1,3,4.7a6.61,6.61,0,0,0,2,5c1.81,1.51,3.34,1.49,3.42-.07l-.15-1.18-.21-1.69a62.49,62.49,0,0,1-1-7.6s-.37-5.7,6.44-9c3.06-1.47,5.18-2.95,4-6.68a2,2,0,0,1,.17-1.55,42.93,42.93,0,0,1,7.34-7.38,10.6,10.6,0,0,0,.9-.79Z" transform="translate(-108.17 -251.41)"/><path class="cls-5" d="M140.7,331.69a5.15,5.15,0,0,0-3.26,1.49c-1.67,1.66-1.09,3,1.28,3a57.6,57.6,0,0,0,8.4-.71c.06-.19-1.43-1.55-3.3-3A5.73,5.73,0,0,0,140.7,331.69Z" transform="translate(-108.17 -251.41)"/><path class="cls-5" d="M112.1,332.5l.17-1.19a2.77,2.77,0,0,0-1.25-1.56c.28,1.35.58,2.7.89,4.05C112,333.42,112,333,112.1,332.5Z" transform="translate(-108.17 -251.41)"/></g><path class="cls-6" d="M305,284.76l.85,1.17c.91,1.3,3.37,1,4,.46s.1-1.56-.26-2.18h-5C304.73,284.4,304.87,284.58,305,284.76Z" transform="translate(-108.17 -251.41)"/><path class="cls-7" d="M113,338.21c.66,2.48,1.39,4.94,2.19,7.36a30.38,30.38,0,0,1,.34-3.15C115.83,340.92,114.45,339.27,113,338.21Z" transform="translate(-108.17 -251.41)"/><path class="cls-8" d="M253.67,289.87c2.19.19,8,.13,9.75-.92a25.11,25.11,0,0,0,5.23-4.74H251.39C251.6,286.91,252.32,289.76,253.67,289.87Z" transform="translate(-108.17 -251.41)"/><path class="cls-9" d="M138.27,328a5.15,5.15,0,0,0-3.26,1.49c-1.67,1.67-1.09,3,1.28,3a58,58,0,0,0,8.4-.7,15.76,15.76,0,0,0-3.3-3A5.85,5.85,0,0,0,138.27,328Z" transform="translate(-108.17 -251.41)"/><path class="cls-10" d="M119.12,311.42a6.61,6.61,0,0,0,2,5c1.81,1.52,3.34,1.49,3.41-.06l-.14-1.19-.21-1.69a60.33,60.33,0,0,1-1-7.6s-.37-5.69,6.44-8.95c3.06-1.47,5.18-3,4-6.69a2,2,0,0,1,.16-1.54,37.33,37.33,0,0,1,4.07-4.53H109.19a145.36,145.36,0,0,0-1,17.05c0,1.68,0,3.35.1,5,2.11-2.75,5.39.69,7.84.44C118.24,306.5,119.18,308.83,119.12,311.42Z" transform="translate(-108.17 -251.41)"/><path class="cls-11" d="M364.31,284.21c.24,1.26,0,3.28-3.2,5.1-1.11.64-4.56-.63-5.25-1.92a6.48,6.48,0,0,1-.76-3.18H315.22a17.93,17.93,0,0,0,3,5.46s.35.43,2.22.83a23.88,23.88,0,0,0,6,.5c2.37-.16,4.49.59,4.71,1.68l0,.83c.2,5.54-2.44,8.08-7.83,7.95l-1.15,0c-1.62.88-4.67.77-6.78-.23a44.18,44.18,0,0,0-4.18-1.72c-2.18-.94-5.09-1.27-6.48-.73l-.77,1-.71.89c-.23,1.72-2.19,2.32-4.36,1.35l-8.45-3.77c-2.17-1-2.27-6.8-3.31-7.89s-3.81-1.72-6.17-1.43a106.65,106.65,0,0,0-14.3,2.84,15.26,15.26,0,0,1-4.54.89,10.21,10.21,0,0,0-7.2,2.93l-1.18,1.52a44.27,44.27,0,0,0-3.56,5.09c-1,1.75-1.49,3.87-2.7,5.44-.93,1.21-3.05,1.54-3.91,2.77-4.14,5.9-6.93,12.32-5.38,19.73.71,3.42.34,4,.34,4-1.23,2-1.48,7.36-1.22,8.5a19.39,19.39,0,0,0,3.11,5.5l6.55,8.46c1.5,1.82,3.38,5.46,5.9,6,3,.64,3-3,6.18-2.69a20.58,20.58,0,0,0,12.3-2.63c2.1-1.18,4.68-1.61,5.75,2.07l.32,1.09c1.74.76,7.56,4.46,7.45,6.54s-1.21,6.74-.68,7.5a56.4,56.4,0,0,1,2.87,5.25q2.08,3.4,4.15,6.81c.31,2.35,1.26,9.1.65,10.74s-1.64,4.8-2.27,7a13.43,13.43,0,0,0-.44,4.34c.74,2.25,1.9,5.95,2.59,8.22,0,0,1.12,3.7,2.18,7.65.47,1.74.43,3.72,1.24,5.26,1,1.88,1.94,3.73,2.74,5.65a141.8,141.8,0,0,0,34.16-17.65c-.05-.34-.11-.69-.15-1a6.44,6.44,0,0,1,1.16-4.65c2.11-2.24,5-3.77,7.15-6l1.23-1.22a27.28,27.28,0,0,0,1.12-7.88,19.36,19.36,0,0,0-1.1-5.39c-2.94-8.45-.71-16,5.62-21.2,6.87-5.64,12.59-16.43,12.59-16.43,1.11-2.1,2.61-7.08,1.91-7.93s-4.17-.13-5.27.37a16.25,16.25,0,0,1-6.3.47,7.43,7.43,0,0,1-4.52-2.31c-3.64-4.5-6.1-10-8.94-15.13-1.6-2.92-4.45-6.14-4.13-8.92.47-4.13-2-5.91-3.69-8.5l-1-1.54c-1-1.84,1.52-1.28,2.51-.38a25.24,25.24,0,0,1,3.84,5.44l4,6.77a58.83,58.83,0,0,0,4.61,7.25l1.8,6.72c.7,2.26,1.72,5.18,2.27,6.49l.93.57c.48.3,1.8-.85,2.78-1.26,1.77-.74,3.54-1.46,5.34-2.12l2.64-1c2.22-.84,5.78-2.38,7.91-3.43l5.91-7.26a19.26,19.26,0,0,0,4.59-6.95s.29-.85-2.92-2.76l-1.65-1c-1.84-1.41-3.89-1.62-4.55-.45l-.92.09c-1.84.17-4.13,0-5.57-1-1.65-1.12-2.58-3.3-3.83-5l-2-2.72a1.89,1.89,0,0,1,1.27-3.14c.71.06,2.47,1.66,3.91,3.55l4.12,3c2.37,0,7.37,2,8.29,2.52s6.38,1.44,8.21,1.36a22.32,22.32,0,0,1,7.35,1.41,9.71,9.71,0,0,1,3,2,143.7,143.7,0,0,0,1.12-17.95,145.37,145.37,0,0,0-1-17.05Z" transform="translate(-108.17 -251.41)"/><path class="cls-12" d="M124.49,325.2a5.91,5.91,0,0,1,2,2.34c2.36,4.89,4.11,3.7,4.11,3.7,2-1.33,1.85-3.35-.22-4.48Z" transform="translate(-108.17 -251.41)"/><path class="cls-13" d="M204.07,381.74a71.84,71.84,0,0,0-7.13-3.82c-2.17-1-5.72-2.58-7.89-3.54,0,0-.2-.09-2.18-.78a21.9,21.9,0,0,0-7.75-1c-2.36.17-3.63-1.49-2.82-3.7,0,0,1.14-3.09-1.84-6.16a11.55,11.55,0,0,0-5.05-3.13,23.5,23.5,0,0,1-7.6-3.68c-1.72.56-5-7.09-6.83-7.74-3.16-1.11-6.8,1.82-9.85.1-1.75-1-6.74-3.23-8.14-2.82s-6.09,3.88-7.44,5-4.17,1.26-6.29.32l-2,.2a5.91,5.91,0,0,1-4.64-1.34c.6,1.67,1.24,3.32,1.9,5,1.79.42,3.51-.15,3.67-.52s1.38.86,2.62,2.88c.27,1.76.54,3.53.82,5.29-.45,1.22-1,2.88-1.5,4.52A142.91,142.91,0,0,0,183.94,427c1-1.86,2-3.47,2.77-3.91a35.82,35.82,0,0,1,7.52-2.85s.55-.14,1.17-1.53c1.67-3.78,3.68-8.13,3.24-12-.75-6.57,3.21-12,3.21-12a24.82,24.82,0,0,0,3.45-7.63S206.19,383.06,204.07,381.74Z" transform="translate(-108.17 -251.41)"/><path class="cls-14" d="M138.27,328a5.15,5.15,0,0,0-3.26,1.49c-1.67,1.67-1.09,3,1.28,3a58,58,0,0,0,8.4-.7,15.76,15.76,0,0,0-3.3-3A5.85,5.85,0,0,0,138.27,328Z" transform="translate(-108.17 -251.41)"/><path class="cls-15" d="M253.67,289.87c2.19.19,8,.13,9.75-.92a25.11,25.11,0,0,0,5.23-4.74H251.39C251.6,286.91,252.32,289.76,253.67,289.87Z" transform="translate(-108.17 -251.41)"/><path class="cls-15" d="M305,284.76l.85,1.17c.91,1.3,3.37,1,4,.46s.1-1.56-.26-2.18h-5C304.73,284.4,304.87,284.58,305,284.76Z" transform="translate(-108.17 -251.41)"/><path class="cls-14" d="M113,338.21c.66,2.48,1.39,4.94,2.19,7.36a30.38,30.38,0,0,1,.34-3.15C115.83,340.92,114.45,339.27,113,338.21Z" transform="translate(-108.17 -251.41)"/><path class="cls-14" d="M364.31,284.21c.24,1.26,0,3.28-3.2,5.1-1.11.64-4.56-.63-5.25-1.92a6.48,6.48,0,0,1-.76-3.18H315.22a17.93,17.93,0,0,0,3,5.46s.35.43,2.22.83a23.88,23.88,0,0,0,6,.5c2.37-.16,4.49.59,4.71,1.68l0,.83c.2,5.54-2.44,8.08-7.83,7.95l-1.15,0c-1.62.88-4.67.77-6.78-.23a44.18,44.18,0,0,0-4.18-1.72c-2.18-.94-5.09-1.27-6.48-.73l-.77,1-.71.89c-.23,1.72-2.19,2.32-4.36,1.35l-8.45-3.77c-2.17-1-2.27-6.8-3.31-7.89s-3.81-1.72-6.17-1.43a106.65,106.65,0,0,0-14.3,2.84,15.26,15.26,0,0,1-4.54.89,10.21,10.21,0,0,0-7.2,2.93l-1.18,1.52a44.27,44.27,0,0,0-3.56,5.09c-1,1.75-1.49,3.87-2.7,5.44-.93,1.21-3.05,1.54-3.91,2.77-4.14,5.9-6.93,12.32-5.38,19.73.71,3.42.34,4,.34,4-1.23,2-1.48,7.36-1.22,8.5a19.39,19.39,0,0,0,3.11,5.5l6.55,8.46c1.5,1.82,3.38,5.46,5.9,6,3,.64,3-3,6.18-2.69a20.58,20.58,0,0,0,12.3-2.63c2.1-1.18,4.68-1.61,5.75,2.07l.32,1.09c1.74.76,7.56,4.46,7.45,6.54s-1.21,6.74-.68,7.5a56.4,56.4,0,0,1,2.87,5.25q2.08,3.4,4.15,6.81c.31,2.35,1.26,9.1.65,10.74s-1.64,4.8-2.27,7a13.43,13.43,0,0,0-.44,4.34c.74,2.25,1.9,5.95,2.59,8.22,0,0,1.12,3.7,2.18,7.65.47,1.74.43,3.72,1.24,5.26,1,1.88,1.94,3.73,2.74,5.65a141.8,141.8,0,0,0,34.16-17.65c-.05-.34-.11-.69-.15-1a6.44,6.44,0,0,1,1.16-4.65c2.11-2.24,5-3.77,7.15-6l1.23-1.22a27.28,27.28,0,0,0,1.12-7.88,19.36,19.36,0,0,0-1.1-5.39c-2.94-8.45-.71-16,5.62-21.2,6.87-5.64,12.59-16.43,12.59-16.43,1.11-2.1,2.61-7.08,1.91-7.93s-4.17-.13-5.27.37a16.25,16.25,0,0,1-6.3.47,7.43,7.43,0,0,1-4.52-2.31c-3.64-4.5-6.1-10-8.94-15.13-1.6-2.92-4.45-6.14-4.13-8.92.47-4.13-2-5.91-3.69-8.5l-1-1.54c-1-1.84,1.52-1.28,2.51-.38a25.24,25.24,0,0,1,3.84,5.44l4,6.77a58.83,58.83,0,0,0,4.61,7.25l1.8,6.72c.7,2.26,1.72,5.18,2.27,6.49l.93.57c.48.3,1.8-.85,2.78-1.26,1.77-.74,3.54-1.46,5.34-2.12l2.64-1c2.22-.84,5.78-2.38,7.91-3.43l5.91-7.26a19.26,19.26,0,0,0,4.59-6.95s.29-.85-2.92-2.76l-1.65-1c-1.84-1.41-3.89-1.62-4.55-.45l-.92.09c-1.84.17-4.13,0-5.57-1-1.65-1.12-2.58-3.3-3.83-5l-2-2.72a1.89,1.89,0,0,1,1.27-3.14c.71.06,2.47,1.66,3.91,3.55l4.12,3c2.37,0,7.37,2,8.29,2.52s6.38,1.44,8.21,1.36a22.32,22.32,0,0,1,7.35,1.41,9.71,9.71,0,0,1,3,2,143.7,143.7,0,0,0,1.12-17.95,145.37,145.37,0,0,0-1-17.05Z" transform="translate(-108.17 -251.41)"/><path class="cls-14" d="M204.07,381.74a71.84,71.84,0,0,0-7.13-3.82c-2.17-1-5.72-2.58-7.89-3.54,0,0-.2-.09-2.18-.78a21.9,21.9,0,0,0-7.75-1c-2.36.17-3.63-1.49-2.82-3.7,0,0,1.14-3.09-1.84-6.16a11.55,11.55,0,0,0-5.05-3.13,23.5,23.5,0,0,1-7.6-3.68c-1.72.56-5-7.09-6.83-7.74-3.16-1.11-6.8,1.82-9.85.1-1.75-1-6.74-3.23-8.14-2.82s-6.09,3.88-7.44,5-4.17,1.26-6.29.32l-2,.2a5.91,5.91,0,0,1-4.64-1.34c.6,1.67,1.24,3.32,1.9,5,1.79.42,3.51-.15,3.67-.52s1.38.86,2.62,2.88c.27,1.76.54,3.53.82,5.29-.45,1.22-1,2.88-1.5,4.52A142.91,142.91,0,0,0,183.94,427c1-1.86,2-3.47,2.77-3.91a35.82,35.82,0,0,1,7.52-2.85s.55-.14,1.17-1.53c1.67-3.78,3.68-8.13,3.24-12-.75-6.57,3.21-12,3.21-12a24.82,24.82,0,0,0,3.45-7.63S206.19,383.06,204.07,381.74Z" transform="translate(-108.17 -251.41)"/><path class="cls-14" d="M119.12,311.42a6.61,6.61,0,0,0,2,5c1.81,1.52,3.34,1.49,3.41-.06l-.14-1.19-.21-1.69a60.33,60.33,0,0,1-1-7.6s-.37-5.69,6.44-8.95c3.06-1.47,5.18-3,4-6.69a2,2,0,0,1,.16-1.54,37.33,37.33,0,0,1,4.07-4.53H109.19a145.36,145.36,0,0,0-1,17.05c0,1.68,0,3.35.1,5,2.11-2.75,5.39.69,7.84.44C118.24,306.5,119.18,308.83,119.12,311.42Z" transform="translate(-108.17 -251.41)"/><path class="cls-14" d="M124.49,325.2a5.91,5.91,0,0,1,2,2.34c2.36,4.89,4.11,3.7,4.11,3.7,2-1.33,1.85-3.35-.22-4.48Z" transform="translate(-108.17 -251.41)"/><path class="cls-16" d="M181.81,410.5c-2,3.6-4.39,7.58-6.78,11.4,2.9,1.82,5.88,3.53,8.91,5.14,1-1.86,2-3.47,2.77-3.91a35.82,35.82,0,0,1,7.52-2.85s.55-.14,1.17-1.53c1.67-3.78,3.68-8.13,3.24-12-.75-6.57,3.21-12,3.21-12a24.82,24.82,0,0,0,3.45-7.63s.89-4-1.23-5.32a71.84,71.84,0,0,0-7.13-3.82c-2.17-1-5.72-2.58-7.89-3.54,0,0-.2-.09-2.18-.78a21.9,21.9,0,0,0-7.75-1c-2.36.17-3.63-1.49-2.82-3.7,0,0,1.14-3.09-1.84-6.16a11.55,11.55,0,0,0-5.05-3.13,23.5,23.5,0,0,1-7.6-3.68c-1.72.56-5-7.09-6.83-7.74-3.16-1.11-6.8,1.82-9.85.1-1.75-1-6.74-3.23-8.14-2.82s-6.09,3.88-7.44,5-4.17,1.26-6.29.32l-2,.2a5.9,5.9,0,0,1-4.64-1.34q.9,2.51,1.91,5a5.42,5.42,0,0,0,1.18.14c-.36-.87-.52-1.67.75-1.79,3.83-.39,8.43,1.15,14.18-1.92s5,2.68,11.89,3.45,13,4.6,20.31,10,1.16,6.51,1.92,16.86,11.5,5.75,18.4,13.42S186.79,401.68,181.81,410.5Z" transform="translate(-108.17 -251.41)"/><path class="cls-16" d="M137.87,284.21H123.18c-6.46,4.24-7.63,8.66-13.06,12.82a15.53,15.53,0,0,1-1.91,1.22c0,1,0,2,0,3,0,1.68,0,3.35.1,5,2.11-2.75,5.39.69,7.84.44,2.13-.22,3.07,2.11,3,4.7a6.61,6.61,0,0,0,2,5c1.81,1.52,3.34,1.49,3.41-.06l-.14-1.19-.21-1.69a60.33,60.33,0,0,1-1-7.6s-.37-5.69,6.44-8.95c3.06-1.47,5.18-3,4-6.69a2,2,0,0,1,.16-1.54A37.33,37.33,0,0,1,137.87,284.21Z" transform="translate(-108.17 -251.41)"/><path class="cls-16" d="M124.49,325.2a5.91,5.91,0,0,1,2,2.34c2.36,4.89,4.11,3.7,4.11,3.7,2-1.33,1.85-3.35-.22-4.48Z" transform="translate(-108.17 -251.41)"/><path class="cls-16" d="M138.27,328a5.15,5.15,0,0,0-3.26,1.49c-1.67,1.67-1.1,3,1.28,3a58,58,0,0,0,8.4-.7,15.76,15.76,0,0,0-3.3-3A5.85,5.85,0,0,0,138.27,328Z" transform="translate(-108.17 -251.41)"/><path class="cls-16" d="M115.56,342.42c.27-1.5-1.11-3.15-2.53-4.21.66,2.48,1.39,4.94,2.19,7.36A30.38,30.38,0,0,1,115.56,342.42Z" transform="translate(-108.17 -251.41)"/><path class="cls-16" d="M388.63,317.27h0l.17.08h0l.3.15h0l.35.19.05,0a8.63,8.63,0,0,1,.91.59l.06,0,.44.34.07.06.5.45q.54-4.32.82-8.71c-2.66-.07-5-1.22-11.87-2.21-9.61-1.37-18.18-8.92-24.36-10s-4.12,4.12-4.8,9.26,3.43,9.61,7.89,13.73-4.12,6.17-10.64,6.86-2.4-6.52-6.86-12.35-13.38-11-15.78-7.89,3.08,10.29,1.71,19.9,11.67,18.87,17.84,23-3.08,9.6-8.57,17.49-3.44,15.1-10.3,24,0,12.7-7.89,17.16-13.38-10.64-14.07-16.13-3.09-9.61-6.86-16.81-14.07-29.17-18.18-29.51-5.15-1-12.36,1-18.87-4.8-19.21-8.23,1.37-10.3-4.46-14.07c-4.73-3.06-1.12-12.42.42-15.87a2.27,2.27,0,0,0-.39.43h0a30.85,30.85,0,0,0-5.45,11.79,21.58,21.58,0,0,0-.33,2.56c0,.44,0,.87,0,1.31a19.84,19.84,0,0,0,.43,4.07c.09.43.16.81.22,1.15,0,.17.05.34.08.49.29,2,0,2.38,0,2.38-1.23,2-1.48,7.36-1.22,8.5a19.39,19.39,0,0,0,3.11,5.5l6.55,8.46c.56.68,1.18,1.62,1.86,2.55l.35.47c.23.31.48.61.73.9a10,10,0,0,0,.78.81,5.77,5.77,0,0,0,1.27.92,3.43,3.43,0,0,0,.91.33c1.9.4,2.6-.86,3.63-1.8a3.16,3.16,0,0,1,2-.9,3.53,3.53,0,0,1,.56,0c.55,0,1.09.07,1.63.08a20.43,20.43,0,0,0,10.67-2.71c1.31-.74,2.81-1.18,4-.51a2.61,2.61,0,0,1,.68.54,3.88,3.88,0,0,1,.48.66,6.16,6.16,0,0,1,.58,1.38c0,.09.05.17.07.25l.11.38.06.19.08.27a24.05,24.05,0,0,1,3.6,2.17l.35.25a19.89,19.89,0,0,1,2.15,1.81l0,0,0,0a3.61,3.61,0,0,1,1.29,2.25h0c0,.39-.07.87-.15,1.4,0,.17-.05.35-.07.54-.17,1.11-.38,2.36-.5,3.4q-.06.53-.09,1a2.33,2.33,0,0,0,.13,1.2c.27.38.72,1.16,1.25,2.12.39.71.81,1.52,1.22,2.33l.4.8,2.53,4.15,1.62,2.66c.11.86.31,2.32.49,3.9l0,.18c.05.49.11,1,.15,1.47s.1,1.15.13,1.69a10.79,10.79,0,0,1-.14,3.5c-.54,1.43-1.39,4-2,6.14l-.25.88a11.32,11.32,0,0,0-.34,1.61c-.07.51-.1,1-.12,1.39,0,.2,0,.39,0,.55,0,.49,0,.79,0,.79.09.28.19.59.3.91.62,1.93,1.42,4.46,2,6.4.1.32.19.63.28.91,0,0,.51,1.69,1.17,4l.09.3c.29,1,.6,2.17.92,3.34.23.87.34,1.8.49,2.71a8.28,8.28,0,0,0,.75,2.55c1,1.88,1.94,3.73,2.74,5.65a141.8,141.8,0,0,0,34.16-17.65c-.05-.34-.11-.69-.15-1a7.43,7.43,0,0,1,.54-3.7,3.4,3.4,0,0,1,.62-1,21.94,21.94,0,0,1,2.61-2.29l.93-.71a34.45,34.45,0,0,0,3.61-3l1.21-1.2,0,0h0a27.3,27.3,0,0,0,1.12-7.89,19.24,19.24,0,0,0-.68-4c-.12-.43-.26-.89-.42-1.36-.23-.66-.42-1.3-.58-1.94a18,18,0,0,1,2.24-14.94,20.07,20.07,0,0,1,4-4.32c.43-.35.85-.72,1.27-1.11.63-.58,1.25-1.2,1.85-1.85.4-.43.79-.87,1.18-1.31,1-1.12,1.86-2.27,2.7-3.41.17-.22.34-.45.5-.68a83.6,83.6,0,0,0,4.69-7.34l.33-.61a.86.86,0,0,1,.07-.12,21.88,21.88,0,0,0,1.27-3.21c.58-1.81,1-3.69.76-4.46a.7.7,0,0,0-.12-.26c-.7-.84-4.17-.13-5.27.37-.14.06-.31.11-.5.17a12.07,12.07,0,0,1-2.18.34l-.9,0a20.5,20.5,0,0,1-2.72-.08,7.83,7.83,0,0,1-3.85-1.63l-.35-.32-.32-.36c-.64-.79-1.23-1.62-1.8-2.46s-1-1.48-1.44-2.24c-.36-.59-.72-1.19-1.06-1.8-1.41-2.49-2.71-5.06-4.07-7.58-.19-.35-.37-.7-.57-1a2.58,2.58,0,0,0-.18-.32c-.08-.15-.17-.3-.26-.45-.48-.79-1-1.59-1.52-2.4a23.5,23.5,0,0,1-1.43-2.48,9.66,9.66,0,0,1-.5-1.28,4.62,4.62,0,0,1-.24-2c.38-3.36-1.14-5.16-2.66-7.1-.35-.45-.71-.91-1-1.4l-1-1.54a1.39,1.39,0,0,1-.21-.8c.13-.82,1.92-.32,2.72.42a17.78,17.78,0,0,1,2.23,2.8l.35.52.51.82c.27.44.53.88.75,1.3l2.51,4.27c.49.83,1,1.67,1.48,2.5.18.36.41.76.64,1.18a60.83,60.83,0,0,0,4,6.07l1.8,6.72c.52,1.7,1.23,3.76,1.78,5.24.18.5.35.92.49,1.25l.93.57a.4.4,0,0,0,.22.05,1.09,1.09,0,0,0,.28-.06c.62-.22,1.55-.94,2.28-1.25,1.77-.74,3.54-1.46,5.34-2.12l2.64-1c2.22-.84,5.78-2.38,7.91-3.43l5.91-7.26a19.46,19.46,0,0,0,3.54-4.66,14.17,14.17,0,0,0,1.05-2.29s.08-.21-.25-.66a4.64,4.64,0,0,0-.33-.38,7.4,7.4,0,0,0-.61-.54,16,16,0,0,0-1.73-1.18l-1.45-.86-.11-.07-.09-.05-.28-.19c-1.53-1.06-3.15-1.31-4-.63a1.39,1.39,0,0,0-.31.37h0l-.92.09c-.46,0-.95.06-1.44.06h0a13,13,0,0,1-1.39-.1,6.32,6.32,0,0,1-2.71-.92,5.45,5.45,0,0,1-.47-.37l-.12-.1c-1.3-1.19-2.15-3.05-3.24-4.55l-.13-.17c-1.26-1.74-1.86-2.55-1.86-2.55a1.81,1.81,0,0,1,.19-2.68l.19-.15a1.56,1.56,0,0,1,.89-.31h0a2.68,2.68,0,0,1,1.17.65,14.31,14.31,0,0,1,1.63,1.56c.37.41.75.87,1.11,1.34l1.09.8,3,2.22a9.57,9.57,0,0,1,1.09.11c.3.05.63.12,1,.2l.26.06c.57.14,1.16.31,1.74.49l.63.21a26.47,26.47,0,0,1,3.6,1.45l.23.11a18.61,18.61,0,0,0,2.9.69l1.28.22c.84.12,1.67.22,2.39.29h.09c.34,0,.65.05.92.05h.4a22.32,22.32,0,0,1,7.35,1.41Z" transform="translate(-108.17 -251.41)"/><path class="cls-5" d="M264,284.21a7.87,7.87,0,0,1-6.25.72c-1.19-.31-2-.5-2.65-.72h-3.66c.21,2.7.93,5.55,2.28,5.66,2.19.19,8,.13,9.75-.92a25.11,25.11,0,0,0,5.23-4.74Z" transform="translate(-108.17 -251.41)"/><path class="cls-5" d="M304.6,284.21c.13.19.27.37.4.55l.85,1.17c.91,1.3,3.37,1,4,.46s.1-1.56-.26-2.18Z" transform="translate(-108.17 -251.41)"/><path class="cls-17" d="M121.77,289.82c.19-1.89.42-3.75.68-5.61h-4.8a130,130,0,0,0,14.54,71.08A130.06,130.06,0,0,1,121.77,289.82Z" transform="translate(-108.17 -251.41)"/><path class="cls-18" d="M362.9,284.21a142.26,142.26,0,0,1-252.7,41.08,142.25,142.25,0,0,0,281.43-41.08Z" transform="translate(-108.17 -251.41)"/><path class="cls-19" d="M380.17,284.21c.09,2.05.14,4.1.14,6.17a137.19,137.19,0,0,1-259.08,62.94,137.19,137.19,0,0,0,263.74-53,138.66,138.66,0,0,0-1-16.14Z" transform="translate(-108.17 -251.41)"/><g class="cls-20"><path class="cls-17" d="M256,434.63a126.75,126.75,0,0,0,39.1-7.56c3-1.09,1.7-5.92-1.33-4.82A122.19,122.19,0,0,1,256,429.63c-3.21.11-3.22,5.11,0,5Z" transform="translate(-108.17 -251.41)"/></g><g class="cls-21"><path class="cls-22" d="M303.38,424a22.5,22.5,0,0,1,4.43-2c3.06-1,1.76-5.8-1.32-4.82a27.46,27.46,0,0,0-5.63,2.48c-2.79,1.61-.27,5.93,2.52,4.31Z" transform="translate(-108.17 -251.41)"/></g><g class="cls-21"><path class="cls-22" d="M376.15,330.17a88,88,0,0,1-13.66,32.05c-1.82,2.66,2.51,5.17,4.32,2.53A91.78,91.78,0,0,0,381,331.5c.65-3.14-4.17-4.48-4.82-1.33Z" transform="translate(-108.17 -251.41)"/></g><ellipse class="cls-23" cx="142.06" cy="32.7" rx="141.21" ry="32.7"/><ellipse class="cls-24" cx="142.06" cy="32.7" rx="141.21" ry="32.7"/><ellipse class="cls-17" cx="142.06" cy="32.7" rx="141.21" ry="32.7"/><path class="cls-17" d="M114.2,288c0-18.06,63.23-32.7,141.21-32.7,60.37,0,111.88,8.77,132.08,21.11-14.94-14.34-70.72-25-137.27-25-78,0-141.2,14.64-141.2,32.7,0,4.08,3.23,8,9.13,11.58C115.58,293.23,114.2,290.65,114.2,288Z" transform="translate(-108.17 -251.41)"/><g class="cls-25"><path class="cls-5" d="M263,310.93c6-10.5-66.77-7.5-71.64-7.5s-13.13-.37-20.63-3c-3.91-1.37,2.16-2.53,8.28-3.92-26.31-1.21-50-4.11-68.84-8.2a2.53,2.53,0,0,0,.13.22,9.66,9.66,0,0,0,.64,1l.22.32.35.42.28.35.38.41.33.35.41.4.37.36.45.39.41.36.48.39.45.35.52.39.48.34.56.39.52.34.59.38.56.35.62.36.62.35.63.36.7.37.62.33,1,.49.92.44.9.42.67.3.86.38.71.3.88.36.76.3.9.36.78.29.95.36.79.28,1,.36.81.28,1.06.35.8.26,1.14.37.79.24,1.22.37.77.23,1.36.4.68.19,1.69.47.4.1c1.45.39,2.93.77,4.45,1.14l.38.09,1.91.46.59.13,1.74.4.72.15,1.68.37.76.16,1.69.35.8.16,1.72.34.79.15,1.81.34.74.13,1.92.35.68.11,2.1.36.55.09,2.39.39.3.05q5.56.87,11.51,1.62l.15,0,2.78.34.4.05,2.57.3.55.06,2.48.27.59.06,2.51.26.58.06,2.55.24.57,0,2.68.24.45,0,2.89.24.28,0c6.5.51,13.21.92,20.09,1.21h.19l3.21.13h.39l3,.1.5,0,3,.08h.55l3,.06H239l3.07.05h.44l3.25,0h.28l3.56,0C256.83,315.14,261.73,313.16,263,310.93Z" transform="translate(-108.17 -251.41)"/><path class="cls-5" d="M323.71,312c40.61-5.75,67.72-16.11,67.72-27.93,0-8.11-12.75-15.52-33.84-21.23a84.36,84.36,0,0,0-9.75.83c0,.24.05.49.05.73,0,3.37-2.2,6.61-6.28,9.67,10.78,2.25,26.13,3.48,22.62,4.06-6.17,1-23.79-.12-23.79-.12-11.8,2.27,19.52,2.27,22.46,6.16s-56,.2-67.61,7.12,48.79,2.61,60.83,7C365.77,301.86,338,307.4,323.71,312Z" transform="translate(-108.17 -251.41)"/></g><path class="cls-26" d="M346.73,260.24a8.65,8.65,0,0,1,1.16,4.2c0,18.06-63.22,32.7-141.21,32.7-37.32,0-71.26-3.35-96.51-8.83,8.91,16.08,68.22,28.5,140.05,28.5,78,0,141.21-14.64,141.21-32.7C391.43,274.69,374.24,266.21,346.73,260.24Z" transform="translate(-108.17 -251.41)"/></g></g></svg>