<svg id="Слой_1" data-name="Слой 1" xmlns="http://www.w3.org/2000/svg" xmlns:xlink="http://www.w3.org/1999/xlink" viewBox="0 0 3539 1227.51"><defs><style>.cls-1,.cls-2,.cls-3{stroke:#2b5c0b;}.cls-1{stroke-opacity:0.5;fill-rule:evenodd;fill:url(#Безымянный_градиент);}.cls-2,.cls-3{fill:none;}.cls-2{stroke-opacity:0.4;}.cls-3{stroke-opacity:0.3;}</style><linearGradient id="Безымянный_градиент" x1="3539" y1="-314.4" x2="1" y2="-314.4" gradientTransform="matrix(1, 0, 0, -1, 0, 490)" gradientUnits="userSpaceOnUse"><stop offset="0" stop-color="#4f9beb" stop-opacity="0.1"/><stop offset="1" stop-color="#4f9beb" stop-opacity="0.1"/></linearGradient></defs><path class="cls-1" d="M1,947.22s373.89,192.71,706.92,155,1335.89-673.84,1872.14-714S3539,494.93,3539,494.93V896.2S2972.87,525.49,2521.16,542.15s-1318.51,607.48-1642,674.21S1,1026.84,1,1026.84Z" transform="translate(-0.5 -0.43)"/><path class="cls-2" d="M6,878s376.15,164.86,698.36,129S2054,368.33,2573.87,292.39s957.58,44.29,957.58,44.29" transform="translate(-0.5 -0.43)"/><path class="cls-3" d="M6,162S363.71,440.43,704.25,414.37,1981.42,67.21,2512.85,10.68,3531.45,162,3531.45,162" transform="translate(-0.5 -0.43)"/></svg>