<svg xmlns="http://www.w3.org/2000/svg" data-name="Слой 1" viewBox="0 0 521.85 313.87"><path d="M698.89 404.19s39.42 4.76 57.76-36S815.06 339 815.06 339l23.09 8.15a36.76 36.76 0 0 0 24.46-1.35c10.81-5.25-4.76-19-4.76-19s-22.3-17.48 24.46-22.42c33.28 2 42.73 0 42.73 0s31.3-3.41 76.13-73.38 67.93-2 135.17-8.15 67.25-95.32 67.25-95.32a21.3 21.3 0 0 1-13.13-16.3s13.13 1 13.13 16.3c13.92-2.32 16.47-15.39 16.47-15.39s-16.73 2.2-16.3 15.11c0 0 .68-10.64-2.38-16-6.79-1.81-7.64-13.87-6.28-19.64 7.64 1.36 11.74 14.18 6.28 19.64" style="fill:none;stroke:#278b00;stroke-miterlimit:10" transform="translate(-698.83 -90.99)"/></svg>