<svg id="Capa_1" data-name="Capa 1" xmlns="http://www.w3.org/2000/svg" xmlns:xlink="http://www.w3.org/1999/xlink" viewBox="0 0 487.93 512"><defs><style>.cls-1{fill:url(#Безымянный_градиент_7);}.cls-2{opacity:0.1;}.cls-3{fill:#8eb943;}.cls-4{fill:#ff7eb7;}.cls-5{fill:#f9dc26;}.cls-6{fill:#2c5209;}.cls-7{fill:#fff;}.cls-8{fill:#5bc8ab;}</style><linearGradient id="Безымянный_градиент_7" x1="12.03" y1="256" x2="499.97" y2="256" gradientTransform="matrix(1, 0, 0, -1, 0, 512)" gradientUnits="userSpaceOnUse"><stop offset="0.05" stop-color="#53900f"/><stop offset="1" stop-color="#f9dc26"/></linearGradient></defs><path class="cls-1" d="M286.59,4.87c-94.35,27.74-75.42,93.58-86,166.54-13.17,91-70.09,44.36-135.49,93.53C-47.94,350,34.19,537.58,174.58,509.08,249.14,494,264.37,439,294.78,380.26c39.33-76,104.56-55.26,163.06-104.86C576.5,174.82,420.44-34.49,286.59,4.87Z" transform="translate(-12.03 0)"/><g class="cls-2"><path class="cls-3" d="M435.21,229.24v-11.9l5.06,5.06a5,5,0,0,0,7.07-7.08l-13.59-13.59a5,5,0,0,0-7.07,0l-13.83,13.83a5,5,0,0,0,7.07,7.07l5.29-5.29v11.9A68.83,68.83,0,0,1,368.08,297H148.59a5,5,0,0,0-5,5v67.26H72.11a5,5,0,0,0-5,5v24a5,5,0,0,0,5,5,5,5,0,0,0-5,5v24.06a5,5,0,0,0,5,5,5,5,0,0,0-5,5v24.05a5,5,0,0,0,5,5H439.9a5,5,0,0,0,5-5V302a5,5,0,0,0-5-5H396.55a78.75,78.75,0,0,0,38.66-67.73Z" transform="translate(-12.03 0)"/><path class="cls-3" d="M386.64,76.61H125.36a10,10,0,0,0-10,10V241.08a10,10,0,0,0,10,10H135a78.75,78.75,0,0,0-38.65,67.73v11.9l-5.06-5.06a5,5,0,0,0-7.07,7.08l13.59,13.59a5.08,5.08,0,0,0,7.07,0l13.83-13.82a5,5,0,0,0-7.07-7.08l-5.29,5.29v-11.9a68.83,68.83,0,0,1,57.12-67.73H386.64a10,10,0,0,0,10-10V86.61a10,10,0,0,0-10-10Z" transform="translate(-12.03 0)"/></g><path class="cls-4" d="M386.64,227.08H125.36a10,10,0,0,1-10-10V62.61a10,10,0,0,1,10-10H386.64a10,10,0,0,1,10,10V217.08A10,10,0,0,1,386.64,227.08Z" transform="translate(-12.03 0)"/><path class="cls-5" d="M396.64,138.48V62.61a10,10,0,0,0-10-10H125.36a10,10,0,0,0-10,10v75.87Z" transform="translate(-12.03 0)"/><path class="cls-3" d="M186,126.07H153a5,5,0,0,1-5-5V99a5,5,0,0,1,5-5h33a5,5,0,0,1,5,5v22.1A5,5,0,0,1,186,126.07Z" transform="translate(-12.03 0)"/><path class="cls-5" d="M305.39,202.24h-21a5,5,0,0,1-5-5V185.71a5,5,0,0,1,5-5h21a5,5,0,0,1,5,5v11.53A5,5,0,0,1,305.39,202.24Z" transform="translate(-12.03 0)"/><path class="cls-6" d="M178.27,165.12H152.75a5,5,0,0,1,0-10h25.52a5,5,0,0,1,0,10Z" transform="translate(-12.03 0)"/><path class="cls-6" d="M230.07,165.12H204.55a5,5,0,0,1,0-10h25.52a5,5,0,0,1,0,10Z" transform="translate(-12.03 0)"/><path class="cls-6" d="M281.87,165.12H256.35a5,5,0,0,1,0-10h25.52a5,5,0,0,1,0,10Z" transform="translate(-12.03 0)"/><path class="cls-6" d="M333.67,165.12H308.15a5,5,0,0,1,0-10h25.52a5,5,0,0,1,0,10Z" transform="translate(-12.03 0)"/><path class="cls-6" d="M324.84,123.88h37.52a5,5,0,0,0,0-10H324.84a5,5,0,0,0,0,10Z" transform="translate(-12.03 0)"/><path class="cls-6" d="M357.84,106.14h4.52a5,5,0,0,0,0-10h-4.52a5,5,0,0,0,0,10Z" transform="translate(-12.03 0)"/><path class="cls-6" d="M289.18,123.88H305.7a5,5,0,0,0,0-10H289.18a5,5,0,0,0,0,10Z" transform="translate(-12.03 0)"/><path class="cls-6" d="M249.2,123.88h4.52a5,5,0,1,0,0-10H249.2a5,5,0,0,0,0,10Z" transform="translate(-12.03 0)"/><path class="cls-6" d="M171.21,105.55h-8.64a3,3,0,0,1-3-3V94h14.64v8.59A3,3,0,0,1,171.21,105.55Z" transform="translate(-12.03 0)"/><path class="cls-6" d="M174.21,126.07H159.57v-8.6a3,3,0,0,1,3-3h8.64a3,3,0,0,1,3,3Z" transform="translate(-12.03 0)"/><path class="cls-6" d="M152.76,202.81a5.6,5.6,0,0,1-5.6-5.6v-.13a5.6,5.6,0,1,1,11.2,0v.13A5.6,5.6,0,0,1,152.76,202.81Z" transform="translate(-12.03 0)"/><path class="cls-6" d="M169.52,202.81a5.6,5.6,0,0,1-5.6-5.6v-.13a5.6,5.6,0,1,1,11.2,0v.13A5.6,5.6,0,0,1,169.52,202.81Z" transform="translate(-12.03 0)"/><path class="cls-6" d="M201.56,202.81a5.6,5.6,0,0,1-5.6-5.6v-.13a5.61,5.61,0,0,1,11.21,0v.13A5.61,5.61,0,0,1,201.56,202.81Z" transform="translate(-12.03 0)"/><path class="cls-6" d="M218.32,202.81a5.6,5.6,0,0,1-5.6-5.6v-.13a5.6,5.6,0,1,1,11.2,0v.13A5.6,5.6,0,0,1,218.32,202.81Z" transform="translate(-12.03 0)"/><path class="cls-4" d="M156,447.39H72.11a5,5,0,0,1-5-5V418.34a5,5,0,0,1,5-5H156a5,5,0,0,1,5,5v24.05A5,5,0,0,1,156,447.39Z" transform="translate(-12.03 0)"/><path class="cls-4" d="M156,413.34H72.11a5,5,0,0,1-5-5v-24a5,5,0,0,1,5-5H156a5,5,0,0,1,5,5v24A5,5,0,0,1,156,413.34Z" transform="translate(-12.03 0)"/><path class="cls-4" d="M156,379.29H72.11a5,5,0,0,1-5-5V350.23a5,5,0,0,1,5-5H156a5,5,0,0,1,5,5v24.06A5,5,0,0,1,156,379.29Z" transform="translate(-12.03 0)"/><path class="cls-3" d="M444.89,278V442.39a5,5,0,0,1-5,5H148.59a5,5,0,0,1-5-5V278a5,5,0,0,1,5-5h291.3A5,5,0,0,1,444.89,278Z" transform="translate(-12.03 0)"/><path class="cls-6" d="M237,377.39l-13.67-13.67a5,5,0,0,1,0-7.08L237,343a5,5,0,0,1,7.07,0l13.68,13.67a5,5,0,0,1,0,7.08l-13.68,13.67a5,5,0,0,1-7.07,0Z" transform="translate(-12.03 0)"/><path class="cls-6" d="M344.42,377.39l-13.68-13.67a5,5,0,0,1,0-7.08L344.42,343a5,5,0,0,1,7.07,0l13.67,13.67a5,5,0,0,1,0,7.08l-13.67,13.67A5,5,0,0,1,344.42,377.39Z" transform="translate(-12.03 0)"/><path class="cls-6" d="M413.07,320.06a5,5,0,0,1-3.53-1.46l-11-11a5,5,0,0,1,0-7.07l11-11a5,5,0,0,1,7.07,0l11,11a5,5,0,0,1,0,7.07l-11,11A5,5,0,0,1,413.07,320.06Zm-3.93-16,3.93,3.93,3.93-3.93-3.93-3.93Z" transform="translate(-12.03 0)"/><path class="cls-7" d="M175.42,432.3a5,5,0,0,1-3.54-1.47l-11-11a5,5,0,0,1,0-7.07l11-11a5,5,0,0,1,7.07,0l11,11a5,5,0,0,1,0,7.07l-11,11A5,5,0,0,1,175.42,432.3Zm-3.93-16,3.93,3.93,3.93-3.93-3.93-3.93Z" transform="translate(-12.03 0)"/><path class="cls-5" d="M444.89,374.18v68.21a5,5,0,0,1-5,5h-68.2a73.21,73.21,0,0,1,73.2-73.21Z" transform="translate(-12.03 0)"/><path class="cls-5" d="M216.79,273a73.21,73.21,0,0,1-73.2,73.21V278a5,5,0,0,1,5-5Z" transform="translate(-12.03 0)"/><circle class="cls-5" cx="282.21" cy="360.18" r="53.71"/><path class="cls-6" d="M300.76,355.18h-1.52V345h9.46a5,5,0,1,0,0-10h-9.46v-2.51a5,5,0,0,0-10,0V335h-1.51a15.09,15.09,0,1,0,0,30.18h1.51v10.18h-9.45a5,5,0,0,0,0,10h9.45v2.52a5,5,0,0,0,10,0v-2.52h1.52a15.09,15.09,0,1,0,0-30.18Zm-13,0a5.09,5.09,0,1,1,0-10.18h1.51v10.18Zm13,20.18h-1.52V365.18h1.52a5.09,5.09,0,1,1,0,10.18Z" transform="translate(-12.03 0)"/><path class="cls-6" d="M353.47,292.69a5.6,5.6,0,0,0-5.6,5.6v.13a5.61,5.61,0,0,0,11.21,0v-.13A5.61,5.61,0,0,0,353.47,292.69Z" transform="translate(-12.03 0)"/><path class="cls-6" d="M347.87,317.27a5.61,5.61,0,0,0,11.21,0v-.13a5.61,5.61,0,1,0-11.21,0" transform="translate(-12.03 0)"/><path class="cls-6" d="M373.47,292.69a5.61,5.61,0,0,0-5.61,5.6v.13a5.61,5.61,0,0,0,11.21,0v-.13A5.6,5.6,0,0,0,373.47,292.69Z" transform="translate(-12.03 0)"/><path class="cls-6" d="M235,427.67a5.6,5.6,0,0,0,5.6-5.6v-.13a5.61,5.61,0,0,0-11.21,0v.13A5.61,5.61,0,0,0,235,427.67Z" transform="translate(-12.03 0)"/><path class="cls-6" d="M240.62,403.1a5.61,5.61,0,1,0-11.21,0v.13a5.61,5.61,0,0,0,11.21,0" transform="translate(-12.03 0)"/><path class="cls-6" d="M215,427.67a5.6,5.6,0,0,0,5.6-5.6v-.13a5.6,5.6,0,1,0-11.2,0v.13A5.6,5.6,0,0,0,215,427.67Z" transform="translate(-12.03 0)"/><path class="cls-4" d="M201.36,447.39H117.47a5,5,0,0,1-5-5V418.34a5,5,0,0,1,5-5h83.89a5,5,0,0,1,5,5v24.05A5,5,0,0,1,201.36,447.39Z" transform="translate(-12.03 0)"/><path class="cls-4" d="M201.36,413.34H117.47a5,5,0,0,1-5-5v-24a5,5,0,0,1,5-5h83.89a5,5,0,0,1,5,5v24A5,5,0,0,1,201.36,413.34Z" transform="translate(-12.03 0)"/><path class="cls-6" d="M439.89,268H394.81a78.77,78.77,0,0,0,40.4-68.73v-5.9l5.06,5.06a5,5,0,0,0,7.07-7.07l-13.59-13.6a5.06,5.06,0,0,0-7.08,0l-13.82,13.82a5,5,0,0,0,7.07,7.07l5.29-5.29v5.9A68.81,68.81,0,0,1,356.48,268H148.6a10,10,0,0,0-10,10v62.26H72.11a10,10,0,0,0-10,10v24.06a9.9,9.9,0,0,0,1.35,5,9.85,9.85,0,0,0-1.35,5v24a9.87,9.87,0,0,0,1.35,5,9.87,9.87,0,0,0-1.35,5v24.05a10,10,0,0,0,10,10H201.36a10,10,0,0,0,10-10V418.34a10,10,0,0,0-1.35-5,10,10,0,0,0,1.35-5v-24a10,10,0,0,0-10-10H148.59V278h291.3V442.39H234.35a5,5,0,0,0,0,10H439.9a10,10,0,0,0,10-10V278a10,10,0,0,0-10-10ZM107.47,408.34H72.11v-24h35.36v24ZM72.11,442.39V418.34h35.36v24.05Zm45.36,0V418.34h83.89v24.05Zm83.9-34.05h-83.9v-24h83.89Zm-129.26-34V350.23h66.48v24.06Z" transform="translate(-12.03 0)"/><path class="cls-6" d="M396.64,153.51a5,5,0,0,0,5-5V62.61a15,15,0,0,0-15-15H125.36a15,15,0,0,0-15,15V217.08a15,15,0,0,0,15,15h11.42a78.78,78.78,0,0,0-40.39,68.73v5.9l-5.06-5.06a5,5,0,0,0-7.07,7.08l13.59,13.58a5.07,5.07,0,0,0,7.07,0l13.83-13.82a5,5,0,0,0-7.07-7.08l-5.29,5.29v-5.9a68.81,68.81,0,0,1,68.73-68.73H386.64a15,15,0,0,0,15-15V181.5a5,5,0,0,0-10,0v35.58a5,5,0,0,1-5,5H125.36a5,5,0,0,1-5-5V62.61a5,5,0,0,1,5-5H386.64a5,5,0,0,1,5,5V148.5a5,5,0,0,0,5,5Z" transform="translate(-12.03 0)"/><path class="cls-5" d="M87.79,226.34a5,5,0,0,1-3.53-1.46l-4.47-4.47-4.46,4.47a5,5,0,0,1-7.07-7.08l8-8a5,5,0,0,1,7.07,0l8,8a5,5,0,0,1-3.54,8.54Z" transform="translate(-12.03 0)"/><path class="cls-5" d="M466,258.6a5,5,0,0,1-3.53-1.46L458,252.67l-4.46,4.47a5,5,0,1,1-7.07-7.07l8-8a5,5,0,0,1,7.07,0l8,8A5,5,0,0,1,466,258.6Z" transform="translate(-12.03 0)"/><path class="cls-5" d="M70,186.71a5,5,0,0,1-3.54-1.46L62,180.79l-4.47,4.46a5,5,0,1,1-7.07-7.07l8-8a5,5,0,0,1,7.07,0l8,8A5,5,0,0,1,70,186.71Z" transform="translate(-12.03 0)"/><path class="cls-8" d="M445.07,105h-3v-3a5,5,0,0,0-10,0v3h-3a5,5,0,0,0,0,10h3v3a5,5,0,1,0,10,0v-3h3a5,5,0,1,0,0-10Z" transform="translate(-12.03 0)"/><path class="cls-8" d="M62,313.11H59v-3a5,5,0,0,0-10,0v3H46a5,5,0,0,0,0,10h3v3a5,5,0,0,0,10,0v-3h3a5,5,0,1,0,0-10Z" transform="translate(-12.03 0)"/></svg>