<svg id="Слой_1" data-name="Слой 1" xmlns="http://www.w3.org/2000/svg" viewBox="0 0 108.37 254.24"><defs><style>.cls-1{fill:#ffb570;}.cls-2{fill:#007c00;}.cls-3{opacity:0.3;}.cls-4{fill:#ffa75d;}.cls-14,.cls-5,.cls-7{opacity:0.2;}.cls-6{fill:#b25b52;}.cls-7{isolation:isolate;}.cls-13,.cls-8{fill:#1a2e35;}.cls-9{fill:#4fa44b;}.cls-10{fill:#d54c38;}.cls-11,.cls-14{fill:#fff;}.cls-12{fill:#fd5652;}.cls-13{opacity:0.54;}.cls-15{fill:#c22746;}.cls-15,.cls-16,.cls-17,.cls-19,.cls-20{fill-rule:evenodd;}.cls-16{fill:#2155a5;}.cls-17,.cls-21{fill:#138140;}.cls-18,.cls-19{fill:#fcfcfb;}.cls-20{fill:#f9ed35;}</style></defs><path class="cls-1" d="M153.44,62.93c-.25,1.42-.5,2.59-.81,3.86s-.64,2.47-1,3.69a67.67,67.67,0,0,1-2.58,7.27c-2.06,4.76-4.6,9.54-8.86,13.66a21.68,21.68,0,0,1-3.63,2.79c-.33.2-.7.43-1,.59l-.87.43c-.58.29-1.15.56-1.73.82-2.3,1-4.58,2-6.89,2.81a131.4,131.4,0,0,1-14,4.31l-1.88-4.78c4.15-2.37,8.37-4.66,12.5-6.93,2.06-1.16,4.12-2.28,6.07-3.46l1.44-.87.7-.44c.22-.14.35-.25.53-.37a12.47,12.47,0,0,0,1.93-1.75,34.32,34.32,0,0,0,6.1-10.71c.82-2,1.49-4.17,2.14-6.32.32-1.07.62-2.16.89-3.25s.54-2.23.73-3.16Z" transform="translate(-96.27 -22.9)"/><path class="cls-2" d="M133.56,75.69l10.12,7.54s.39-.42,1-1.16c.47-.55,1.07-1.27,1.77-2.11,3.93-4.79,9.68-13.53,9.72-17.81.07-6.38-6.55-7.32-14-.8-3.21,2.82-4.88,7.49-6.51,10.39-.54,1-1,1.79-1.35,2.44C133.85,75.12,133.56,75.69,133.56,75.69Z" transform="translate(-96.27 -22.9)"/><path class="cls-3" d="M156.27,62.88c-2.29-1.51-4,2.4-8.47,5.71-2,1.47-6.43,11.08-6.07,13.19l2,1.46S156.32,69.24,156.27,62.88Z" transform="translate(-96.27 -22.9)"/><path class="cls-4" d="M111.06,99,102.7,96.8l.59,8.28s8.17.83,8.93-1.63Z" transform="translate(-96.27 -22.9)"/><polygon class="cls-4" points="0 78.19 1.9 83.84 7.02 82.18 6.44 73.9 0 78.19"/><path class="cls-2" d="M146.2,112.74h34.23c.24-3.06-.47-13,.06-25.67a162.54,162.54,0,0,1,3.4-27.92c.16-.69.31-1.38.48-2.07,0,0-1.74-.35-4.23-.71-2.06-.3-4.65-.62-7.19-.74a130.69,130.69,0,0,0-14.55,0c-2.23.21-4.42.58-6.16.92-2.23.45-3.54.83-3.54.83S140.26,76.74,146.2,112.74Z" transform="translate(-96.27 -22.9)"/><path class="cls-3" d="M180.49,87.07a162.54,162.54,0,0,1,3.4-27.92c-2.29-.2-6.2,0-6.84,3.72C176.35,66.84,177.23,76.19,180.49,87.07Z" transform="translate(-96.27 -22.9)"/><path class="cls-1" d="M172.64,40.94l-3.89,3.23-5.3,4.4a18.21,18.21,0,0,1,.33,2.14c.29,2.88-.45,3.87-4.68,4.87,0,0-5,3.33,2.43,3.93a10.11,10.11,0,0,0,.36,2.39,9.44,9.44,0,0,1,2.4-2.31c8.15-.15,9.22-3.92,9.22-3.92C170.35,52.54,171.56,45.63,172.64,40.94Z" transform="translate(-96.27 -22.9)"/><path class="cls-5" d="M163.45,48.57a18.21,18.21,0,0,1,.33,2.14c2-.4,4.62-2.5,4.9-4.52a9.56,9.56,0,0,0,.07-2Z" transform="translate(-96.27 -22.9)"/><polygon class="cls-6" points="52.97 247.63 45.77 248.38 45.41 244.21 44.42 232.85 51.62 232.09 52.71 244.64 52.97 247.63"/><polygon class="cls-6" points="88.92 246.72 81.94 246.72 81.87 245.13 81.86 244.94 81.51 234.82 81.5 234.61 81.36 230.73 88.35 230.73 88.92 246.72"/><polygon class="cls-7" points="51.62 232.09 52.71 244.64 45.41 244.21 44.42 232.85 51.62 232.09"/><polygon class="cls-7" points="88.87 245.83 88.86 245.83 81.87 244.94 81.86 244.94 81.5 235.17 81.51 235.17 88.51 235.73 88.86 245.52 88.87 245.83"/><path class="cls-8" d="M177.24,269.19h8.48a.63.63,0,0,1,.59.48l1.38,6.22a1,1,0,0,1-.8,1.22.82.82,0,0,1-.22,0c-2.75,0-4.75-.21-8.19-.21-2.12,0-8.53.22-11.46.22s-3.31-2.89-2.11-3.16c5.38-1.17,9.43-2.8,11.15-4.34A1.75,1.75,0,0,1,177.24,269.19Z" transform="translate(-96.27 -22.9)"/><path class="cls-8" d="M141.27,269h8.48a.61.61,0,0,1,.6.48l1.38,6.22a1,1,0,0,1-.8,1.22l-.23,0c-2.74,0-4.74-.21-8.18-.21-2.12,0-8.53.22-11.46.22s-3.31-2.89-2.11-3.16c5.38-1.17,9.43-2.8,11.15-4.34A1.65,1.65,0,0,1,141.27,269Z" transform="translate(-96.27 -22.9)"/><path class="cls-8" d="M186.07,267H176s-8.13-43.56-11.36-65.76c-.5-3.45-1-8-1.58-13.23-.86-8.51-1.73-18.72-2.52-28.55-2.42,6.49-4.26,15.78-5.68,26.31-5.06,37.73-4.55,80.34-4.55,80.34H140c-7.9-60.37,2.64-134.68,6.17-153.32h34.23c0,4.43,1.93,67.44,3.25,91.12C184.87,225.68,186.07,267,186.07,267Z" transform="translate(-96.27 -22.9)"/><polygon class="cls-9" points="42.61 240.28 43.11 243.16 55.21 243.16 55.21 240.5 42.61 240.28"/><polygon class="cls-9" points="78.53 241.39 79.69 244.05 89.84 244.05 90.5 241.39 78.53 241.39"/><path class="cls-1" d="M169.8,46.65a10.05,10.05,0,0,1-11.07.77,9.22,9.22,0,0,1-4.49-5.37c-.1-.31-.17-.63-.24-.95-1-5.91.79-15.43,8.11-17.5,5.21-1.51,10.82,1,12.51,5.68a7.86,7.86,0,0,1,.37,4.1C174,39.8,173.76,43.61,169.8,46.65Z" transform="translate(-96.27 -22.9)"/><path class="cls-8" d="M171.33,36.4s-2.14,3.09,2.14,5.33-1.34,4-1.34,4a2.33,2.33,0,0,1-2,2.74c-2.41.56.38,2-2.88,1.82,0,0-.44,2.47-3.29,1.12,0,0-1.87,2.38-3.55,0,0,0-3.17,2.27-3.89-1.12,0,0-3.3,1.58-2.82-1.82,0,0-2.75-.28-1-3.15,0,0-2.84,0-1.17-2.62,0,0-1.76-2,1.17-2.74,0,0-3-1.93,1.07-2.85,0,0,.55,3.85,5.48,3.71h0s-.41,3.07.56,3.34,5.37-.69,5.69-2.26a5.06,5.06,0,0,0-.92-3.3l6.36-2.91.41.7h0" transform="translate(-96.27 -22.9)"/><path class="cls-8" d="M163.85,34.42a.84.84,0,0,1-.78.9c-.4,0-.66-.48-.62-1s.4-.93.78-.9S163.89,33.89,163.85,34.42Z" transform="translate(-96.27 -22.9)"/><path class="cls-8" d="M157.18,34a.85.85,0,0,1-.78.9c-.38,0-.66-.48-.61-1s.4-.92.78-.9S157.23,33.46,157.18,34Z" transform="translate(-96.27 -22.9)"/><path class="cls-10" d="M159.28,34.36a18.48,18.48,0,0,1-3.21,4.3,3.69,3.69,0,0,0,2.79.67Z" transform="translate(-96.27 -22.9)"/><path class="cls-8" d="M155,31.35a.43.43,0,0,0,.37,0,3.13,3.13,0,0,1,2.49-.24.36.36,0,0,0,.46-.15.3.3,0,0,0-.16-.41h0a3.81,3.81,0,0,0-3.15.27.29.29,0,0,0-.13.42h0A.57.57,0,0,0,155,31.35Z" transform="translate(-96.27 -22.9)"/><path class="cls-8" d="M165.37,32.15a.35.35,0,0,0,.2,0,.29.29,0,0,0,0-.43h0a3.72,3.72,0,0,0-3-1,.32.32,0,0,0-.27.37h0a.36.36,0,0,0,.41.24h0a3,3,0,0,1,2.36.78A.41.41,0,0,0,165.37,32.15Z" transform="translate(-96.27 -22.9)"/><path class="cls-1" d="M177.69,38.9a6.91,6.91,0,0,1-4.22,2.83c-2.35.52-3.46-1.37-2.76-3.32.64-1.73,2.63-4.14,5-3.78A2.69,2.69,0,0,1,177.69,38.9Z" transform="translate(-96.27 -22.9)"/><path class="cls-8" d="M159.55,41.18a18.73,18.73,0,0,1,1.3,2.44l.47-.13c2.12-.58,2.92-1.55,3.15-2.45a2.92,2.92,0,0,0,0-1.35,2.83,2.83,0,0,0-.27-.72,10.41,10.41,0,0,1-3.93,2C159.83,41.11,159.55,41.18,159.55,41.18Z" transform="translate(-96.27 -22.9)"/><path class="cls-11" d="M160.27,41l.4.71c2-.55,3.34-1.21,3.8-2a2.83,2.83,0,0,0-.27-.72A10.41,10.41,0,0,1,160.27,41Z" transform="translate(-96.27 -22.9)"/><path class="cls-12" d="M161.32,43.49c2.12-.58,2.92-1.55,3.15-2.45a7,7,0,0,0-2.23,1.11A2.67,2.67,0,0,0,161.32,43.49Z" transform="translate(-96.27 -22.9)"/><path class="cls-13" d="M165.67,22.9a19.06,19.06,0,0,0-4.46.71c-1.68.56-2.8,2.11-2.29,2.32s2.12-.24,2.5,0,.12,2.07,1.66,1.66S163.8,27,165,27s1.73,1.24,2.24,1.23a3.29,3.29,0,0,0,1.08-.24s-1.51-.66-1.55-1.08-1.52-.86-1.52-.86,1.95-.23,2.48.29.07,1.4,1.6,1.61c1,.13,1.08,8.4,2,8.47.16,0,3.22-.88,3.48-1.81A10.22,10.22,0,0,0,174,28C173.14,26.11,169.33,22.85,165.67,22.9Z" transform="translate(-96.27 -22.9)"/><polygon class="cls-9" points="77.25 29.6 68.53 33.34 65.63 39 68.53 37.09 72.1 40.51 79.65 32.95 77.25 29.6"/><path class="cls-9" d="M161.89,61.9l-.89-5A4.35,4.35,0,0,1,163.06,54L160,52.5s-4.82,5.78-5.1,9.4l4.21-2.8Z" transform="translate(-96.27 -22.9)"/><polygon class="cls-14" points="77.25 29.6 68.53 33.34 65.63 39 68.53 37.09 72.1 40.51 79.65 32.95 77.25 29.6"/><path class="cls-14" d="M161.89,61.9l-.89-5A4.35,4.35,0,0,1,163.06,54L160,52.5s-4.82,5.78-5.1,9.4l4.21-2.8Z" transform="translate(-96.27 -22.9)"/><path class="cls-9" d="M136.7,269.51a.84.84,0,0,1,.07-.83.6.6,0,0,1,.46-.3c.84-.05,2.18,1.69,2.33,1.89a.16.16,0,0,1,0,.16.18.18,0,0,1-.15.08,8.1,8.1,0,0,1-1.69-.31A1.78,1.78,0,0,1,136.7,269.51Zm.55-.83a.27.27,0,0,0-.22.15.54.54,0,0,0-.06.54c.19.37,1,.67,2.14.81C138.55,269.5,137.7,268.66,137.25,268.68Z" transform="translate(-96.27 -22.9)"/><path class="cls-9" d="M139.33,270.46c-.49-.56-1-2.13-.63-2.74a.6.6,0,0,1,.66-.27.76.76,0,0,1,.54.4c.42.79-.29,2.49-.32,2.57a.17.17,0,0,1-.11.09h-.07Zm0-2.71a.28.28,0,0,0-.34.11,3,3,0,0,0,.45,2.19,3.28,3.28,0,0,0,.22-2.06.42.42,0,0,0-.26-.23Z" transform="translate(-96.27 -22.9)"/><path class="cls-9" d="M172.66,269.51a.82.82,0,0,1,.08-.83.57.57,0,0,1,.46-.3c.83-.05,2.18,1.69,2.33,1.89a.15.15,0,0,1,0,.16.18.18,0,0,1-.15.08,8.1,8.1,0,0,1-1.69-.31A1.78,1.78,0,0,1,172.66,269.51Zm.55-.83a.27.27,0,0,0-.22.15.54.54,0,0,0-.06.54c.19.37,1,.67,2.14.81C174.51,269.5,173.66,268.66,173.21,268.68Z" transform="translate(-96.27 -22.9)"/><path class="cls-9" d="M175.3,270.46c-.49-.56-1-2.13-.63-2.74a.58.58,0,0,1,.65-.27.76.76,0,0,1,.54.4c.42.79-.28,2.49-.31,2.57a.19.19,0,0,1-.12.09h-.07S175.31,270.48,175.3,270.46Zm0-2.71c-.21-.05-.29,0-.33.11a3,3,0,0,0,.44,2.19,3.28,3.28,0,0,0,.22-2.06.4.4,0,0,0-.26-.23Z" transform="translate(-96.27 -22.9)"/><path class="cls-3" d="M160.5,159.41c-2.42,6.49-4.26,15.78-5.68,26.31-3.44-14.09,4.79-40.14,4.79-40.14Z" transform="translate(-96.27 -22.9)"/><path class="cls-1" d="M185.37,59.64c1.1.81,2,1.52,2.9,2.32s1.81,1.59,2.69,2.41a62.62,62.62,0,0,1,5,5.27,48.48,48.48,0,0,1,4.42,6,32,32,0,0,1,3.37,7.18c.19.68.4,1.35.54,2.06a13.32,13.32,0,0,1,.33,2.46,19.28,19.28,0,0,1-.36,4.27,44.73,44.73,0,0,1-2,7.11,80.7,80.7,0,0,1-5.92,12.7l-4.74-2c1.08-4.27,2.16-8.63,3-12.84a52.59,52.59,0,0,0,.85-6.11A12.05,12.05,0,0,0,195.4,88a4.54,4.54,0,0,0-.23-.87,12.12,12.12,0,0,0-.42-1.19,34.51,34.51,0,0,0-6.54-9.55c-1.37-1.53-2.87-3-4.4-4.44-.76-.72-1.55-1.43-2.34-2.12s-1.64-1.4-2.33-2Z" transform="translate(-96.27 -22.9)"/><path class="cls-2" d="M177.2,70.36a119.83,119.83,0,0,0,8.72,11.12c.69.8,1.32,1.51,1.83,2.08.89,1,1.45,1.6,1.45,1.6l10.67-10.29-.82-1.29c-.4-.61-.91-1.41-1.53-2.32-3.68-5.39-10.78-14.86-15.12-14.35C175.91,57.67,172.66,63.54,177.2,70.36Z" transform="translate(-96.27 -22.9)"/><path class="cls-1" d="M196.27,111.18,193,117.47l-4.26-7.75s3.89-5,6.33-2.83Z" transform="translate(-96.27 -22.9)"/><polygon class="cls-1" points="90.34 96.25 87.14 89.68 92.48 86.82 96.74 94.57 90.34 96.25"/><path class="cls-15" d="M168.07,80.89V81l.3,0Z" transform="translate(-96.27 -22.9)"/><path class="cls-15" d="M167.46,80.56l-1.19-.6v.21a1,1,0,0,0,.08.52c.21.1.41.19.62.27a.5.5,0,0,0,.28-.12.82.82,0,0,0,.17-.19Z" transform="translate(-96.27 -22.9)"/><path class="cls-16" d="M154.56,80.27l1,.06.13-2.19,1.49.09,0-.68-2.3-.14a.22.22,0,0,0-.16.09.4.4,0,0,0-.09.21Z" transform="translate(-96.27 -22.9)"/><path class="cls-16" d="M158.87,77.9a.56.56,0,0,0-.5-.32h-.05c-.52,0-.61.24-.61.24l-1.07,2.58.94,0,.25-.61.4,0,.43,0,.2.65,1,.06Zm-.6,1.29-.24,0,.21-.65a.07.07,0,0,1,.06,0h0s0,0,0,0l.16.67Z" transform="translate(-96.27 -22.9)"/><path class="cls-15" d="M165.53,79.58l-1-.55.25.82c.42.24.84.47,1.27.67v-.21h-.24Z" transform="translate(-96.27 -22.9)"/><path class="cls-17" d="M165.92,80.11h.14l0-.25-.3-.15Z" transform="translate(-96.27 -22.9)"/><path class="cls-17" d="M164.27,79.58l.22.13-.13-.43Z" transform="translate(-96.27 -22.9)"/><path class="cls-15" d="M164.09,79.47l.18-.56-.63-.35-.23.5Z" transform="translate(-96.27 -22.9)"/><path class="cls-16" d="M168.88,81.05V81l.15-2.47a.43.43,0,0,0-.1-.27.49.49,0,0,0-.35-.11.57.57,0,0,0-.37.07.82.82,0,0,0-.16.18l-1,1.49h0L167.2,78l-.82,0-.12,2.17a.86.86,0,0,0,.15.61.65.65,0,0,0,.43.19.54.54,0,0,0,.4-.13.82.82,0,0,0,.17-.19l.75-1.23-.1,1.58Z" transform="translate(-96.27 -22.9)"/><path class="cls-17" d="M166.69,74.89a1.38,1.38,0,0,0-2-.53.81.81,0,0,0,.9,1.34.7.7,0,0,1-.7-1.18,1.13,1.13,0,0,1,1.56.57c.28.6,0,1.19-.68,1.68-1.64,1-4.19.31-5.67-.51-1.95-1.07-6.76-3-9.37,1.84l1.62.59c1.54-5.84,7.11-2.23,7.88-1.72l.79.53.67,0,.3,0-.17-.13a5.27,5.27,0,0,0,4.07-.31A1.75,1.75,0,0,0,166.69,74.89Z" transform="translate(-96.27 -22.9)"/><path class="cls-17" d="M162.28,73.64c.11,0-1.63-1.19-2.48,1.4.82-.87,1-1.16,1.9-1.33A7.85,7.85,0,0,0,160,75C161.93,75,161.5,73.74,162.28,73.64Z" transform="translate(-96.27 -22.9)"/><path class="cls-17" d="M159.42,74.81c.55-.24.41-.82.57-1.75a1.18,1.18,0,0,0-.72,1.94s-.09-1,.27-1.28C159.27,74.42,159.51,74.66,159.42,74.81Z" transform="translate(-96.27 -22.9)"/><path class="cls-17" d="M159.81,75.48c.26-.54.82-.36,1.74-.46a1.15,1.15,0,0,1-1.94.61s1,.15,1.27-.2C160.18,75.66,160,75.41,159.81,75.48Z" transform="translate(-96.27 -22.9)"/><path class="cls-15" d="M149.44,75.07c-1.14-.42-1.36.17-1.74.92-.24.46-1-.14-1.3.75s.29,1.31.82,1.8c.73.68,2.29-.33,3.17-1.23C151.68,76,150.21,75.35,149.44,75.07Z" transform="translate(-96.27 -22.9)"/><path class="cls-18" d="M147.76,78.83a.94.94,0,0,1-.58-.24l-.13-.12c-.5-.46-1-.89-.71-1.74a.76.76,0,0,1,.85-.59c.23,0,.38,0,.45-.18l.06-.12c.35-.7.63-1.25,1.76-.83h0c.58.21,1.35.55,1.48,1.15a1.35,1.35,0,0,1-.51,1.19A4.39,4.39,0,0,1,147.76,78.83ZM148.85,75c-.57,0-.77.37-1,.91l-.06.11c-.11.23-.34.24-.56.25s-.59,0-.73.5c-.24.78.18,1.17.67,1.62a.69.69,0,0,1,.13.11c.72.67,2.27-.4,3.08-1.23a1.23,1.23,0,0,0,.48-1.07c-.11-.54-.85-.87-1.4-1.07A2.07,2.07,0,0,0,148.85,75Z" transform="translate(-96.27 -22.9)"/><path class="cls-15" d="M150.38,83.12a1.14,1.14,0,0,1-.76-.38,1.15,1.15,0,0,0-.87-.32h-.09a1.3,1.3,0,0,1-1.35-1.06.52.52,0,0,1,0-.44c.22-.41,1-.57,1.56-.7a1.84,1.84,0,0,0,.53-.15.16.16,0,0,1,.09,0,.22.22,0,0,1,.11,0v0a.32.32,0,0,0,.28.22.19.19,0,0,0,.19-.13l.09-.2,0,.21c0,.24.37.38.73.53s.79.33.91.66a.85.85,0,0,1-.11.67C151.26,83,150.68,83.14,150.38,83.12Z" transform="translate(-96.27 -22.9)"/><path class="cls-18" d="M149.52,80.11l.06,0a.37.37,0,0,0,.33.28.26.26,0,0,0,.26-.17c.1.7,2.21.57,1.54,1.82-.41.76-.9,1-1.33,1a1.07,1.07,0,0,1-.71-.36,1.21,1.21,0,0,0-.91-.34h-.1c-.48,0-1-.09-1.29-1s1.88-1,2.1-1.22a0,0,0,0,1,.05,0m.7-.31-.16.39a.15.15,0,0,1-.14.1.28.28,0,0,1-.22-.16v0l0,0a.19.19,0,0,0-.14-.07.2.2,0,0,0-.13,0h0a2.59,2.59,0,0,1-.49.13c-.58.13-1.37.3-1.61.73a.6.6,0,0,0,0,.49,1.36,1.36,0,0,0,1.41,1.1h.09a1.08,1.08,0,0,1,.83.3,1.22,1.22,0,0,0,.8.39c.31,0,.91-.09,1.43-1.06a.85.85,0,0,0,.11-.72c-.12-.36-.54-.53-.94-.7s-.66-.27-.69-.48l-.07-.42Z" transform="translate(-96.27 -22.9)"/><path class="cls-15" d="M147.57,81.46a.86.86,0,0,1-.23-.06,1.4,1.4,0,0,1-.68-.93,1.86,1.86,0,0,0-.81-1.15.45.45,0,0,1-.22-.5c.14-.64,1.4-1.44,2-1.52h.15a1.92,1.92,0,0,1,1.11.72,1.88,1.88,0,0,0,.84.62l.21,0-.2.09a.19.19,0,0,0-.13.23.31.31,0,0,0,.21.25h0a.18.18,0,0,1,0,.2l-.16.2C149.32,80.2,148.34,81.5,147.57,81.46Z" transform="translate(-96.27 -22.9)"/><path class="cls-18" d="M147.8,77.36c.74,0,1.29,1.23,1.94,1.34-.34.14-.11.59.1.6h0a.1.1,0,0,1,0,.12c-.18.2-1.41,2-2.27,2a.83.83,0,0,1-.21-.06c-.86-.42-.41-1.39-1.48-2.07-.81-.51,1-1.8,1.77-1.91h.14m0-.13h-.15a3,3,0,0,0-2.08,1.57.52.52,0,0,0,.25.57,1.81,1.81,0,0,1,.79,1.11,1.4,1.4,0,0,0,.71,1,.66.66,0,0,0,.25.07c.8,0,1.8-1.27,2.22-1.83l.15-.19h0a.24.24,0,0,0,0-.28l0,0h0a.3.3,0,0,1-.15-.2.15.15,0,0,1,.1-.17l.38-.16-.41-.07A1.88,1.88,0,0,1,149,78a2,2,0,0,0-1.15-.75Z" transform="translate(-96.27 -22.9)"/><path class="cls-15" d="M151.86,82.09a1.9,1.9,0,0,1-1-.53,1.74,1.74,0,0,1-.51-1.16,1.61,1.61,0,0,0-.34-.9l-.15-.14.2,0h0a.18.18,0,0,0,.2-.14c0-.11,0-.26,0-.3v0a.18.18,0,0,1,.09-.18c.06,0,.11-.09.16-.18a.84.84,0,0,1,.82-.49,2.39,2.39,0,0,1,1,.34c.73.4,1.47,1.15,1.43,1.71a.63.63,0,0,1-.48.56,1.42,1.42,0,0,0-.66.76c-.19.35-.36.67-.74.65Z" transform="translate(-96.27 -22.9)"/><path class="cls-18" d="M151.33,78.13a2.23,2.23,0,0,1,.95.34c1,.52,2,1.73,1,2.15-.73.29-.72,1.45-1.38,1.41a1.77,1.77,0,0,1-.94-.52c-.64-.53-.35-1.56-.85-2.05h.05c.31,0,.35-.44.2-.56a.1.1,0,0,1,.05-.11c.22,0,.27-.71,1-.67m0-.12h0a.91.91,0,0,0-.88.52.52.52,0,0,1-.11.15h0a.21.21,0,0,0-.13.24v0l0,0a.3.3,0,0,1,0,.24.13.13,0,0,1-.14.1h0l-.41-.09.31.3a1.59,1.59,0,0,1,.32.86,1.81,1.81,0,0,0,.53,1.2,1.92,1.92,0,0,0,1,.54c.43,0,.62-.33.8-.68a1.38,1.38,0,0,1,.63-.73.72.72,0,0,0,.53-.61c0-.65-.84-1.42-1.47-1.77a2.35,2.35,0,0,0-1-.35Z" transform="translate(-96.27 -22.9)"/><path class="cls-15" d="M150.7,79.6l-.24-.21c-.5-.42-1.25-1-.65-2a2.24,2.24,0,0,0,.17-.29c.34-.6.86-1.52,1.43-1.49a.59.59,0,0,1,.38.18,2.41,2.41,0,0,0,1.58.88c.2,0,.3.09.35.17a.48.48,0,0,1,0,.35,1.49,1.49,0,0,0,0,1.1.5.5,0,0,1,0,.45c-.23.4-1.1.51-1.86.61-.47.06-1,.13-1.06.25l0,.07Z" transform="translate(-96.27 -22.9)"/><path class="cls-18" d="M151.41,75.66a.49.49,0,0,1,.34.16,2.45,2.45,0,0,0,1.61.89c.76.15-.11.47.32,1.59s-2.71.83-2.93,1.25c-.48-.45-1.56-1.07-.89-2.14.29-.47.91-1.79,1.55-1.75m0-.13c-.61,0-1.14.9-1.49,1.52l-.17.29c-.63,1,.15,1.66.66,2.1a1.71,1.71,0,0,1,.24.21l.12.1.07-.14a3,3,0,0,1,1-.22c.78-.1,1.66-.21,1.91-.64a.52.52,0,0,0,0-.5,1.42,1.42,0,0,1,0-1.06.39.39,0,0,0-.37-.6,2.34,2.34,0,0,1-1.55-.86.69.69,0,0,0-.42-.2Z" transform="translate(-96.27 -22.9)"/><path class="cls-19" d="M150.39,76.8a1.42,1.42,0,0,1,.33,1.22c.34-.79.8-.08,1.33-.41,0,.84-.12,1.07-.86,1.23.94-.1.89.44,1.2.8-.68-.34-.62.41-1.38.08.68.29,0,.64.49,1.25-.66-.18-1.21-.31-1.46-.86,0,.64-.45.66-1.14.94.32-.78-.44-.59.27-1.33-1.07.41-.64-.17-1.39,0,.45-.64.46-.91,1.21-1-.9-.19-.63-.6-.71-1.33.42.66,1-.46,1.28.48-.05-.84.58-.63.8-1Z" transform="translate(-96.27 -22.9)"/><path class="cls-20" d="M150.31,77.47a1,1,0,0,1,.22.84c.24-.54.56,0,.92-.28,0,.58-.08.73-.59.84.64-.06.61.31.82.56-.46-.24-.42.28-1,0,.47.2,0,.44.34.85-.45-.11-.83-.21-1-.58,0,.43-.31.45-.78.64.21-.54-.31-.4.18-.91-.73.28-.44-.12-.95,0,.31-.44.31-.62.83-.67-.62-.13-.43-.41-.49-.91.29.45.69-.32.88.33C149.7,77.6,150.2,77.8,150.31,77.47Z" transform="translate(-96.27 -22.9)"/><path class="cls-15" d="M150.24,78.08a.56.56,0,0,1,.13.49c.14-.32.33,0,.54-.16,0,.34,0,.43-.35.5.38,0,.36.17.49.32-.28-.14-.25.17-.56,0,.28.11,0,.25.2.5-.27-.07-.49-.12-.6-.35,0,.26-.18.27-.46.38.13-.31-.18-.23.11-.54-.43.17-.26-.06-.57,0,.19-.26.19-.36.5-.39-.37-.08-.26-.25-.29-.54.17.26.41-.19.52.19C149.88,78.15,150.17,78.27,150.24,78.08Z" transform="translate(-96.27 -22.9)"/><path class="cls-16" d="M162.94,80.13l-.27,0,0,.65,1.7.1L166,81l0-.64h-.24l-.71-2.06s-.06-.33-.56-.38h0c-.56,0-.65.28-.65.28Zm1.37-1.35s0,0,.06,0,0,0,0,0l0,.1.42,1.36-.49,0-.5,0Z" transform="translate(-96.27 -22.9)"/><path class="cls-16" d="M162.88,78.32a.84.84,0,0,0,0-.37.43.43,0,0,0-.3-.16l-.85-.05-1.17-.07h0s-.2,0-.22.25V78l-.16,2.58,1,.06.06-1,.42,0,.83,0h0a.38.38,0,0,0,.31-.15.85.85,0,0,0,.12-.37Zm-1,.74h-.24l-.41,0,0-.56.41,0h.27a.13.13,0,0,1,.14.13l0,.31S162,79.07,161.84,79.06Z" transform="translate(-96.27 -22.9)"/><path class="cls-16" d="M171.58,78.07a1.44,1.44,0,1,0,1.33,1.52A1.43,1.43,0,0,0,171.58,78.07Z" transform="translate(-96.27 -22.9)"/><path class="cls-19" d="M172.71,78.77h0c-1.1.79-1.5.3-2.57.34a1.16,1.16,0,0,0,0,.18C171.06,79.21,171.54,79.7,172.71,78.77Z" transform="translate(-96.27 -22.9)"/><path class="cls-19" d="M170.23,80.15l.09.16c.93,0,1.3.81,2.53-.39v0C171.55,80.92,171.28,80.13,170.23,80.15Z" transform="translate(-96.27 -22.9)"/><path class="cls-19" d="M172.86,79.1h0c-1.36,1-1.69.54-2.76.58l0,.17C171.16,79.65,171.56,80.4,172.86,79.1Z" transform="translate(-96.27 -22.9)"/><path class="cls-17" d="M172.9,78.36a1.77,1.77,0,0,0-3,1.8,1.83,1.83,0,0,1,0-.89h0l0-.14v0l0-.12v0s0-.07,0-.11l0,0a.31.31,0,0,1,.05-.1l0,0,.06-.09,0,0,.06-.08,0,0,.06-.07.05,0,.06-.06,0,0,.07,0,.06,0,.06,0,.07,0,.07,0,.07,0,.07,0,.08,0,.07,0,.08,0h.23a.43.43,0,0,1,.16,0,1.63,1.63,0,0,1,1.51,1.73c0,.06,0,.11,0,.17a.31.31,0,0,1,0,.08s0,.05,0,.08a.42.42,0,0,1,0,.1s0,0,0,0l0,.12v0l-.07.13h0a1.64,1.64,0,0,1-.29.35h0l0,0a3.92,3.92,0,0,1-3.38.52h-.31l-.4,0-.41,0h-.2l0-.2v-.2l-.25-.13-.06.09a1.06,1.06,0,0,1-.21.25.36.36,0,0,1-.12.08,7.81,7.81,0,0,0,3.27.67C173.24,81.68,174,79.59,172.9,78.36Z" transform="translate(-96.27 -22.9)"/><path class="cls-19" d="M172.71,78.77h0c-1.1.79-1.5.3-2.57.34a1.16,1.16,0,0,0,0,.18C171.06,79.21,171.54,79.7,172.71,78.77Z" transform="translate(-96.27 -22.9)"/><path class="cls-19" d="M170.23,80.15l.09.16c.93,0,1.3.81,2.53-.39v0C171.55,80.92,171.28,80.13,170.23,80.15Z" transform="translate(-96.27 -22.9)"/><path class="cls-19" d="M172.86,79.1h0c-1.36,1-1.69.54-2.76.58l0,.17C171.16,79.65,171.56,80.4,172.86,79.1Z" transform="translate(-96.27 -22.9)"/><path class="cls-20" d="M171.85,79.64c0,.19.07.34.17.35s.2-.14.21-.33h0c0-.18-.06-.33-.17-.34h0C172,79.31,171.86,79.46,171.85,79.64Z" transform="translate(-96.27 -22.9)"/><path class="cls-20" d="M170.9,80.34h0a.46.46,0,0,0,.42.48.45.45,0,0,0,.47-.43h0a.45.45,0,0,0-.42-.48h0A.46.46,0,0,0,170.9,80.34Z" transform="translate(-96.27 -22.9)"/><path class="cls-20" d="M170.82,79.18a.38.38,0,0,0,.34.42h0a.39.39,0,0,0,.38-.37h0a.38.38,0,0,0-.34-.42A.39.39,0,0,0,170.82,79.18Z" transform="translate(-96.27 -22.9)"/><polygon class="cls-17" points="66.76 55.92 66.8 55.34 67.18 55.56 66.95 56.05 66.76 55.92"/><path class="cls-11" d="M161.12,82.45h-.07a.14.14,0,0,1-.12-.16V82.1A.14.14,0,0,1,161,82h.11a.25.25,0,0,1,.18.08.27.27,0,0,1,.06.18.29.29,0,0,1-.09.19A.27.27,0,0,1,161.12,82.45Z" transform="translate(-96.27 -22.9)"/><path class="cls-11" d="M160.52,82.42h-.07a.14.14,0,0,1-.12-.15v-.18a.13.13,0,0,1,.1-.13h.11a.48.48,0,0,1,.18.06.24.24,0,0,1,.07.2.19.19,0,0,1-.12.19A.35.35,0,0,1,160.52,82.42Z" transform="translate(-96.27 -22.9)"/><path class="cls-11" d="M162,82.51l-.08,0a.13.13,0,0,1-.07,0,.16.16,0,0,1-.06-.12s0,0,0-.07l0-.29a.14.14,0,0,1,.08-.13l.07,0a.3.3,0,0,1,.23,0,.44.44,0,0,1,.08.11h0a.23.23,0,0,1,0,.11.41.41,0,0,1,0,.11.43.43,0,0,1-.09.24A.32.32,0,0,1,162,82.51Zm0-.3Z" transform="translate(-96.27 -22.9)"/><path class="cls-11" d="M162.57,82.54a.22.22,0,0,1-.17-.09.33.33,0,0,1,0-.15.21.21,0,0,1,.07-.14l.09,0h0l.09,0h0a.15.15,0,0,1,.14.16v.11a.15.15,0,0,1,0,.1l-.07.06A.3.3,0,0,1,162.57,82.54Zm0-.19v0h0Zm.06,0v0Zm-.08,0h0v0Z" transform="translate(-96.27 -22.9)"/><path class="cls-11" d="M164.84,82.42h-.1a.16.16,0,0,1-.09-.15v-.15a.15.15,0,0,1,.16-.14h0a.33.33,0,0,1,.15,0,.21.21,0,0,1,.09.2.23.23,0,0,1-.1.18A.22.22,0,0,1,164.84,82.42Zm0-.15Z" transform="translate(-96.27 -22.9)"/><path class="cls-11" d="M160.53,82.17h-.1a.15.15,0,0,1-.09-.15v-.14a.17.17,0,0,1,.16-.15h0a.33.33,0,0,1,.15.05.18.18,0,0,1,.09.19.23.23,0,0,1-.1.18A.29.29,0,0,1,160.53,82.17Zm0-.16h0Z" transform="translate(-96.27 -22.9)"/><path class="cls-11" d="M164.83,82.67h-.07a.15.15,0,0,1-.12-.15v-.18a.14.14,0,0,1,.1-.14h.05s0,0,0,0h0a.28.28,0,0,1,.18.06.22.22,0,0,1,.07.19.21.21,0,0,1-.12.2A.26.26,0,0,1,164.83,82.67Z" transform="translate(-96.27 -22.9)"/><path class="cls-11" d="M155.74,81.86h-.21a.14.14,0,0,1-.11-.06.14.14,0,0,1,0-.11l0-.11.06-.09.09-.06a.23.23,0,0,1,.22,0,.22.22,0,0,1,.07.09h0a.19.19,0,0,1,0,.1v.08A.13.13,0,0,1,155.74,81.86Z" transform="translate(-96.27 -22.9)"/><path class="cls-11" d="M154.16,82.06a.21.21,0,0,1-.13,0,.22.22,0,0,1-.07-.09.36.36,0,0,1,0-.09s0-.06,0-.09v-.17s0-.09,0-.13,0-.09,0-.12a.27.27,0,0,1,.09-.12.23.23,0,0,1,.28,0,.24.24,0,0,1,.08.09l0,.09a307182354954,307182354954,0,0,0,0,.18s0,.06,0,.09a.49.49,0,0,1,0,.12l0,.13a.44.44,0,0,1-.08.11A.27.27,0,0,1,154.16,82.06Z" transform="translate(-96.27 -22.9)"/><path class="cls-11" d="M157,82.21a.24.24,0,0,1-.14,0,.31.31,0,0,1-.08-.11.53.53,0,0,1,0-.11.37.37,0,0,1,0-.11.44.44,0,0,1,.08-.23.25.25,0,0,1,.35-.06.26.26,0,0,1,.09.09s0,.07,0,.11a.56.56,0,0,1,0,.13.41.41,0,0,1,0,.12.37.37,0,0,1,0,.11.31.31,0,0,1-.11.09A.19.19,0,0,1,157,82.21Z" transform="translate(-96.27 -22.9)"/><path class="cls-11" d="M165.37,82.71a.23.23,0,0,1-.17-.1.29.29,0,0,1,0-.14.17.17,0,0,1,.07-.14.18.18,0,0,1,.09-.06h.14a.15.15,0,0,1,.14.16v.11a.13.13,0,0,1,0,.1l-.07.05Zm0-.19v0h0Zm.06,0v0h0Zm-.08,0h0v0Z" transform="translate(-96.27 -22.9)"/><path class="cls-11" d="M159.69,82.37a.19.19,0,0,1-.16-.09.24.24,0,0,1,0-.15.21.21,0,0,1,.07-.14.16.16,0,0,1,.09,0h0l.09,0h0a.15.15,0,0,1,.14.16v.11a.12.12,0,0,1,0,.1s0,0-.07.06A.27.27,0,0,1,159.69,82.37Zm0-.19,0,0h0Zm.06,0v0Zm-.08,0h0v0Z" transform="translate(-96.27 -22.9)"/><path class="cls-11" d="M158.31,82.29h-.07a.15.15,0,0,1-.12-.16v-.18a.15.15,0,0,1,.1-.14h.11a.25.25,0,0,1,.18.07.24.24,0,0,1,.06.18.22.22,0,0,1-.09.19A.27.27,0,0,1,158.31,82.29Z" transform="translate(-96.27 -22.9)"/><path class="cls-11" d="M170.58,82.74h-.21a.12.12,0,0,1-.1,0,.14.14,0,0,1,0-.12.23.23,0,0,1,0-.11.15.15,0,0,1,.06-.09l.08-.06a.22.22,0,0,1,.22,0,.24.24,0,0,1,.08.09h0a.44.44,0,0,1,0,.1.19.19,0,0,1,0,.08A.15.15,0,0,1,170.58,82.74Z" transform="translate(-96.27 -22.9)"/><path class="cls-11" d="M168.23,82.88l-.08,0a.13.13,0,0,1-.07,0,.16.16,0,0,1-.06-.12.22.22,0,0,0,0-.08l0-.28a.13.13,0,0,1,.08-.13l.07,0a.35.35,0,0,1,.23,0,.39.39,0,0,1,.08.1h0a.2.2,0,0,1,0,.11.41.41,0,0,1,0,.11.43.43,0,0,1-.09.24A.32.32,0,0,1,168.23,82.88Zm0-.3Z" transform="translate(-96.27 -22.9)"/><path class="cls-11" d="M168.8,82.91a.22.22,0,0,1-.17-.09.33.33,0,0,1,0-.15.19.19,0,0,1,.07-.14l.09,0h0l.09,0h.05a.15.15,0,0,1,.14.16v.11a.12.12,0,0,1,0,.1s-.05,0-.07.06A.27.27,0,0,1,168.8,82.91Zm0-.19,0,0h0Zm.06,0v0Zm-.08,0h0v0Z" transform="translate(-96.27 -22.9)"/><path class="cls-11" d="M167.42,82.6a.29.29,0,0,1-.19-.07.23.23,0,0,1-.06-.19.21.21,0,0,1,.1-.18.23.23,0,0,1,.17,0h.05a.16.16,0,0,1,.14.16v.18a.14.14,0,0,1-.14.14h-.06Zm0-.15Z" transform="translate(-96.27 -22.9)"/><path class="cls-21" d="M153.76,81.55l-.08,0a.17.17,0,0,0-.1,0h-.13V81.3l.32,0,0-.17h-.06a0,0,0,0,0,0,0s0,0,0,0h-.06l-.26,0,0,.35,0,0a.09.09,0,0,1,.07,0h0l.05,0,0,0a.05.05,0,0,1,0,0s0,0,0,0v.07a.07.07,0,0,1,0,0,.08.08,0,0,1,0,0l0,0h-.1s0,0,0,0,0,0,0,0v-.07s0,0,0,0,0,0,0,0h-.06l0,0a0,0,0,0,0,0,0s0,0,0,0a.43.43,0,0,0,0,0,.1.1,0,0,0,0,0l.07,0,.08,0h.1l.09,0a.22.22,0,0,0,.06-.07.17.17,0,0,0,0-.1.28.28,0,0,0,0-.09A.3.3,0,0,0,153.76,81.55Z" transform="translate(-96.27 -22.9)"/><path class="cls-11" d="M153.52,82.09l-.13,0-.1-.07a.23.23,0,0,1-.08-.09.19.19,0,0,1,0-.13.25.25,0,0,1,0-.08l.05-.06h0a.17.17,0,0,1,0-.1l0-.34a.15.15,0,0,1,0-.11.21.21,0,0,1,.11,0l.22,0a.12.12,0,0,1,.12-.06h.07a.12.12,0,0,1,.1,0,.17.17,0,0,1,0,.12l0,.16a.14.14,0,0,1-.07.11h0a.37.37,0,0,1,.07.14.59.59,0,0,1,0,.14.48.48,0,0,1-.05.17.43.43,0,0,1-.11.12.31.31,0,0,1-.13.06A.38.38,0,0,1,153.52,82.09Zm-.19-.34Zm.24-.11v0l0,0h-.05Z" transform="translate(-96.27 -22.9)"/><path class="cls-21" d="M154.44,81.44a.13.13,0,0,0,0-.08l0-.07s0,0-.06,0a.15.15,0,0,0-.09,0,.14.14,0,0,0-.09,0l-.07,0a.17.17,0,0,0-.06.06.2.2,0,0,0,0,.08.11.11,0,0,0,0,.08s0,.06,0,.09v.09s0,.06,0,.09l0,.08.05.06a.18.18,0,0,0,.07,0l.09,0h.09l.07,0,.06-.06s0-.05,0-.08l0-.08a.28.28,0,0,0,0-.09v-.09A.29.29,0,0,0,154.44,81.44Zm-.15.3a.29.29,0,0,1,0,.09.09.09,0,0,1,0,.06l-.06,0,0,0,0,0a.08.08,0,0,1,0,0,.2.2,0,0,1,0-.07v-.15s0-.08,0-.11l0-.09a.09.09,0,0,1,0-.06.07.07,0,0,1,.06,0h.05l0,0s0,0,0,.05a.17.17,0,0,0,0,.07v.16S154.3,81.71,154.29,81.74Z" transform="translate(-96.27 -22.9)"/><path class="cls-11" d="M154.15,82.13a.32.32,0,0,1-.14,0L153.9,82a.39.39,0,0,1-.08-.1.76.76,0,0,1,0-.11.5.5,0,0,1,0-.12v-.11s0-.07,0-.11,0-.08,0-.11l.06-.11.09-.09a.35.35,0,0,1,.12-.07.39.39,0,0,1,.28,0l.11.08a.36.36,0,0,1,.07.1l.05.11s0,.08,0,.12v.11a.52.52,0,0,1,0,.11.36.36,0,0,1,0,.11.54.54,0,0,1-.05.11l-.09.09a.23.23,0,0,1-.12.06A.32.32,0,0,1,154.15,82.13Z" transform="translate(-96.27 -22.9)"/><path class="cls-21" d="M155.22,82a.38.38,0,0,0,0-.1v-.09a.31.31,0,0,0,0-.1s0-.07,0-.11h.08v-.08h-.15l-.22,0h-.15v.08h.11a1.43,1.43,0,0,1,0,.29c0,.06-.05.09-.09.08h0v0a0,0,0,0,0,0,0V82h.08l.08,0a.19.19,0,0,0,.07-.08.75.75,0,0,0,0-.15,1.44,1.44,0,0,0,0-.24h.13a.31.31,0,0,1,0,.1v.11s0,.06,0,.09v.1H155V82h.28V82Z" transform="translate(-96.27 -22.9)"/><path class="cls-11" d="M154.78,82.17l-.08,0-.07,0a.17.17,0,0,1-.08-.14.35.35,0,0,0,0-.06l0,0a.11.11,0,0,1,0-.06.08.08,0,0,1,0,0,.18.18,0,0,1,.09-.06h0s0,0,0-.08a.13.13,0,0,1-.09-.15v-.08a.17.17,0,0,1,.16-.14H155l.27,0h.11a.17.17,0,0,1,.14.15.11.11,0,0,1,0,0v.06a.14.14,0,0,1-.08.1.28.28,0,0,0,0,.08v.07a.17.17,0,0,1,.07.14v.08a.21.21,0,0,1-.06.1.11.11,0,0,1-.11,0H155a.2.2,0,0,1-.08,0A.28.28,0,0,1,154.78,82.17Z" transform="translate(-96.27 -22.9)"/><path class="cls-21" d="M155.85,81.59a.13.13,0,0,0-.06-.07.15.15,0,0,0-.11,0h-.11a.24.24,0,0,0-.08.06.36.36,0,0,0-.07.1.51.51,0,0,0,0,.13.2.2,0,0,0,0,.11.13.13,0,0,0,.05.09.16.16,0,0,0,.08.06l.1,0h.08l.07,0s0,0,.06,0l0-.07-.07,0h-.06l-.08,0a.1.1,0,0,1-.05,0,.09.09,0,0,1,0-.06.17.17,0,0,1,0-.07l.35,0v-.11A.17.17,0,0,0,155.85,81.59Zm-.31.11a.14.14,0,0,1,0-.07s0,0,0,0l0,0h.08l0,0a93291015924.32,93291015924.32,0,0,1,0,.1Z" transform="translate(-96.27 -22.9)"/><path class="cls-11" d="M155.64,82.21a.41.41,0,0,1-.16,0,.32.32,0,0,1-.13-.1.28.28,0,0,1-.08-.15.39.39,0,0,1,0-.16.48.48,0,0,1,0-.18.38.38,0,0,1,.09-.14.33.33,0,0,1,.14-.1.41.41,0,0,1,.36.05.32.32,0,0,1,.1.13.23.23,0,0,1,0,.14.45.45,0,0,1,0,.11v0a.12.12,0,0,1-.05.1V82a.15.15,0,0,1-.07.17l-.09,0-.08,0A.4.4,0,0,1,155.64,82.21Z" transform="translate(-96.27 -22.9)"/><path class="cls-21" d="M156.48,81.54h-.07l-.37,0H156v.1a.13.13,0,0,0,0,.06v0H156l0-.1a0,0,0,0,1,0,0h.1v.3a.34.34,0,0,0,0,.1H156v.08h.3V82h-.09v-.2a.28.28,0,0,1,0-.09v-.11h.11a0,0,0,0,1,0,0v.09h.07v-.19Z" transform="translate(-96.27 -22.9)"/><path class="cls-11" d="M156.33,82.24H156a.15.15,0,0,1-.14-.15v0a.43.43,0,0,1,0,0,.14.14,0,0,1,.09-.12h-.09a.15.15,0,0,1-.1-.15V81.5a.16.16,0,0,1,.05-.11.11.11,0,0,1,.11,0h.08l.42,0a.15.15,0,0,1,.11,0,.16.16,0,0,1,0,.12v.19a.14.14,0,0,1-.12.14h-.09a.13.13,0,0,1,.08.12v.11A.14.14,0,0,1,156.33,82.24Z" transform="translate(-96.27 -22.9)"/><path class="cls-21" d="M157.23,81.64l-.08-.06-.1,0a.2.2,0,0,0-.11,0,.19.19,0,0,0-.09,0,.21.21,0,0,0-.06.1.21.21,0,0,0,0,.12.49.49,0,0,0,0,.12.41.41,0,0,0,0,.09.13.13,0,0,0,.07.06l.11,0,.12,0a.24.24,0,0,0,.09-.06l.06-.09a.51.51,0,0,0,0-.13.49.49,0,0,0,0-.12A.41.41,0,0,0,157.23,81.64Zm-.08.31,0,.06-.05,0a.07.07,0,0,1-.06,0,.07.07,0,0,1-.06,0l0-.05a.14.14,0,0,1,0-.07.22.22,0,0,1,0-.08.21.21,0,0,1,.05-.15.11.11,0,0,1,.1,0l.05,0,0,0a.14.14,0,0,1,0,.07.22.22,0,0,1,0,.09S157.15,81.93,157.15,82Z" transform="translate(-96.27 -22.9)"/><path class="cls-11" d="M157,82.29a.29.29,0,0,1-.16,0,.31.31,0,0,1-.13-.1.37.37,0,0,1-.07-.14.5.5,0,0,1,0-.17,1.16,1.16,0,0,1,0-.18.38.38,0,0,1,.09-.13.42.42,0,0,1,.47-.08.38.38,0,0,1,.13.09h0a.32.32,0,0,1,.08.14.88.88,0,0,1,0,.17.85.85,0,0,1,0,.17.42.42,0,0,1-.09.14.33.33,0,0,1-.14.1A.37.37,0,0,1,157,82.29Z" transform="translate(-96.27 -22.9)"/><path class="cls-21" d="M157.9,82.11v-.29a.45.45,0,0,0,0-.11H158v-.08h-.61v0s0,0,0,0v0h.08V82s0,.07,0,.11h-.08v.08h.28v-.06h-.07a.41.41,0,0,1,0-.11v-.09a7142690978659.44,7142690978659.44,0,0,0,0-.2h.19v.21a.34.34,0,0,1,0,.09v.1h-.06v0a.06.06,0,0,0,0,0H158v-.06h-.08Z" transform="translate(-96.27 -22.9)"/><path class="cls-11" d="M158,82.34h-.61a.15.15,0,0,1-.14-.14v0a.13.13,0,0,0,0-.06.18.18,0,0,1,.08-.11V81.8a.13.13,0,0,1-.07-.14v-.07a.16.16,0,0,1,.16-.14h.14l.36,0H158a.16.16,0,0,1,.14.14v.06s0,0,0,.06a.16.16,0,0,1-.08.1.17.17,0,0,1,0,.08V82a.13.13,0,0,1,.07.14v.07a.14.14,0,0,1-.05.11A.2.2,0,0,1,158,82.34Z" transform="translate(-96.27 -22.9)"/><path class="cls-21" d="M158.53,81.93l-.06,0-.08,0h-.11v-.06s0,0,0-.08h.09v-.08h-.3v0h.08a.37.37,0,0,1,0,.11V82a.34.34,0,0,1,0,.1h-.07v0a.06.06,0,0,0,0,0h.37l.08,0a.21.21,0,0,0,0-.06.1.1,0,0,0,0-.07.16.16,0,0,0,0-.07Zm-.13.19a.15.15,0,0,1-.08,0h-.06V82h.06l.09,0a.19.19,0,0,1,0,.08S158.42,82.11,158.4,82.12Z" transform="translate(-96.27 -22.9)"/><path class="cls-11" d="M158.33,82.37h-.28a.15.15,0,0,1-.14-.15v-.1A.17.17,0,0,1,158,82v-.15a.15.15,0,0,1-.08-.14v0a.08.08,0,0,0,0,0,.15.15,0,0,1,.15-.14h.3a.14.14,0,0,1,.14.14v0a.07.07,0,0,1,0,0h0a.26.26,0,0,1,.1.07.35.35,0,0,1,.07.12.41.41,0,0,1,0,.12.22.22,0,0,1,0,.13.31.31,0,0,1-.09.11.33.33,0,0,1-.12,0Z" transform="translate(-96.27 -22.9)"/><path class="cls-21" d="M158.78,82.16v-.24a.07.07,0,0,1,0,0v-.06a.09.09,0,0,1,0,0h.07v0s0,0,0,0h-.3v0h.08v.4h-.07a.08.08,0,0,1,0,0v0h.29v-.06Z" transform="translate(-96.27 -22.9)"/><path class="cls-11" d="M158.85,82.39h-.29a.15.15,0,0,1-.13-.15v-.1a.15.15,0,0,1,.08-.11v-.15a.15.15,0,0,1-.08-.14v0a.08.08,0,0,0,0,0,.15.15,0,0,1,.15-.14h.29a.14.14,0,0,1,.14.14v0a.11.11,0,0,1,0,.06.13.13,0,0,1-.08.11V82a.13.13,0,0,1,.07.14v.08a.12.12,0,0,1-.05.1A.1.1,0,0,1,158.85,82.39Z" transform="translate(-96.27 -22.9)"/><path class="cls-21" d="M159.47,81.71h-.08l-.37,0H159v.1s0,0,0,.06v0H159v-.09s0,0,0,0a0,0,0,0,1,0,0h.09v.29s0,.07,0,.11H159s0,0,0,0v0h.3s0,0,0,0v0h-.09a.37.37,0,0,1,0-.11V82s0-.07,0-.1a.45.45,0,0,1,0-.11h.1s0,0,0,0v.1h.08v-.2Z" transform="translate(-96.27 -22.9)"/><path class="cls-11" d="M159.32,82.42H159a.15.15,0,0,1-.14-.14v-.05a.11.11,0,0,0,0,0A.16.16,0,0,1,159,82h-.08a.13.13,0,0,1-.1-.15v-.2a.12.12,0,0,1,0-.1.15.15,0,0,1,.11,0H159l.43,0a.16.16,0,0,1,.1,0,.12.12,0,0,1,0,.11v.2a.15.15,0,0,1-.12.14h-.09a.18.18,0,0,1,.09.13v0a.13.13,0,0,0,0,.06A.14.14,0,0,1,159.32,82.42Z" transform="translate(-96.27 -22.9)"/><path class="cls-21" d="M159.9,82.22v-.13a.2.2,0,0,1,0-.07v-.18s0,0,0,0a.12.12,0,0,0,0-.05l-.08,0h-.08l-.07,0,0,0a.14.14,0,0,0,0,.06v0a0,0,0,0,0,0,0h.09s0,0,0,0v0a.14.14,0,0,1,0-.06.11.11,0,0,1,.06,0,.09.09,0,0,1,.06,0s0,0,0,.1V82a.14.14,0,0,0-.09,0l-.09,0-.07,0a.19.19,0,0,0,0,.09s0,0,0,.06l0,0,0,0h.14l.06,0h0v0H160v0h0v0h-.08Zm-.12-.12v.08a.05.05,0,0,1,0,0h0a.06.06,0,0,1,0,0,.13.13,0,0,1,0-.06.06.06,0,0,1,0,0l0,0h.1Z" transform="translate(-96.27 -22.9)"/><path class="cls-11" d="M159.78,82.46l-.06,0a.34.34,0,0,1-.2,0l-.09-.06-.06-.1a.49.49,0,0,1,0-.12.25.25,0,0,1,.06-.17h0a.24.24,0,0,1,0-.08v0a.24.24,0,0,1,0-.13.2.2,0,0,1,.09-.09l.11,0a.37.37,0,0,1,.26,0,.28.28,0,0,1,.1.09.26.26,0,0,1,.05.12.28.28,0,0,1,0,.09v.19h0a.17.17,0,0,1,.07.14v0a.06.06,0,0,1,0,0,.14.14,0,0,1-.11.13h0l-.12,0h-.07Z" transform="translate(-96.27 -22.9)"/><path class="cls-21" d="M160.75,82.09l-.05,0,0,0h0a.05.05,0,0,0,0,0l0,0s0,0,0,0a.12.12,0,0,0-.05-.1.22.22,0,0,0-.15,0h-.28s0,0,0,0v0h.08v.3a.34.34,0,0,1,0,.1h-.07v0s0,0,0,0h.28a.29.29,0,0,0,.17,0,.15.15,0,0,0,.07-.12.13.13,0,0,0,0-.06Zm-.26-.15s0,0,0-.08h0a.13.13,0,0,1,.08,0,0,0,0,0,1,0,.06.06.06,0,0,1,0,.06.08.08,0,0,1-.07,0h0Zm.13.32h-.15a.19.19,0,0,0,0-.08v-.09h.06s.08,0,.09,0a.08.08,0,0,1,0,.07A.08.08,0,0,1,160.62,82.26Z" transform="translate(-96.27 -22.9)"/><path class="cls-11" d="M160.54,82.5h-.28a.15.15,0,0,1-.14-.15v-.1a.17.17,0,0,1,.09-.11V82a.17.17,0,0,1-.08-.12.11.11,0,0,1,0,0v-.06a.14.14,0,0,1,.15-.12h.29a.31.31,0,0,1,.22.07.23.23,0,0,1,.11.23.3.3,0,0,1,0,.1v0a.32.32,0,0,1,0,.14.33.33,0,0,1-.14.24A.53.53,0,0,1,160.54,82.5Z" transform="translate(-96.27 -22.9)"/><path class="cls-21" d="M161.34,82.09l-.06,0h-.19V82a.34.34,0,0,1,0-.09h.09v-.08h-.3v.08H161s0,.07,0,.11v.18a.41.41,0,0,1,0,.11h-.07a0,0,0,0,0,0,0v0h.28a.27.27,0,0,0,.09,0l.07,0a.12.12,0,0,0,0,0,.24.24,0,0,0,0-.08v-.06Zm-.13.2a.11.11,0,0,1-.08,0h-.06v0a.07.07,0,0,1,0-.05v-.1h.06l.08,0a.06.06,0,0,1,0,.07A.1.1,0,0,1,161.21,82.29Z" transform="translate(-96.27 -22.9)"/><path class="cls-11" d="M161.13,82.53h-.28a.13.13,0,0,1-.13-.14v-.11a.14.14,0,0,1,.09-.11V82a.17.17,0,0,1-.07-.14v0a.08.08,0,0,1,0,0,.17.17,0,0,1,.15-.14h.3a.17.17,0,0,1,.14.14v.06s0,0,0,0h0a.3.3,0,0,1,.11.07.41.41,0,0,1,.07.11.49.49,0,0,1,0,.12.33.33,0,0,1,0,.14.28.28,0,0,1-.09.1.23.23,0,0,1-.12.06A.32.32,0,0,1,161.13,82.53Z" transform="translate(-96.27 -22.9)"/><path class="cls-21" d="M161.59,82.33V82a.09.09,0,0,0,0,0v0h.08v-.08h-.29v.08h.08v.4h-.07s0,0,0,0v0h.28v-.06h-.08Z" transform="translate(-96.27 -22.9)"/><path class="cls-11" d="M161.65,82.56h-.28a.15.15,0,0,1-.14-.14.11.11,0,0,1,0-.05v-.06a.16.16,0,0,1,.08-.1V82a.16.16,0,0,1-.08-.14v0a.08.08,0,0,1,0,0,.15.15,0,0,1,.15-.14h.29a.15.15,0,0,1,.14.15v.05a.07.07,0,0,1,0,0,.15.15,0,0,1-.08.11v.15a.12.12,0,0,1,.07.13v.08a.19.19,0,0,1-.05.11A.2.2,0,0,1,161.65,82.56Z" transform="translate(-96.27 -22.9)"/><path class="cls-21" d="M162.26,82a.09.09,0,0,0-.06-.06.11.11,0,0,0-.08,0H162l-.07,0v0h-.21v.06h0l.07,0v.4a.34.34,0,0,1,0,.1v.09s0,0,0,.06h-.07v.08h.33v-.06h-.13s0,0,0-.08v-.1h.18l.1-.06a.33.33,0,0,0,.06-.1.57.57,0,0,0,0-.14.28.28,0,0,0,0-.09A.25.25,0,0,0,162.26,82Zm-.14.37a.15.15,0,0,1-.11,0h0l0,0V82l0,0h0a.07.07,0,0,1,.06,0l0,0a.14.14,0,0,1,0,.07v.08A.25.25,0,0,1,162.12,82.32Z" transform="translate(-96.27 -22.9)"/><path class="cls-11" d="M162,82.84h-.33a.14.14,0,0,1-.14-.12v-.09a.11.11,0,0,1,0,0,.14.14,0,0,1,.08-.09v0a.41.41,0,0,1,0-.1v-.1a.25.25,0,0,1,0-.08v-.09a.18.18,0,0,1-.07-.1v-.09a.11.11,0,0,1,0-.05.16.16,0,0,1,.13-.11H162a.32.32,0,0,1,.25,0,.27.27,0,0,1,.1.11h0a.5.5,0,0,1,.05.13.66.66,0,0,1,0,.14.45.45,0,0,1-.15.34l-.11.08s0,0,0,0v.08a.09.09,0,0,1,0,0A.13.13,0,0,1,162,82.84Zm0-.63Z" transform="translate(-96.27 -22.9)"/><path class="cls-21" d="M162.78,82.39V82l0-.06-.05,0-.09,0h-.07l-.07,0,0,0a.07.07,0,0,0,0,.06v.07h.1a0,0,0,0,1,0,0v0a.14.14,0,0,1,0-.06l.06,0a.09.09,0,0,1,.06,0,.15.15,0,0,1,0,.1v.07a.27.27,0,0,0-.09,0l-.09,0-.07,0a.15.15,0,0,0,0,.09.13.13,0,0,0,0,.06l0,0,0,0h.06a.12.12,0,0,0,.08,0l.06,0h0v0h.19v0h-.08Zm-.12-.12v.09l0,0h-.05l0,0a.14.14,0,0,1,0-.06s0,0,0,0l0,0h.09Z" transform="translate(-96.27 -22.9)"/><path class="cls-11" d="M162.66,82.63h-.06a.46.46,0,0,1-.2,0,.47.47,0,0,1-.09-.06l-.06-.1a.25.25,0,0,1,0-.12.25.25,0,0,1,.06-.17h0a.24.24,0,0,1,0-.08v0a.33.33,0,0,1,0-.14.28.28,0,0,1,.1-.09l.1,0a.39.39,0,0,1,.27,0,.28.28,0,0,1,.1.09.26.26,0,0,1,.05.12.28.28,0,0,1,0,.09v.19h0a.17.17,0,0,1,.07.13v.07a.14.14,0,0,1-.12.14h-.22Zm.34-.14Zm0,0Z" transform="translate(-96.27 -22.9)"/><path class="cls-21" d="M163.71,82.35v-.19a.41.41,0,0,0,0-.11h.08V82h-.27V82h.06v.41h-.15v-.3s0-.07,0-.11h.06V82h-.25V82h.06a.45.45,0,0,1,0,.11v.09c0,.06,0,.13,0,.2h-.16s0-.07,0-.11v-.1a.28.28,0,0,0,0-.09V82h.06v-.08h-.27V82H163a.31.31,0,0,1,0,.1v.19a.41.41,0,0,1,0,.11h-.07a.08.08,0,0,1,0,0v0h.15l.57,0h.05s0,0,0,0h0v.11h.08v-.21h-.09Z" transform="translate(-96.27 -22.9)"/><path class="cls-11" d="M163.76,82.82h-.1a.17.17,0,0,1-.1-.13l-.59,0h-.07a.13.13,0,0,1-.13-.14v-.1a.16.16,0,0,1,.09-.12v-.14a.16.16,0,0,1-.08-.14v0s0,0,0,0a.13.13,0,0,1,.15-.13h.1s0,0,0,0h.73A.14.14,0,0,1,164,82v0s0,0,0,.06a.15.15,0,0,1-.08.11s0,0,0,.07v.07a.16.16,0,0,1,.09.14l0,.2a.14.14,0,0,1-.12.14Zm-.09-.14Z" transform="translate(-96.27 -22.9)"/><path class="cls-21" d="M164.42,82.5v-.21a.31.31,0,0,1,0-.09.45.45,0,0,1,0-.11h.07V82h-.27v.08h.08v0l-.23.22v0a.22.22,0,0,0,0-.08.25.25,0,0,1,0-.08v-.06h.07V82h-.28v.08H164a.37.37,0,0,1,0,.11v.19a.45.45,0,0,1,0,.11h-.07v0a.08.08,0,0,0,0,0h.28V82.5s0,0,0,0h-.08v0l.23-.23v.14a.25.25,0,0,1,0,.08v.06h-.07v0a.08.08,0,0,0,0,0h.28V82.5Z" transform="translate(-96.27 -22.9)"/><path class="cls-11" d="M164.23,82.71h-.37a.14.14,0,0,1-.14-.14v-.11a.14.14,0,0,1,.09-.11v-.14a.16.16,0,0,1-.08-.14v0a.06.06,0,0,0,0,0,.15.15,0,0,1,.15-.14h.63a.14.14,0,0,1,.14.14v.06a.07.07,0,0,1,0,.05.15.15,0,0,1-.08.11v.14a.16.16,0,0,1,.08.14v.06a.14.14,0,0,1,0,.11.16.16,0,0,1-.11,0h-.25Z" transform="translate(-96.27 -22.9)"/><path class="cls-21" d="M165.06,82.34l-.05,0h0l0,0s0,0,0,0,0,0,0,0a.14.14,0,0,0-.05-.11.27.27,0,0,0-.15,0h-.28a.06.06,0,0,0,0,0v0h.08v.29s0,.07,0,.11h-.07v.07h.28a.23.23,0,0,0,.17,0,.13.13,0,0,0,.07-.12.15.15,0,0,0,0-.07Zm-.26-.15s0,0,0-.08h0l.08,0a0,0,0,0,1,0,.06.06.06,0,0,1,0,.06h-.12Zm.13.32a.13.13,0,0,1-.09,0h-.05v-.17h.06l.09,0a.09.09,0,0,1,0,.07A.07.07,0,0,1,164.93,82.51Z" transform="translate(-96.27 -22.9)"/><path class="cls-11" d="M164.85,82.75h-.28a.14.14,0,0,1-.14-.14v0a.07.07,0,0,1,0-.05.14.14,0,0,1,.08-.12v-.14a.2.2,0,0,1-.08-.12.13.13,0,0,1,0-.06v0a.15.15,0,0,1,.15-.13h.29a.52.52,0,0,1,.23.07.26.26,0,0,1,.1.23.25.25,0,0,1,0,.1v0a.32.32,0,0,1,0,.14.3.3,0,0,1-.14.23A.38.38,0,0,1,164.85,82.75Z" transform="translate(-96.27 -22.9)"/><path class="cls-21" d="M165.58,82.56v-.38l0-.06,0,0-.09,0h-.07l-.07,0a.08.08,0,0,0,0,0,.07.07,0,0,0,0,.06v.07h.1s0,0,0,0v0s0,0,0,0a.08.08,0,0,1,.06,0,.06.06,0,0,1,.06,0,.16.16,0,0,1,0,.1v.07h-.09l-.09,0a.18.18,0,0,0-.07,0,.2.2,0,0,0,0,.08s0,.05,0,.06l0,0,0,0h.14l.06,0v.06h.19v0h0v0h-.08Zm-.12-.13v.09l0,0h0s0,0,0,0a0,0,0,0,1,0,0s0,0,0,0l0,0h.09Z" transform="translate(-96.27 -22.9)"/><path class="cls-11" d="M165.46,82.8l-.06,0a.28.28,0,0,1-.2,0,.24.24,0,0,1-.09-.06l-.06-.1a.33.33,0,0,1,0-.28v0a.19.19,0,0,1,0-.07v0a.21.21,0,0,1,0-.13.2.2,0,0,1,.09-.09l.1,0a.36.36,0,0,1,.37.11.31.31,0,0,1,.05.12.34.34,0,0,1,0,.1v.19h0a.16.16,0,0,1,.07.14v0s0,0,0,0a.12.12,0,0,1-.12.12h-.22Z" transform="translate(-96.27 -22.9)"/><path class="cls-21" d="M166.26,82.61V82.4a.34.34,0,0,1,0-.09.45.45,0,0,1,0-.11h.07v0s0,0,0,0h-.28v.08h.07v.16h-.21v-.07s0-.06,0-.09H166v-.07h-.28v.08h.08a.37.37,0,0,1,0,.11v.19a.45.45,0,0,1,0,.11h-.07a0,0,0,0,1,0,0v0H166v-.08h-.08s0-.07,0-.09v-.08h.21v.17h-.07a0,0,0,0,1,0,0v0h.29v-.08Z" transform="translate(-96.27 -22.9)"/><path class="cls-11" d="M166.33,82.84h-.63a.13.13,0,0,1-.13-.14v-.11a.17.17,0,0,1,.09-.11V82.3a.16.16,0,0,1-.08-.14v0s0,0,0,0a.17.17,0,0,1,.15-.14h.62a.14.14,0,0,1,.14.14v.06a.07.07,0,0,1,0,0,.13.13,0,0,1-.08.11v.14a.16.16,0,0,1,.08.14v.08a.16.16,0,0,1,0,.11A.19.19,0,0,1,166.33,82.84Z" transform="translate(-96.27 -22.9)"/><path class="cls-21" d="M167,82.65a.37.37,0,0,1,0-.11v-.1s0,0,0-.09a.45.45,0,0,1,0-.11h.07a.06.06,0,0,1,0,0v0h-.28v.08h.07v0l-.24.22v-.13s0,0,0-.07v-.07h.07v0a.08.08,0,0,0,0,0h-.28v.08h.08v.29s0,.07,0,.11h-.07v.07h.27v-.08h-.07v0l.23-.23v.14a.22.22,0,0,1,0,.08v.06h-.07v.07h.28v-.06H167Z" transform="translate(-96.27 -22.9)"/><path class="cls-11" d="M166.69,82.86h-.28a.14.14,0,0,1-.14-.14v0s0-.05,0-.06a.15.15,0,0,1,.08-.11v-.14a.13.13,0,0,1-.07-.14v-.08a.17.17,0,0,1,.16-.14h.63a.15.15,0,0,1,.13.14v.11a.17.17,0,0,1-.09.11v.15a.14.14,0,0,1,.08.13v.08a.14.14,0,0,1-.05.11.2.2,0,0,1-.11,0h-.34Z" transform="translate(-96.27 -22.9)"/><path class="cls-21" d="M167.59,82.68v-.29a.41.41,0,0,0,0-.11h.08v-.07h-.38l-.07,0,0,0a.14.14,0,0,0,0,.07.13.13,0,0,0,0,.06s0,0,0,0l0,0,.05,0-.06,0-.05.06s0,0-.05,0h0v.07a.17.17,0,0,0,.1,0,.09.09,0,0,0,.07,0l0,0,0,0,0,0,0-.06h.06s0,0,0,.07v.09h-.07v.07h.28v-.08Zm-.12-.23h0a.11.11,0,0,1-.09,0,.08.08,0,0,1,0-.07.16.16,0,0,1,0-.07.1.1,0,0,1,.08,0h0Z" transform="translate(-96.27 -22.9)"/><path class="cls-11" d="M167.12,82.9h-.05a.15.15,0,0,1-.13-.13v-.05a.13.13,0,0,1,0-.06.14.14,0,0,1,.12-.12,0,0,0,0,1,0,0l0-.06a.19.19,0,0,1,0-.11.5.5,0,0,1,0-.12.28.28,0,0,1,.09-.1.35.35,0,0,1,.12-.07h.43a.15.15,0,0,1,.14.14v0a.35.35,0,0,1,0,.06.15.15,0,0,1-.08.11v.14a.13.13,0,0,1,.07.14v.08a.16.16,0,0,1-.05.1.14.14,0,0,1-.12,0h-.27a.11.11,0,0,1-.08,0l-.08,0Z" transform="translate(-96.27 -22.9)"/><path class="cls-21" d="M168.49,82.32a.09.09,0,0,0-.06-.06.11.11,0,0,0-.08,0h-.09l-.07,0v0H168v0h0v0l.07,0v.5a.25.25,0,0,0,0,.08s0,0,0,.07H168V83h.33v0h0v0s0,0,0,0h-.13a.22.22,0,0,0,0-.08v-.1h.18l.1-.06a.86.86,0,0,0,.07-.1l0-.14a.28.28,0,0,0,0-.09A.25.25,0,0,0,168.49,82.32Zm-.14.36a.13.13,0,0,1-.11,0h0l0,0v-.35l.05,0h0s.05,0,.06,0a.08.08,0,0,1,0,0,.14.14,0,0,1,0,.07v.08A.2.2,0,0,1,168.35,82.68Z" transform="translate(-96.27 -22.9)"/><path class="cls-11" d="M168.27,83.21h-.33a.14.14,0,0,1-.14-.12V83a.11.11,0,0,1,0,0,.14.14,0,0,1,.08-.09v0a.41.41,0,0,1,0-.1v-.1s0,0,0-.08v-.09a.18.18,0,0,1-.07-.11v-.08a.43.43,0,0,0,0,0,.16.16,0,0,1,.13-.11h.28a.32.32,0,0,1,.25,0,.27.27,0,0,1,.1.11h0a.5.5,0,0,1,0,.13.33.33,0,0,1,0,.14.45.45,0,0,1-.15.34l-.11.08s0,0,0,0v.08a.09.09,0,0,1,0,0A.13.13,0,0,1,168.27,83.21Zm0-.63Z" transform="translate(-96.27 -22.9)"/><path class="cls-21" d="M169,82.76v-.38s0,0,0,0a.12.12,0,0,0-.05,0l-.08,0h-.08l-.07,0s0,0,0,0a.07.07,0,0,0,0,.06v.07h.1a0,0,0,0,1,0,0v0a.14.14,0,0,1,0-.06l.06,0a.09.09,0,0,1,.06,0,.15.15,0,0,1,0,.1v.07h-.09l-.09,0-.07,0a.25.25,0,0,0,0,.09s0,0,0,.06l0,0,0,0h.14l.06,0h0v0h.19v0h0v0H169Zm-.12-.12v.09l0,0h0a.06.06,0,0,1-.05,0,.07.07,0,0,1,0-.06.06.06,0,0,1,0,0l0,0h.09Z" transform="translate(-96.27 -22.9)"/><path class="cls-11" d="M168.89,83h-.06a.46.46,0,0,1-.2,0l-.09-.06-.06-.1a.25.25,0,0,1,0-.12.25.25,0,0,1,.06-.17h0a.24.24,0,0,1,0-.08v-.05a.33.33,0,0,1,0-.13.28.28,0,0,1,.1-.09l.1,0a.39.39,0,0,1,.27,0,.28.28,0,0,1,.1.09.31.31,0,0,1,0,.12.28.28,0,0,1,0,.09v.19h0a.17.17,0,0,1,.07.13v.07a.14.14,0,0,1-.11.14h-.23Zm.34-.14Zm0,0Z" transform="translate(-96.27 -22.9)"/><path class="cls-21" d="M169.34,82.42l0,0s0,0,.05,0h0l0,0,0,0,0,0,0,0a0,0,0,0,0,0,0l0,0,0,0h-.06a.21.21,0,0,0-.11,0l-.09,0a.36.36,0,0,0-.07.1.25.25,0,0,0,0,.13.49.49,0,0,0,0,.12.41.41,0,0,0,.05.09.28.28,0,0,0,.08.06l.1,0h.07l.06,0,.06,0,0-.07-.07,0h-.05l-.07,0a.12.12,0,0,1,0,0,.09.09,0,0,1,0-.07.28.28,0,0,1,0-.09s0-.06,0-.08A.33.33,0,0,1,169.34,82.42Z" transform="translate(-96.27 -22.9)"/><path class="cls-11" d="M169.39,83a.42.42,0,0,1-.16,0,.23.23,0,0,1-.12-.1.32.32,0,0,1-.08-.14.88.88,0,0,1,0-.17.53.53,0,0,1,.05-.19.38.38,0,0,1,.11-.14.29.29,0,0,1,.14-.08.43.43,0,0,1,.25,0l.09,0,.06,0,0,.06a.15.15,0,0,1,0,.18.08.08,0,0,1,0,0s0,0,0,0a.15.15,0,0,1-.2,0h0v.09h0l0,0a.17.17,0,0,1,.12,0,.14.14,0,0,1,.08.09l0,.07a.16.16,0,0,1-.06.17l-.09,0-.08,0Zm0-.57.07.07h0l-.07-.06Z" transform="translate(-96.27 -22.9)"/><path class="cls-21" d="M170.2,82.35h-.08l-.37,0h-.07v.2h.08v-.09s0,0,0,0h.11a.45.45,0,0,0,0,.11v.19s0,.07,0,.11h-.08a0,0,0,0,0,0,0v0h.31v-.08H170s0-.08,0-.11v-.1s0-.06,0-.09a.45.45,0,0,1,0-.11h.11v.11h.08v-.2Z" transform="translate(-96.27 -22.9)"/><path class="cls-11" d="M170.05,83.06h-.31a.14.14,0,0,1-.13-.15,0,0,0,0,1,0,0v0a.15.15,0,0,1,.09-.11h-.08a.14.14,0,0,1-.1-.15v-.2a.16.16,0,0,1,.05-.11.21.21,0,0,1,.12,0h.07l.43,0a.12.12,0,0,1,.1,0,.12.12,0,0,1,0,.11v.2a.14.14,0,0,1-.11.13h-.09a.17.17,0,0,1,.08.13v0a.11.11,0,0,0,0,.05A.15.15,0,0,1,170.05,83.06Z" transform="translate(-96.27 -22.9)"/><path class="cls-21" d="M170.7,82.47a.23.23,0,0,0-.07-.07.12.12,0,0,0-.11,0h-.1l-.09.06a.21.21,0,0,0-.06.1.28.28,0,0,0,0,.13.37.37,0,0,0,0,.11.19.19,0,0,0,.05.09.16.16,0,0,0,.08.06l.11,0h.08l.06,0,.06,0v-.07l-.08,0h-.06l-.08,0a.1.1,0,0,1-.05,0l0-.06a.17.17,0,0,1,0-.07l.35,0v0a.25.25,0,0,0,0-.08A.3.3,0,0,0,170.7,82.47Zm-.32.11a.14.14,0,0,1,0-.07l0,0,0,0h.09a.05.05,0,0,1,0,0,.08.08,0,0,1,0,.05v0Z" transform="translate(-96.27 -22.9)"/><path class="cls-11" d="M170.48,83.09a.35.35,0,0,1-.29-.13.36.36,0,0,1-.08-.15.7.7,0,0,1,0-.16.8.8,0,0,1,0-.18.39.39,0,0,1,.1-.14.28.28,0,0,1,.14-.1.39.39,0,0,1,.35,0,.35.35,0,0,1,.11.13h0a.57.57,0,0,1,0,.14v.14a.12.12,0,0,1-.05.1l0,.07a.16.16,0,0,1-.08.17l-.09,0-.08,0Z" transform="translate(-96.27 -22.9)"/><path class="cls-21" d="M171.34,82.91a.45.45,0,0,0,0-.11v-.1a.22.22,0,0,0,0-.09s0-.07,0-.11h.07s0,0,0,0v0h-.28v.08h.08a.19.19,0,0,1,0,.08v.07H171a.17.17,0,0,1,0-.07v-.09h.07s0,0,0,0v0h-.28v.08h.08v.29a.41.41,0,0,0,0,.11h-.08V83h.28v-.08H171v-.17h.2v.17h-.07V83h.28v-.08Z" transform="translate(-96.27 -22.9)"/><path class="cls-11" d="M171.41,83.14h-.55s0,0,0,0h0a.14.14,0,0,1-.14-.14v0a.35.35,0,0,1,0-.06.15.15,0,0,1,.08-.11V82.6a.13.13,0,0,1-.07-.14v-.08a.16.16,0,0,1,.16-.14h.62a.16.16,0,0,1,.14.14.13.13,0,0,1,0,.06v0a.15.15,0,0,1-.08.11.2.2,0,0,0,0,.07v.08a.16.16,0,0,1,.07.13V83a.16.16,0,0,1-.05.11A.17.17,0,0,1,171.41,83.14Z" transform="translate(-96.27 -22.9)"/><path class="cls-21" d="M172.06,83v-.3s0-.07,0-.1h.08v-.08h-.28v.06H172v0l-.23.23v-.06a.25.25,0,0,1,0-.08v-.07a.35.35,0,0,1,0-.06h.07v-.08h-.28v.08h.08a.38.38,0,0,0,0,.1v.19s0,.07,0,.11h-.07s0,0,0,0v0h.28V83h-.07v0l.23-.22v.13a.22.22,0,0,0,0,.08s0,.05,0,.06h-.06s0,0,0,0v0h.28V83s0,0,0,0Z" transform="translate(-96.27 -22.9)"/><path class="cls-11" d="M171.77,83.16h-.28a.15.15,0,0,1-.14-.14.11.11,0,0,1,0,0v-.06a.15.15,0,0,1,.08-.11v-.14a.17.17,0,0,1-.07-.14v0a0,0,0,0,1,0,0,.14.14,0,0,1,.15-.14h.63a.16.16,0,0,1,.14.15v0a.11.11,0,0,0,0,0,.15.15,0,0,1-.08.11s0,0,0,.07v.08a.13.13,0,0,1,.07.14v.08a.15.15,0,0,1-.06.1.11.11,0,0,1-.11,0h-.34Z" transform="translate(-96.27 -22.9)"/><path class="cls-21" d="M172.85,83h-.08V82.7a.41.41,0,0,0,0-.11h.08v-.08h-.28v0h.07v0l-.23.23v-.06s0,0,0-.07v-.08a.18.18,0,0,0,0-.06h.07v-.08h-.28v.05h.08s0,.07,0,.11v.18a.37.37,0,0,1,0,.11h-.07s0,0,0,0v0h.28V83h-.07v0l.24-.22v.13s0,.06,0,.08V83h-.07s0,0,0,0v0h.28V83Z" transform="translate(-96.27 -22.9)"/><path class="cls-11" d="M172.48,83.2h-.28a.15.15,0,0,1-.13-.14v-.12a.13.13,0,0,1,.09-.1v-.15a.16.16,0,0,1-.08-.14v0s0,0,0,0a.15.15,0,0,1,.15-.14h.63a.15.15,0,0,1,.14.15v0a.43.43,0,0,1,0,0,.17.17,0,0,1-.08.12.17.17,0,0,1,0,.07v.07A.13.13,0,0,1,173,83h0v.08a.14.14,0,0,1-.17.13h-.34Z" transform="translate(-96.27 -22.9)"/><path class="cls-21" d="M172.45,82.35a.1.1,0,0,0,.05,0l.06,0a.17.17,0,0,0,.13,0,.15.15,0,0,0,0-.11h-.09v0a0,0,0,0,0,0,0l0,0h0s0,0,0,0a0,0,0,0,1,0,0s0,0,0,0v0h-.09v.06Z" transform="translate(-96.27 -22.9)"/><path class="cls-11" d="M172.56,82.55l-.12,0a.27.27,0,0,1-.1-.08.24.24,0,0,1-.06-.11.41.41,0,0,1,0-.12.15.15,0,0,1,.16-.13h.31a.15.15,0,0,1,.14.15.31.31,0,0,1-.09.22A.28.28,0,0,1,172.56,82.55Z" transform="translate(-96.27 -22.9)"/><path class="cls-21" d="M153.45,81.83s0,0,0,0,0,0,0,0h.1l0,0a.08.08,0,0,0,0,0,.07.07,0,0,0,0,0v-.07s0,0,0,0a.05.05,0,0,0,0,0l0,0-.05,0h0a.09.09,0,0,0-.07,0l0,0,0-.35.26,0h.06s0,0,0,0a0,0,0,0,1,0,0h.06l0,.17-.32,0v.19h.13a.17.17,0,0,1,.1,0l.08,0a.3.3,0,0,1,0,.08.28.28,0,0,1,0,.09.17.17,0,0,1,0,.1.22.22,0,0,1-.06.07l-.09,0h-.1l-.08,0-.07,0a.1.1,0,0,1,0,0,.43.43,0,0,1,0,0s0,0,0,0a0,0,0,0,1,0,0l0,0h.06s0,0,0,0,0,0,0,0v.07Z" transform="translate(-96.27 -22.9)"/><path class="cls-21" d="M153.9,81.59s0-.06,0-.09a.11.11,0,0,1,0-.08.2.2,0,0,1,0-.08.17.17,0,0,1,.06-.06l.07,0a.14.14,0,0,1,.09,0,.15.15,0,0,1,.09,0s0,0,.06,0l0,.07a.13.13,0,0,1,0,.08.29.29,0,0,1,0,.09v.09a.28.28,0,0,1,0,.09l0,.08s0,0,0,.08l-.06.06-.07,0h-.09l-.09,0a.18.18,0,0,1-.07,0l-.05-.06,0-.08s0-.06,0-.09Zm.16,0v.15a.2.2,0,0,0,0,.07.08.08,0,0,0,0,0l0,0,0,0,.06,0a.09.09,0,0,0,0-.06.29.29,0,0,0,0-.09s0-.07,0-.11v-.16a.17.17,0,0,1,0-.07s0,0,0-.05l0,0h-.05a.07.07,0,0,0-.06,0,.09.09,0,0,0,0,.06l0,.09S154.06,81.54,154.06,81.58Z" transform="translate(-96.27 -22.9)"/><path class="cls-21" d="M154.8,81.52v-.08H155l.22,0h.15v.08h-.08s0,.07,0,.11a.31.31,0,0,1,0,.1v.09a.38.38,0,0,1,0,.1h.08V82H155v-.08h.07v-.1s0-.07,0-.09v-.11a.31.31,0,0,0,0-.1H155a1.44,1.44,0,0,1,0,.24.75.75,0,0,1,0,.15.19.19,0,0,1-.07.08l-.08,0h-.08v-.06a0,0,0,0,1,0,0v0h0s.07,0,.09-.08a1.43,1.43,0,0,0,0-.29Z" transform="translate(-96.27 -22.9)"/><path class="cls-21" d="M155.7,82h.06s.05,0,.07,0l0,.07s0,0-.06,0l-.07,0h-.08l-.1,0a.16.16,0,0,1-.08-.06.13.13,0,0,1-.05-.09.2.2,0,0,1,0-.11.51.51,0,0,1,0-.13.36.36,0,0,1,.07-.1.24.24,0,0,1,.08-.06h.11a.15.15,0,0,1,.11,0,.13.13,0,0,1,.06.07.17.17,0,0,1,0,.1v.11l-.35,0a.17.17,0,0,0,0,.07.09.09,0,0,0,0,.06.1.1,0,0,0,.05,0Zm0-.41h0l0,0s0,0,0,0a.14.14,0,0,0,0,.07h.21a93291015924.32,93291015924.32,0,0,0,0-.1l0,0Z" transform="translate(-96.27 -22.9)"/><path class="cls-21" d="M156.28,81.61v.11a.28.28,0,0,0,0,.09V82h.09v.08H156V82h.09a.34.34,0,0,1,0-.1v-.3h-.1a0,0,0,0,0,0,0l0,.1H156v0a.13.13,0,0,1,0-.06v-.1H156l.37,0h.07v.19h-.07v-.09a0,0,0,0,0,0,0h-.11Z" transform="translate(-96.27 -22.9)"/><path class="cls-21" d="M157,82.15l-.11,0a.13.13,0,0,1-.07-.06.41.41,0,0,1,0-.09.49.49,0,0,1,0-.12.21.21,0,0,1,0-.12.21.21,0,0,1,.06-.1.19.19,0,0,1,.09,0,.2.2,0,0,1,.11,0l.1,0,.08.06a.41.41,0,0,1,.05.09.49.49,0,0,1,0,.12.51.51,0,0,1,0,.13l-.06.09a.24.24,0,0,1-.09.06Zm0-.09a.07.07,0,0,0,.06,0l.05,0,0-.06s0,0,0-.08a.22.22,0,0,0,0-.09.14.14,0,0,0,0-.07l0,0-.05,0a.11.11,0,0,0-.1,0,.21.21,0,0,0-.05.15.22.22,0,0,0,0,.08.14.14,0,0,0,0,.07l0,.05A.07.07,0,0,0,157,82.06Z" transform="translate(-96.27 -22.9)"/><path class="cls-21" d="M157.45,81.88v-.2h-.08v0s0,0,0,0v0H158v.08h-.08a.45.45,0,0,1,0,.11v.29H158v.06h-.28a.06.06,0,0,1,0,0v0h.06V82a.34.34,0,0,0,0-.09V81.7h-.19a7142690978659.44,7142690978659.44,0,0,1,0,.2V82a.41.41,0,0,0,0,.11h.07v.06h-.28v-.08h.08s0-.07,0-.11Z" transform="translate(-96.27 -22.9)"/><path class="cls-21" d="M158.28,81.87h.11l.08,0,.06,0,0,0a.16.16,0,0,1,0,.07.1.1,0,0,1,0,.07.21.21,0,0,1,0,.06l-.08,0h-.37a.06.06,0,0,1,0,0v0h.07a.34.34,0,0,0,0-.1v-.19a.37.37,0,0,0,0-.11h-.08v0h.3v.08h-.09s0,.06,0,.08Zm0,.27a.15.15,0,0,0,.08,0s0,0,0-.07a.19.19,0,0,0,0-.08l-.09,0h-.06v.18h.06Zm.47-.18v.2h.08v.06h-.29v0a.08.08,0,0,0,0,0h.07v-.4h-.08v0h.3s0,0,0,0v0h-.07a.09.09,0,0,0,0,0v.06a.07.07,0,0,0,0,0Z" transform="translate(-96.27 -22.9)"/><path class="cls-21" d="M159.27,81.78a.45.45,0,0,0,0,.11s0,.07,0,.1v.09a.37.37,0,0,0,0,.11h.09v0s0,0,0,0H159v0s0,0,0,0h.08s0-.07,0-.11v-.29H159a0,0,0,0,0,0,0s0,0,0,0v.09h-.08v0s0,0,0-.06v-.1H159l.37,0h.08v.2h-.08v-.1s0,0,0,0h-.1Z" transform="translate(-96.27 -22.9)"/><path class="cls-21" d="M159.56,81.92a0,0,0,0,1,0,0v0a.14.14,0,0,1,0-.06l0,0,.07,0h.08l.08,0a.12.12,0,0,1,0,.05s0,0,0,0V82a.2.2,0,0,0,0,.07v.13H160v0h0v0h-.19v0h0l-.06,0h-.14l0,0,0,0s0,0,0-.06a.25.25,0,0,1,0-.09l.07,0,.09,0a.14.14,0,0,1,.09,0v-.07s0-.08,0-.1a.09.09,0,0,0-.06,0,.11.11,0,0,0-.06,0,.14.14,0,0,0,0,.06v0s0,0,0,0Zm.22.26v-.11h-.1l0,0a.06.06,0,0,0,0,0,.13.13,0,0,0,0,.06.06.06,0,0,0,0,0h0A.05.05,0,0,0,159.78,82.18Z" transform="translate(-96.27 -22.9)"/><path class="cls-21" d="M160.42,82.34h-.15s0,0,0,0v0h.07a.34.34,0,0,0,0-.1v-.3h-.08v0s0,0,0,0h.28a.22.22,0,0,1,.15,0,.12.12,0,0,1,.05.1s0,0,0,0l0,0a.05.05,0,0,1,0,0h0l0,0,.05,0,0,0a.13.13,0,0,1,0,.06.15.15,0,0,1-.07.12.29.29,0,0,1-.17,0h-.13Zm.08-.48s0,0,0,.08V82h0a.08.08,0,0,0,.07,0,.06.06,0,0,0,0-.06,0,0,0,0,0,0-.06.13.13,0,0,0-.08,0Zm0,.41h.09a.08.08,0,0,0,0-.07.08.08,0,0,0,0-.07s0,0-.09,0h-.06v.09a.19.19,0,0,1,0,.08h.06Z" transform="translate(-96.27 -22.9)"/><path class="cls-21" d="M161.09,82h.19l.06,0,0,.06v.06a.24.24,0,0,1,0,.08.12.12,0,0,1,0,0l-.07,0a.27.27,0,0,1-.09,0h-.28v0a0,0,0,0,1,0,0h.07a.41.41,0,0,0,0-.11V82s0-.07,0-.11h-.08V81.8h.3v.08h-.09a.34.34,0,0,0,0,.09Zm0,.26a.11.11,0,0,0,.08,0,.1.1,0,0,0,0-.08.06.06,0,0,0,0-.07l-.08,0h-.06v.1a.07.07,0,0,0,0,.05v0h.06Zm.47-.17v.2h.08v.06h-.28v0s0,0,0,0h.07v-.4h-.08v-.08h.29v.08h-.08v0a.09.09,0,0,1,0,0v.1Z" transform="translate(-96.27 -22.9)"/><path class="cls-21" d="M162.05,82.69h-.33V82.6h.07s0,0,0-.06v-.09a.34.34,0,0,0,0-.1V82l-.07,0h0v-.06H162v0l.07,0h.09a.11.11,0,0,1,.08,0,.09.09,0,0,1,.06.06.25.25,0,0,1,0,.09.28.28,0,0,1,0,.09.57.57,0,0,1,0,.14.33.33,0,0,1-.06.1l-.1.06h-.18v.1s0,0,0,.08h.13v.06Zm-.1-.48v.12l0,0h0a.15.15,0,0,0,.11,0,.25.25,0,0,0,0-.15v-.08a.14.14,0,0,0,0-.07l0,0a.07.07,0,0,0-.06,0h0l0,0Z" transform="translate(-96.27 -22.9)"/><path class="cls-21" d="M162.43,82.09V82a.07.07,0,0,1,0-.06l0,0,.07,0h.07l.09,0,.05,0,0,.06v.37h.08v0h-.19v0h0l-.06,0a.12.12,0,0,1-.08,0h-.06l0,0,0,0a.13.13,0,0,1,0-.06.15.15,0,0,1,0-.09l.07,0,.09,0a.27.27,0,0,1,.09,0v-.07a.15.15,0,0,0,0-.1.09.09,0,0,0-.06,0l-.06,0a.14.14,0,0,0,0,.06v0a0,0,0,0,0,0,0Zm.23.27v-.12h-.09l0,0s0,0,0,0a.14.14,0,0,0,0,.06l0,0h.05Z" transform="translate(-96.27 -22.9)"/><path class="cls-21" d="M163.06,82.49h-.15v0a.08.08,0,0,0,0,0H163a.41.41,0,0,0,0-.11v-.19a.31.31,0,0,0,0-.1h-.08v-.06h.27V82h-.06v.1a.28.28,0,0,1,0,.09v.1s0,.07,0,.11h.16c0-.07,0-.14,0-.2v-.09a.45.45,0,0,0,0-.11h-.06v-.08h.25V82h-.06s0,.08,0,.11v.3h.15V82h-.06V82h.27v.07h-.08a.41.41,0,0,1,0,.11v.29h.09v.21h-.08v-.11h0s0,0,0,0h-.05Z" transform="translate(-96.27 -22.9)"/><path class="cls-21" d="M164,82.26v-.09a.37.37,0,0,0,0-.11h-.08V82h.28v.07h-.07v.06a.25.25,0,0,0,0,.08.22.22,0,0,1,0,.08v0l.23-.22v0h-.08V82h.27v.07h-.07a.45.45,0,0,0,0,.11.31.31,0,0,0,0,.09v.21h.08v.08h-.28a.08.08,0,0,1,0,0v0h.07v-.06a.25.25,0,0,0,0-.08v-.14l-.23.23v0h.08s0,0,0,0v.06h-.28a.08.08,0,0,1,0,0v0h.07a.45.45,0,0,0,0-.11Z" transform="translate(-96.27 -22.9)"/><path class="cls-21" d="M164.73,82.59h-.15v-.07h.07s0-.07,0-.11v-.29h-.08v0a.06.06,0,0,1,0,0h.28a.27.27,0,0,1,.15,0,.14.14,0,0,1,.05.11s0,0,0,0,0,0,0,0l0,0h0l.05,0,0,0a.15.15,0,0,1,0,.07.13.13,0,0,1-.07.12.23.23,0,0,1-.17,0h-.13Zm.08-.48s0,.06,0,.08v.08h.12a.06.06,0,0,0,0-.06,0,0,0,0,0,0-.06l-.08,0Zm0,.41a.13.13,0,0,0,.09,0,.07.07,0,0,0,0-.07.09.09,0,0,0,0-.07l-.09,0h-.06v.17h.05Z" transform="translate(-96.27 -22.9)"/><path class="cls-21" d="M165.23,82.26v-.07a.07.07,0,0,1,0-.06.08.08,0,0,1,0,0l.07,0h.07l.09,0,0,0,0,.06v.38h.08v0h0v0h-.19v-.06l-.06,0h-.14l0,0,0,0s0,0,0-.06a.2.2,0,0,1,0-.08.18.18,0,0,1,.07,0l.09,0h.09v-.07a.16.16,0,0,0,0-.1.06.06,0,0,0-.06,0,.08.08,0,0,0-.06,0s0,0,0,0v0s0,0,0,0Zm.23.26v-.11h-.09l0,0s0,0,0,0a0,0,0,0,0,0,0s0,0,0,0h0Z" transform="translate(-96.27 -22.9)"/><path class="cls-21" d="M165.81,82.38v-.1a.37.37,0,0,0,0-.11h-.08v-.08H166v.07H166s0,.06,0,.09v.07h.21v-.16h-.07v-.08h.28s0,0,0,0v0h-.07a.45.45,0,0,0,0,.11.34.34,0,0,0,0,.09v.21h.08v.08h-.29v0a0,0,0,0,0,0,0h.07v-.17h-.21v.08s0,0,0,.09H166v.08h-.28v0a0,0,0,0,0,0,0h.07a.45.45,0,0,0,0-.11Z" transform="translate(-96.27 -22.9)"/><path class="cls-21" d="M166.51,82.42v-.2h-.08v-.08h.28a.08.08,0,0,1,0,0v0h-.07v.07s0,0,0,.07v.13l.24-.22v0h-.07v-.08h.28v0a.06.06,0,0,0,0,0H167a.45.45,0,0,0,0,.11s0,.07,0,.09v.1a.37.37,0,0,0,0,.11h.08v.06h-.28v-.07h.07v-.06a.22.22,0,0,0,0-.08v-.14l-.23.23v0h.07v.08h-.27v-.07h.07s0-.08,0-.11Z" transform="translate(-96.27 -22.9)"/><path class="cls-21" d="M167.41,82.52l0,.06,0,0,0,0,0,0a.09.09,0,0,1-.07,0,.17.17,0,0,1-.1,0v-.07h0s0,0,.05,0l.05-.06.06,0-.05,0,0,0s0,0,0,0a.13.13,0,0,1,0-.06.14.14,0,0,1,0-.07l0,0,.07,0h.38v.07h-.08a.41.41,0,0,1,0,.11v.29h.08v.08h-.28v-.07h.07v-.09s0,0,0-.07Zm.07-.25h0a.1.1,0,0,0-.08,0,.16.16,0,0,0,0,.07.08.08,0,0,0,0,.07.11.11,0,0,0,.09,0h0Z" transform="translate(-96.27 -22.9)"/><path class="cls-21" d="M168.28,83.06H168V83H168s0,0,0-.07a.25.25,0,0,1,0-.08v-.5l-.07,0v0h0v0h.21v0l.07,0h.09a.11.11,0,0,1,.08,0,.09.09,0,0,1,.06.06.25.25,0,0,1,0,.09.28.28,0,0,1,0,.09l0,.14a.86.86,0,0,1-.07.1l-.1.06h-.18v.1a.22.22,0,0,1,0,.08h.13s0,0,0,0v0h0Zm-.1-.48v.12l0,0h0a.13.13,0,0,0,.11,0,.2.2,0,0,0,.05-.14v-.08a.14.14,0,0,0,0-.07.08.08,0,0,0,0,0s0,0-.06,0h0l-.05,0Z" transform="translate(-96.27 -22.9)"/><path class="cls-21" d="M168.66,82.46v-.07a.07.07,0,0,1,0-.06s0,0,0,0l.07,0h.08l.08,0a.12.12,0,0,1,.05,0s0,0,0,0v.38h.08v0h0v0h-.19v0h0l-.06,0h-.14l0,0,0,0s0,0,0-.06a.25.25,0,0,1,0-.09l.07,0,.09,0h.09v-.07a.15.15,0,0,0,0-.1.09.09,0,0,0-.06,0l-.06,0a.14.14,0,0,0,0,.06v0a0,0,0,0,0,0,0Zm.23.27v-.12h-.09l0,0a.06.06,0,0,0,0,0,.07.07,0,0,0,0,.06.06.06,0,0,0,.05,0h0Z" transform="translate(-96.27 -22.9)"/><path class="cls-21" d="M169.43,82.39s0,0-.05,0l0,0a.33.33,0,0,0,0,.06s0,0,0,.08a.28.28,0,0,0,0,.09.09.09,0,0,0,0,.07.12.12,0,0,0,0,0l.07,0h.05l.07,0,0,.07-.06,0-.06,0h-.07l-.1,0a.28.28,0,0,1-.08-.06.41.41,0,0,1-.05-.09.49.49,0,0,1,0-.12.25.25,0,0,1,0-.13.36.36,0,0,1,.07-.1l.09,0a.21.21,0,0,1,.11,0h.06l0,0,0,0a0,0,0,0,1,0,0l0,0,0,0,0,0,0,0Z" transform="translate(-96.27 -22.9)"/><path class="cls-21" d="M170,82.42s0,.08,0,.11,0,.06,0,.09v.1s0,.07,0,.11h.09v.08h-.31v0a0,0,0,0,1,0,0h.08s0-.08,0-.11v-.19a.45.45,0,0,1,0-.11h-.11s0,0,0,0v.09h-.08v-.2h.07l.37,0h.08v.2h-.08v-.11H170Z" transform="translate(-96.27 -22.9)"/><path class="cls-21" d="M170.54,82.85h.06l.08,0v.07l-.06,0-.06,0h-.08l-.11,0a.16.16,0,0,1-.08-.06.19.19,0,0,1-.05-.09.37.37,0,0,1,0-.11.28.28,0,0,1,0-.13.21.21,0,0,1,.06-.1l.09-.06h.1a.12.12,0,0,1,.11,0,.23.23,0,0,1,.07.07.3.3,0,0,1,0,.1.25.25,0,0,1,0,.08v0l-.35,0a.17.17,0,0,0,0,.07l0,.06a.1.1,0,0,0,.05,0Zm0-.41h0l0,0,0,0a.14.14,0,0,0,0,.07h.21v0a.08.08,0,0,0,0-.05.05.05,0,0,0,0,0Z" transform="translate(-96.27 -22.9)"/><path class="cls-21" d="M170.89,82.68v-.2h-.08v-.08h.28v0s0,0,0,0H171v.09a.17.17,0,0,0,0,.07h.21v-.07a.19.19,0,0,0,0-.08h-.08v-.08h.28v0s0,0,0,0h-.07s0,.08,0,.11a.22.22,0,0,1,0,.09v.1a.45.45,0,0,1,0,.11h.08V83h-.28V82.9h.07v-.17H171v.17h.07V83h-.28v-.07h.08a.41.41,0,0,1,0-.11Z" transform="translate(-96.27 -22.9)"/><path class="cls-21" d="M171.6,82.72v-.1a.38.38,0,0,1,0-.1h-.08v-.08h.28v.08h-.07a.35.35,0,0,0,0,.06v.07a.25.25,0,0,0,0,.08v.06l.23-.23v0h-.07v-.06h.28v.08h-.08s0,.07,0,.1V83h.08s0,0,0,0V83h-.28v0s0,0,0,0h.06s0,0,0-.06a.22.22,0,0,1,0-.08v-.13l-.23.22v0h.07V83h-.28v0s0,0,0,0h.07s0-.07,0-.11Z" transform="translate(-96.27 -22.9)"/><path class="cls-21" d="M172.31,82.76v-.09s0-.07,0-.11h-.08v-.05h.28v.08h-.07a.18.18,0,0,1,0,.06v.08s0,.05,0,.07v.06l.23-.23v0h-.07v0h.28v.08h-.08a.41.41,0,0,1,0,.11V83h.08v.06h-.28v0s0,0,0,0h.07v-.06s0,0,0-.08v-.13l-.24.22v0h.07V83h-.28v0s0,0,0,0h.07a.37.37,0,0,0,0-.11Zm.26-.43h0l0,0a0,0,0,0,1,0,0v0h.09a.15.15,0,0,1,0,.11.17.17,0,0,1-.13,0l-.06,0a.1.1,0,0,1-.05,0l0,0v-.06h.09v0s0,0,0,0a0,0,0,0,0,0,0S172.56,82.33,172.57,82.33Z" transform="translate(-96.27 -22.9)"/></svg>