<svg id="Слой_1" data-name="Слой 1" xmlns="http://www.w3.org/2000/svg" viewBox="0 0 80.06 224.05"><defs><style>.cls-1{fill:#4fa44b;}.cls-2{opacity:0.4;}.cls-10,.cls-12,.cls-3{fill:#fff;}.cls-3,.cls-6,.cls-7{opacity:0.2;}.cls-4{fill:#1a2e35;}.cls-5,.cls-6{fill:#00a627;}.cls-8{fill:#ffb570;}.cls-9{fill:#fbf086;}.cls-10{opacity:0.7;}.cls-11{fill:#ff8935;}.cls-12{opacity:0.6;}.cls-13{fill:#007cff;}</style></defs><polygon class="cls-1" points="37.9 106.14 76.96 111.95 77.28 143.57 67.54 152.7 25.38 144.89 27.27 111.18 37.9 106.14"/><polygon class="cls-2" points="77.28 143.56 73.49 147.13 72.64 147.91 67.54 152.7 25.38 144.89 27.27 111.18 31.81 109.03 33.2 108.36 37.9 106.14 76.96 111.94 77.28 143.56"/><polygon class="cls-3" points="27.27 111.18 65.78 117.39 76.96 111.94 37.9 106.14 27.27 111.18"/><polygon class="cls-4" points="73.49 147.13 72.64 147.91 71.13 114.87 31.81 109.03 33.2 108.36 71.99 114.44 73.49 147.13"/><polygon class="cls-4" points="45.2 110.38 47.63 109.25 57.52 110.59 55.27 111.94 45.2 110.38"/><path class="cls-4" d="M154.57,148.06s2.75-9.93,3.23-10.49,14.31,1.55,15.34,1.68,2.29,11.06,2.29,11.06l-1.12.9-2.59-.47s-.48-9.24-.74-9.55-10.93-1.85-11.27-1.72-1.69,7.94-1.69,7.94l-1.25,1Z" transform="translate(-113.2 -38.16)"/><path class="cls-5" d="M189.74,178.35l-4.13,2.88,0-.85-.31-6.69,0-.81-.07-1.43s.54,1.23,1.35,2.69A13.2,13.2,0,0,0,189.74,178.35Z" transform="translate(-113.2 -38.16)"/><path class="cls-6" d="M188.69,178.32l-3.12,2.06-.31-6.69,0-.81C185.85,174.49,187.07,177.15,188.69,178.32Z" transform="translate(-113.2 -38.16)"/><path class="cls-6" d="M186.51,174.14c-.42-.17-.85-.32-1.25-.45l-.1-2.24S185.7,172.68,186.51,174.14Z" transform="translate(-113.2 -38.16)"/><path class="cls-5" d="M193.26,171.21l-1.2,5.57a13,13,0,0,0-6.8-3.25l0-.84-.24-5.18,0-.55S190,168,193.26,171.21Z" transform="translate(-113.2 -38.16)"/><path class="cls-5" d="M190.58,160.26a21.45,21.45,0,0,1-5.82,4.13l0-.63-.06-1.65-.09-2.74-.05-1.33v-.38a23.3,23.3,0,0,0,3-2.83Z" transform="translate(-113.2 -38.16)"/><path class="cls-5" d="M183.72,150.38a11.65,11.65,0,0,0-2.13,2.32l-.66-.09-.91-.14-1.45-.21-1.4-.2-.49-.08a9,9,0,0,1,4-4.88Z" transform="translate(-113.2 -38.16)"/><path class="cls-6" d="M180.48,147.79c-1.7.93-2.83,3.15-3.31,4.27l1.4.2a.92.92,0,0,1-.16-.53,1,1,0,0,1,2,0,.93.93,0,0,1-.36.74l.91.14a14.48,14.48,0,0,1,1.92-2.36Z" transform="translate(-113.2 -38.16)"/><path class="cls-6" d="M185,167.51l.24,5.18a18.47,18.47,0,0,1,6.52,3.09l1.08-4.47A16.9,16.9,0,0,0,185,167.51Zm4.21,3.66a1.66,1.66,0,0,1-3-1.21,1.45,1.45,0,0,1,2-.56A1.47,1.47,0,0,1,189.2,171.17Z" transform="translate(-113.2 -38.16)"/><path class="cls-6" d="M187.28,155.81a11.15,11.15,0,0,1-2.74,2.23l.05,1.33h.07a1.38,1.38,0,0,1,0,2.75l.06,1.65a26.1,26.1,0,0,0,5-3.5Z" transform="translate(-113.2 -38.16)"/><path class="cls-4" d="M152.78,75.28c5,3.33,5.48,25.44,5.94,31.66s4.37,23.5,4.37,23.5l-4.14,1.5s-4.58-16.51-6.17-25.92C152.17,102.39,152.78,75.28,152.78,75.28Z" transform="translate(-113.2 -38.16)"/><path class="cls-3" d="M163.09,130.44l-4.14,1.5s-4.58-16.5-6.17-25.92a9.56,9.56,0,0,1-.1-1.07c-.19-2.65-.19-8.46-.14-14.25.07-7.73.24-15.41.24-15.41,2.92,1.93,4.3,10.22,5,18,.28,2.92.46,5.78.6,8.2.13,2.27.23,4.16.31,5.41C159.18,113.17,163.09,130.44,163.09,130.44Z" transform="translate(-113.2 -38.16)"/><path class="cls-7" d="M158.4,101.53a37.94,37.94,0,0,1-5.72,3.42c-.19-2.65-.19-8.46-.14-14.25l1.36,3.11,3.9-.48C158.08,96.25,158.26,99.11,158.4,101.53Z" transform="translate(-113.2 -38.16)"/><path class="cls-8" d="M165.58,89.2l4.51-5.83,3.9,5.91s-5.1,4.8-6.89,3.53Z" transform="translate(-113.2 -38.16)"/><polygon class="cls-8" points="63.47 44.78 65.12 49.59 60.79 51.13 56.89 45.21 63.47 44.78"/><path class="cls-9" d="M125.08,45.11s1.86-8,11.59-6.84,12.26,12.37,9.61,21.37a26.87,26.87,0,0,0,.23,16.21,4.84,4.84,0,0,1-2.19-3.4,10.44,10.44,0,0,0,.57,4.51s-12.76,3.28-19.22.82a11.4,11.4,0,0,0,1.23-6.4s-.32,3.69-1.47,4.93c0,0,1.21-4.33.58-7.38s-4.5-3.35-5.19-11.46S122.49,44.29,125.08,45.11Z" transform="translate(-113.2 -38.16)"/><path class="cls-8" d="M151.87,114.72s4.54,35.37,4.15,57.83c1.57,21.06,2.9,65.28,5.29,70.06-.08,1.07-3.16,1.55-4.17.9,0,0-16.42-36.76-14.31-71-14.47-35.67-13.6-57.83-13.6-57.83Z" transform="translate(-113.2 -38.16)"/><path class="cls-8" d="M145.7,114.72s-10.34,39.92-14.43,59.52c-4.31,20.59-8.72,45.46-8.78,68.88-1.15.68-1.55,1.88-3.88,1.16,0,0-11-47.09-1.67-69.13-4.08-48.77,8.82-60.43,8.82-60.43Z" transform="translate(-113.2 -38.16)"/><path class="cls-4" d="M115.16,167.31a9,9,0,0,0,2.4,1.87c.13-4.52,1.43-6.63,1.43-6.63a21.85,21.85,0,0,0,.7,7.67c6.89,2.92,20.2,4.84,36.83.76,0-19.5-3.86-52.34-4.12-55.55,0,0-19.73.52-27.74.52C115.89,126.41,113.54,160,115.16,167.31Z" transform="translate(-113.2 -38.16)"/><path class="cls-4" d="M118.61,244.28s-2.46.67-2.72,4.3.76,13.63.76,13.63h.92s-.27-9.06.09-10.69c.29,4.73,3.68,10.69,8.16,10.69,1.59,0-1.87-7.23-2.43-11.63s-.74-6-.74-6Z" transform="translate(-113.2 -38.16)"/><path class="cls-8" d="M122.55,241.43l-3.94,2.85c.21,4.91,2,11.18,4.25,13.21a.94.94,0,0,0,1.48-.93A74.08,74.08,0,0,1,122.55,241.43Z" transform="translate(-113.2 -38.16)"/><path class="cls-4" d="M157.92,244.28s-2.46.67-2.72,4.3.76,13.63.76,13.63h.92s-.27-9.06.09-10.69c.29,4.73,3.67,10.69,8.16,10.69,1.59,0-1.88-7.23-2.44-11.63a52,52,0,0,0-1.08-6.3Z" transform="translate(-113.2 -38.16)"/><path class="cls-8" d="M160.81,241c-.43-1.14-3.88,2.22-3.88,2.22.21,4.9,2.94,12.26,5.24,14.29a.93.93,0,0,0,1.47-.93C161.87,249.34,162.06,244.28,160.81,241Z" transform="translate(-113.2 -38.16)"/><path class="cls-3" d="M115.16,167.31a9,9,0,0,0,2.4,1.87c.13-4.52,1.43-6.63,1.43-6.63a21.85,21.85,0,0,0,.7,7.67c6.89,2.92,20.2,4.84,36.83.76,0-19.5-3.86-52.34-4.12-55.55,0,0-19.73.52-27.74.52C115.89,126.41,113.54,160,115.16,167.31Z" transform="translate(-113.2 -38.16)"/><path class="cls-1" d="M123.87,93.24h30.28a105.42,105.42,0,0,0,.14-10.92c-.15-4.47-3.91-8.38-8.67-9-1.32-.17-2.7-.33-4-.44a89.49,89.49,0,0,0-12.26,0c-1.16.05-2.3.13-3.37.24-4,.38-6.76,4-5.38,7.7A60.45,60.45,0,0,1,123.87,93.24Z" transform="translate(-113.2 -38.16)"/><path class="cls-10" d="M123.87,93.24h30.28a105.42,105.42,0,0,0,.14-10.92c-.15-4.47-3.91-8.38-8.67-9-1.32-.17-2.7-.33-4-.44a89.49,89.49,0,0,0-12.26,0c-1.16.05-2.3.13-3.37.24-4,.38-6.76,4-5.38,7.7A60.45,60.45,0,0,1,123.87,93.24Z" transform="translate(-113.2 -38.16)"/><path class="cls-4" d="M129.22,72.39l12.93,15.78s2.52-8.13,1.19-15.12c0,0,5.7,0,9.44,2.23,0,0,5.47,9,0,34.31l1.59,12.1-9.14,2.76-3-8.77-3.65,9.23-17.63-5,5-9.32s-1.61-21.42-6.45-31.21C119.44,79.42,120.21,72.29,129.22,72.39Z" transform="translate(-113.2 -38.16)"/><path class="cls-4" d="M149.38,85.33,142.9,89.7,144,93.81c-4.55-7.13-13.34-8.48-13.34-8.48l2.75-3.73h-6.8c-.15-4.74,3.22-9.73,3.22-9.73l1.2-.21a101.11,101.11,0,0,0,11,15.6s2.65-10.55-1.31-15a15.48,15.48,0,0,1,9.2,8.16l-4.13,1.27Z" transform="translate(-113.2 -38.16)"/><path class="cls-3" d="M149.38,85.33,142.9,89.7,144,93.81c-4.55-7.13-13.34-8.48-13.34-8.48l2.75-3.73h-6.8c-.15-4.74,3.22-9.73,3.22-9.73l1.2-.21a101.11,101.11,0,0,0,11,15.6s2.65-10.55-1.31-15a15.48,15.48,0,0,1,9.2,8.16l-4.13,1.27Z" transform="translate(-113.2 -38.16)"/><path class="cls-8" d="M130.18,59.09c1.07,3.94,2.38,11.17-.18,13.8,0,0-1.84,3.46,8.57,3.15.9,2.16,2.67,6.14,2.67,6.14s.12-4.68-.6-6.26c6.7-.57,1.62-3,1.62-3-4.48-1-4.61-4.31-4.07-7.38Z" transform="translate(-113.2 -38.16)"/><path class="cls-7" d="M133.45,61.71l4.74,3.8a12.38,12.38,0,0,0-.22,2.17c-1.7-.24-4.15-2.08-4.45-3.84A5.62,5.62,0,0,1,133.45,61.71Z" transform="translate(-113.2 -38.16)"/><path class="cls-8" d="M126.82,51.17c1.19,6.37,1.56,9.08,5.2,12.14,5.47,4.59,13,2.16,13.69-4.33.65-5.85-1.41-15.28-8-17.39A8.3,8.3,0,0,0,126.82,51.17Z" transform="translate(-113.2 -38.16)"/><path class="cls-9" d="M132.29,46.57c-3.51,4.53,3.71,9.75-3.51,9.45s-4.29-10.5,0-12.82S132.29,46.57,132.29,46.57Z" transform="translate(-113.2 -38.16)"/><path class="cls-9" d="M128.8,43.28c.9,4.34,1.6,5.47,5.47,4.29a4.49,4.49,0,0,1-.73-3A4.31,4.31,0,0,0,135.71,47a15.41,15.41,0,0,1,3.22-1,4.17,4.17,0,0,1-.19-1.88,4,4,0,0,0,1.46,1.77,10.81,10.81,0,0,1,3.48.62C143.66,42,135.91,37,128.8,43.28Z" transform="translate(-113.2 -38.16)"/><path class="cls-4" d="M136.91,52.23c.07.54.41,1,.76.93s.56-.48.48-1-.41-1-.76-.93S136.83,51.69,136.91,52.23Z" transform="translate(-113.2 -38.16)"/><path class="cls-4" d="M143.41,51.85c.08.53.42.95.77.93s.56-.49.48-1-.42-1-.76-.93S143.33,51.31,143.41,51.85Z" transform="translate(-113.2 -38.16)"/><path class="cls-4" d="M143.75,50.86,145,50.4S144.46,51.46,143.75,50.86Z" transform="translate(-113.2 -38.16)"/><path class="cls-11" d="M141.73,52.86a16,16,0,0,0,2.37,3.3,2.15,2.15,0,0,1-1.83.5Z" transform="translate(-113.2 -38.16)"/><path class="cls-4" d="M139.52,58.88a5.36,5.36,0,0,0,.9,0,.14.14,0,0,0,.13-.17.17.17,0,0,0-.18-.15,4.49,4.49,0,0,1-3.64-1.41.16.16,0,0,0-.23,0,.16.16,0,0,0,0,.22A4.75,4.75,0,0,0,139.52,58.88Z" transform="translate(-113.2 -38.16)"/><path class="cls-8" d="M126.2,57.31a4.42,4.42,0,0,0,2.71,2.37c1.48.4,2.12-1.3,1.63-3-.45-1.53-1.75-3.57-3.2-3.2S125.45,55.82,126.2,57.31Z" transform="translate(-113.2 -38.16)"/><path class="cls-4" d="M135.09,49.33a.31.31,0,0,0,.22-.09,2.3,2.3,0,0,1,2.06-.79.29.29,0,0,0,.35-.25.36.36,0,0,0-.27-.38,2.93,2.93,0,0,0-2.62,1,.33.33,0,0,0,0,.45A.31.31,0,0,0,135.09,49.33Z" transform="translate(-113.2 -38.16)"/><path class="cls-4" d="M144.87,48.75a.29.29,0,0,0,.22-.07.3.3,0,0,0,0-.44A3.37,3.37,0,0,0,142.41,47a.3.3,0,0,0-.26.35.35.35,0,0,0,.37.28,2.69,2.69,0,0,1,2.13,1A.33.33,0,0,0,144.87,48.75Z" transform="translate(-113.2 -38.16)"/><path class="cls-4" d="M137.24,51.25l1.22-.47S138,51.84,137.24,51.25Z" transform="translate(-113.2 -38.16)"/><path class="cls-8" d="M164.71,141.25l1.07-1.7a2.35,2.35,0,0,0,.18-2.14l-1.35-3.28a4.33,4.33,0,0,0-3.05-2.59l-.86-.2c-2,2.71-2.1,7.09-2.1,7.09l-.18,1.24a2,2,0,0,0,1.61,2.26l2.46.38A2.27,2.27,0,0,0,164.71,141.25Z" transform="translate(-113.2 -38.16)"/><path class="cls-4" d="M152.25,116.64a127.1,127.1,0,0,1-27.78,0,.62.62,0,0,1-.48-.86l.68-1.56a.57.57,0,0,1,.59-.36,124.86,124.86,0,0,0,26.71,0,.59.59,0,0,1,.64.54c.06.54.11,1.08.17,1.62A.6.6,0,0,1,152.25,116.64Z" transform="translate(-113.2 -38.16)"/><path class="cls-1" d="M139.08,71.3a6.14,6.14,0,0,1,1.56,4.62l4.55,1A6.61,6.61,0,0,0,139.08,71.3Z" transform="translate(-113.2 -38.16)"/><path class="cls-1" d="M138.57,76s-6.08-3.51-7.44-5.41l-2.71,2s-.85,3.18,2.83,6Z" transform="translate(-113.2 -38.16)"/><path class="cls-12" d="M139.08,71.3a6.14,6.14,0,0,1,1.56,4.62l4.55,1A6.61,6.61,0,0,0,139.08,71.3Z" transform="translate(-113.2 -38.16)"/><path class="cls-12" d="M138.57,76s-6.08-3.51-7.44-5.41l-2.71,2s-.85,3.18,2.83,6Z" transform="translate(-113.2 -38.16)"/><path class="cls-4" d="M166.94,94.85a91,91,0,0,1-11.14,5.23,62.36,62.36,0,0,1-6.19,2.06,29.46,29.46,0,0,1-6.8,1.13,11.62,11.62,0,0,1-4.22-.58l-.61-.26-.4-.19-.81-.36c-.55-.26-1.1-.5-1.62-.8a40.4,40.4,0,0,1-6.11-4,51.93,51.93,0,0,1-5.5-5c-.85-.93-1.69-1.89-2.48-2.89-.41-.5-.79-1-1.19-1.55l-.56-.82c-.2-.3-.36-.54-.61-1-1.28-2.06-1.54-5.9.18-7.28s4.56.19,5.88,2l.17.24.37.53.45.61c.31.41.62.83,1,1.23.65.83,1.35,1.61,2,2.4A42.61,42.61,0,0,0,133.22,90a40.36,40.36,0,0,0,4.91,3.63c.41.28.84.53,1.27.77l1.12.64a6.25,6.25,0,0,0,2,.4,27,27,0,0,0,5.62-.42c2-.31,3.93-.76,5.91-1.23a107.24,107.24,0,0,0,11.4-4.24Z" transform="translate(-113.2 -38.16)"/><path class="cls-3" d="M166.94,94.85a91,91,0,0,1-11.14,5.23,62.36,62.36,0,0,1-6.19,2.06,29.46,29.46,0,0,1-6.8,1.13,11.62,11.62,0,0,1-4.22-.58l-.61-.26-.4-.19-.81-.36c-.55-.26-1.1-.5-1.62-.8a40.4,40.4,0,0,1-6.11-4,51.93,51.93,0,0,1-5.5-5c-.85-.93-1.69-1.89-2.48-2.89-.41-.5-.79-1-1.19-1.55l-.56-.82c-.2-.3-.36-.54-.61-1-1.28-2.06-1.54-5.9.18-7.28s4.56.19,5.88,2l.17.24.37.53.45.61c.31.41.62.83,1,1.23.65.83,1.35,1.61,2,2.4A42.61,42.61,0,0,0,133.22,90a40.36,40.36,0,0,0,4.91,3.63c.41.28.84.53,1.27.77l1.12.64a6.25,6.25,0,0,0,2,.4,27,27,0,0,0,5.62-.42c2-.31,3.93-.76,5.91-1.23a107.24,107.24,0,0,0,11.4-4.24Z" transform="translate(-113.2 -38.16)"/><polygon class="cls-13" points="49.92 51.43 53.11 57.48 55.49 55.87 52.56 50.18 49.92 51.43"/><polygon class="cls-10" points="49.92 51.43 53.11 57.48 55.49 55.87 52.56 50.18 49.92 51.43"/><polygon class="cls-13" points="50.83 91.82 44.6 93.2 45.46 95.73 51.3 94.5 50.83 91.82"/><polygon class="cls-10" points="50.83 91.82 44.6 93.2 45.46 95.73 51.3 94.5 50.83 91.82"/></svg>