<svg id="_10n3" data-name="10n3" xmlns="http://www.w3.org/2000/svg" viewBox="0 0 3167.32 2909.21"><defs><style>.cls-1{fill:#0a7f04;}.cls-2{fill:#15b508;}.cls-3{fill:#ea6f00;}.cls-4{fill:#fea305;}.cls-5{fill:#8e2e00;}.cls-6{fill:#ffd350;}.cls-7{fill:#22ed0c;}.cls-8{fill:#fbbc0c;}.cls-9{fill:#fde30a;}.cls-10{fill:#9f5700;}.cls-11{fill:#e0e0e0;}.cls-12{fill:#fff;}.cls-13{fill:#003d80;}.cls-14{fill:#fff835;}.cls-15{fill:#540000;}.cls-16{fill:#f66c7d;}.cls-17{fill:#f8919d;}.cls-18{fill:#aa2f41;}.cls-19{fill:#ffc3ca;}</style></defs><path class="cls-1" d="M2648.13,2551.76c-10.64-129.7,19.6-224.64-156.76-325.12,234.76-326.76,526.63-496.8,694.62-512.92,155.42-14.9,233.57,84.73,161.78,166.64,65.56-14.3,174.06,126.44,42.56,227.39,142.5,25.95,118.39,181.06-24.07,205.08C3174.21,2345.22,3026.09,2279.22,2648.13,2551.76Z" transform="translate(-320.3 -179.97)"/><path class="cls-2" d="M2885.67,2267.47a68.91,68.91,0,0,1-14.19,5.46A86.93,86.93,0,0,1,2885.67,2267.47Z" transform="translate(-320.3 -179.97)"/><path class="cls-2" d="M2891.87,2404.46c-48.83-42.48-30.31-121.07-.67-150.64-58.77-25.17-67.32-101.8,4.78-182.9-105.57,53.86-131.83-70.59-53.75-139.73,67.59-59.84,203.89-143,312.95-174,132.82-37.71,245.26,19.7,211.59,94.2-4.4,9.75-13.85,41.21-118,92.65,139.63-58.2,259.12,45,164.37,143.43-6.62,6.88-48,45-100.32,65,204.53-6.12,195.94,136.33,53.48,160.35C3222,2337.16,3102.54,2306,2891.87,2404.46Z" transform="translate(-320.3 -179.97)"/><path class="cls-1" d="M3366.53,2314.46c48.49-8.17,87.75-32.68,107.73-67.21,14.32-24.78,17.24-51.83,8.22-76.17-12.05-32.49-43.33-55.23-88.25-64.27,75.54-59.9,61.55-126.36,51.9-152.38-17.31-46.69-59.52-80.46-94.18-76.44,23.32-28.4,30.22-59.9,19.38-89.11-16.86-45.47-80.76-86.85-185.5-76.8-88.86,8.52-206.62,59.64-323,140.25-136.05,94.18-265,223.28-372.76,373.34l-1.07,1.49,1.6.91c72.95,41.57,116,85.55,135.65,138.4,14.47,39,15.84,80.83,17.28,125.07.62,19.35,1.28,39.37,3,60.35l.23,2.92,2.38-1.71c291.59-210.24,443.18-218.58,589.78-226.64C3282,2324.09,3322.75,2321.85,3366.53,2314.46Zm-.56-3.26c-43.59,7.35-84.24,9.59-127.28,12-146.67,8.07-298.34,16.42-589.15,225.55-1.54-19.85-2.16-38.86-2.76-57.27-1.45-44.52-2.82-86.57-17.48-126.11-19.74-53.24-62.82-97.5-135.51-139.21,107.36-149.11,235.58-277.4,370.87-371.06,116-80.3,233.16-131.21,321.49-139.68,103-9.88,165.66,30.38,182.08,74.66,10.83,29.21,3.12,60.91-21.71,89.25l-3.31,3.77,4.91-1.07c33.32-7.27,77.67,27.13,94.91,73.6,9.51,25.67,23.32,91.72-53.71,150.85l-3,2.28,3.68.67c45.66,8.31,77.39,30.64,89.33,62.85,8.68,23.4,5.84,49.45-8,73.36C3451.91,2279.27,3413.49,2303.19,3366,2311.2Z" transform="translate(-320.3 -179.97)"/><path class="cls-1" d="M3116.81,1986.13c82.51-22.64,153.77-42.21,229.88-107l2.15,2.52c-76.67,65.3-148.27,85-231.15,107.71-134,36.78-285.85,78.46-516.32,327.34l-2.42-2.25C2830.05,2064.85,2982.4,2023,3116.81,1986.13Z" transform="translate(-320.3 -179.97)"/><path class="cls-1" d="M2640.22,2425.39c212-196.37,359.84-215.46,490.3-232.31,87.5-11.29,170.14-22,258.83-86.67l2,2.68c-89.37,65.21-172.42,75.93-260.35,87.28-130,16.78-277.29,35.8-488.48,231.45Z" transform="translate(-320.3 -179.97)"/><path class="cls-3" d="M1801.44,2836.46c27.89-15.43,80.1-31.15,106.21,4.15,26.38-13.66,83.13-18.83,104,8.63,3.73,4.89-11,9.84-24.33,17.85-20.4,12.31-44.14,37.93-56.81,71.59-9.53,25.29-6.2,52.18-9.87,66.86-11.26,45.09-79.5,42.12-96.1-3-25.36,28.11-65.63,15.43-78.91-15.42-28.48,50.76-83.6,4.58-83.71-44.78C1661.79,2855.44,1739.16,2815.1,1801.44,2836.46Z" transform="translate(-320.3 -179.97)"/><path class="cls-4" d="M1801.44,2836.46c27.89-15.43,80.1-31.15,106.21,4.15,26.38-13.66,83.13-18.83,104,8.63,3.73,4.89-63.24,11-95.93,68.72-17.94,31.67-11,56.7-14.69,71.38-10.37,41.48-49.34,58.49-71.58,23.24-1.93-3.06-13-22.21-7.67-56.55-11.17,52.14-50.27,65-67.79,44.54-3.37-3.94-16-20.74-17.87-55.5-19,90.41-74.09,46.66-74.2-2.7C1661.79,2855.44,1739.16,2815.1,1801.44,2836.46Z" transform="translate(-320.3 -179.97)"/><path class="cls-5" d="M1692,2860.14c-20.78,20.82-31.71,49.25-31.64,82.23.07,34.57,26.77,68.49,53.9,68.49,8.69,0,21-3.58,31.29-20.17,8.82,17.57,26.73,29.16,45.48,29.16,12.42,0,23.78-4.92,33-14.25,9.9,23.44,33.3,34,52.66,34h0c18,0,39.44-8.84,45.65-33.62,1.4-5.62,1.79-12.78,2.25-21.07.74-13.35,1.66-30,7.55-45.61,13.26-35.22,37.68-59.64,56.11-70.76,3.76-2.27,7.72-4.33,11.22-6.15,7.9-4.11,13.6-7.08,14.4-10.67a4.1,4.1,0,0,0-.83-3.46c-10-13.16-29.14-20.41-53.85-20.41-18.18,0-37.57,4.08-51,10.69-10.78-13.86-26.42-20.89-46.51-20.89-18.29,0-40.79,6.36-60.33,17a106.31,106.31,0,0,0-33.8-5.47C1739.12,2829.18,1711.58,2840.46,1692,2860.14Zm-28.33,82.23c-.07-32.09,10.53-59.71,30.66-79.89A104.16,104.16,0,0,1,1800.91,2838l.7.24.64-.35c19.22-10.63,41.41-17,59.37-17,19.52,0,34.56,7,44.69,20.67l.85,1.13,1.24-.64c13.06-6.76,32.51-11,50.76-11,13.69,0,38.56,2.49,51.22,19.11.3.39.26.61.23.72-.47,2.1-6.69,5.33-12.69,8.46-3.55,1.84-7.56,3.94-11.41,6.26-18.9,11.41-43.94,36.42-57.5,72.42-6.07,16.12-7,33-7.76,46.6-.45,8.12-.83,15.13-2.16,20.44-5.73,22.93-25.67,31.11-42.43,31.11h0c-18.87,0-41.81-10.58-50.52-34.25l-.94-2.57-1.84,2c-8.9,9.86-20.09,15.08-32.37,15.08-18.46,0-36-12.08-43.78-30.05l-1.33-3.07-1.64,2.92c-7.78,13.87-18.17,21.2-30,21.2C1688.76,3007.54,1663.7,2975.26,1663.63,2942.37Z" transform="translate(-320.3 -179.97)"/><path class="cls-5" d="M1907.1,2839.05l1.1,3.13c-58.72,20.69-100.13,101.38-82,159.91l-3.17,1C1804.1,2941.9,1845.75,2860.67,1907.1,2839.05Z" transform="translate(-320.3 -179.97)"/><path class="cls-5" d="M1800.73,2835l1.44,3c-66.65,32.28-75.21,99.64-55,148.56l-3.06,1.27C1723.33,2937.46,1732.14,2868.18,1800.73,2835Z" transform="translate(-320.3 -179.97)"/><path class="cls-6" d="M1893.86,2852c4-2.23,3.47.34-.61,3.61a200.89,200.89,0,0,0-60.83,84.34c-1.87,5-4.34,7-3.66,3C1835.72,2901.58,1866.1,2867.45,1893.86,2852Z" transform="translate(-320.3 -179.97)"/><path class="cls-6" d="M1767,2868.3c15.44-17.78,36.79-30.31,56.26-37.13,5.55-2,4.4.07-1.44,3-29.4,14.78-58.4,41.27-73.86,84.84-1.8,5.07-4.69,7.26-4.23,3A98,98,0,0,1,1767,2868.3Z" transform="translate(-320.3 -179.97)"/><path class="cls-6" d="M1760.23,2835.39c4.12-.35,3,.87-1.67,1.93-2.32.52-4.6,1.11-6.87,1.77a116.69,116.69,0,0,0-81.47,85.25c-1.51,6.37-3.55,8.31-3.1,2.67C1670.65,2881.87,1705.31,2840.12,1760.23,2835.39Z" transform="translate(-320.3 -179.97)"/><path class="cls-1" d="M822.13,1540.27,579.52,1695.58c-112.88-74.64-191.74-191.26-138.1-272.32C469.56,1380.74,635.08,1319.66,822.13,1540.27Z" transform="translate(-320.3 -179.97)"/><path class="cls-2" d="M659.07,1408c15.94,12,.37,33.09-36.14,73.27-27,29.75,28.15,90.17,79.47,135.68l-122.88,78.66c-112.88-74.64-191.74-191.26-138.1-272.32C460.91,1393.82,546.29,1355.5,659.07,1408Z" transform="translate(-320.3 -179.97)"/><path class="cls-1" d="M537.33,1380.64c53.9-3.2,162.76,13.13,286.06,158.56l-2.53,2.15C698.49,1397,590.79,1380.79,537.53,1383.94c-48.71,2.89-83.25,22.88-94.73,40.23-31.25,47.22-13.62,100.48,6.67,136.85,26.55,47.59,73.06,94.89,131,133.18l-1.82,2.76c-58.34-38.58-105.23-86.28-132-134.33-29.74-53.3-32-101.81-6.55-140.28C452,1404.33,487.49,1383.6,537.33,1380.64Z" transform="translate(-320.3 -179.97)"/><path class="cls-1" d="M1031.14,1256.21c9.66,23.71-156.69,139.83-32.15,415.28,97.9,216.51,466.93,442.86,755.93,292.65L1650,2281S1361.43,2486.29,997.9,2389c-156.17-41.79-414.1-408.18-453.25-586.16l171-229.87C693,1233.73,1012.14,1209.61,1031.14,1256.21Z" transform="translate(-320.3 -179.97)"/><path class="cls-2" d="M861.49,1768c-.94-13.47-84.88-168.47-78.65-268,8.92-142.42,215.83-311.37,248.3-243.79,9.66,23.71-156.69,139.83-32.15,415.28,97.9,216.51,466.93,442.86,755.93,292.65l-56.39,170.25c-119.66,66.76-215.51,76.69-313.15,61.46,19.94,23.26,41.66,36.44,88.92,62.6-159.56,10-341.89-40.76-451.58-167.08-5.77,29.13,20.82,108.42,34.12,141.67-133.52-30.55-290.12-95.92-378.25-312.9,48.92.52,87.39-8.26,86.27-17.24-1.84-14.85-61.66-83.66-104.7-133.32C745.94,1800.75,862.55,1783.28,861.49,1768Z" transform="translate(-320.3 -179.97)"/><path class="cls-7" d="M999,1671.49c97.9,216.51,466.93,442.86,755.93,292.65l-26.23,79.21c-211.63,52.22-417.42-10.19-578.9-135.33-209.9-162.66-241.42-387.78-185.22-516C945.78,1457.39,943.41,1548.56,999,1671.49Z" transform="translate(-320.3 -179.97)"/><path class="cls-1" d="M728.72,2146c98.89,132.44,199.67,222.68,269.61,241.4,187.35,50.12,354.26,18.15,461.3-17.5,111.33-37.08,182.72-85.7,188.95-90l103.5-312.45c-68.08,34.59-136.72,47.13-200.46,47.12-70.08,0-134.24-15.15-185.14-32.78-162.4-56.25-310.69-180.68-369-309.62-97.12-214.79-16.71-335.07,17.61-386.44,9.48-14.18,16.33-24.42,14.5-28.9-6.23-15.29-49-23.59-102.69-11.58-53,11.86-224.95,70.54-211.25,327.75,0,0-4.09-19.4-4.08-28.91.14-86.22,22.5-157.21,66.62-211.32,50-61.35,114.19-83.19,148-90.75,51-11.41,98.78-5.33,106.48,13.56,2.49,6.11-4,15.85-14.82,32-34,50.91-113.7,170.12-17.34,383.23,57.94,128.17,205.46,251.89,367,307.86,97.41,33.74,243.56,58.35,386.6-16l3.61-1.88-106.22,320.68-.17.52-.44.31c-.72.51-73.69,51.93-190.15,90.74-67.63,22.53-159,43.6-264.4,43.6a767.64,767.64,0,0,1-198.92-26C925.79,2371.46,826.86,2283,726.06,2148c-92.3-123.64-164.15-259-183-344.78l3.23-.72C565.05,1887.91,636.67,2022.75,728.72,2146Z" transform="translate(-320.3 -179.97)"/><path class="cls-1" d="M484.62,1711.14,566.23,1791c-6.16,94.86,173.86,245.66,144.53,253.93-193.69,54.58-432.44-127-382.06-256.3C339,1762.3,397.52,1709.75,484.62,1711.14Z" transform="translate(-320.3 -179.97)"/><path class="cls-2" d="M338.6,1772.64c35.67-47.84,18,64.64,137.94,132.44,190.27,107.59,199.57,147.67,182,149-181.43,13.71-375.71-147.55-329.79-265.44C330.51,1784,333.87,1778.5,338.6,1772.64Z" transform="translate(-320.3 -179.97)"/><path class="cls-1" d="M484.64,1709.48l-.05,3.31c-86.51-1.29-144,50-154.35,76.45-17.06,43.79-.81,97.59,44.6,147.61,72.2,79.56,210.61,141.68,335.48,106.49,1.36-.38,1.72-1,1.88-1.55,2.23-7.12-18.11-31.7-41.64-60.16-46.31-56-109.75-132.71-106-190.72l3.3.21c-3.68,56.7,61.86,136,105.23,188.4,29.57,35.76,44.88,54.82,42.25,63.25a5.61,5.61,0,0,1-4.14,3.76,277.94,277.94,0,0,1-75.46,10.18c-103.13,0-204.84-53.14-263.38-117.63-46.27-51-62.75-106-45.23-151C337.76,1760.83,396.75,1708.15,484.64,1709.48Z" transform="translate(-320.3 -179.97)"/><path class="cls-1" d="M510.18,1540.27l81.61,79.88c-6.16,94.86,200,269.23,170.1,275.28-257.58,52.21-474.44-182.23-385.73-296.63C393.48,1576.46,447.17,1548.58,510.18,1540.27Z" transform="translate(-320.3 -179.97)"/><path class="cls-2" d="M396.34,1580.86c40.41-30,86.24,72.33,107.31,114.72,56.72,114.11,211.75,207,189.22,207.29C467.41,1906,295.52,1702.8,376.16,1598.8,380.62,1593,387.51,1586.92,396.34,1580.86Z" transform="translate(-320.3 -179.97)"/><path class="cls-1" d="M510,1538.64l.44,3.28c-63.69,8.39-116,36.09-132.93,57.89-29,37.36-26.2,90,7.6,144.44C447,1844,596.15,1927.34,761.56,1893.81c1.26-.25,1.44-.79,1.52-1,2.25-6.56-22.07-34.73-47.81-64.55-54.42-63-128.95-149.36-125.13-208.18l3.3.21c-3.73,57.47,73.34,146.74,124.33,205.81,33.71,39,51.18,59.79,48.45,67.79a4.88,4.88,0,0,1-4,3.19,374.61,374.61,0,0,1-74.65,7.54,381.19,381.19,0,0,1-155.83-33.76c-63.48-28.56-118-74-149.49-124.83-34.56-55.68-37.27-109.7-7.4-148.22C392.16,1575.46,445.4,1547.14,510,1538.64Z" transform="translate(-320.3 -179.97)"/><path class="cls-1" d="M648,1489.26c19.33,96.22,240.28,257,211.64,267.34C671,1825.08,345.83,1567.71,441.42,1423.26Z" transform="translate(-320.3 -179.97)"/><path class="cls-2" d="M622.93,1481.24c-55.71,71.41,198.87,285.58,178.52,286.49-189.55,8.5-446.35-214-360-344.47Z" transform="translate(-320.3 -179.97)"/><path class="cls-1" d="M443.56,1423.07l-1.29,1.9c-30.41,46.86-18.67,108.83,33.14,174.61,70.41,89.39,204.15,166.61,316,166.59,23.81,0,46.65-3.49,67.66-11.12,1.06-.39,1.31-.92,1.42-1.39,1.83-8.43-30.94-40.63-65.63-74.73-49.28-48.42-114-112-140.14-163.08-4.64-9.06-6.73-26.59-6.73-26.59,12.38,52.86,91.45,130.57,149.18,187.31,45.2,44.41,68.67,68,66.55,77.79a5.11,5.11,0,0,1-3.52,3.8c-21,7.64-44.43,11.42-69.5,11.42-42.32,0-89.41-10.79-137.87-32-70.85-31-136.48-80.59-180.06-135.91-53.06-67.37-64.7-131-32.78-179.28Z" transform="translate(-320.3 -179.97)"/><path class="cls-7" d="M447.43,1461.6c-2.89,79.24,60.41,145.7,133.24,209,5.62,4.89-2.49,4.82-11.67-.58-102.65-60.37-156.45-160.21-125.8-223.47C445.43,1441.94,447.77,1452.36,447.43,1461.6Z" transform="translate(-320.3 -179.97)"/><path class="cls-7" d="M338,1841.78c35.21,84.33,104,138.06,180.73,177.11,12.56,6.39,19.3,14,10,11.26C421.26,1998,330.37,1899.8,328.13,1831.25,328,1826.46,334.66,1833.9,338,1841.78Z" transform="translate(-320.3 -179.97)"/><path class="cls-7" d="M375.09,1649.14c4.26,77.53,76.28,148.72,155.89,205.87,6.61,4.74-1.79,3.92-12.2-1.71-100.3-54.17-170.18-144.66-150.29-217.74C370.66,1627.59,374.42,1637,375.09,1649.14Z" transform="translate(-320.3 -179.97)"/><path class="cls-1" d="M2274.63,1899c-81.27,207.48,72.43,394.07,170.88,579.11,140,263.26,56.61,337.85-82.21,401.93S1752,2956.2,1623.21,2536.16c-91.88-299.68,31.94-505.47,110.3-594.45Z" transform="translate(-320.3 -179.97)"/><path class="cls-2" d="M2274.63,1899c-84.59,185.81,42.34,365.58,34,602.62-2.37,67.21-66.73,108.66-166.56,24.94-35.43,38.84-26.18,92.78-13.36,144.5,10.67,43.09-3.32,103.6-49.17,136.84-85.12,61.7-365.2,42.33-456.3-271.73-91.88-299.68,31.94-505.47,110.3-594.45Z" transform="translate(-320.3 -179.97)"/><path class="cls-1" d="M1732.27,1940.61c-65.43,74.31-207.19,281.13-110.64,596,41.14,134.19,120.2,235.28,235,300.47,113.41,64.41,232.94,77.94,313.26,77.94h0c76.07,0,148.62-12.54,194.11-33.53,73.72-34,126.93-68.92,147-128.6,21.84-64.86,1.49-152.43-64-275.61-17.76-33.38-37.68-67.44-56.95-100.38-88.59-151.43-180.18-308-113.84-477.34l1-2.47-544.43,43Zm2,2.69,537.82-42.45c-65.06,169.87,26.48,326.39,115,477.76,19.25,32.91,39.16,66.94,56.89,100.26,65.07,122.32,85.35,209.07,63.83,273-19.72,58.57-72.34,93-145.28,126.65-45.07,20.81-117.11,33.22-192.71,33.23h0c-100.85,0-438.09-27.13-545.07-376.07C1529,2223.07,1669.06,2017.62,1734.31,1943.3Z" transform="translate(-320.3 -179.97)"/><path class="cls-3" d="M2192.69,2862.34c29.22-25.51,76.83-14.33,89.59,12.46,35.74-28.62,100.27-12.46,102.67,18.83,2.3,30-30.45,53.38-40.06,74.58-18.71,41.26-8.77,59.67-17.53,85.2-7.71,22.51-30.84,38.53-53.06,33-19.22-4.77-31.13-20-38.89-34.83-27.3,39.16-70,25.51-88.4,0-35,17.8-70.78-15.13-76.88-48.36s5.47-93.44,40.1-128.44C2137.08,2847.66,2169,2844,2192.69,2862.34Z" transform="translate(-320.3 -179.97)"/><path class="cls-4" d="M2192.69,2862.34c29.22-25.51,76.83-14.33,89.59,12.46,26.24-21,68-17.89,89.28-2.36,19.36,16.77-32.36,50.17-52.94,84.28-19,31.6-3.11,55.29-11.87,80.83-7.71,22.51-20.14,40.72-35,40-19.77-1-40.27-14.34-44.27-60.12-9.67,44.12-55.68,59.56-76.6,38.66-1.39-1.4-15.54-12.75-13.75-59.1-8.55,64.29-60.86,39.48-67,6.25s5.47-93.44,40.1-128.44C2137.08,2847.66,2169,2844,2192.69,2862.34Z" transform="translate(-320.3 -179.97)"/><path class="cls-5" d="M2109.05,2873.64c-33.53,33.9-47.16,93.83-40.54,129.9,4.84,26.42,29.41,54.71,58.25,54.71a45.67,45.67,0,0,0,19.74-4.56c11.13,14.67,29.2,24.07,46.43,24.07,11.55,0,28.08-4.06,42.27-23.05,10.22,18.49,22.9,29.4,38.71,33.32a38.76,38.76,0,0,0,9.36,1.15c19.46,0,38.67-14.81,45.66-35.23,3.58-10.45,4.11-19.76,4.65-29.63.81-14.52,1.73-31,12.81-55.43,3.25-7.16,9.29-14.68,15.68-22.65,12.23-15.22,26.08-32.47,24.53-52.73-1.69-22.07-31-35.25-58.34-35.25-17.27,0-33.31,5-45.42,14-8.51-15.59-28.51-25.94-50.54-25.94a61.83,61.83,0,0,0-39.67,13.89,54.24,54.24,0,0,0-32.41-10.92C2142.49,2849.3,2124.8,2857.71,2109.05,2873.64Zm2.36,2.33c15.11-15.28,32-23.36,48.81-23.36a51.09,51.09,0,0,1,31.46,11l1.07.84,1-.9a58.39,58.39,0,0,1,38.52-14c21.3,0,41.23,10.64,48.48,25.87l.9,1.89,1.63-1.3c11.69-9.38,27.66-14.53,45-14.53,29.48,0,53.65,14.14,55,32.19,1.46,18.95-12,35.66-23.8,50.41-6.53,8.14-12.69,15.82-16.11,23.35-11.34,25-12.27,41.8-13.1,56.61-.54,9.63-1.05,18.73-4.48,28.75-6.55,19.11-24.44,33-42.53,33a35.78,35.78,0,0,1-8.57-1c-15.48-3.84-27.86-15-37.82-34l-1.27-2.42-1.56,2.23c-13.72,19.69-29.93,23.82-41.12,23.82-16.65,0-34.14-9.35-44.58-23.83l-.83-1.15-1.26.65a42.83,42.83,0,0,1-19.5,4.81c-27.19,0-50.39-26.88-55-52C2065.3,2967.69,2078.62,2909.12,2111.41,2876Z" transform="translate(-320.3 -179.97)"/><path class="cls-5" d="M2191.64,2861.07l2.11,2.55c-54.85,45.2-65.93,158.14-45.39,187l-2.7,1.93C2122.31,3019.73,2138.78,2904.63,2191.64,2861.07Z" transform="translate(-320.3 -179.97)"/><path class="cls-5" d="M2283.43,2876c-40.42,39-69.45,120.45-46.5,175l-3,1.28c-23.47-55.75,6.06-138.89,47.25-178.63Z" transform="translate(-320.3 -179.97)"/><path class="cls-6" d="M2311,2866.54c4-.92,4.59,1.49.66,3.6-24.2,13.07-51.11,46.07-68,88.56-2.26,5.71-4.84,7.9-3.76,3C2249.23,2919.23,2277.42,2874.34,2311,2866.54Z" transform="translate(-320.3 -179.97)"/><path class="cls-6" d="M2225.15,2852.35c2.52-.23,1.86,2.07-1,3.48-28.35,13.79-57.82,51.61-75.24,98.72-1.6,4.33-3.34,5.92-2.6,2.31C2156.92,2904.87,2189.75,2855.63,2225.15,2852.35Z" transform="translate(-320.3 -179.97)"/><path class="cls-6" d="M2155.22,2855.41c3.42-.4,5.55,1.23,3.2,2.08-33.11,12-63.37,45.47-79.85,93.78-1.82,5.31-3.85,7.5-3,3.1C2085.1,2902.43,2119.11,2859.65,2155.22,2855.41Z" transform="translate(-320.3 -179.97)"/><path class="cls-8" d="M1578.72,2216.39c-11.71,6.53,15.47-134.9,136.15-252.25l464.83,8.42c-43.9,38-144.76,206.46-64.07,290.7,0,0-20.76,8.3-58.14-29.66,65.85,107.67,79.15,203.44,68.23,212.38-7.23,5.94-17.21-30.25-45.09-56.65,25.69,101-9.66,192.42-31.29,190.74-9.82-.77-6.68-17.21-14.1-69.71-27,103.62-62.61,139.6-77.43,133.78-11.52-4.53,3.57-27.29-3.55-67-34.23,90.94-71,133.4-86,127-10.59-4.52,1.77-26.1,1.48-77.13-27.21,50.06-49.48,68-73.87,77.77-15.3,6.11-9.48-20.21-39.15-58.19-3.12,35.16,4.94,49.43-3.55,48.06-10.94-1.77-44.06-17.36-81.88-105.9,2.23,41.83,5.15,54.53-3.85,56.23-13.58,2.57-38-38-53.55-128.31-6.45,26-4,31.15-8.37,33.65-6.09,3.5-84.71-115-1.06-350.79C1577.24,2211.46,1584.73,2213,1578.72,2216.39Z" transform="translate(-320.3 -179.97)"/><path class="cls-9" d="M1714.87,1964.14l464.83,8.42c-19.58,16.94-122.2,138.46-112.27,236.12-14.35-2.48-35-11.58-56.28-39.73,15.55,56.39,53.25,102.36,42.49,157.81-12.42-19.17-34.35-40.28-50.9-46.9,6.62,56.28,12.83,140.69-36.83,183.73-9.93-23.17-29.79-43-36.42-69.52-13.24,56.28-43,105.94-72.83,155.59-13.24-23.17-13.24-49.65-16.55-76.14-19.86,33.11-33.11,69.52-36.41,109.25-53-29.8-53-92.69-59.59-145.66-13.24,29.79-29.8,56.27-36.42,89.38-64.56-35.59-79.45-132.42-66.21-198.63-6.62,16.55-19.87,26.48-29.8,39.73-16.55-76.15,9.93-149,43-215.19-19.86,0-62.28,24.62-77.8,48.83,4.53-24.69,20.67-69.89,35-96.62A528.31,528.31,0,0,1,1714.87,1964.14Z" transform="translate(-320.3 -179.97)"/><path class="cls-10" d="M1583.21,2214.37a9.27,9.27,0,0,1-3.69,3.46,2.75,2.75,0,0,1-3.73-.73c-8.62-11.57,26.75-146,137.94-254.15l2.3,2.37a523.5,523.5,0,0,0-113.92,164c-20.63,47.16-26,80.57-23.87,85.44a5.92,5.92,0,0,0,2.21-2.22c1.71-2.57,4-6.09,23.32-14.6l3.52-1.56L1606,2200c-68.57,193.31-27.08,302.15-12.74,330.92,5.79,11.59,10.28,16.7,11.82,17.62,1.3-1,1.61-2.68,2.44-8.24a232.05,232.05,0,0,1,4.75-24.11l1.9-7.67,1.34,7.78c13.46,78.37,33,116.37,45.53,125.1,2.28,1.57,4.32,2.21,6.08,1.88,5.62-1.07,5.4-8.46,3.74-33.93-.38-5.92-.82-12.74-1.24-20.59l-.5-9.34,3.67,8.6c40.13,93.95,74.19,103.88,80.62,104.92.43.07,1.21.14,1.49-.12,1-.88.62-5.45.21-10.74a204.11,204.11,0,0,1-.06-35.71l.38-4.18,2.58,3.31c14.3,18.3,20.5,34.1,24.61,44.54,2.81,7.16,4.84,12.34,7.68,13.56,1.26.54,2.82.41,4.94-.44,20.68-8.26,43.83-23.3,73-77l3.08-5.65,0,6.44a329.09,329.09,0,0,1-4.08,52.51c-2.16,15-2.86,21.19,1.59,23.1,2,.84,4.48.63,7.44-.64,17.31-7.39,47.65-49,76.39-125.38l2.12-5.63,1.06,5.92c3.61,20.17,1.6,35.85.13,47.31s-2,16.77,2.4,18.48c2.43.94,5.58.49,9.15-1.32,16.92-8.61,44.38-48.17,66.08-131.34l2.08-8,1.16,8.19c2.43,17.2,3.75,30.8,4.71,40.73,2.05,21.08,2.86,27.17,7.87,27.55,3.15.24,7-2.1,11-6.82,20.89-24.81,39-101.81,18.58-181.85l-1.41-5.55,4.15,3.94c14.57,13.78,24.21,30,31.24,41.93,4.42,7.45,8.6,14.49,10.93,14.91a.8.8,0,0,0,.73-.26c10-8.17-3.87-104.44-68.59-210.25l-7.51-12.3,10.11,10.27c28.55,29,47.2,30.44,53.73,29.8-20.69-22.83-30.3-53-28.57-89.69,3.83-81.61,63.75-174.39,94.79-201.24l2.17,2.51c-30.67,26.52-89.87,118.21-93.66,198.88-1.74,36.95,8.26,67,29.7,89.43l1.69,1.76-2.27.91c-.82.33-18.91,7-51.09-21.6,60.8,103.92,73.38,194.42,61.61,204.08a4.13,4.13,0,0,1-3.42.95c-3.83-.67-7.35-6.62-13.19-16.48-6.25-10.53-14.57-24.57-26.53-37.09,18.37,79,.18,154.31-20.65,179.07-4.69,5.57-9.39,8.31-13.77,8-8-.62-8.79-8.77-10.9-30.54-.81-8.27-1.86-19.1-3.6-32.43-21.57,78.7-47.86,116.43-65.64,125.47-4.44,2.26-8.54,2.77-11.86,1.46-7-2.73-6-10.39-4.48-22,1.29-10,3-23.4.85-40.16-30.3,78.5-59.71,114.47-76,121.4-3.83,1.64-7.2,1.85-10,.65-7-3-5.76-11.38-3.57-26.61a334.58,334.58,0,0,0,4-45.59c-28.24,50.06-51.08,64.66-71.58,72.84a12.14,12.14,0,0,1-4.53,1,7.32,7.32,0,0,1-2.94-.59c-4.11-1.77-6.23-7.19-9.45-15.38-3.78-9.61-9.36-23.82-21.53-40.28a203.89,203.89,0,0,0,.41,30.85c.58,7.63.88,11.46-1.27,13.43a4.83,4.83,0,0,1-4.27.94c-9.15-1.47-41.26-13-79.43-98.41.25,4.11.5,7.88.71,11.35,1.74,26.72,2.32,35.73-6.43,37.39-2.67.5-5.55-.31-8.58-2.41-12.67-8.79-31.9-45.28-45.49-119.29-1.56,7.19-2.32,12.29-2.87,16-1,6.43-1.36,9.1-4.47,10.89-1.58.91-3.29-.51-3.86-1-14.82-12.37-77.51-128.86-.86-348.16C1586.43,2209.51,1584.51,2212.4,1583.21,2214.37Z" transform="translate(-320.3 -179.97)"/><path class="cls-8" d="M1308.84,1345.3c-33.17-189.36,34.69-438.48,91.4-533.09,12-18.08,68-84.42,140-40.79,122.12,74,207.2,326.09,55.28,542.83,76.94-63.17,197.87,10.76,221.77,54.16C1793.36,979.29,2017.62,751.53,2192,779c198.17,31.25,335.06,346.27,215.45,655.31,127.19-13.08,341.31,85.21,365.09,265.94-.5,77.56-87.54,206.6-241.61,256.56-161,52.18-359.76,7.29-459.3,48.11l-359-8.12c-82.67-109-230.43-110.14-363.68-198C1206.24,1704.76,1159.14,1483.74,1308.84,1345.3Z" transform="translate(-320.3 -179.97)"/><path class="cls-9" d="M1308.84,1345.3c-33.17-189.36,34.69-438.48,91.4-533.09,12-18.08,68-84.42,140-40.79,122.12,74,207.2,326.09,55.28,542.83,76.94-63.17,197.87,10.76,221.77,54.16C1793.36,979.29,2017.73,750.8,2192,779c201.25,32.6,333.53,353.36,215.45,655.31,77.13-7.93,181.54,44.78,225.12,119.26,56.18,96,28.43,266.65-113.11,345.38-134.92,75-316.2,35.36-447.83,106,0,0-75.26,44.72-181.2,40.58s-177.84-48.7-177.84-48.7c-75.81-104.88-230.43-110.14-363.68-198C1206.24,1704.75,1157.67,1484.48,1308.84,1345.3Z" transform="translate(-320.3 -179.97)"/><path class="cls-10" d="M1307.05,1344.7c-31.67-182.78,32-433.66,91.81-533.41,2.47-3.71,61.47-90.24,142.27-41.29,60.33,36.55,109.61,115.39,128.62,205.74,23.92,113.7.06,230.92-67.18,331.21,25.59-17.3,57.58-22.83,93.22-16,50.59,9.73,100.41,43.31,119.51,71-6.11-111.33,7.55-214.25,40.61-306,29.82-82.76,74.79-153.07,130.07-203.33,64.21-58.38,139.38-85.81,206.26-75.26,76.1,12,145,65.43,193.94,150.44,80.43,139.64,89.46,332.75,23.76,504.61,130.54-11.78,340.57,87.9,364.23,267.85-.48,75.37-85.11,207-242.74,258.12-86.44,28-180.8,28.13-264,28.23-72.95.09-141.86.16-195.78,18.31,0,0,11-8.15,37.51-12.89,47-8.38,101.4-8.67,158.27-8.73,83-.1,177.08-.21,263-28.07,156.15-50.62,240-180.62,240.48-254.77-10.59-80.51-61.38-153.13-143-204.45-69.72-43.85-154.12-66.86-220.28-60l-2.68.28,1-2.52c66.4-171.57,57.75-364.8-22.58-504.27-48.46-84.13-116.49-137-191.59-148.82-65.87-10.4-140.06,16.74-203.51,74.44-119.09,108.28-182.35,300.13-169.22,513.2l.45,7.35-3.56-6.45c-15.39-28-67.58-64.77-120.72-75-38.5-7.4-72.56,0-98.55,21.3l-9.35,7.68,7-9.91c71-101.31,96.69-220.94,72.3-336.86-18.83-89.5-67.53-167.5-127.09-203.59-78.15-47.35-135.41,36.68-137.76,40.22-59.58,99.4-123.09,349.86-91.19,532l.15.89-.66.61c-65.47,60.56-97.62,141.69-90.51,228.47,7.4,90.35,56.13,173.5,130.35,222.44,55,36.32,111,57.3,165.18,77.6,68.86,25.82,134.24,50.33,185.67,103.5,5,5.13,11.92,18.32,11.92,18.32-52.77-64-123.68-90.57-198.76-118.72-54.31-20.36-110.48-41.42-165.83-77.93-75.06-49.5-124.35-133.58-131.83-224.93C1209,1487.73,1241.26,1405.89,1307.05,1344.7Z" transform="translate(-320.3 -179.97)"/><path class="cls-1" d="M2106.05,2016.67c145.57-153,585.41,201.88,607.36,278.41,22.08,77-48.54,213-48.54,213,245.61-16.91,323.93-126.37,350.63-89s-99.67,194-215.36,265.19c142.38,35.6,268.75-7.12,284.77,17.8s-173.53,173.53-343.5,188.66c87.21,49.84,164.1,60.19,160.18,81-4.45,23.58-176.29,118.59-436.06,25.81-199.33-71.19-326.59-310.58-336.65-409.53-6-59.19,66.12-154.67,111.5-200.95C2162.08,2331.85,2018.88,2108.26,2106.05,2016.67Z" transform="translate(-320.3 -179.97)"/><path class="cls-2" d="M2713.41,2295.08c22.08,77-48.54,213-48.54,213,242.4-18.1,289-108,290.11-62.07.93,36.63-76.52,151.53-220.83,205.56,85.31,69.79,254.29,34.32,267.58,56.5,15.24,25.41-155.72,142.17-353.11,120.8,148.89,114,214.47,101.7,211,128.09-3.13,23.79-119.86,89.56-378.37-6.69-156-58.09-267.25-260.43-277.31-359.38-6-59.2,52.26-221.48,170.35-295.29-227.7,18.26-348-195.31-268.25-278.9C2251.79,1863.88,2691.46,2218.55,2713.41,2295.08Z" transform="translate(-320.3 -179.97)"/><path class="cls-7" d="M2713.41,2295.08c22.08,77-48.54,213-48.54,213-22.35,45-78.65,130.39-151.78,192.23,63.15-83.1,116.34-159.28,113.85-240.72,3.32,10,13.29,20.42,16.62,30.39,44.72-80.85,6.09-145.63-20.5-202.14,16.62,3.32,18.84,2.22,48.2,17.18-120.58-168.18-226.32-232.69-309.7-285.25C2526.38,2094,2699.83,2247.73,2713.41,2295.08Z" transform="translate(-320.3 -179.97)"/><path class="cls-1" d="M2104.86,2015.53c-21.78,22.87-30.78,55.11-26.77,95.83,10.3,104.55,102.29,234.21,159.77,275.89-48.21,49.59-116.53,142.86-110.63,200.89,10.39,102.24,139,340,337.75,410.92,74.27,26.52,147.59,40,217.92,40,136.27,0,217.07-49.81,220.31-67,2.37-12.54-18.83-20.68-53.95-34.14-27.16-10.41-64-24.52-102.47-46,150.59-15.76,316.7-133.69,338.42-178,2.65-5.4,3-9.67,1.1-12.66-4.08-6.34-14-9-33.34-9-11.78,0-26.22,1-42.95,2.08-23.11,1.55-49.31,3.31-78.73,3.31-46.48,0-88.06-4.55-126.93-13.92,103-64.68,204.11-186.09,215.32-241.55,2.09-10.33,1.13-18.37-2.84-23.93a19,19,0,0,0-16.47-8.43c-12.18,0-29.36,8.32-53.14,19.81-51.46,24.9-137.35,66.45-279.57,76.71,9.61-19.33,67.65-140.77,47.34-211.56-17.78-62-319.91-317.47-509.94-317.47C2162.8,1977.16,2129.09,1990.07,2104.86,2015.53Zm2.39,2.28c23.58-24.78,56.49-37.35,97.81-37.35,188.9,0,489.12,253.55,506.76,315.08,21.64,75.43-47.72,210.39-48.41,211.75l-1.37,2.61,2.94-.2c144.59-9.95,231.67-52.07,283.69-77.23,23.38-11.31,40.28-19.49,51.7-19.49a15.72,15.72,0,0,1,13.78,7c3.42,4.78,4.19,12,2.29,21.35-11,54.28-115.42,178.86-217.17,241.48l-3.35,2.06,3.82,1c40.23,10.06,83.27,14.95,131.55,14.95,29.53,0,55.79-1.76,78.95-3.31,16.67-1.12,31.06-2.08,42.73-2.08,17.78,0,27.2,2.32,30.55,7.53,1.56,2.42.16,6.46-1.29,9.41-9.59,19.58-54.22,59.85-121,98.94-43.77,25.62-130.55,69.8-220,77.76l-5.25.47,4.57,2.62c40.38,23.07,79.17,37.94,107.49,48.8,32.36,12.4,53.75,20.61,51.89,30.43-3,16-84.81,64.34-217.06,64.34-70,0-142.89-13.38-216.81-39.78-197.44-70.52-325.24-306.6-335.57-408.13-5.83-57.44,63.21-150.85,111.05-199.63l1.36-1.39-1.59-1.12c-56.86-40.06-149.66-170-160-274.64C2077.47,2071.32,2086.17,2040,2107.25,2017.81Z" transform="translate(-320.3 -179.97)"/><path class="cls-1" d="M2663.4,2507.29l2.94,1.52c-34.85,67.36-103.3,161.69-187.4,219.84-7.62,5.27-24.92,12-24.92,12C2548.07,2685.33,2625.59,2580.36,2663.4,2507.29Z" transform="translate(-320.3 -179.97)"/><path class="cls-1" d="M2338.55,2313.83c-.45.23-45.77,23-97,74.36l-2.33-2.33a467,467,0,0,1,78.31-63.55C2329.56,2314.65,2338.55,2313.83,2338.55,2313.83Z" transform="translate(-320.3 -179.97)"/><path class="cls-1" d="M2740.59,2892.15c-23.64-13.39-52.74-32.55-72.22-45.73a93.14,93.14,0,0,1-19.75-17.58c.54.38,54.6,38.33,93.6,60.43Z" transform="translate(-320.3 -179.97)"/><path class="cls-1" d="M2799.73,2685.86a202.68,202.68,0,0,1-46.21-18c-13.72-7.4-19.37-16.33-19.37-16.33.25.2,25.11,20.64,66.4,31.11Z" transform="translate(-320.3 -179.97)"/><path class="cls-1" d="M1916.17,506.72c-83.17-92.13-225.06-92.16-225.06-92.16C1947.7,316.72,2082,488.87,2082,488.87c-35-155.6-179-192-179-192,225.11-39.73,358,181.25,358,181.25C2248,315.87,2425,186,2425,186,2241.78,503.77,2589.4,529.5,2786.85,838.32c148.73,232.65,145.61,606-14.34,862-23.77-180.71-237.89-279-365.09-266,119.62-309-17.27-624-215.45-655.3-174.35-27.52-398.61,200.24-374.63,589.37-23.9-43.39-144.85-117.32-221.77-54.15,151.91-216.75,66.83-468.84-55.3-542.83-73.77-44.71-130.72,26-140.81,42,6-9.92,12.46-19.56,19-29.28C1610.58,497.14,1913.34,504.82,1916.17,506.72Z" transform="translate(-320.3 -179.97)"/><path class="cls-2" d="M1916.17,506.72c-83.17-92.13-225.06-92.16-225.06-92.16C1947.7,316.72,2082,488.87,2082,488.87c-35-155.6-179-192-179-192,225.11-39.73,358,181.25,358,181.25C2248,315.87,2425,186,2425,186,2241.78,503.77,2589.4,529.5,2786.85,838.32c148.73,232.65,12.94,616.24-82.49,719.16-79.4-87.94-209-132.19-296.94-123.14,119.62-309-17.27-624-215.45-655.3-174.35-27.52-398.61,200.24-374.63,589.37-23.9-43.39-144.85-117.32-221.77-54.15,151.91-216.75,66.83-468.84-55.3-542.83-73.77-44.71-130.72,26-140.81,42,6-9.92,12.46-19.56,19-29.28C1610.58,497.14,1913.34,504.82,1916.17,506.72Z" transform="translate(-320.3 -179.97)"/><path class="cls-7" d="M1916.17,506.72c-83.17-92.13-225.06-92.16-225.06-92.16C1950.72,318.87,2082,488.87,2082,488.87c-35-155.6-179-192-179-192,220-41.75,358,181.25,358,181.25C2248,315.87,2425,186,2425,186c-164.1,283.63,95.6,335,291.83,558.91-171.86-171.75-369.37-224.11-374.08-405.27-22.76,27.15-60.94,122.71-60.38,193.63-55.41-78.12-168.57-188.65-263.3-199.45,69,69.81,91.41,161.64,74.38,193.63-78.54-77.29-114.2-93.19-221-91.95,37.81,25.35,107.41,66.05,129,123.81-64.68-24.8-133.24-14.41-215.79,37.39,56.88,14.32,103.88,23.55,130.51,48.76-31,8.72-61.68,12.05-108.32,65,13.11-34.12,43.25-59.17,67.84-68.29-59.84-18.65-132.76-16.83-156.79-13,26.94-46.4,69.11-81.58,97.52-93.7-132.18,19.21-254,97.77-305.68,138.8C1694.48,499.36,1913.77,505.11,1916.17,506.72Z" transform="translate(-320.3 -179.97)"/><path class="cls-1" d="M1416,784.83c-6,9-12.29,18.35-18,27.78l2.82,1.73c.36-.56,35.83-55.86,90.78-55.86,16,0,32,4.83,47.78,14.36,59.56,36.09,108.26,114.1,127.09,203.58,24.39,115.92-1.28,235.57-72.3,336.89l-6.94,9.91,9.35-7.68c19.49-16,43.08-24.12,70.12-24.12,63.91,0,132.09,46.82,149.15,77.79l3.55,6.46-.45-7.36c-12.31-199.79,41.31-378.92,147.12-491.44,59.67-63.47,129.63-98.42,197-98.42a184.45,184.45,0,0,1,28.61,2.22c75.11,11.85,143.15,64.71,191.61,148.86,80.32,139.47,89,332.67,22.55,504.21l-1,2.52,2.7-.27a226,226,0,0,1,23.25-1.16c124.7,0,317.53,94.61,340,265.68l.6,4.57,2.44-3.91c77.17-123.5,120.92-280,123.18-440.59,2.26-159.55-36.4-309.83-108.85-423.15-70.8-110.73-160-184.47-238.8-249.53-139.31-115.09-240-198.25-123-401.12l3.93-6.81-6.34,4.65c-1.75,1.29-173,128.88-165,287.23-20.46-30.7-129.7-181.43-302.16-181.43a312,312,0,0,0-54.08,4.81l-7.6,1.34,7.48,1.9c1.41.35,139.34,36.92,176.2,184.19-19.19-21.19-99.6-99.83-235.44-99.83-48.88,0-100.3,10.16-152.84,30.19l-8.39,3.2h9c1.4,0,138.87,1.07,221,88.48-1.39-.05-3.18-.08-5.48-.08-31,0-308.23,7.82-489.52,278.63Zm-.26,6.35,3-4.51,1.06-1.58c180.34-269.38,455.93-277.16,486.77-277.16a63.41,63.41,0,0,1,9.19.52l4.34.16-2.71-3c-71.11-78.77-186.16-90.62-217.94-92.39,49.46-18,97.83-27.08,143.9-27.08,154.52,0,236.5,102.71,237.31,103.75l4.53,5.8-1.6-7.18c-30.41-135.31-144.22-181.45-173.37-191.17a308.13,308.13,0,0,1,46.57-3.61c189.2,0,301.69,183.38,302.8,185.24l3.63,6-.56-7c-11.4-141.65,124.94-260,156.74-285.59-111.77,200-11,283.32,127.92,398.07,78.56,64.9,167.6,138.46,238.12,248.76,150.06,234.72,144.72,602-11.94,856.32-25.51-170-217.89-264-342.67-264-7.17,0-14.2.31-20.92.91,65.71-171.82,56.68-364.91-23.73-504.55-49-85-117.85-138.47-194-150.48a187.36,187.36,0,0,0-29.13-2.26c-68.28,0-139.1,35.32-199.4,99.46-105.28,112-159.21,289.33-148.39,487.42-22-32-86.2-73.91-148.57-73.91-24.19,0-45.73,6.32-64.15,18.83,67.24-100.29,91.08-217.51,67.16-331.2-19-90.35-68.3-169.18-128.62-205.73-16.25-9.85-32.9-14.84-49.49-14.84C1458.23,755.17,1431.85,774.86,1415.73,791.18Z" transform="translate(-320.3 -179.97)"/><path class="cls-8" d="M2152.29,891.58c93.5-1,181.88,119.08,184.67,265.6s-81.09,264-174.59,265-171.56-117-174.34-263.5S2058.79,892.58,2152.29,891.58Z" transform="translate(-320.3 -179.97)"/><path class="cls-11" d="M2151.36,947.5c90.25-1.32,165,103.93,167,235.08s-69.52,238.54-159.77,239.87-165-103.92-167-235.07S2061.12,948.83,2151.36,947.5Z" transform="translate(-320.3 -179.97)"/><path class="cls-12" d="M2151.36,947.5c90.25-1.32,165,103.93,167,235.08a338.16,338.16,0,0,1-6,69.18c-83.77,31.61-216.5,28.41-315.83-11.18a342.41,342.41,0,0,1-5-53.2C1989.58,1056.23,2061.12,948.83,2151.36,947.5Z" transform="translate(-320.3 -179.97)"/><path d="M1990,1187.4c1,63.76,19,123.47,50.72,168.13,31.86,44.84,73.75,69.18,117.94,68.53,2,0,4-.11,6-.24h0c89.1-5.91,157.34-111.89,155.37-241.27-1-63.75-19-123.46-50.72-168.12-31.87-44.85-73.75-69.19-117.94-68.54C2059.35,947.29,1988,1055.14,1990,1187.4Zm3.2-.05c-2-127.65,65-232.2,152.38-238q2.89-.2,5.82-.24c43.1-.64,84,23.22,115.27,67.18,31.36,44.14,49.17,103.2,50.13,166.3,1.95,127.65-65,232.2-152.37,238h0q-2.88.2-5.81.24c-43.11.63-84-23.23-115.28-67.18C2012,1309.52,1994.16,1250.46,1993.19,1187.35Z" transform="translate(-320.3 -179.97)"/><path class="cls-2" d="M2166.2,1031.91c68.86-1,125.92,79.29,127.45,179.37s-53.05,182-121.91,183-125.93-79.29-127.46-179.37S2097.34,1032.92,2166.2,1031.91Z" transform="translate(-320.3 -179.97)"/><path class="cls-1" d="M2166.2,1031.91c68.86-1,125.92,79.29,127.45,179.37a262.46,262.46,0,0,1-1,27.21c-81.53,21.29-166.34,16.06-247.46-5.24q-.77-9-.92-18.31C2042.75,1114.86,2097.34,1032.92,2166.2,1031.91Z" transform="translate(-320.3 -179.97)"/><path class="cls-13" d="M2077.47,1085.35c-23.22,34.85-35.59,80.88-34.85,129.62,1.53,99.8,58.88,181,127.83,181h1.31c33.87-.5,65.38-20.07,88.71-55.11,23.21-34.84,35.59-80.87,34.84-129.61-1.52-99.81-58.86-181-127.82-181h-1.31C2132.31,1030.74,2100.8,1050.31,2077.47,1085.35ZM2046,1214.91c-.74-48.06,11.44-93.42,34.28-127.71,22.72-34.1,53.26-53.15,86-53.63h1.26c67.15,0,123,79.74,124.5,177.74.73,48.07-11.44,93.43-34.28,127.72-22.72,34.1-53.26,53.14-86,53.62h-1.26C2103.3,1392.65,2047.44,1312.92,2046,1214.91Z" transform="translate(-320.3 -179.97)"/><path d="M2172,1107.56c47.72-.7,87.27,55,88.33,124.32s-36.77,126.15-84.5,126.85-87.27-55-88.33-124.31S2124.31,1108.26,2172,1107.56Z" transform="translate(-320.3 -179.97)"/><path class="cls-12" d="M2217.29,1099.26a39.18,39.18,0,1,1-38.35,39.75A39.1,39.1,0,0,1,2217.29,1099.26Z" transform="translate(-320.3 -179.97)"/><path class="cls-12" d="M2225,1227.67a18.3,18.3,0,1,1-17.92,18.56A18.26,18.26,0,0,1,2225,1227.67Z" transform="translate(-320.3 -179.97)"/><path class="cls-9" d="M2326,1405s-92.29,93.53-201.33,81.39S1955.88,1357,1955.88,1357C2143.57,1281.74,2326,1405,2326,1405Z" transform="translate(-320.3 -179.97)"/><path class="cls-14" d="M2137.92,1381.87c91.49,12.87,161.08,55.85,155.44,96s-84.4,62.25-175.89,49.38-161.08-55.85-155.44-96S2046.43,1369,2137.92,1381.87Z" transform="translate(-320.3 -179.97)"/><path class="cls-10" d="M2296,1384.2c20,10,30,20.77,30,20.77-1.82-1.2-184.12-119.11-370.16-48,0,0,11.68-8.62,32.5-14.26C2117.57,1307.66,2240,1356.11,2296,1384.2Z" transform="translate(-320.3 -179.97)"/><path class="cls-8" d="M1519.94,882.91c80.67,7.15,136.44,128.47,124.57,271S1557.62,1406.1,1477,1399s-136.44-128.46-124.57-271S1439.28,875.75,1519.94,882.91Z" transform="translate(-320.3 -179.97)"/><path class="cls-11" d="M1510.94,936.72c76.07,6.53,128.85,115.26,117.89,242.86s-81.51,225.72-157.58,219.19-128.86-115.27-117.9-242.86S1434.87,930.18,1510.94,936.72Z" transform="translate(-320.3 -179.97)"/><path class="cls-12" d="M1510.94,936.72c76.07,6.53,128.85,115.26,117.89,242.86a384.23,384.23,0,0,1-7.78,50.68c-73.61,27.63-187.29,19.14-268.72-24.13a384.11,384.11,0,0,1,1-50.22C1364.31,1028.32,1434.87,930.18,1510.94,936.72Z" transform="translate(-320.3 -179.97)"/><path class="cls-2" d="M1531.23,1017c62.15,5.34,104.31,82.93,96.6,172.73s-62.39,157.82-124.54,152.48-106.28-82.47-98.56-172.27S1469.08,1011.66,1531.23,1017Z" transform="translate(-320.3 -179.97)"/><path class="cls-1" d="M1531.23,1017c62.15,5.34,104.31,82.93,96.6,172.73-.68,7.92-1.74,15.65-3.13,23.19-71.68,16-149.2,14.76-220.49-9.84a234.72,234.72,0,0,1,.52-33.14C1412.44,1080.13,1469.08,1011.66,1531.23,1017Z" transform="translate(-320.3 -179.97)"/><path class="cls-13" d="M1403.08,1169.79c-3.77,43.77,4.5,86,23.29,118.78,18.89,33,46.16,52.66,76.78,55.29,2.31.2,4.66.3,7,.3h0c60.49,0,111.8-66.34,119.36-154.29,3.77-44-4.15-86.23-22.31-119-18.4-33.2-45.33-52.93-75.81-55.54-2.31-.2-4.64-.3-6.95-.3C1463.83,1015.05,1410.53,1083,1403.08,1169.79Zm3.31.29c7.3-85.07,59.15-151.71,118-151.71,2.21,0,4.46.1,6.66.29,29.35,2.52,55.34,21.64,73.19,53.84s25.63,73.77,21.9,117.09c-7.4,86.22-57.29,151.24-116,151.25h0c-2.21,0-4.46-.1-6.69-.29-29.5-2.53-55.84-21.58-74.18-53.63C1410.8,1254.67,1402.68,1213.18,1406.39,1170.08Z" transform="translate(-320.3 -179.97)"/><path d="M1537.15,1089.24c43.07,3.7,73.66,57.15,68.31,119.39s-44.6,109.7-87.68,106-73.66-57.15-68.3-119.4S1494.07,1085.54,1537.15,1089.24Z" transform="translate(-320.3 -179.97)"/><path class="cls-12" d="M1570.24,1078.24a35.48,35.48,0,1,1-34.72,36A35.4,35.4,0,0,1,1570.24,1078.24Z" transform="translate(-320.3 -179.97)"/><path class="cls-12" d="M1570.54,1197.94a16.57,16.57,0,1,1-16.23,16.81A16.53,16.53,0,0,1,1570.54,1197.94Z" transform="translate(-320.3 -179.97)"/><path d="M1351.7,1155.77c-5.32,62,4.08,121.55,26.47,167.69,22.54,46.42,55.54,73.74,92.93,77,1.47.12,2.93.21,4.39.26,76,2.62,144.12-94.44,155-221,11-128.29-42.55-238-119.41-244.64-1.47-.13-2.92-.22-4.39-.27C1430.65,932.18,1362.58,1029.24,1351.7,1155.77Zm3.3.28c5.17-60.17,23.81-115.86,52.48-156.82,28.44-40.64,63.64-62.34,99.1-61.12,1.41,0,2.81.13,4.22.25,75,6.45,127.25,114.6,116.39,241.07-5.17,60.17-23.81,115.87-52.48,156.83-29.57,42.24-66.35,64-103.32,60.86-36.19-3.11-68.24-29.78-90.24-75.1C1359,1276.41,1349.72,1217.47,1355,1156.05Z" transform="translate(-320.3 -179.97)"/><path class="cls-9" d="M1621.28,1322.6s-6.23,129.88-127.8,138.79-154.11-120.55-154.11-120.55C1480.67,1262.29,1621.28,1322.6,1621.28,1322.6Z" transform="translate(-320.3 -179.97)"/><path class="cls-14" d="M1470.7,1349.42c91.59-12.12,170.15,10.63,175.47,50.82s-64.62,82.6-156.21,94.72-170.16-10.63-175.48-50.82S1379.1,1361.54,1470.7,1349.42Z" transform="translate(-320.3 -179.97)"/><path class="cls-10" d="M1587.35,1308.68c21.89,5.2,33.93,13.92,33.93,13.92-1.37-.57-139.22-56.37-281.91,18.24a100.84,100.84,0,0,1,25.3-15.79C1455.56,1287,1541.24,1297.75,1587.35,1308.68Z" transform="translate(-320.3 -179.97)"/><path class="cls-8" d="M1714.61,1240.17c45.55,15.41,129.44,125,145.88,144.12,14.5,16.85,95.68,48.07,94.55,103.16-1.13,55.48-66.15,104.63-114.25,139-17.94,12.82-99.3,104.64-179.6,123.32-52.3,12.17-120.83-22.35-155.62-58.16,19.23-27.53,74.76-161.29,12.06-247.68-89.32-30.72-156.2,11-156.2,11C1454.59,1260.1,1669.07,1224.77,1714.61,1240.17Z" transform="translate(-320.3 -179.97)"/><path class="cls-3" d="M1714.61,1240.17c45.55,15.41,129.44,125,145.88,144.12,14.5,16.85,86.4,27,93,86.75,7.29,66.31-76.39,99.45-124.49,133.81-17.94,12.81-91.75,92.49-172,111.17-52.3,12.17-111.07-.35-149-24.88,19.24-27.52,72.42-160.83,9.72-247.22-89.32-30.72-156.2,11-156.2,11C1454.59,1260.1,1669.07,1224.77,1714.61,1240.17Z" transform="translate(-320.3 -179.97)"/><path class="cls-4" d="M1714.61,1240.17c45.55,15.41,130.72,126.82,147.16,145.9,14.51,16.85,68.76,38.11,59.9,74.6-9.77,40.22-50.42,65.92-111.36,111.57-17.65,13.22-78.83,111.66-159.14,130.35-52.3,12.16-109.88,6.75-143.26-11.45,19.24-27.52,72.42-160.83,9.72-247.22,40.08,14.76,94.34,53,159.26,68,78.46,18.08,134-3.32,179.43-51.78-131.33,84.75-256.13-11.1-343.52-35.47s-151.37,30.26-151.37,30.26C1454.59,1260.1,1669.07,1224.77,1714.61,1240.17Z" transform="translate(-320.3 -179.97)"/><path class="cls-6" d="M1714.61,1240.17c11.59,3.92,25.73,14,40.65,27.28-165.22.41-293.84,59.33-392.34,184.45C1456.85,1259.75,1669.31,1224.85,1714.61,1240.17Z" transform="translate(-320.3 -179.97)"/><path class="cls-5" d="M1359.93,1454.2l-2.44,5.12,4.81-3c.35-.22,36-22,89-22a202.05,202.05,0,0,1,65.34,11c61.29,85.12,9.43,217-10,244.87l-1,1.41,1.44.93c28.93,18.69,69.15,29.85,107.58,29.85a188.94,188.94,0,0,0,42.71-4.75c64.71-15.05,124-68.32,155.79-96.94,7.46-6.7,13.34-12,16.84-14.5,9.87-7,21.13-14,33-21.31,46-28.27,98-60.32,92.12-114-4.72-43-41.95-60.57-69.14-73.41-10.82-5.11-20.16-9.52-24.22-14.24-2.3-2.67-6-7.18-10.63-12.9-28.84-35.4-96.38-118.32-136-131.71-6.36-2.15-15.68-3.28-27-3.28-36.75,0-98.5,12-161.61,45.81C1475.14,1308.66,1404.49,1361,1359.93,1454.2Zm5.27-3.25c76.57-154.57,238.2-212.32,323-212.32,10.93,0,19.88,1.07,25.89,3.11,38.68,13.08,105.8,95.48,134.46,130.66,4.67,5.74,8.36,10.27,10.69,13,4.53,5.25,13.7,9.59,25.32,15.08,26.48,12.51,62.74,29.64,67.27,70.77,5.67,51.61-45.46,83.08-90.57,110.84-12,7.37-23.29,14.33-33.24,21.44-3.65,2.61-9.31,7.69-17.14,14.73-31.6,28.41-90.44,81.31-154.32,96.17a185.31,185.31,0,0,1-42,4.67c-37.2,0-76.06-10.6-104.36-28.41,20.47-31.14,70.55-162.54,8.74-247.71l-.31-.42-.49-.17a205.44,205.44,0,0,0-66.91-11.38C1408.41,1431,1376.64,1445,1365.2,1451Z" transform="translate(-320.3 -179.97)"/><path class="cls-15" d="M1554.31,1460.67c65,32.7,161,86.71,250.61,39.27-21.66,13.9-41.18,27.4-54.56,45-54.83,72.36-93.43,171-215,131.54C1552.07,1636.81,1592.41,1562.56,1554.31,1460.67Z" transform="translate(-320.3 -179.97)"/><path class="cls-16" d="M1642.81,1501.53c50.73,18.57,107.53,27.22,162-1.53-21.6,13.9-41.08,27.34-54.42,45-24,31.71-44.93,68.48-71.07,96.44,0,0,0,0-.07,0-38.58,34.23-128.49,25.56-107.34-56.62C1578.2,1560.34,1597.68,1525.2,1642.81,1501.53Z" transform="translate(-320.3 -179.97)"/><path class="cls-17" d="M1588.38,1549c32.9-32,104.26-5.64,133.56,36.34-13.53,19.84-27.18,39.48-42.65,56,0,0,0,0-.07,0-38.58,34.23-128.49,25.56-107.34-56.62A117.15,117.15,0,0,1,1588.38,1549Z" transform="translate(-320.3 -179.97)"/><path class="cls-18" d="M1570.27,1584.41c-6,23.34-3.51,43,7.2,56.79,10.23,13.2,28,20.76,48.65,20.76,20.08,0,40.09-7,53.69-18.83l.57-.47c16.71-17.87,31.42-39.46,45.65-60.34,8.27-12.14,16.83-24.7,25.66-36.35,13.38-17.7,33.18-31.19,54-44.58l-1.66-2.85a160.09,160.09,0,0,1-75.55,18.42c-26,0-53.87-5.56-85.09-17l-.69-.25-.64.34C1589.86,1527.43,1574.48,1568.17,1570.27,1584.41Zm3.22.82c4.06-15.74,18.94-55.15,69.44-81.89,31.31,11.39,59.29,16.93,85.53,16.93a165.22,165.22,0,0,0,58.47-10.42c-14.61,10.13-27.92,21-37.89,34.12-8.87,11.72-17.45,24.31-25.75,36.49-14.09,20.69-28.67,42.08-45,59.6l-.17.14c-13,11.56-32.46,18.45-52,18.45s-36.44-7.1-46-19.47C1570,1626.2,1567.74,1607.55,1573.49,1585.23Z" transform="translate(-320.3 -179.97)"/><path class="cls-18" d="M1682.55,1511.9l1.67,2.86c-26.49,15.53-47.48,45.37-66.1,93.89,0,0,3.26-17,6.55-24.18C1641.2,1548.52,1659.89,1525.2,1682.55,1511.9Z" transform="translate(-320.3 -179.97)"/><path class="cls-5" d="M1533.86,1675.87l-.7,1.66,1.71.56c18.59,6,36.16,9.1,52.23,9.1,67.47,0,103.78-53.29,138.89-104.82,8.29-12.16,16.85-24.73,25.7-36.4,13.53-17.85,33.32-31.3,54.12-44.64l-1.65-2.85a160.23,160.23,0,0,1-75.72,18.49c-59.6,0-116.77-29-162.7-52.37l-10.69-5.41-3.78-1.9,1.48,4c34.61,92.52,4.1,162.06-14.13,203.61C1536.9,1668.79,1535.29,1672.45,1533.86,1675.87Zm3.75-.38c1.25-2.92,2.61-6,4-9.3,18.18-41.41,48.41-110.35,15.65-202.16l6.94,3.52c46.25,23.49,103.81,52.73,164.2,52.73a165.44,165.44,0,0,0,58.47-10.41c-14.55,10.07-27.83,20.87-37.87,34.1-8.88,11.73-17.48,24.34-25.79,36.54-34.63,50.81-70.44,103.37-136.15,103.37C1571.87,1683.88,1555.23,1681.06,1537.61,1675.49Z" transform="translate(-320.3 -179.97)"/><path class="cls-5" d="M1565.75,1464.58c76.67,39,192.54,97.83,289.67-6.17l2.41,2.26c-41.3,44.23-85.8,59.57-129.29,59.57-60.56,0-119.15-29.77-164.29-52.71-18.24-9.26-34-17.27-47.19-22l1.14-3.11C1531.57,1447.22,1547.41,1455.27,1565.75,1464.58Z" transform="translate(-320.3 -179.97)"/><path class="cls-5" d="M1849.73,1455.54c7,2.12,12,6.51,15.71,10.56a21.82,21.82,0,0,1,5.77,15.67c-.07-.25-7.86-25.42-37.33-25.68A26.6,26.6,0,0,1,1849.73,1455.54Z" transform="translate(-320.3 -179.97)"/><path class="cls-19" d="M1576,1593.57c-1,16,2,32.6,12.08,46.64,2.37,3.29,2.78,6.32.45,4.43-13.32-10.74-17.54-28.63-15.37-47.06C1574,1590.13,1576.33,1587.35,1576,1593.57Z" transform="translate(-320.3 -179.97)"/><path class="cls-1" d="M1915.94,505.07l.45,3.29c-65.34,8.8-139.36,29.81-194.17,118.46,30.38-4.46,116.1-1.3,154.08,13.73l3.64,1.44-3.57,1.62c-43,19.46-73,59.16-73,96.54,0,0-4.37-8.72.5-24.61,9.06-29.54,33.91-57,67.5-73.27-40.28-14-127.47-16.56-152.17-11.57l-3.7.75,2-3.23C1773.18,535.74,1849.07,514.07,1915.94,505.07Z" transform="translate(-320.3 -179.97)"/></svg>