<svg id="Layer_1" data-name="Layer 1" xmlns="http://www.w3.org/2000/svg" viewBox="0 0 464.28 512">
  <defs>
    <style>
      .cls-1 {
        fill: #2c6f1d;
        fill-rule: evenodd;
      }
    </style>
  </defs>
  <path class="cls-1" d="M362.62,41.08C336.59,14.6,299.85,0,257,0S177.37,14.6,151.34,41.08,111,104.8,111,148.21c0,58.45,25.45,96.12,57,118.74a150.42,150.42,0,0,0,18.83,11.49,212.81,212.81,0,0,0-87,47.45C63,359,40.17,401.5,24.81,439.59a13.47,13.47,0,1,0,25,10.08c14.62-36.26,35.51-74.56,68-103.74C149.93,317,194.14,296.42,257,296.42c58.74,0,101.15,18,132.63,43.87,31.75,26.07,53.12,60.73,68.44,95,10.22,22.86-7.71,49.76-35.87,49.76H111.27a13.48,13.48,0,0,0,0,26.95H422.18c44.52,0,79.91-44.23,60.47-87.71-16.26-36.38-39.78-75.14-75.93-104.83a212.83,212.83,0,0,0-77.84-40.54,134.37,134.37,0,0,0,40.68-34.8c23.26-29.57,33.35-66.26,33.35-95.91C402.91,104.8,388.63,67.54,362.62,41.08ZM343.41,60C363.75,80.67,376,110.78,376,148.21c0,24.25-8.45,54.92-27.59,79.25-18.77,23.86-48.05,42-91.4,42-17.53,0-47.78-6.11-73.28-24.42-24.8-17.8-45.71-47.5-45.71-96.84,0-37.43,12.21-67.54,32.56-88.24S220.37,27,257,27,323.08,39.29,343.41,60Z" transform="translate(-23.83)"/>
</svg>
