<svg id="Capa_1" data-name="Capa 1" xmlns="http://www.w3.org/2000/svg" xmlns:xlink="http://www.w3.org/1999/xlink" viewBox="0 0 489.56 512"><defs><style>.cls-1{fill:url(#Безымянный_градиент_7);}.cls-2,.cls-7{fill:#2626bb;}.cls-2,.cls-6{opacity:0.1;isolation:isolate;}.cls-3{fill:#f4dc78;}.cls-4{fill:#f9dc26;}.cls-5{fill:#8eb943;}.cls-8{fill:#fff;}.cls-9{fill:#ff7eb7;}.cls-10{fill:#2c5209;}.cls-11{fill:#fd2c8e;}.cls-12{fill:#8db843;}.cls-13{fill:#5bc8ab;}</style><linearGradient id="Безымянный_градиент_7" x1="70.45" y1="127.34" x2="453.25" y2="510.14" gradientTransform="matrix(1, 0, 0, -1, 0, 512)" gradientUnits="userSpaceOnUse"><stop offset="0.05" stop-color="#53900f"/><stop offset="1" stop-color="#f9dc26"/></linearGradient></defs><path class="cls-1" d="M489.67,47.21C437.85-62.42,310.78,48.35,239.72,84.65,181.54,114.38,5.19,56.15,11.38,140.6c3.54,48.34,70.13,68.92,98.45,110,49.09,71.2-5.42,198.72,78.38,247.31C286,554.59,341.84,427.38,362.42,345.56,388,244,543.08,160.21,489.67,47.21Z" transform="translate(-11.22 0)"/><path class="cls-2" d="M459.64,305.82a43.7,43.7,0,0,0-65.72-37.77,31.2,31.2,0,0,0-4.81-6.23,30.78,30.78,0,0,0-43.53,0l34.94-34.94A30.78,30.78,0,0,0,337,183.35l26.2-26.2a30.78,30.78,0,1,0-43.53-43.53l-34.94,34.94A30.78,30.78,0,1,0,241.19,105L121.92,224.3V175.81a30.78,30.78,0,0,0-61.56,0V336.74a123.12,123.12,0,0,0,210.17,87.18l45.75-45.74c1.78,26.9,24.29,49,51.57,48.8a51.32,51.32,0,0,0,50.95-51,49.93,49.93,0,0,0-7.56-26.74,45.3,45.3,0,0,0,4.69.25,43.71,43.71,0,0,0,43.71-43.71ZM370,324.46l4.56-4.56a43.54,43.54,0,0,0,2.26,5.46,51.29,51.29,0,0,0-6.82-.9Z" transform="translate(-11.22 0)"/><path class="cls-3" d="M389.11,281.35a30.78,30.78,0,0,0-43.53-43.53l34.94-34.94A30.78,30.78,0,0,0,337,159.35l6.44-6.44,2.46-8.53-36.46-36.46-9.53,1.46-15.18,15.18A30.78,30.78,0,1,0,241.19,81L121.92,200.3V151.81a30.78,30.78,0,0,0-61.56,0V312.74a123.12,123.12,0,0,0,210.17,87.18Z" transform="translate(-11.22 0)"/><path class="cls-4" d="M249.21,170.24a4.22,4.22,0,0,0-6.57-1.45c-11.54,9.77-42.81,39-55.58,78.82-24-1.79-50.34,0-83.61-8.1a5,5,0,0,0-6.15,5c.81,22.65,7.52,97.75,60.31,139.31a98.08,98.08,0,0,0,25.56,14.83c29.2,11.16,62.28,1.54,81.61-23a72.39,72.39,0,0,0,15.29-39,59.8,59.8,0,0,0,22.06-33,87.82,87.82,0,0,0,2.68-21.68c0-47-32.95-62.19-55.6-111.7Z" transform="translate(-11.22 0)"/><path class="cls-4" d="M285.85,123.43l-20.91,20.91,43.53,43.53L329.38,167Z" transform="translate(-11.22 0)"/><path class="cls-4" d="M363.2,89.62a30.78,30.78,0,0,0-43.53,0L299.9,109.38l43.53,43.53,19.77-19.76A30.8,30.8,0,0,0,363.2,89.62Z" transform="translate(-11.22 0)"/><path class="cls-5" d="M242.64,144.79a4.22,4.22,0,0,1,6.57,1.45c22.65,49.51,55.6,64.7,55.6,111.7a87.8,87.8,0,0,1-2.68,21.67c-6.83,26.82-31.32,45.37-59,45.38-26.48,0-50.22-17-58.09-42.26a83,83,0,0,1-3.53-24.79c0-56.92,46.48-100.75,61.13-113.15Z" transform="translate(-11.22 0)"/><g class="cls-6"><path class="cls-7" d="M266.62,304c-.76,6.37-1.77,12.2-2.86,17.38a59.79,59.79,0,0,1-10.89,2.79A187.93,187.93,0,0,0,242,204.7a5,5,0,0,1,9.14-4.06A197.11,197.11,0,0,1,266.62,304Z" transform="translate(-11.22 0)"/></g><path class="cls-5" d="M97.3,220.54a5,5,0,0,1,6.15-5c62.45,15.14,100.59-4.32,144.18,30a103.74,103.74,0,0,1,18.15,18.32c19.88,25.91,19.2,62.17-1,87.84-19.33,24.56-52.41,34.18-81.61,23a98.08,98.08,0,0,1-25.56-14.83c-52.79-41.56-59.5-116.66-60.31-139.31Z" transform="translate(-11.22 0)"/><g class="cls-6"><path class="cls-7" d="M153.38,269.85a187.06,187.06,0,0,1,84.35,51.56,171.64,171.64,0,0,1,24.71,33.06c.8-.91,1.58-1.85,2.34-2.81a71.73,71.73,0,0,0,4.18-5.9,186.26,186.26,0,0,0-23.68-30.91,197,197,0,0,0-89.14-54.61,5,5,0,0,0-2.76,9.61Z" transform="translate(-11.22 0)"/></g><circle class="cls-5" cx="404.7" cy="281.82" r="43.72"/><path class="cls-8" d="M410.68,298a5,5,0,0,1-3.54-1.46l-11.92-11.92a5,5,0,0,1,7.07-7.07l8.39,8.38,18.88-18.87a5,5,0,0,1,7.07,7.07l-22.41,22.41a5,5,0,0,1-3.54,1.46Z" transform="translate(-11.22 0)"/><path class="cls-9" d="M367.85,403a51.32,51.32,0,0,0,50.95-51c.2-28.43-23.79-51.69-52.23-51.69H321.46a5.31,5.31,0,0,0-5.31,5.31v45.11C316.15,379.18,339.41,403.18,367.85,403Z" transform="translate(-11.22 0)"/><path class="cls-10" d="M464.64,281.82a48.69,48.69,0,0,0-69.09-44.24,34.91,34.91,0,0,0-2.91-3.29,35.63,35.63,0,0,0-26-10.48l17.39-17.39a35.77,35.77,0,0,0-26-61.06l8.68-8.68a35.78,35.78,0,1,0-50.6-50.6l-17.42,17.41a35.76,35.76,0,0,0-61-26L126.92,188.23V151.81a35.78,35.78,0,1,0-71.56,0V312.73a128.16,128.16,0,0,0,218.71,90.73l25.06-25.06a5,5,0,0,0-7.07-7.07L267,396.39A118.12,118.12,0,0,1,65.36,312.74V151.81a25.78,25.78,0,0,1,51.56,0v61.44c-4-.73-8.1-1.58-12.29-2.6a10,10,0,0,0-12.32,10.07c.8,22.71,7.68,100.13,62.2,143.06a103.27,103.27,0,0,0,26.88,15.57,74.71,74.71,0,0,0,26.76,5A76,76,0,0,0,229,381.37a77.65,77.65,0,0,0,55.85-66.17,65.13,65.13,0,0,0,21.69-32.93L349,241.43s0,0,0,0l0,0a25.78,25.78,0,0,1,36.46,0c.45.45.87.92,1.28,1.39a48.75,48.75,0,0,0-17.72,52.65c-.85,0-1.71-.07-2.56-.07H321.46a10.33,10.33,0,0,0-10.31,10.31v45.11a58,58,0,0,0,17.11,40.85A55.35,55.35,0,0,0,367.49,408h.39a56.54,56.54,0,0,0,55.92-55.92,54.54,54.54,0,0,0-4.3-21.67,48.77,48.77,0,0,0,45.14-48.57ZM377,162.89a25.78,25.78,0,0,1,0,36.46L309.49,265.6c.2-2.54.32-5.09.32-7.66,0-20.8-6.09-35.68-14.76-49.57l45.47-45.48a25.81,25.81,0,0,1,36.46,0ZM323.2,93.15a25.78,25.78,0,0,1,36.46,36.46L289.4,199.87c-2.48-3.54-5.09-7.09-7.76-10.72-7-9.48-14.64-19.93-21.7-32.74ZM260.85,348.56C242.59,371.76,212.09,380.38,185,370a93.77,93.77,0,0,1-24.26-14.09C109.56,315.66,103.07,242,102.3,220.37c24.64,6,45.68,6.67,64.25,7.29,29.36,1,52.54,1.74,78,21.77a99.21,99.21,0,0,1,17.27,17.43c18.41,24,18,57.59-1,81.7Zm24.29-47.35a75.47,75.47,0,0,0-15.4-40.44,108.58,108.58,0,0,0-19-19.19c-28-22.06-53.88-22.92-83.84-23.91-12.15-.41-25.4-.85-40-2.84V202.38L244.73,84.56A25.78,25.78,0,0,1,281.19,121l-26.06,26.06c-.46-1-.92-1.93-1.37-2.92A9.23,9.23,0,0,0,239.41,141c-8.38,7.1-29.53,26.51-44.86,53.51a5,5,0,1,0,8.69,4.94c14.1-24.81,33.42-42.92,41.86-50.16,8.88,19.14,19.28,33.29,28.48,45.81,14.65,19.94,26.23,35.68,26.23,62.87a82.7,82.7,0,0,1-2.53,20.44A54,54,0,0,1,285.14,301.21ZM367.81,398a45.4,45.4,0,0,1-32.5-13.48,47.91,47.91,0,0,1-14.16-33.75V305.64a.31.31,0,0,1,.31-.31h45.11a48,48,0,0,1,33.76,14.15A45.47,45.47,0,0,1,413.8,352a46.5,46.5,0,0,1-46,46Zm48.12-77.45c-.64,0-1.25,0-1.85,0A58,58,0,0,0,380.32,297a38.26,38.26,0,0,1-3.11-15.22,38.72,38.72,0,1,1,38.72,38.71Z" transform="translate(-11.22 0)"/><path class="cls-11" d="M361.46,336.27H351a5,5,0,0,1,0-10h10.44a5,5,0,1,1,0,10Z" transform="translate(-11.22 0)"/><path class="cls-8" d="M383.94,356.66H351a5,5,0,0,1,0-10h32.92a5,5,0,0,1,0,10Z" transform="translate(-11.22 0)"/><path class="cls-8" d="M383.94,377H351a5,5,0,0,1,0-10h32.92a5,5,0,0,1,0,10Z" transform="translate(-11.22 0)"/><path class="cls-12" d="M427.26,160.12a5,5,0,0,1-5-5,6.34,6.34,0,0,0-6.33-6.34,5,5,0,0,1,0-10,6.34,6.34,0,0,0,6.33-6.33,5,5,0,1,1,10,0,6.34,6.34,0,0,0,6.33,6.33,5,5,0,0,1,0,10,6.34,6.34,0,0,0-6.33,6.34A5,5,0,0,1,427.26,160.12Z" transform="translate(-11.22 0)"/><path class="cls-12" d="M60.36,435.29a5,5,0,0,1-5-5A6.34,6.34,0,0,0,49,424a5,5,0,0,1,0-10,6.34,6.34,0,0,0,6.33-6.33,5,5,0,0,1,10,0A6.34,6.34,0,0,0,71.69,414a5,5,0,0,1,0,10,6.34,6.34,0,0,0-6.33,6.34A5,5,0,0,1,60.36,435.29Z" transform="translate(-11.22 0)"/><path class="cls-9" d="M447.59,95.63a5,5,0,0,1-3.53-1.47l-5.47-5.46-5.46,5.46a5,5,0,0,1-7.07-7.07l9-9a5,5,0,0,1,7.07,0l9,9a5,5,0,0,1-3.54,8.54Z" transform="translate(-11.22 0)"/><path class="cls-9" d="M385.82,469.49a5,5,0,0,1-3.54-1.47l-5.46-5.46L371.36,468a5,5,0,1,1-7.08-7.07l9-9a5,5,0,0,1,7.08,0l9,9a5,5,0,0,1-3.54,8.54Z" transform="translate(-11.22 0)"/><path class="cls-13" d="M153.92,105.51a5,5,0,0,1-3.54-1.46l-5.46-5.46-5.46,5.46A5,5,0,0,1,132.38,97l9-9a5,5,0,0,1,7.08,0l9,9a5,5,0,0,1-3.54,8.53Z" transform="translate(-11.22 0)"/></svg>