<svg id="Layer_1" data-name="Layer 1" xmlns="http://www.w3.org/2000/svg" viewBox="0 0 456.73 512">
  <defs>
    <style>
      .cls-1 {
        fill: #ffeb3b;
      }
    </style>
  </defs>
  <path class="cls-1" d="M450.24,199.4H392.65L341.1,18.49A25.25,25.25,0,0,0,310,.93L288.69,6.87A25.23,25.23,0,0,0,271.15,38l55.93,196.27c9.34,33.55,51.79,34.37,66.9,8.55a8.53,8.53,0,0,0-14.73-8.62c-7.08,12.11-30.26,15.16-35.75-4.55L287.58,33.39a8.17,8.17,0,0,1,5.69-10.08l21.31-5.94a8.17,8.17,0,0,1,10.09,5.75L378,210.27a8.54,8.54,0,0,0,8.21,6.2h64a17.08,17.08,0,0,1,17.06,17.06V259.2a17.08,17.08,0,0,1-17.06,17.07H61.76A17.08,17.08,0,0,1,44.7,259.2V233.53a17.08,17.08,0,0,1,17.06-17.06h52.78c-9.51,40,44.66,61.07,65.51,28.83A8.53,8.53,0,1,0,165.72,236c-10.29,15.91-40.66,6.13-34.34-16.59l56-196.37a8.18,8.18,0,0,1,10.09-5.7l21.3,5.94a8.18,8.18,0,0,1,5.71,10L175.36,205.59a8.53,8.53,0,0,0,8.2,10.87H288.45a8.53,8.53,0,1,0,0-17.06H194.87L240.87,38A25.29,25.29,0,0,0,223.31,6.86L202,.93a25.25,25.25,0,0,0-31.09,17.51l-51.56,181H61.76a34.17,34.17,0,0,0-34.13,34.13V259.2a34.17,34.17,0,0,0,34.13,34.13H440.94L425.75,471.51a25.45,25.45,0,0,1-25.51,23.42H393.1L400,389.2a8.53,8.53,0,0,0-17-1.11L376,494.93H345.06l3.76-87.17a8.53,8.53,0,0,0-17.05-.74L328,494.93H237.59V371.68c0-23.34,36.82-23.33,36.82,0v93.76a8.54,8.54,0,1,0,17.07,0V371.68c0-45.85-71-46.08-71,0V494.93H184L180.23,407a8.53,8.53,0,0,0-17,.74l3.76,87.17H136L129.08,388.1a8.53,8.53,0,1,0-17,1.1l6.84,105.73h-7.13a25.45,25.45,0,0,1-25.51-23.42L74.09,328.9a8.54,8.54,0,0,0-17,1.45L69.25,473a42.41,42.41,0,0,0,42.51,39H400.24a42.41,42.41,0,0,0,42.51-39l15.4-180.56a34.19,34.19,0,0,0,26.22-33.2V233.53a34.17,34.17,0,0,0-34.13-34.13Z" transform="translate(-27.63 0)"/>
</svg>
