<?xml version="1.0" encoding="utf-8"?>
<!-- Generator: Adobe Illustrator 24.2.1, SVG Export Plug-In . SVG Version: 6.00 Build 0)  -->
<svg version="1.1" id="Layer_1" xmlns="http://www.w3.org/2000/svg" xmlns:xlink="http://www.w3.org/1999/xlink" x="0px" y="0px"
	 viewBox="0 0 512 512" style="enable-background:new 0 0 512 512;" xml:space="preserve">
<style type="text/css">
	.st0{opacity:0.6;fill:#FFC107;}
	.st1{opacity:0.12;fill:#F9DB98;}
	.st2{opacity:0.4;fill:#FFC107;}
	.st3{fill:#3A7B0F;}
</style>
<path class="st0" d="M450.2,207.9H61.8c-14.1,0-25.6,11.5-25.6,25.6v25.7c0,14.1,11.5,25.6,25.6,25.6l16,187.4
	c1.5,17.7,16.3,31.2,34,31.2h288.5c17.7,0,32.5-13.6,34-31.2l16-187.4c14.1,0,25.6-11.5,25.6-25.6v-25.7
	C475.8,219.4,464.4,207.9,450.2,207.9L450.2,207.9z"/>
<path class="st1" d="M475.5,229.3h-371c-14.1,0-25.6,11.5-25.6,25.6c0.1,26-0.3,26.4,0.4,29.9H61.8c-14.1,0-25.6-11.5-25.6-25.6
	v-25.7c0-14.1,11.5-25.6,25.6-25.6h388.5C462.9,207.9,473.4,217.2,475.5,229.3L475.5,229.3z"/>
<path class="st0" d="M61.8,284.8l16,187.4c1.5,17.7,16.3,31.2,34,31.2h288.5c17.7,0,32.5-13.6,34-31.2l16-187.4H61.8z"/>
<path class="st1" d="M154.4,503.5h-42.7c-17.7,0-32.5-13.6-34-31.2l-16-187.4h42.7l16,187.4C121.9,489.9,136.7,503.5,154.4,503.5z"
	/>
<path class="st2" d="M282.9,371.7v131.8h-53.9V371.7C229.1,337,282.9,337,282.9,371.7L282.9,371.7z"/>
<path class="st2" d="M388.8,217.1c9.9,35.6-43.6,50.5-53.5,14.9L279.4,35.7c-2.5-8.9,2.7-18.1,11.6-20.6l21.3-5.9
	c8.9-2.5,18.1,2.7,20.6,11.6L388.8,217.1z"/>
<path class="st0" d="M361.2,252.4c-11,0-21.9-6.2-25.9-20.4L279.4,35.7c-2.5-8.9,2.7-18.1,11.6-20.6l21.3-5.9
	c8.7-2.4,17.6,2.5,20.4,10.9l-20.4,5.7c-8.9,2.5-14.1,11.7-11.6,20.6l55.9,196.3C357.7,246.5,359.3,249.7,361.2,252.4z"/>
<path class="st2" d="M221,15.1c8.9,2.5,14.1,11.7,11.6,20.6L176.7,232c-9.9,35.6-63.4,20.7-53.5-14.9l55.9-196.3
	c2.5-8.9,11.7-14.1,20.6-11.6L221,15.1z"/>
<path class="st0" d="M230.8,22.6l-9.8-2.7c-8.9-2.5-18.1,2.7-20.6,11.6l-55.9,196.3c-2.8,10.1-0.5,18.5,4.4,24.6
	c-16-1-31.4-14.6-25.7-35.2l55.9-196.3c2.5-8.9,11.7-14.1,20.6-11.6l21.3,5.9C225.3,16.3,228.7,19,230.8,22.6z"/>
<path class="st3" d="M450.2,199.4h-57.6L341.1,18.5C337.4,5,323.4-2.8,310,0.9l-21.3,5.9c-13.4,3.7-21.3,17.6-17.5,31.2l55.9,196.3
	c9.3,33.5,51.8,34.4,66.9,8.5c2.4-4.1,1-9.3-3.1-11.7c-4.1-2.4-9.3-1-11.7,3.1c-7.1,12.1-30.3,15.2-35.8-4.6L287.6,33.4
	c-1.2-4.4,1.3-8.9,5.7-10.1l21.3-5.9c4.3-1.2,8.8,1.2,10.1,5.7L378,210.3c1,3.7,4.4,6.2,8.2,6.2h64c9.4,0,17.1,7.7,17.1,17.1v25.7
	c0,9.4-7.7,17.1-17.1,17.1H61.8c-9.4,0-17.1-7.7-17.1-17.1v-25.7c0-9.4,7.7-17.1,17.1-17.1h52.8c-9.5,40,44.7,61.1,65.5,28.8
	c2.6-4,1.4-9.2-2.5-11.8c-4-2.6-9.2-1.4-11.8,2.5c-10.3,15.9-40.7,6.1-34.3-16.6l56-196.4c1.2-4.4,5.7-6.9,10.1-5.7l21.3,5.9
	c4.3,1.2,6.9,5.7,5.7,10l-49.1,172.3c-1.6,5.5,2.6,10.9,8.2,10.9h104.9c4.7,0,8.5-3.8,8.5-8.5s-3.8-8.5-8.5-8.5h-93.6l46-161.4
	c3.7-13.4-4.1-27.4-17.6-31.1L202,0.9c-13.5-3.8-27.4,4.2-31.1,17.5l-51.6,181H61.8c-18.8,0-34.1,15.3-34.1,34.1v25.7
	c0,18.8,15.3,34.1,34.1,34.1h379.2l-15.2,178.2c-1.1,13.4-12.1,23.4-25.5,23.4h-7.1l6.8-105.7c0.3-4.7-3.3-8.8-8-9.1
	c-4.7-0.3-8.8,3.3-9.1,8L376,494.9h-30.9l3.8-87.2c0.2-4.7-3.4-8.7-8.2-8.9c-4.7-0.2-8.7,3.4-8.9,8.2l-3.8,87.9h-90.4V371.7
	c0-23.3,36.8-23.3,36.8,0v93.8c0,4.7,3.8,8.5,8.5,8.5s8.5-3.8,8.5-8.5v-93.8c0-45.9-71-46.1-71,0v123.3H184l-3.8-87.9
	c-0.2-4.7-4.2-8.4-8.9-8.2c-4.7,0.2-8.4,4.2-8.2,8.9l3.8,87.2H136l-6.9-106.8c-0.3-4.7-4.4-8.3-9.1-8c-4.7,0.3-8.3,4.4-8,9.1
	l6.8,105.7h-7.1c-13.4,0-24.4-10.1-25.5-23.4L74.1,328.9c-0.4-4.7-4.5-8.2-9.2-7.8c-4.7,0.4-8.2,4.5-7.8,9.2L69.2,473
	c1.9,22.3,20.2,39,42.5,39h288.5c22.3,0,40.6-16.8,42.5-39l15.4-180.6c15-3.6,26.2-17.1,26.2-33.2v-25.7
	C484.4,214.7,469.1,199.4,450.2,199.4L450.2,199.4z"/>
</svg>
