<svg width="86" height="24" viewBox="0 0 86 24" fill="none" xmlns="http://www.w3.org/2000/svg">
<path id="image 9 (Traced)" fill-rule="evenodd" clip-rule="evenodd" d="M33.503 3.01581C33.6678 3.17904 33.9332 3.92884 34.0927 4.68236C34.4522 6.38215 35.5967 7.58904 37.5361 8.31379C40.5094 9.42454 43.7865 8.09995 46.8528 4.54748C48.8171 2.2716 49.3063 2.21579 50.2299 4.16343C52.6827 9.33549 59.1397 11.4291 63.834 8.57414C66.361 7.03743 68.0382 4.50335 68.7714 1.11469C68.8328 0.831074 69.1406 0.606554 69.5308 0.560555C70.0986 0.493609 70.3915 0.79891 71.7142 2.8365C74.9246 7.78198 79.0892 10.3009 83.2581 9.81847C87.3173 9.34897 89.8538 5.98214 89.1696 1.97206C89.0142 1.06221 89.0646 0.779621 89.4016 0.667679C90.5253 0.294139 91.3006 3.82117 90.5934 6.08903C88.923 11.4442 82.566 13.5936 76.8895 10.7222C74.9491 9.74057 72.7948 7.87456 71.348 5.9217C70.7569 5.12402 70.2112 4.47497 70.1352 4.47968C70.0595 4.48409 69.82 4.93606 69.6032 5.48384C69.3864 6.03163 68.6039 7.18798 67.8645 8.05357C63.8989 12.6963 57.7363 13.6304 52.6256 10.3636C51.5032 9.64604 49.1898 7.26542 48.7915 6.41766C48.7071 6.23831 48.1334 6.65029 47.361 7.44544C46.6516 8.17529 45.346 9.21437 44.4598 9.75452C42.3318 11.0514 39.4102 11.4705 37.2748 10.7848C35.7041 10.2804 33.6348 8.7923 33.0491 7.74574L32.6537 7.03968L31.8106 8.39618C28.6674 13.4548 23.3752 14.9652 19.7318 11.8438L18.5035 10.7917L16.7152 11.7884C13.7839 13.4227 10.4605 14.3232 7.65941 14.2424C5.04411 14.1671 4.11331 13.9837 2.35147 13.1969C1.13707 12.6543 0.776142 12.3536 0.63847 11.7695C0.472975 11.0666 0.508806 11.0303 1.35059 11.0489C1.83804 11.0594 3.33659 11.2672 4.6804 11.5102C6.57453 11.8529 7.68372 11.8907 9.61544 11.6779C12.5932 11.3499 14.3322 10.6744 17.0705 8.78254L18.9976 7.4509L19.5697 8.00842C19.8843 8.31489 20.1655 8.76627 20.1944 9.0111C20.3372 10.2227 22.5811 11.193 24.6704 10.9467C27.2408 10.6436 29.3432 8.71389 31.1968 4.95632C32.2589 2.80273 32.8151 2.33494 33.503 3.01581ZM38.5798 16.3558C39.5441 18.7542 42.4243 20.4436 44.5995 19.8868C46.1073 19.5009 47.3814 18.5375 48.1295 17.2185C49.1919 15.345 49.7479 15.2855 50.9794 16.9131C52.0794 18.3665 54.6069 20.1585 56.4105 20.7636C60.9544 22.2874 65.5538 20.8905 68.9032 16.9696C69.6696 16.0722 70.4582 15.3189 70.6552 15.2957C70.8525 15.2724 71.3737 15.7784 71.8136 16.4202C72.9386 18.0611 75.1327 19.7201 76.9964 20.3391C78.3496 20.7883 78.9287 20.8249 80.9409 20.5877C82.9548 20.3503 83.5073 20.1806 84.7237 19.426C85.507 18.9399 86.718 17.8602 87.4152 17.0264C88.678 15.5158 89.2199 15.3144 89.3375 16.3121C89.4391 17.1741 87.0494 19.93 85.1915 21.0931C83.6362 22.0671 83.3173 22.166 80.7639 22.467C78.1927 22.7702 77.8943 22.7493 76.2097 22.1493C74.3741 21.4957 72.8488 20.5047 71.4406 19.0504L70.6555 18.2395L69.4287 19.4732C66.1631 22.7568 61.6797 24.1957 57.407 23.3314C55.2848 22.9019 53.5912 22.0858 51.6218 20.5431L49.7683 19.0914L49.0058 19.8288C45.8087 22.9201 41.0353 22.9402 38.3253 19.8736L37.4852 18.9226L36.8811 19.6374C35.8424 20.8669 34.1708 21.7922 32.3692 22.1353C30.4026 22.5099 28.8684 22.3422 27.4294 21.5956L26.4026 21.063L25.108 21.9362C23.8723 22.7695 23.6415 22.8291 20.013 23.2487C16.4286 23.6633 15.8916 23.6538 10.5745 23.0809C3.03432 22.2683 2.20798 22.0898 2.10929 21.2527C2.03381 20.6124 2.07285 20.5943 3.87169 20.4263C5.64477 20.2605 6.87275 20.3345 14.1739 21.0469C18.6352 21.482 21.9567 21.1361 23.8115 20.0434C24.5245 19.6233 25.2245 19.0997 25.3673 18.8798C25.7505 18.2896 26.7127 18.2728 27.3569 18.8446C28.9092 20.2227 32.3078 20.3031 34.3348 19.0099C35.0154 18.5758 35.7141 17.7938 36.1915 16.9326C37.1807 15.1473 38.013 14.9464 38.5798 16.3558Z" fill="#2b5c0b"/>
</svg>
