<svg id="Capa_1" data-name="Capa 1" xmlns="http://www.w3.org/2000/svg" xmlns:xlink="http://www.w3.org/1999/xlink" viewBox="0 0 512 444.45"><defs><style>.cls-1{fill:url(#Безымянный_градиент_7);}.cls-17,.cls-2{fill:#2626bb;}.cls-16,.cls-2{opacity:0.1;isolation:isolate;}.cls-3{fill:#8eb943;}.cls-4{fill:#83a33d;}.cls-5{fill:#fff;}.cls-6{fill:#2c5209;}.cls-7{fill:#d1ddff;}.cls-8{fill:#5bc8ab;}.cls-9{fill:#dbfced;}.cls-10{fill:#96ffd1;}.cls-11{fill:#ff7eb7;}.cls-12{fill:#f9dc26;}.cls-13{fill:#ffc3de;}.cls-14{fill:#ff5ba7;}.cls-15{fill:#8db843;}</style><linearGradient id="Безымянный_градиент_7" x1="108.13" y1="55.77" x2="406.44" y2="354.09" gradientTransform="matrix(1, 0, 0, -1, 0, 512)" gradientUnits="userSpaceOnUse"><stop offset="0.05" stop-color="#53900f"/><stop offset="1" stop-color="#f9dc26"/></linearGradient></defs><path class="cls-1" d="M364.82,48.44C295.73,21.4,200,31.67,147.16,80c-37.34,34.08-8.44,43.8,17,106.17C182.6,231.26,0,225,0,306.61c0,94.3,132.25,76.43,181.33,87.22,75,16.5,140.5,78.24,220.67,70.1,69.79-7.08,96.4-61.85,106.11-124.64,18.08-117-26.33-245.09-143.29-290.85Z" transform="translate(0 -33.78)"/><path class="cls-2" d="M431.3,304.08H383.13A131.67,131.67,0,0,0,370,205.85V94.22a30,30,0,0,0-30-30H172a30,30,0,0,0-30,30v46.33a74,74,0,1,0-16.29,147A130.45,130.45,0,0,0,142,336.28V448.22a30,30,0,0,0,30,30H340a30,30,0,0,0,30-30V429h61.3a10,10,0,0,0,10-10v-105a10,10,0,0,0-10-10Z" transform="translate(0 -33.78)"/><path class="cls-3" d="M370,70.22v354a30,30,0,0,1-30,30H172a30,30,0,0,1-30-30v-354a30,30,0,0,1,30-30h32.73l18.28,5h66l18.28-5H340A30,30,0,0,1,370,70.22Z" transform="translate(0 -33.78)"/><path class="cls-4" d="M370,304.08V424.22a29.48,29.48,0,0,1-.39,4.82H326.35a10,10,0,0,1-10-10v-105a10,10,0,0,1,10-10Z" transform="translate(0 -33.78)"/><path class="cls-4" d="M370,205.83V336.28a131.37,131.37,0,0,1-228,0V205.83a131.37,131.37,0,0,1,228,0Z" transform="translate(0 -33.78)"/><path class="cls-5" d="M328.14,92.36H277.55a5,5,0,0,1,0-10h50.59a5,5,0,0,1,0,10Z" transform="translate(0 -33.78)"/><path class="cls-6" d="M204.73,40.22l6.92,20.25A12,12,0,0,0,223,68.59h66a12,12,0,0,0,11.35-8.12l6.92-20.25Z" transform="translate(0 -33.78)"/><circle class="cls-5" cx="180.5" cy="53.59" r="5"/><circle class="cls-5" cx="196.29" cy="53.59" r="5"/><circle class="cls-5" cx="212.07" cy="53.59" r="5"/><path class="cls-7" d="M285.29,428.67H226.71a5,5,0,1,1,0-10h58.58a5,5,0,0,1,0,10Z" transform="translate(0 -33.78)"/><circle class="cls-8" cx="256" cy="213.28" r="131.32"/><path class="cls-4" d="M204.94,213.71a74,74,0,0,1-73.85,74A131.53,131.53,0,0,1,168,149.62,74,74,0,0,1,204.94,213.71Z" transform="translate(0 -33.78)"/><path class="cls-9" d="M336.78,163.19q9.2-1.37,17.65-3-4.24-4.8-8.93-9.17c-4.52.79-9.19,1.53-14,2.19-1.6-2.77-3.25-5.5-5-8.12a124.54,124.54,0,0,0-12.43-15.78,130.59,130.59,0,0,0-32.14-11c14.7,7,27.78,19.6,38.09,36.3-10.62,1.2-21.77,2.1-33.26,2.68q-1-5.44-2.24-10.5Q280.11,128,274.38,117a133.07,133.07,0,0,0-13.33-1.18,33,33,0,0,1,3.14,4.74c3.64,6.53,7.09,16.44,10,28.65.64,2.73,1.25,5.58,1.83,8.49q-9.89.33-20,.33t-20-.33c.58-2.91,1.19-5.76,1.83-8.49,4.45-18.85,9.35-28.74,13.16-33.39A133.81,133.81,0,0,0,237.62,117q-5.73,11-10.16,29.76c-.8,3.37-1.54,6.87-2.25,10.5-11.48-.58-22.63-1.48-33.25-2.68,10.31-16.7,23.39-29.35,38.09-36.3a130.31,130.31,0,0,0-32.14,11,124.54,124.54,0,0,0-12.43,15.78c-1.75,2.62-3.39,5.35-5,8.12-4.8-.66-9.47-1.4-14-2.19-3.12,2.91-6.11,6-8.93,9.17q8.44,1.68,17.65,3c-11,22.92-17.23,50-17.92,78.54H124.8c-.07,1.77-.12,3.54-.12,5.33s0,3.56.12,5.33h32.5c.69,28.52,6.92,55.62,17.92,78.54q-9.19,1.36-17.65,3,4.25,4.8,8.93,9.17c4.52-.79,9.19-1.53,14-2.19,1.6,2.77,3.24,5.5,5,8.12a123.83,123.83,0,0,0,12.43,15.78,130.31,130.31,0,0,0,32.14,11c-14.7-6.94-27.78-19.6-38.1-36.3,10.62-1.2,21.77-2.1,33.26-2.68.71,3.63,1.45,7.14,2.25,10.5q4.42,18.78,10.16,29.76A133.07,133.07,0,0,0,251,378.27a33.84,33.84,0,0,1-3.15-4.74c-3.64-6.53-7.08-16.43-10-28.64-.64-2.74-1.25-5.59-1.83-8.5q9.88-.33,20-.33t20,.33c-.58,2.91-1.19,5.76-1.83,8.5-4.45,18.85-9.36,28.74-13.16,33.38a131.16,131.16,0,0,0,13.38-1.18q5.72-11,10.16-29.76c.79-3.36,1.54-6.87,2.25-10.5,11.48.58,22.63,1.48,33.25,2.68-10.31,16.7-23.39,29.36-38.1,36.3a130.52,130.52,0,0,0,32.15-11,123.83,123.83,0,0,0,12.43-15.78c1.74-2.62,3.39-5.35,5-8.12,4.8.66,9.47,1.4,14,2.19q4.69-4.36,8.94-9.17c-5.63-1.11-11.53-2.13-17.65-3,11-22.92,17.23-50,17.92-78.54h32.5c.07-1.77.12-3.54.12-5.33s-.05-3.56-.12-5.33H354.7c-.69-28.52-6.92-55.62-17.92-78.54ZM186.31,329.42c-10.88-21.47-17.61-48.09-18.35-77h49.72c.23,26.67,2.19,52.07,5.67,73.86-12.84.67-25.28,1.73-37,3.17Zm31.37-87.69H168c.74-28.94,7.47-55.56,18.35-77,11.76,1.44,24.21,2.5,37.05,3.18C219.88,189.66,217.91,215.06,217.68,241.73Zm60.23,84c-7.22-.25-14.54-.38-21.91-.38s-14.69.13-21.91.38c-3.52-21.49-5.51-46.75-5.75-73.38h55.32C283.42,279,281.43,304.28,277.91,325.77Zm-49.57-84c.24-26.63,2.23-51.89,5.75-73.39,7.22.26,14.54.38,21.91.38s14.69-.12,21.91-.38c3.52,21.5,5.51,46.76,5.75,73.39Zm97.35,87.69c-11.76-1.44-24.2-2.5-37-3.17,3.48-21.79,5.44-47.19,5.67-73.86H344C343.3,281.33,336.57,308,325.69,329.42Zm-31.37-87.69c-.23-26.67-2.19-52.07-5.67-73.86,12.84-.68,25.28-1.74,37-3.18,10.88,21.48,17.61,48.1,18.35,77Z" transform="translate(0 -33.78)"/><path class="cls-10" d="M194,252.39a73.55,73.55,0,0,0,5.41-10.66H168c.74-28.94,7.47-55.56,18.35-77h.07a74.49,74.49,0,0,0-14.89-12.88c-1.68-.27-3.35-.55-5-.84q-4.68,4.36-8.93,9.17,8.44,1.68,17.65,3c-11,22.93-17.23,50-17.92,78.54H124.8c-.07,1.77-.12,3.54-.12,5.33s0,3.56.12,5.33h32.5a212,212,0,0,0,2.75,29.36,72.69,72.69,0,0,0,10-5.21A203.07,203.07,0,0,1,168,252.39Z" transform="translate(0 -33.78)"/><circle class="cls-11" cx="130.96" cy="155.94" r="73.99"/><path class="cls-5" d="M166.83,166.11a5,5,0,0,0-3.83-1.79H111.18l-2.75-8.51a5,5,0,0,0-4.75-3.46H90.91a5,5,0,0,0,0,10H100l10.46,32.38h0a5,5,0,1,0,0,10h47.08a5,5,0,0,0,4.92-4.12l5.43-30.41a5,5,0,0,0-1.09-4.09Zm-13.45,28.62H121l-6.6-20.41H157Z" transform="translate(0 -33.78)"/><circle class="cls-5" cx="117.57" cy="188.18" r="7.5"/><circle class="cls-5" cx="153.01" cy="188.18" r="7.5"/><path class="cls-3" d="M431.3,405H404l-5-5H358.67l-5,5H326.35a10,10,0,0,1-10-10v-85.8h125V395A10,10,0,0,1,431.3,405Z" transform="translate(0 -33.78)"/><path class="cls-4" d="M441.3,309.24v16a15.62,15.62,0,0,1-31.24,0,15.62,15.62,0,0,1-31.24,0,15.62,15.62,0,0,1-31.24,0,15.62,15.62,0,1,1-31.23,0v-16Z" transform="translate(0 -33.78)"/><path class="cls-8" d="M404,405H353.66V349.56a5,5,0,0,1,5-5H399a5,5,0,0,1,5,5Z" transform="translate(0 -33.78)"/><path class="cls-12" d="M374,344.56h9.59V405H374Z" transform="translate(0 -33.78)"/><path class="cls-11" d="M332,324.86a15.62,15.62,0,0,1-15.61-15.62V290.08a10,10,0,0,1,10-10h21.23v29.16A15.61,15.61,0,0,1,332,324.86Z" transform="translate(0 -33.78)"/><path class="cls-13" d="M363.2,324.86a15.63,15.63,0,0,1-15.62-15.62V280.08h31.24v29.16a15.62,15.62,0,0,1-15.62,15.62Z" transform="translate(0 -33.78)"/><path class="cls-11" d="M394.44,324.86a15.63,15.63,0,0,1-15.62-15.62V280.08h31.24v29.16a15.62,15.62,0,0,1-15.62,15.62Z" transform="translate(0 -33.78)"/><path class="cls-13" d="M425.68,324.86a15.63,15.63,0,0,1-15.62-15.62V280.08H431.3a10,10,0,0,1,10,10v19.16a15.62,15.62,0,0,1-15.62,15.62Z" transform="translate(0 -33.78)"/><path class="cls-6" d="M431.3,275.08H389.42A136.27,136.27,0,0,0,375,180.63V70.22a35,35,0,0,0-35-35H287.78a5,5,0,0,0,0,10H340a25,25,0,0,1,25,25v95.07a136.22,136.22,0,0,0-180.95-34A78.81,78.81,0,0,0,147,112.37V70.22a25,25,0,0,1,25-25h86.24a5,5,0,0,0,0-10H172a35,35,0,0,0-35,35V111c-2-.15-4-.25-6-.25a79,79,0,0,0-9.65,157.36,136.39,136.39,0,0,0,190,103.57V395a15,15,0,0,0,15,15H365v14.18a25,25,0,0,1-25,25H172a25,25,0,0,1-25-25V345a5,5,0,0,0-10,0v79.26a35,35,0,0,0,35,35H340a35,35,0,0,0,35-35V410h56.3a15,15,0,0,0,15-15v-105a15,15,0,0,0-15-15ZM62,189.72a69,69,0,1,1,69,69,69.06,69.06,0,0,1-69-69ZM256,373.37A126.44,126.44,0,0,1,131.53,268.69a78.92,78.92,0,0,0,59.62-130,126.38,126.38,0,0,1,188,136.42H326.34a15,15,0,0,0-15,15v70.54A124.67,124.67,0,0,1,256,373.37ZM436.3,395a5,5,0,0,1-5,5h-105a5,5,0,0,1-5-5v-105a5,5,0,0,1,5-5h105a5,5,0,0,1,5,5Z" transform="translate(0 -33.78)"/><path class="cls-11" d="M351.77,189.65c0,13.65-13,32.86-19.78,41.94a5,5,0,0,1-8,0c-6.78-9.08-19.78-28.29-19.78-41.94a23.79,23.79,0,1,1,47.57,0Z" transform="translate(0 -33.78)"/><circle class="cls-5" cx="327.98" cy="155.1" r="12.57"/><path class="cls-14" d="M410.06,189.82a5,5,0,0,1-5-5,5.5,5.5,0,0,0-5.5-5.5,5,5,0,0,1,0-10,5.5,5.5,0,0,0,5.5-5.5,5,5,0,0,1,10,0,5.51,5.51,0,0,0,5.5,5.5,5,5,0,0,1,0,10,5.5,5.5,0,0,0-5.5,5.5A5,5,0,0,1,410.06,189.82Z" transform="translate(0 -33.78)"/><path class="cls-14" d="M83.1,341.27a5,5,0,0,1-5-5,5.51,5.51,0,0,0-5.5-5.5,5,5,0,0,1,0-10,5.51,5.51,0,0,0,5.5-5.5,5,5,0,0,1,10,0,5.51,5.51,0,0,0,5.5,5.5,5,5,0,1,1,0,10,5.51,5.51,0,0,0-5.5,5.5A5,5,0,0,1,83.1,341.27Z" transform="translate(0 -33.78)"/><path class="cls-8" d="M93.6,78.38a5,5,0,0,1-3.54-1.46l-10.5-10.5a5,5,0,0,1,0-7.07l10.5-10.5a5,5,0,0,1,7.07,0l10.5,10.5a5,5,0,0,1,0,7.07l-10.5,10.5A5,5,0,0,1,93.6,78.38Zm-3.43-15.5,3.43,3.43L97,62.88,93.6,59.45Z" transform="translate(0 -33.78)"/><path class="cls-15" d="M110.07,447.81a5,5,0,0,1-3.53-1.46L96,435.85a5,5,0,0,1,0-7.07l10.5-10.5a5,5,0,0,1,7.07,0l10.5,10.5a5,5,0,0,1,0,7.07l-10.5,10.5A5,5,0,0,1,110.07,447.81Zm-3.43-15.5,3.43,3.43,3.43-3.43-3.43-3.43Z" transform="translate(0 -33.78)"/><path class="cls-15" d="M429.24,245a5,5,0,0,1-3.54-1.47L415.2,233a5,5,0,0,1,0-7.07l10.5-10.5a5,5,0,0,1,7.07,0l10.5,10.5a5,5,0,0,1,0,7.07l-10.5,10.5A5,5,0,0,1,429.24,245Zm-3.43-15.5,3.43,3.42,3.43-3.42L429.24,226Z" transform="translate(0 -33.78)"/><path class="cls-3" d="M296.94,202.62a2.47,2.47,0,0,1,3.85.85c13.27,29,32.59,37.93,32.59,65.48a51.09,51.09,0,0,1-1.58,12.7,35.78,35.78,0,0,1-68.63,1.83A48.69,48.69,0,0,1,261.1,269c0-33.37,27.24-59.06,35.84-66.33Z" transform="translate(0 -33.78)"/><g class="cls-16"><path class="cls-17" d="M311,296c-.45,3.73-1,7.15-1.68,10.19a35.33,35.33,0,0,1-6.38,1.63,110.24,110.24,0,0,0-6.35-70.05,2.93,2.93,0,1,1,5.36-2.38A115.57,115.57,0,0,1,311,296Z" transform="translate(0 -33.78)"/></g><path class="cls-3" d="M211.74,247a2.91,2.91,0,0,1,3.6-2.95c36.61,8.87,59-2.54,84.52,17.58a60.38,60.38,0,0,1,10.63,10.73,42.24,42.24,0,0,1-48.42,65,57.49,57.49,0,0,1-15-8.69c-30.94-24.36-34.88-68.39-35.35-81.66Z" transform="translate(0 -33.78)"/><g class="cls-16"><path class="cls-17" d="M244.61,275.93a109.66,109.66,0,0,1,49.45,30.23,100.33,100.33,0,0,1,14.48,19.37c.47-.53.92-1.08,1.37-1.65a40.76,40.76,0,0,0,2.45-3.45,108.88,108.88,0,0,0-13.88-18.12,115.52,115.52,0,0,0-52.25-32,2.93,2.93,0,0,0-1.62,5.64Z" transform="translate(0 -33.78)"/></g></svg>